<svg width="1131" height="54" viewBox="0 0 1131 54" fill="none" xmlns="http://www.w3.org/2000/svg">
<path fill-rule="evenodd" clip-rule="evenodd" d="M64.5593 4.29968C54.3425 5.80775 49.1064 11.2725 49.1496 20.3814C49.1938 29.6392 54.0274 34.9062 63.9992 36.5619C68.0264 37.2308 74.9764 37.0048 78.6055 36.0869C84.829 34.5131 88.7664 31.0396 90.2925 25.7766C90.5518 24.8826 90.6775 24.0642 90.5721 23.9572C90.4666 23.8505 87.3895 23.7775 83.7343 23.7948L77.0884 23.8263L76.5268 25.1524C75.3505 27.9293 72.3705 29.4295 68.9019 28.991C65.3642 28.5437 63.2077 26.6321 62.3347 23.1703C61.4906 19.8236 62.1702 16.1886 64.0057 14.2311C65.8867 12.2253 69.5117 11.3251 72.4588 12.1322C74.4042 12.6648 76.4129 14.7328 76.6904 16.4883L76.8978 17.8012H83.836H90.7742L90.5988 16.6208C89.5653 9.67158 84.4761 5.521 75.474 4.2852C72.66 3.89898 67.2252 3.90622 64.5593 4.29968ZM0.20744 4.79072C0.0933014 4.90593 0 11.9883 0 20.5293V36.058H5.59809H11.1962V24.0441C11.1962 17.4367 11.264 12.0991 11.3467 12.1828C11.4297 12.2666 13.0917 17.6375 15.0402 24.118L18.5828 35.9006L23.442 35.9872C26.9013 36.0489 28.3014 35.9714 28.3014 35.7177C28.3014 35.5219 29.8761 30.1154 31.8002 23.7032L35.299 12.0446L35.3805 24.0513L35.462 36.058H41.0564H46.6507V20.3194V4.58077H37.8079C29.654 4.58077 28.953 4.62358 28.8071 5.13162C27.063 11.1973 23.5244 23.068 23.3953 23.2848C23.1552 23.6887 23.0806 23.4476 20.3571 13.4731L17.9294 4.58077H9.17215C4.35562 4.58077 0.321268 4.6752 0.20744 4.79072ZM89.9432 5.91855C90.5322 6.65418 93.2178 10.0477 95.9114 13.4592L100.808 19.6621L94.5181 27.1518C91.0585 31.2712 87.9456 34.9604 87.6004 35.3497L86.9728 36.058L94.5691 36.0473L102.165 36.0369L104.809 32.0827C106.262 29.908 107.545 28.0706 107.658 27.9998C107.771 27.9293 109.031 29.71 110.457 31.9574L113.05 36.0435L120.63 36.0507L128.21 36.058L126.829 34.4054C118.09 23.9424 114.722 19.642 114.991 19.291C115.154 19.0776 117.829 15.7498 120.934 11.8958C124.039 8.04169 126.579 4.81654 126.579 4.72871C126.579 4.64089 123.405 4.6069 119.525 4.65348L112.471 4.73816L110.238 7.87108C109.01 9.59446 107.881 11.0408 107.729 11.0855C107.577 11.1302 106.542 9.68512 105.431 7.87423L103.409 4.58172L96.1409 4.5814L88.8724 4.58077L89.9432 5.91855ZM11.1293 45.1826C11.3473 46.6866 11.0525 47.1386 10.131 46.7137C8.52837 45.9746 7.12605 47.9488 7.62397 50.2429C7.89641 51.4982 9.01385 52.0553 10.2849 51.5696C10.7909 51.3767 11.1962 51.3496 11.1962 51.5092C11.1962 51.6672 11.3361 51.7966 11.5072 51.7966C11.6972 51.7966 11.8182 50.3276 11.8182 48.0193C11.8182 45.0907 11.7255 44.2421 11.4055 44.2421C11.1243 44.2421 11.0363 44.5417 11.1293 45.1826ZM79.9282 45.6696C79.9282 47.0086 79.8887 47.076 79.2944 46.7539C77.2691 45.6566 75.34 49.3398 76.9796 51.1737C77.577 51.8419 79.1348 52.0169 79.4785 51.4544C79.629 51.208 79.7821 51.208 80.0256 51.4544C80.74 52.1775 80.8612 51.6786 80.8612 48.0193C80.8612 44.8716 80.7835 44.2421 80.3947 44.2421C80.0486 44.2421 79.9282 44.6107 79.9282 45.6696ZM106.053 48.0455C106.053 50.9477 106.145 51.8183 106.441 51.7192C106.68 51.6398 106.865 50.8677 106.92 49.7257C107.02 47.6407 107.576 46.8673 108.584 47.4131C109.057 47.6693 109.163 48.0993 109.163 49.7616C109.163 51.3606 109.263 51.7966 109.629 51.7966C109.996 51.7966 110.096 51.3594 110.096 49.7506C110.096 48.0942 109.972 47.5793 109.445 47.0461C108.836 46.4291 108.448 46.4001 107.294 46.8865C106.908 47.0492 106.845 46.833 106.937 45.6629C107.026 44.5232 106.95 44.2421 106.551 44.2421C106.121 44.2421 106.053 44.768 106.053 48.0455ZM0.62201 48.1767C0.62201 50.3801 0.743612 51.7966 0.933014 51.7966C1.12242 51.7966 1.24402 50.3801 1.24402 48.1767C1.24402 45.9733 1.12242 44.5568 0.933014 44.5568C0.743612 44.5568 0.62201 45.9733 0.62201 48.1767ZM13.0622 45.029C13.0622 45.2887 13.2721 45.5012 13.5287 45.5012C13.7853 45.5012 13.9952 45.2887 13.9952 45.029C13.9952 44.7693 13.7853 44.5568 13.5287 44.5568C13.2721 44.5568 13.0622 44.7693 13.0622 45.029ZM19.1414 45.6906C18.8547 47.2378 19.1725 47.4175 19.7448 46.0319C20.3214 44.6346 20.3235 44.5568 19.7833 44.5568C19.5336 44.5568 19.2627 45.0353 19.1414 45.6906ZM46.3739 44.9963C45.3122 45.5918 44.8083 46.69 44.7956 48.437C44.7866 49.7112 44.9343 50.1078 45.7112 50.8941C46.5207 51.7135 46.8246 51.8196 48.1215 51.7355C48.9375 51.6826 49.5667 51.4995 49.5197 51.3285C49.4728 51.1579 49.0106 51.0629 48.4928 51.1179C46.3997 51.3402 44.9623 49.0754 45.8427 46.9425C46.3674 45.6721 47.5542 45.0406 48.9055 45.3129C49.5291 45.4388 49.7608 45.3595 49.7608 45.0211C49.7608 44.4209 47.4301 44.4035 46.3739 44.9963ZM81.937 44.8927C81.6509 45.3614 81.9827 45.616 82.578 45.385C82.8529 45.2783 82.9907 45.0482 82.884 44.8738C82.6321 44.4611 82.1952 44.4696 81.937 44.8927ZM93.3014 48.1767V51.7966H95.1933C96.5695 51.7966 97.0497 51.6893 96.9545 51.4031C96.827 51.0201 96.5539 50.9552 94.7787 50.8856C93.9937 50.8551 93.9234 50.7487 93.9234 49.5932V48.3341H95.323C96.0927 48.3341 96.7225 48.1925 96.7225 48.0193C96.7225 47.8462 96.0927 47.7046 95.323 47.7046C93.9309 47.7046 93.9234 47.6986 93.9234 46.6029C93.9234 45.5071 93.9309 45.5012 95.323 45.5012C96.3595 45.5012 96.7225 45.3787 96.7225 45.029C96.7225 44.6664 96.325 44.5568 95.012 44.5568H93.3014V48.1767ZM25.8134 48.3341C25.8134 52.5316 26.3735 53.0245 26.5013 48.9397L26.5909 46.0825L28.2887 48.9397C29.2226 50.5111 30.0972 51.7966 30.2325 51.7966C30.3678 51.7966 30.4785 50.2385 30.4785 48.3341C30.4785 46.0208 30.3646 44.8716 30.1354 44.8716C29.904 44.8716 29.8282 45.7401 29.9022 47.5472C29.9625 49.0187 29.942 50.219 29.8565 50.2139C29.7709 50.2092 29.0267 49.0052 28.2025 47.5384C26.1431 43.8731 25.8134 43.983 25.8134 48.3341ZM39.5754 45.2569C38.7089 45.6784 38.6473 46.2465 39.4976 45.9733C40.0904 45.7829 40.1196 45.9167 40.1196 48.8113C40.1196 51.1013 40.2154 51.8167 40.5084 51.7182C40.9923 51.5555 41.0666 45.1307 40.5861 45.0007C40.4151 44.9544 39.9604 45.0699 39.5754 45.2569ZM84.2823 46.1307C84.2823 46.4804 84.0749 46.7602 83.8158 46.7602C83.5592 46.7602 83.3493 46.9019 83.3493 47.075C83.3493 47.2481 83.5527 47.3898 83.8015 47.3898C84.1436 47.3898 84.2764 47.9079 84.3457 49.5145C84.435 51.5718 84.4649 51.6424 85.2931 51.7387C86.2743 51.8529 86.4609 51.3232 85.5263 51.0758C84.9979 50.936 84.9043 50.6464 84.9043 49.1506C84.9043 47.5997 84.9783 47.3898 85.5263 47.3898C85.8684 47.3898 86.1483 47.2481 86.1483 47.075C86.1483 46.9019 85.8684 46.7602 85.5263 46.7602C85.1117 46.7602 84.9043 46.5503 84.9043 46.1307C84.9043 45.7844 84.7644 45.5012 84.5933 45.5012C84.4222 45.5012 84.2823 45.7844 84.2823 46.1307ZM4.1205 46.7703C3.73548 46.9268 3.20428 46.9711 2.94055 46.8685C2.52847 46.7086 2.47342 47.0303 2.55211 49.1355C2.61213 50.7487 2.77665 51.6332 3.0323 51.7188C3.31438 51.8133 3.42105 51.3301 3.42105 49.9567C3.42105 48.1525 3.88787 47.075 4.66974 47.075C5.30854 47.075 5.90909 48.5582 5.90909 50.1355C5.90909 51.049 6.04904 51.7966 6.2201 51.7966C6.39768 51.7966 6.5311 50.8583 6.5311 49.6111C6.5311 47.7093 6.44122 47.3618 5.83974 46.9356C5.05818 46.3813 5.0728 46.3828 4.1205 46.7703ZM15.628 46.6538C14.9705 46.9223 15.1985 47.4741 15.8911 47.2906C16.8064 47.0486 17.4163 47.3533 17.4163 48.053C17.4163 48.4304 17.1976 48.6489 16.8198 48.6489C15.2868 48.6489 14.3006 49.98 14.9388 51.1872C15.1994 51.6798 15.5549 51.7827 16.8048 51.7277L18.3493 51.6597V49.5425C18.3493 47.7118 18.256 47.3593 17.6579 46.9356C16.9641 46.4436 16.3514 46.3586 15.628 46.6538ZM20.5263 47.075C19.5955 48.0171 19.7177 48.375 21.3676 49.5409C22.5833 50.4003 22.4465 51.2533 21.1154 51.112C20.6289 51.0603 20.1923 51.1579 20.1453 51.3285C20.0191 51.7872 22.0484 51.9014 22.5681 51.4648C23.3922 50.7726 23.1024 49.6244 21.9258 48.9218C21.3272 48.5645 20.8373 48.0886 20.8373 47.8645C20.8373 47.3596 21.6127 47.0335 22.2368 47.2758C22.4934 47.3756 22.7034 47.3155 22.7034 47.1424C22.7034 46.8333 21.9967 46.4455 21.4338 46.4455C21.2768 46.4455 20.8684 46.7288 20.5263 47.075ZM51.429 46.8068C50.0404 47.5015 49.6762 49.6288 50.7165 50.9672C52.1005 52.7481 54.7368 51.5325 54.7368 49.1135C54.7368 47.2765 52.9626 46.0391 51.429 46.8068ZM56.9832 46.9356C56.5957 47.2101 56.2919 47.2793 56.2919 47.093C56.2919 46.9101 56.1171 46.7599 55.9031 46.7596C55.6161 46.759 55.5408 47.4175 55.6157 49.2778C55.7327 52.1844 56.2919 52.7201 56.2919 49.9259C56.2919 48.3508 56.4007 47.9778 56.9817 47.5661C58.0077 46.8386 58.5526 47.5698 58.7189 49.8985C58.8937 52.344 59.4019 52.3676 59.4019 49.9303C59.4019 48.6536 59.5562 47.9082 59.8905 47.5695C60.1595 47.2976 60.4295 47.075 60.4904 47.075C60.5514 47.075 60.8213 47.2976 61.0904 47.5695C61.4262 47.9095 61.5789 48.6561 61.5789 49.9567C61.5789 51.3298 61.6856 51.8136 61.9677 51.7198C62.4949 51.5445 62.6392 49.3851 62.2187 47.9595C61.8184 46.6019 60.9377 46.1798 59.9176 46.8562C59.3198 47.2525 59.1348 47.2563 58.6291 46.8824C57.8904 46.3356 57.8264 46.3375 56.9832 46.9356ZM65 46.7577C64.7434 46.9246 64.2887 46.9834 63.9892 46.8893C63.5019 46.7357 63.445 46.9834 63.445 49.2573C63.445 51.3046 63.5355 51.7966 63.9115 51.7966C64.2738 51.7966 64.378 51.3795 64.378 49.9303C64.378 48.6536 64.5322 47.9082 64.8666 47.5695C65.933 46.4905 66.555 47.3171 66.555 49.8135C66.555 50.9256 66.6916 51.7966 66.866 51.7966C67.0371 51.7966 67.177 51.1683 67.177 50.4006C67.177 47.8978 68.152 46.533 69.1895 47.5831C69.5093 47.9066 69.6651 48.6756 69.6651 49.9303C69.6651 50.9646 69.8038 51.7966 69.9761 51.7966C70.1537 51.7966 70.2871 50.8548 70.2871 49.6004C70.2871 47.6051 70.2159 47.357 69.5096 46.8887C68.8129 46.4266 68.6577 46.4222 68.0189 46.8462C67.4072 47.2516 67.2215 47.257 66.7152 46.8824C66.0241 46.3709 65.6394 46.3429 65 46.7577ZM72.5621 46.7555C71.0805 47.3747 70.7132 49.9457 71.9398 51.1123C73.6661 52.7535 76.1085 51.3106 75.7832 48.8415C75.6945 48.1685 75.4361 47.4342 75.2094 47.2097C74.63 46.6368 73.3657 46.42 72.5621 46.7555ZM103.098 46.809C102.084 47.3703 101.699 48.0672 101.699 49.3385C101.699 50.8882 102.561 51.7966 104.031 51.7966C104.63 51.7966 105.12 51.6549 105.12 51.4818C105.12 51.3087 104.717 51.167 104.225 51.167C103.214 51.167 102.776 50.7582 102.471 49.5287C102.306 48.8617 102.436 48.5031 103.082 47.8494C103.573 47.353 104.097 47.0936 104.384 47.205C105.049 47.4634 105.614 47.0712 105.075 46.7256C104.511 46.3639 103.852 46.3916 103.098 46.809ZM111.884 46.6623C111.585 46.7417 111.34 46.9529 111.34 47.1323C111.34 47.3164 111.655 47.3778 112.067 47.2733C112.909 47.0593 114.027 47.7527 113.701 48.2863C113.58 48.4858 113.165 48.6489 112.78 48.6489C111.585 48.6489 110.968 49.3404 111.082 50.5514L111.184 51.6392H112.875H114.565L114.494 49.5932C114.437 47.9687 114.29 47.4339 113.78 46.9963C113.133 46.442 112.884 46.3979 111.884 46.6623ZM117.249 46.7577C116.992 46.9246 116.537 46.9834 116.238 46.8893C115.751 46.7357 115.694 46.9834 115.694 49.2573C115.694 51.3046 115.784 51.7966 116.16 51.7966C116.527 51.7966 116.627 51.3606 116.627 49.7616C116.627 48.0115 116.719 47.6769 117.285 47.3703C118.308 46.8163 118.893 47.6532 119.054 49.8985C119.24 52.5045 119.737 52.2955 119.737 49.6111C119.737 47.7093 119.647 47.3618 119.045 46.9356C118.249 46.3706 117.899 46.3359 117.249 46.7577ZM122.012 46.7621C120.593 47.3416 120.155 50.0169 121.292 51.167C121.986 51.8699 122.597 51.9543 123.489 51.4708C124.007 51.1903 124.091 51.2511 124.091 51.9042C124.091 52.9874 123.355 53.485 122.067 53.2735C120.969 53.0935 120.566 53.4567 121.473 53.8089C122.149 54.0718 123.547 54.0406 123.994 53.7526C124.669 53.3179 125.024 51.7821 125.024 49.2913C125.024 46.9403 124.992 46.8276 124.324 46.8443C123.939 46.854 123.414 46.7769 123.158 46.6734C122.901 46.5695 122.386 46.6098 122.012 46.7621ZM126.633 47.1738C125.732 48.1452 125.703 50.2803 126.579 51.167C127.236 51.8322 129.689 52.0802 129.689 51.4818C129.689 51.3087 129.207 51.167 128.618 51.167C127.873 51.167 127.404 50.9599 127.076 50.4862C126.413 49.5287 126.701 49.2784 128.463 49.2784C129.862 49.2784 130 49.2129 130 48.551C130 47.5963 128.918 46.4455 128.02 46.4455C127.63 46.4455 127.005 46.7735 126.633 47.1738ZM13.0622 49.2784C13.0622 51.3068 13.153 51.7966 13.5287 51.7966C13.9044 51.7966 13.9952 51.3068 13.9952 49.2784C13.9952 47.25 13.9044 46.7602 13.5287 46.7602C13.153 46.7602 13.0622 47.25 13.0622 49.2784ZM32.1666 47.415C31.2992 48.3848 31.376 50.4368 32.3084 51.2007C33.2526 51.9748 34.2376 51.9559 35.2571 51.1441C36.2193 50.3782 36.3813 48.5998 35.5923 47.46C34.938 46.5141 32.9948 46.4886 32.1666 47.415ZM82.1053 49.2784C82.1053 50.7475 82.235 51.7966 82.4163 51.7966C82.5976 51.7966 82.7273 50.7475 82.7273 49.2784C82.7273 47.8094 82.5976 46.7602 82.4163 46.7602C82.235 46.7602 82.1053 47.8094 82.1053 49.2784ZM87.3743 49.2797L88.2828 51.7994L87.5267 52.7091C86.6546 53.7579 86.5962 54 87.2157 54C87.8763 54 88.7266 52.5766 89.7479 49.76C90.2483 48.3804 90.7046 47.1408 90.7615 47.0058C90.8187 46.8707 90.6632 46.7602 90.4162 46.7602C90.1419 46.7602 89.7246 47.5094 89.3433 48.6866C88.6588 50.8 88.6441 50.7972 87.8753 48.4128C87.5668 47.4562 87.1578 46.7602 86.9041 46.7602C86.5663 46.7602 86.6739 47.3375 87.3743 49.2797ZM98.0132 47.969L98.7008 49.1777L97.987 50.3464C97.5946 50.9892 97.356 51.5986 97.4571 51.7006C97.7186 51.9656 98.53 51.2193 98.753 50.5092C99.0149 49.6735 99.2985 49.7556 99.9386 50.8523C100.242 51.3717 100.708 51.7966 100.975 51.7966C101.404 51.7966 101.408 51.7166 101.004 51.0884C99.6559 48.9882 99.6742 49.1317 100.599 47.9051C101.272 47.0117 101.352 46.7602 100.965 46.7602C100.692 46.7602 100.23 47.1295 99.9377 47.5805L99.4068 48.4011L98.8162 47.5805C98.4915 47.1295 98.0231 46.7602 97.7759 46.7602C97.4244 46.7602 97.4767 47.0253 98.0132 47.969ZM10.5742 47.7046C11.32 48.4594 11.3725 49.5132 10.7119 50.4673C10.1795 51.2372 9.3488 51.3748 8.77034 50.7893C8.22701 50.2394 8.31378 48.3196 8.91184 47.6507C9.56495 46.9201 9.80691 46.928 10.5742 47.7046ZM34.8568 47.5764C35.0829 47.8525 35.2679 48.5475 35.2679 49.121C35.2679 49.6945 35.0829 50.3896 34.8568 50.6656C34.2905 51.3562 33.0564 51.2958 32.6664 50.5583C31.6006 48.5422 33.5133 45.9384 34.8568 47.5764ZM53.7447 48.906C53.8732 50.2026 53.3233 51.167 52.4556 51.167C51.4445 51.167 51.0048 50.5809 51.0048 49.2334C51.0048 46.8644 53.5127 46.5648 53.7447 48.906ZM74.8268 48.5006C75.1344 49.7421 74.722 50.8199 73.8549 51.0399C72.7617 51.3178 72.1531 50.6804 72.1531 49.2576C72.1531 47.1049 74.328 46.4892 74.8268 48.5006ZM79.4396 47.5695C80.0156 48.1528 80.0906 50.2473 79.555 50.7893C78.6189 51.7368 77.1292 50.795 77.1292 49.2561C77.1292 48.3788 78.0454 47.075 78.6621 47.075C78.8207 47.075 79.1706 47.2976 79.4396 47.5695ZM123.489 47.4008C123.94 47.6447 124.091 48.064 124.091 49.0691C124.091 50.4897 123.682 51.167 122.823 51.167C121.504 51.167 120.923 48.3568 122.067 47.5103C122.77 46.9894 122.735 46.9922 123.489 47.4008ZM128.867 47.7681C129.322 48.499 129.022 48.7087 127.69 48.591C126.577 48.4927 126.569 48.4811 127.066 47.7659C127.63 46.9567 128.363 46.9576 128.867 47.7681ZM17.7273 49.614C17.7273 50.3379 17.0521 51.167 16.4624 51.167C15.7751 51.167 15.3867 50.479 15.6628 49.7506C15.8668 49.2123 17.7273 49.0889 17.7273 49.614ZM113.828 49.845C113.828 51.0116 112.146 51.7041 111.763 50.6949C111.445 49.8563 111.903 49.2784 112.885 49.2784C113.585 49.2784 113.828 49.4242 113.828 49.845ZM36.8973 50.756C36.5257 51.1321 36.6967 51.7966 37.1651 51.7966C37.4216 51.7966 37.6316 51.5926 37.6316 51.343C37.6316 50.817 37.1878 50.4623 36.8973 50.756Z" fill="#B1B5C4"/>
<path d="M651.051 4C641.041 4 633 12.0182 633 22C633 31.9818 641.041 40 651.051 40C661.062 40 669.103 31.9818 669.103 22C668.938 12.0182 660.897 4 651.051 4ZM652.692 24.9455C653.185 25.4364 653.513 25.9273 653.513 26.7455C653.513 28.0545 652.364 29.2 651.051 29.2C650.395 29.2 649.738 28.8727 649.246 28.3818C648.426 27.7273 647.441 27.2364 646.128 27.2364C644.815 27.2364 643.831 27.7273 643.01 28.3818L642.846 28.5455C642.354 28.8727 641.862 29.2 641.205 29.2C640.549 29.2 640.056 29.0364 639.564 28.5455C639.4 28.3818 639.4 28.3818 639.236 28.2182C639.236 28.2182 639.236 28.2182 639.236 28.0545L639.072 27.8909C639.072 27.7273 638.908 27.5636 638.908 27.4C638.908 27.2364 638.744 26.9091 638.744 26.7455C638.744 26.4182 638.744 26.2545 638.908 26.0909C638.908 25.9273 639.072 25.7636 639.072 25.6C639.072 25.6 639.072 25.4364 639.236 25.4364C639.236 25.4364 639.236 25.4364 639.236 25.2727C639.564 25.2727 639.564 25.2727 639.564 25.1091L639.728 24.9455C640.385 24.1273 640.877 23.1455 640.877 22C640.877 20.8545 640.549 19.8727 639.728 19.0545C639.4 18.5636 639.072 17.9091 639.072 17.0909C639.072 15.7818 640.221 14.6364 641.533 14.6364C642.846 14.6364 643.831 15.7818 643.831 17.0909C643.831 17.7455 643.503 18.4 643.01 18.8909C642.354 19.7091 641.862 20.8545 641.862 22C641.862 23.1455 642.354 24.2909 643.01 25.1091L643.174 25.2727C643.995 25.9273 644.979 26.4182 646.128 26.4182C647.277 26.4182 648.262 26.0909 649.082 25.2727C649.082 25.1091 649.246 25.1091 649.41 24.9455C650.067 24.1273 650.559 23.1455 650.559 22C650.559 20.8545 650.231 19.8727 649.41 19.0545C648.918 18.5636 648.59 17.9091 648.59 17.0909C648.59 15.7818 649.738 14.6364 651.051 14.6364C652.364 14.6364 653.513 15.7818 653.513 17.0909C653.513 17.7455 653.185 18.4 652.692 18.8909C652.036 19.7091 651.544 20.6909 651.544 22C651.544 23.1455 651.872 24.1273 652.692 24.9455ZM655.81 24.2909C654.497 24.2909 653.349 23.1455 653.349 21.8364C653.349 20.5273 654.497 19.3818 655.81 19.3818C657.123 19.3818 658.272 20.5273 658.272 21.8364C658.272 23.3091 657.123 24.2909 655.81 24.2909ZM662.21 24.9455C662.374 25.1091 662.374 25.1091 662.21 24.9455C662.374 25.2727 662.538 25.2727 662.538 25.2727C662.538 25.2727 662.538 25.2727 662.538 25.4364L662.703 25.6C662.703 25.7636 662.867 25.9273 662.867 26.0909C662.867 26.2545 663.031 26.5818 663.031 26.7455C663.031 27.0727 663.031 27.2364 662.867 27.4C662.867 27.5636 662.703 27.7273 662.703 27.8909C662.703 27.8909 662.703 28.0545 662.538 28.0545C662.538 28.0545 662.538 28.0545 662.538 28.2182C662.374 28.3818 662.374 28.3818 662.21 28.5455C661.718 28.8727 661.226 29.2 660.569 29.2C659.913 29.2 659.421 29.0364 658.928 28.5455C658.764 28.3818 658.764 28.3818 658.6 28.2182C658.6 28.2182 658.6 28.2182 658.6 28.0545L658.436 27.8909C658.436 27.7273 658.272 27.5636 658.272 27.4C658.272 27.2364 658.108 26.9091 658.108 26.7455C658.108 26.4182 658.108 26.2545 658.272 26.0909C658.272 25.9273 658.436 25.7636 658.436 25.6C658.436 25.6 658.436 25.4364 658.6 25.4364C658.6 25.4364 658.6 25.4364 658.6 25.2727L658.764 25.1091L658.928 24.9455C659.585 24.1273 660.077 23.1455 660.077 22C660.077 20.8545 659.749 19.8727 658.928 19.0545C658.436 18.5636 658.108 17.9091 658.108 17.2545C658.108 15.9455 659.256 14.8 660.569 14.8C661.882 14.8 663.031 15.9455 663.031 17.2545C663.031 17.9091 662.703 18.5636 662.21 19.0545C661.554 19.8727 661.062 20.8545 661.062 22.1636C661.062 23.1455 661.554 24.1273 662.21 24.9455Z" fill="#B1B5C4"/>
<path d="M684.692 35.4182V8.41821H691.585V30.0182H703.728V35.4182H684.692Z" fill="#B1B5C4"/>
<path d="M824.015 35.4182L810.559 22L824.015 8.58185H814.169L805.635 17.0909V8.41821H798.743V35.4182H805.635V26.9091L814.169 35.4182H824.015Z" fill="#B1B5C4"/>
<path d="M745.41 30.1818L743.769 35.4182H736.549L745.903 8.41821H755.092L764.446 35.4182H757.226L755.585 30.1818L753.944 25.1091L750.498 13.8182L746.887 25.1091L745.41 30.1818Z" fill="#B1B5C4"/>
<path d="M775.605 17.7455V35.4182H769.041V8.41821H777.574L787.749 26.9091V8.41821H794.313V35.4182H785.779L775.605 17.7455Z" fill="#B1B5C4"/>
<path d="M731.462 24.9455C731.134 24.1273 730.641 23.4728 730.149 22.8182C729.657 22.3273 729 21.8364 728.18 21.5091C727.523 21.1818 726.703 21.0182 726.046 20.8546C726.703 20.6909 727.359 20.5273 728.016 20.2C728.672 19.8728 729.164 19.5455 729.657 19.0546C730.149 18.5637 730.477 18.0728 730.641 17.2546C730.969 16.6 730.969 15.7818 730.969 14.9637C730.969 14.1455 730.805 13.3273 730.641 12.5091C730.313 11.6909 729.985 11.0364 729.164 10.3818C728.508 9.7273 727.687 9.23639 726.539 8.90912C725.39 8.58185 724.077 8.41821 722.436 8.41821H715.051H711.277H708.159V35.4182H711.277H715.051H723.421C726.21 35.4182 728.18 34.7637 729.657 33.4546C731.134 32.1455 731.79 30.3455 731.79 28.0546C731.954 26.9091 731.79 25.9273 731.462 24.9455ZM715.216 12.8364H722.436C723.093 12.8364 723.585 13 724.077 13.1637C724.569 13.3273 724.898 13.4909 725.226 13.8182C725.554 14.1455 725.718 14.4728 725.882 14.8C726.046 15.1273 726.046 15.4546 726.046 15.9455C726.046 16.7637 725.718 17.5819 725.226 18.0728C724.734 18.7273 723.749 18.8909 722.436 18.8909H715.216V12.8364ZM726.046 29.6909C725.554 30.3455 724.569 30.5091 723.257 30.5091H715.216V24.4546H723.257C723.913 24.4546 724.405 24.6182 724.898 24.7818C725.39 24.9455 725.718 25.1091 726.046 25.4364C726.375 25.7637 726.539 26.0909 726.703 26.4182C726.867 26.7455 726.867 27.0728 726.867 27.5637C726.867 28.3818 726.703 29.2 726.046 29.6909Z" fill="#B1B5C4"/>
<mask id="mask0_24_1455" style="mask-type:alpha" maskUnits="userSpaceOnUse" x="966" y="0" width="31" height="22">
<path d="M966.034 16.742L987.198 16.9118C987.198 16.9118 991.869 17.5017 995.86 20.9855C996.087 21.1822 996.975 20.9855 996.975 20.9855L996.867 0.0916748L966.034 0.127429V16.742Z" fill="white"/>
</mask>
<g mask="url(#mask0_24_1455)">
<path fill-rule="evenodd" clip-rule="evenodd" d="M992.479 4.79782C989.961 2.73748 986.497 1.70508 982.086 1.70508C976.19 1.70508 973.576 1.70508 971.098 1.70508V3.23134C971.098 3.23134 977.062 3.23134 981.884 3.23134C985.634 3.23134 989.028 4.00005 991.101 5.77882C993.173 7.55983 994.745 10.2101 994.745 13.4816C994.745 16.6392 993.385 18.9788 991.229 20.7487C989.073 22.5185 985.229 23.2984 981.38 23.2984C976.788 23.2984 968.99 23.2984 968.99 23.2984V24.8246C968.99 24.8246 979.539 24.8224 981.466 24.8224C986.108 24.8224 989.734 23.819 992.344 21.8168C994.954 19.8123 996.257 16.9945 996.257 13.3587C996.257 9.71402 994.999 6.86038 992.479 4.79782Z" fill="#B1B5C3"/>
<path fill-rule="evenodd" clip-rule="evenodd" d="M991.548 7.01006C989.981 5.82793 988.18 4.87598 983.087 4.87598C977.593 4.87821 976.92 4.87598 974.612 4.87598V6.36424C974.612 6.36424 978.404 6.31508 982.898 6.36424C987.241 6.40894 988.835 6.89609 990.296 7.97095C992.166 9.34525 993.326 11.0413 993.326 13.4145C993.326 15.7028 992.148 17.3229 990.269 18.6972C988.347 20.105 985.409 20.1207 984.213 20.1475C983.761 20.1587 977.921 20.1475 977.921 20.1475V21.6358C977.921 21.6358 980.827 21.676 982.624 21.6335C986.746 21.5419 989.192 21.2983 991.469 19.6156C993.607 18.0402 994.738 15.9598 994.738 13.3251C994.738 9.85028 992.989 8.09832 991.548 7.01006Z" fill="#B1B5C3"/>
<path fill-rule="evenodd" clip-rule="evenodd" d="M990.79 8.97437C989.615 8.24141 988.583 7.74756 983.716 7.74756C978.771 7.74756 979.704 7.74756 977.624 7.74756V8.72633C977.624 8.72633 979.504 8.72633 983.548 8.72633C987.859 8.72633 989.493 9.48834 989.988 9.79002C990.957 10.38 992.234 11.3409 992.234 13.2984C992.234 14.5498 991.49 16.1207 990.39 16.7375C989.388 17.2984 987.556 17.8012 984.328 17.8012C983.921 17.8012 964.429 17.8012 964.429 17.8012V18.78C964.429 18.78 982.783 18.78 984.402 18.78C988.293 18.78 989.628 18.3509 991 17.5978C992.375 16.8448 993.292 15.2962 993.292 13.3073C993.292 11.0861 992.045 9.75426 990.79 8.97437Z" fill="#B1B5C3"/>
</g>
<path fill-rule="evenodd" clip-rule="evenodd" d="M994.664 19.7721C992.146 17.7095 988.68 16.6794 984.271 16.6794C978.373 16.6794 979.4 16.6771 976.921 16.6771V18.2034C976.921 18.2034 979.245 18.2034 984.067 18.2034C987.816 18.2034 991.213 18.9721 993.286 20.7509C995.358 22.5319 996.927 25.1822 996.927 28.4559C996.927 31.6112 995.57 33.9509 993.414 35.7207C991.258 37.4905 987.412 38.2704 983.563 38.2704C978.973 38.2704 971.175 38.2704 971.175 38.2704V39.7967C971.175 39.7967 981.722 39.7944 983.651 39.7944C988.293 39.7944 991.917 38.7933 994.527 36.7889C997.136 34.7866 998.443 31.9665 998.443 28.333C998.443 24.6861 997.184 21.8324 994.664 19.7721Z" fill="#B1B5C3"/>
<path fill-rule="evenodd" clip-rule="evenodd" d="M993.733 21.9822C992.166 20.8023 990.366 19.8481 985.272 19.8481C979.776 19.8504 976.06 19.8481 973.751 19.8481V21.3364C973.751 21.3364 980.587 21.2873 985.083 21.3364C989.426 21.3811 991.018 21.8683 992.479 22.9431C994.351 24.3197 995.511 26.0135 995.511 28.3867C995.511 30.675 994.333 32.2951 992.454 33.6716C990.532 35.0772 987.594 35.0951 986.396 35.1219C985.944 35.1308 980.104 35.1219 980.104 35.1219V36.6079C980.104 36.6079 983.01 36.6481 984.809 36.6079C988.929 36.5141 991.377 36.2705 993.654 34.59C995.79 33.0124 996.921 30.9319 996.921 28.2973C996.921 24.8247 995.174 23.0705 993.733 21.9822Z" fill="#B1B5C3"/>
<path fill-rule="evenodd" clip-rule="evenodd" d="M976.217 27.0325H987.014V26.2012H976.217V27.0325Z" fill="#B1B5C3"/>
<path fill-rule="evenodd" clip-rule="evenodd" d="M980.67 29.9397H986.951V29.2246H980.67V29.9397Z" fill="#B1B5C3"/>
<path fill-rule="evenodd" clip-rule="evenodd" d="M971.175 27.0325H974.374V26.2012H971.175V27.0325Z" fill="#B1B5C3"/>
<path fill-rule="evenodd" clip-rule="evenodd" d="M969.181 29.9978H978.896V29.1665H969.181V29.9978Z" fill="#B1B5C3"/>
<path fill-rule="evenodd" clip-rule="evenodd" d="M971.575 8.6615H975.36V7.97546H971.575V8.6615Z" fill="#B1B5C3"/>
<path fill-rule="evenodd" clip-rule="evenodd" d="M968.938 14.2257H977.608V13.428H968.938V14.2257Z" fill="#B1B5C3"/>
<path fill-rule="evenodd" clip-rule="evenodd" d="M969.181 36.5051H978.323V35.5084H969.181V36.5051Z" fill="#B1B5C3"/>
<path fill-rule="evenodd" clip-rule="evenodd" d="M966.901 39.7364H969.188V38.2928H966.901V39.7364Z" fill="#B1B5C3"/>
<path fill-rule="evenodd" clip-rule="evenodd" d="M972.616 11.79H986.971V10.9922H972.616V11.79Z" fill="#B1B5C3"/>
<path fill-rule="evenodd" clip-rule="evenodd" d="M979.793 14.2257H986.699V13.428H979.793V14.2257Z" fill="#B1B5C3"/>
<path fill-rule="evenodd" clip-rule="evenodd" d="M992.976 24.0961C991.798 23.3877 990.766 22.9117 985.901 22.9117C980.956 22.9117 980.216 22.9117 978.139 22.9117V23.857C978.139 23.857 981.686 23.857 985.73 23.857C990.042 23.857 991.678 24.5922 992.173 24.8849C993.14 25.4548 994.419 26.3799 994.419 28.2704C994.419 29.4793 993.675 30.9944 992.573 31.5888C991.571 32.1319 989.738 32.6168 986.51 32.6168C986.104 32.6168 966.614 32.6168 966.614 32.6168V33.562C966.614 33.562 984.968 33.5598 986.585 33.5598C990.478 33.5598 991.813 33.1464 993.185 32.4201C994.558 31.6916 995.475 30.1967 995.475 28.2771C995.475 26.1341 994.23 24.8492 992.976 24.0961Z" fill="#B1B5C3"/>
<path fill-rule="evenodd" clip-rule="evenodd" d="M1013.42 21.9599V30.6571H1018.2C1020.27 30.6571 1021.87 30.2638 1023.01 29.4772C1024.15 28.6906 1024.71 27.6113 1024.71 26.2414C1024.71 23.3856 1022.3 21.9599 1017.46 21.9599H1013.42ZM1013.42 11.6068V19.4124H1017.03C1018.95 19.4124 1020.47 19.0392 1021.57 18.2928C1022.68 17.5442 1023.23 16.4917 1023.23 15.1308C1023.23 12.7822 1021.31 11.6068 1017.46 11.6068H1013.42ZM1009.9 33.2202V9.0459H1018.45C1021.05 9.0459 1023.11 9.55763 1024.63 10.5789C1026.15 11.6023 1026.92 12.9342 1026.92 14.5744C1026.92 15.9465 1026.45 17.1375 1025.53 18.1498C1024.61 19.1599 1023.34 19.8794 1021.72 20.3062V20.3733C1023.75 20.5655 1025.36 21.18 1026.58 22.2191C1027.8 23.2604 1028.4 24.6124 1028.4 26.275C1028.4 28.342 1027.48 30.018 1025.64 31.2984C1023.79 32.5789 1021.47 33.2202 1018.66 33.2202H1009.9Z" fill="#B1B5C3"/>
<path fill-rule="evenodd" clip-rule="evenodd" d="M1032.32 33.2202H1035.76V15.9576H1032.32V33.2202ZM1034.08 11.5732C1033.47 11.5732 1032.94 11.4056 1032.51 11.0682C1032.08 10.7308 1031.86 10.304 1031.86 9.78776C1031.86 9.26933 1032.08 8.84028 1032.51 8.49614C1032.94 8.15424 1033.47 7.98218 1034.08 7.98218C1034.71 7.98218 1035.25 8.15424 1035.69 8.49614C1036.13 8.84028 1036.35 9.26933 1036.35 9.78776C1036.35 10.2816 1036.13 10.704 1035.69 11.0503C1035.25 11.3989 1034.71 11.5732 1034.08 11.5732Z" fill="#B1B5C3"/>
<path fill-rule="evenodd" clip-rule="evenodd" d="M1050.95 33.0526C1050.14 33.4124 1049.07 33.5911 1047.75 33.5911C1043.99 33.5911 1042.11 31.9062 1042.11 28.5342V18.3174H1038.42V15.9576H1042.11V11.7431L1045.55 10.8492V15.9576H1050.95V18.3174H1045.55V28.0448C1045.55 29.2023 1045.79 30.0291 1046.28 30.523C1046.77 31.0168 1047.58 31.2649 1048.71 31.2649C1049.58 31.2649 1050.32 31.0749 1050.95 30.6906V33.0526Z" fill="#B1B5C3"/>
<path fill-rule="evenodd" clip-rule="evenodd" d="M1082.15 33.2202H1078.93V18.3017C1078.93 17.1219 1079.02 15.6805 1079.2 13.9733H1079.13C1078.82 14.9766 1078.54 15.6939 1078.3 16.1297L1068.85 33.2202H1067.27L1057.84 16.2526C1057.57 15.7565 1057.3 14.9967 1057.02 13.9733H1056.94C1057.04 14.8626 1057.09 16.3152 1057.09 18.3308V33.2202H1053.97V10.9811H1058.25L1066.73 26.4895C1067.39 27.6783 1067.81 28.5677 1068 29.1576H1068.12C1068.67 27.9375 1069.11 27.028 1069.45 26.4269L1078.1 10.9811H1082.15V33.2202Z" fill="#B1B5C3"/>
<path fill-rule="evenodd" clip-rule="evenodd" d="M1099.62 24.4872L1094.44 25.0615C1092.85 25.2403 1091.65 25.5576 1090.84 26.0134C1090.03 26.4693 1089.62 27.276 1089.62 28.4313C1089.62 29.276 1090 29.9643 1090.74 30.4984C1091.49 31.0324 1092.49 31.2984 1093.73 31.2984C1095.43 31.2984 1096.84 30.8179 1097.95 29.857C1099.06 28.8961 1099.62 27.6805 1099.62 26.2078V24.4872ZM1103.05 33.2201H1099.62V30.5229H1099.53C1098.04 32.59 1095.84 33.6246 1092.93 33.6246C1090.8 33.6246 1089.12 33.1687 1087.91 32.2592C1086.71 31.3497 1086.1 30.1408 1086.1 28.6347C1086.1 25.4101 1088.46 23.533 1093.18 23.0034L1099.62 22.2794C1099.62 19.3453 1098.14 17.8794 1095.19 17.8794C1092.61 17.8794 1090.28 18.5877 1088.2 20.0023V17.171C1090.31 16.0916 1092.74 15.5531 1095.49 15.5531C1100.53 15.5531 1103.05 17.6984 1103.05 21.9933V33.2201Z" fill="#B1B5C3"/>
<path fill-rule="evenodd" clip-rule="evenodd" d="M1119 18.7554C1118.4 18.3844 1117.53 18.1989 1116.4 18.1989C1114.94 18.1989 1113.71 18.7554 1112.72 19.8682C1111.74 20.9811 1111.25 22.4984 1111.25 24.4202V33.2202H1107.81V15.9576H1111.25V19.5151H1111.33C1111.82 18.2995 1112.57 17.3542 1113.57 16.6727C1114.58 15.9934 1115.7 15.6537 1116.95 15.6537C1117.84 15.6537 1118.52 15.7319 1119 15.8906V18.7554Z" fill="#B1B5C3"/>
<path fill-rule="evenodd" clip-rule="evenodd" d="M1130.97 33.0526C1130.15 33.4124 1129.09 33.5911 1127.76 33.5911C1124 33.5911 1122.12 31.9062 1122.12 28.5342V18.3174H1118.44V15.9576H1122.12V11.7431L1125.56 10.8492V15.9576H1130.97V18.3174H1125.56V28.0448C1125.56 29.2023 1125.8 30.0291 1126.29 30.523C1126.78 31.0168 1127.59 31.2649 1128.72 31.2649C1129.59 31.2649 1130.34 31.0749 1130.97 30.6906V33.0526Z" fill="#B1B5C3"/>
</svg>
