<svg width="165" height="40" viewBox="0 0 165 40" fill="none" xmlns="http://www.w3.org/2000/svg">
<mask id="mask0_24_1470" style="mask-type:alpha" maskUnits="userSpaceOnUse" x="0" y="0" width="31" height="22">
<path d="M0.0336914 16.742L21.1982 16.9118C21.1982 16.9118 25.8695 17.5017 29.8596 20.9855C30.0866 21.1822 30.9746 20.9855 30.9746 20.9855L30.8667 0.0916748L0.0336914 0.127429V16.742Z" fill="white"/>
</mask>
<g mask="url(#mask0_24_1470)">
<path fill-rule="evenodd" clip-rule="evenodd" d="M26.4786 4.79782C23.9609 2.73748 20.4968 1.70508 16.0863 1.70508C10.19 1.70508 7.57558 1.70508 5.09833 1.70508V3.23134C5.09833 3.23134 11.0622 3.23134 15.884 3.23134C19.6336 3.23134 23.028 4.00005 25.1006 5.77882C27.1733 7.55983 28.7446 10.2101 28.7446 13.4816C28.7446 16.6392 27.3846 18.9788 25.2288 20.7487C23.073 22.5185 19.229 23.2984 15.3805 23.2984C10.7879 23.2984 2.98975 23.2984 2.98975 23.2984V24.8246C2.98975 24.8246 13.5394 24.8224 15.4659 24.8224C20.1079 24.8224 23.7339 23.819 26.3438 21.8168C28.9536 19.8123 30.2575 16.9945 30.2575 13.3587C30.2575 9.71402 28.9986 6.86039 26.4786 4.79782Z" fill="#B1B5C3"/>
<path fill-rule="evenodd" clip-rule="evenodd" d="M25.5479 7.01006C23.9811 5.82793 22.1805 4.87598 17.0866 4.87598C11.5926 4.87821 10.9205 4.87598 8.61182 4.87598V6.36424C8.61182 6.36424 12.4041 6.31508 16.8978 6.36424C21.2408 6.40894 22.8346 6.89609 24.2958 7.97095C26.1661 9.34525 27.3261 11.0413 27.3261 13.4145C27.3261 15.7028 26.1481 17.3229 24.2688 18.6972C22.3468 20.105 19.4087 20.1207 18.2128 20.1475C17.761 20.1587 11.9208 20.1475 11.9208 20.1475V21.6358C11.9208 21.6358 14.8274 21.676 16.6235 21.6335C20.7463 21.5419 23.1921 21.2983 25.4692 19.6156C27.607 18.0402 28.7378 15.9598 28.7378 13.3251C28.7378 9.85028 26.9889 8.09832 25.5479 7.01006Z" fill="#B1B5C3"/>
<path fill-rule="evenodd" clip-rule="evenodd" d="M24.7905 8.97437C23.6148 8.24141 22.583 7.74756 17.7162 7.74756C12.7707 7.74756 13.7036 7.74756 11.6242 7.74756V8.72633C11.6242 8.72633 13.5035 8.72633 17.5476 8.72633C21.8592 8.72633 23.4934 9.48834 23.988 9.79002C24.9568 10.38 26.2337 11.3409 26.2337 13.2984C26.2337 14.5498 25.4896 16.1207 24.3904 16.7375C23.3878 17.2984 21.5557 17.8012 18.3276 17.8012C17.9207 17.8012 -1.57129 17.8012 -1.57129 17.8012V18.78C-1.57129 18.78 16.7833 18.78 18.4018 18.78C22.293 18.78 23.6283 18.3509 24.9996 17.5978C26.3753 16.8448 27.2925 15.2962 27.2925 13.3073C27.2925 11.0861 26.0449 9.75426 24.7905 8.97437Z" fill="#B1B5C3"/>
</g>
<path fill-rule="evenodd" clip-rule="evenodd" d="M28.6637 19.7721C26.146 17.7095 22.6796 16.6794 18.2714 16.6794C12.3728 16.6794 13.4001 16.6771 10.9206 16.6771V18.2034C10.9206 18.2034 13.245 18.2034 18.0668 18.2034C21.8164 18.2034 25.2131 18.9721 27.2857 20.7509C29.3583 22.5319 30.9274 25.1822 30.9274 28.4559C30.9274 31.6112 29.5696 33.9509 27.4138 35.7207C25.258 37.4905 21.4118 38.2704 17.5633 38.2704C12.973 38.2704 5.1748 38.2704 5.1748 38.2704V39.7967C5.1748 39.7967 15.7222 39.7944 17.651 39.7944C22.293 39.7944 25.9167 38.7933 28.5266 36.7889C31.1365 34.7866 32.4425 31.9665 32.4425 28.333C32.4425 24.6861 31.1837 21.8324 28.6637 19.7721Z" fill="#B1B5C3"/>
<path fill-rule="evenodd" clip-rule="evenodd" d="M27.7331 21.9822C26.1662 20.8023 24.3656 19.8481 19.2718 19.8481C13.7755 19.8504 10.0596 19.8481 7.75098 19.8481V21.3364C7.75098 21.3364 14.587 21.2873 19.0829 21.3364C23.426 21.3811 25.0175 21.8683 26.4787 22.9431C28.3512 24.3197 29.5112 26.0135 29.5112 28.3867C29.5112 30.675 28.3333 32.2951 26.454 33.6716C24.532 35.0772 21.5939 35.0951 20.3957 35.1219C19.9439 35.1308 14.1037 35.1219 14.1037 35.1219V36.6079C14.1037 36.6079 17.0103 36.6481 18.8087 36.6079C22.9292 36.5141 25.3772 36.2705 27.6544 34.59C29.7899 33.0124 30.9207 30.9319 30.9207 28.2973C30.9207 24.8247 29.174 23.0705 27.7331 21.9822Z" fill="#B1B5C3"/>
<path fill-rule="evenodd" clip-rule="evenodd" d="M10.2168 27.0325H21.0137V26.2012H10.2168V27.0325Z" fill="#B1B5C3"/>
<path fill-rule="evenodd" clip-rule="evenodd" d="M14.6699 29.9397H20.9507V29.2246H14.6699V29.9397Z" fill="#B1B5C3"/>
<path fill-rule="evenodd" clip-rule="evenodd" d="M5.1748 27.0325H8.37365V26.2012H5.1748V27.0325Z" fill="#B1B5C3"/>
<path fill-rule="evenodd" clip-rule="evenodd" d="M3.18066 29.9978H12.8963V29.1665H3.18066V29.9978Z" fill="#B1B5C3"/>
<path fill-rule="evenodd" clip-rule="evenodd" d="M5.57471 8.6615H9.36027V7.97546H5.57471V8.6615Z" fill="#B1B5C3"/>
<path fill-rule="evenodd" clip-rule="evenodd" d="M2.93799 14.2257H11.6084V13.428H2.93799V14.2257Z" fill="#B1B5C3"/>
<path fill-rule="evenodd" clip-rule="evenodd" d="M3.18066 36.5051H12.3231V35.5084H3.18066V36.5051Z" fill="#B1B5C3"/>
<path fill-rule="evenodd" clip-rule="evenodd" d="M0.901367 39.7364H3.18754V38.2928H0.901367V39.7364Z" fill="#B1B5C3"/>
<path fill-rule="evenodd" clip-rule="evenodd" d="M6.61572 11.79H20.9712V10.9922H6.61572V11.79Z" fill="#B1B5C3"/>
<path fill-rule="evenodd" clip-rule="evenodd" d="M13.7935 14.2257H20.6992V13.428H13.7935V14.2257Z" fill="#B1B5C3"/>
<path fill-rule="evenodd" clip-rule="evenodd" d="M26.9756 24.0961C25.7976 23.3877 24.7658 22.9117 19.9012 22.9117C14.9557 22.9117 14.2162 22.9117 12.139 22.9117V23.857C12.139 23.857 15.6863 23.857 19.7304 23.857C24.042 23.857 25.6785 24.5922 26.173 24.8849C27.1397 25.4548 28.4187 26.3799 28.4187 28.2704C28.4187 29.4793 27.6747 30.9944 26.5732 31.5888C25.5706 32.1319 23.7385 32.6168 20.5104 32.6168C20.1036 32.6168 0.61377 32.6168 0.61377 32.6168V33.562C0.61377 33.562 18.9683 33.5598 20.5846 33.5598C24.4781 33.5598 25.8134 33.1464 27.1846 32.4201C28.5581 31.6916 29.4753 30.1967 29.4753 28.2771C29.4753 26.1341 28.2299 24.8492 26.9756 24.0961Z" fill="#B1B5C3"/>
<path fill-rule="evenodd" clip-rule="evenodd" d="M47.4207 21.9599V30.6571H52.1998C54.2657 30.6571 55.8685 30.2638 57.0082 29.4772C58.1457 28.6906 58.7144 27.6113 58.7144 26.2414C58.7144 23.3856 56.2979 21.9599 51.4648 21.9599H47.4207ZM47.4207 11.6068V19.4124H51.0264C52.9529 19.4124 54.468 19.0392 55.5718 18.2928C56.6755 17.5442 57.2285 16.4917 57.2285 15.1308C57.2285 12.7822 55.3065 11.6068 51.4648 11.6068H47.4207ZM43.9004 33.2202V9.0459H52.4516C55.048 9.0459 57.1094 9.55763 58.6313 10.5789C60.1531 11.6023 60.9152 12.9342 60.9152 14.5744C60.9152 15.9465 60.4543 17.1375 59.5327 18.1498C58.611 19.1599 57.3387 19.8794 55.7201 20.3062V20.3733C57.7456 20.5655 59.3641 21.18 60.5802 22.2191C61.7964 23.2604 62.4033 24.6124 62.4033 26.2749C62.4033 28.342 61.4817 30.018 59.6383 31.2984C57.7928 32.5789 55.4684 33.2202 52.6607 33.2202H43.9004Z" fill="#B1B5C3"/>
<path fill-rule="evenodd" clip-rule="evenodd" d="M66.3236 33.2202H69.7585V15.9576H66.3236V33.2202ZM68.0838 11.5732C67.4678 11.5732 66.9441 11.4056 66.5125 11.0682C66.0786 10.7308 65.8628 10.304 65.8628 9.78776C65.8628 9.26933 66.0786 8.84028 66.5125 8.49614C66.9441 8.15424 67.4678 7.98218 68.0838 7.98218C68.711 7.98218 69.246 8.15424 69.6866 8.49614C70.1272 8.84028 70.3452 9.26933 70.3452 9.78776C70.3452 10.2816 70.1272 10.704 69.6866 11.0503C69.246 11.3989 68.711 11.5732 68.0838 11.5732Z" fill="#B1B5C3"/>
<path fill-rule="evenodd" clip-rule="evenodd" d="M84.9525 33.0526C84.141 33.4124 83.0732 33.5911 81.7469 33.5911C77.9883 33.5911 76.109 31.9062 76.109 28.5342V18.3174H72.4224V15.9576H76.109V11.7431L79.5461 10.8492V15.9576H84.9525V18.3174H79.5461V28.0448C79.5461 29.2023 79.7912 30.0291 80.279 30.523C80.769 31.0168 81.5783 31.2649 82.7113 31.2649C83.5767 31.2649 84.323 31.0749 84.9525 30.6906V33.0526Z" fill="#B1B5C3"/>
<path fill-rule="evenodd" clip-rule="evenodd" d="M116.152 33.2202H112.933V18.3017C112.933 17.1219 113.023 15.6805 113.203 13.9733H113.126C112.818 14.9766 112.539 15.6939 112.297 16.1297L102.851 33.2202H101.27L91.8447 16.2526C91.575 15.7565 91.2985 14.9967 91.0152 13.9733H90.9388C91.0422 14.8626 91.0939 16.3152 91.0939 18.3308V33.2202H87.9692V10.9811H92.2493L100.731 26.4895C101.387 27.6783 101.81 28.5677 102.003 29.1576H102.118C102.671 27.9375 103.114 27.028 103.449 26.4269L112.103 10.9811H116.152V33.2202Z" fill="#B1B5C3"/>
<path fill-rule="evenodd" clip-rule="evenodd" d="M133.616 24.4872L128.441 25.0615C126.848 25.2403 125.647 25.5576 124.836 26.0134C124.026 26.4693 123.622 27.276 123.622 28.4313C123.622 29.276 123.995 29.9643 124.744 30.4984C125.49 31.0324 126.486 31.2984 127.729 31.2984C129.433 31.2984 130.84 30.8179 131.951 29.857C133.061 28.8961 133.616 27.6805 133.616 26.2078V24.4872ZM137.053 33.2201H133.616V30.5229H133.533C132.038 32.59 129.837 33.6246 126.933 33.6246C124.795 33.6246 123.123 33.1687 121.913 32.2592C120.706 31.3497 120.102 30.1408 120.102 28.6347C120.102 25.4101 122.462 23.533 127.185 23.0034L133.616 22.2794C133.616 19.3453 132.142 17.8794 129.195 17.8794C126.612 17.8794 124.278 18.5877 122.197 20.0023V17.171C124.305 16.0916 126.738 15.5531 129.489 15.5531C134.531 15.5531 137.053 17.6984 137.053 21.9933V33.2201Z" fill="#B1B5C3"/>
<path fill-rule="evenodd" clip-rule="evenodd" d="M153 18.7554C152.4 18.3844 151.532 18.1989 150.402 18.1989C148.936 18.1989 147.709 18.7554 146.724 19.8682C145.739 20.9811 145.247 22.4984 145.247 24.4202V33.2202H141.81V15.9576H145.247V19.5151H145.33C145.82 18.2995 146.567 17.3542 147.574 16.6727C148.579 15.9934 149.703 15.6537 150.946 15.6537C151.84 15.6537 152.524 15.7319 153 15.8906V18.7554Z" fill="#B1B5C3"/>
<path fill-rule="evenodd" clip-rule="evenodd" d="M164.966 33.0526C164.155 33.4124 163.087 33.5911 161.761 33.5911C158.002 33.5911 156.123 31.9062 156.123 28.5342V18.3174H152.436V15.9576H156.123V11.7431L159.56 10.8492V15.9576H164.966V18.3174H159.56V28.0448C159.56 29.2023 159.805 30.0291 160.293 30.523C160.783 31.0168 161.592 31.2649 162.725 31.2649C163.59 31.2649 164.337 31.0749 164.966 30.6906V33.0526Z" fill="#B1B5C3"/>
</svg>
