<svg width="54" height="54" viewBox="0 0 54 54" fill="none" xmlns="http://www.w3.org/2000/svg">
<path d="M50.9423 28.4306C50.9423 42.4619 39.566 53.8383 25.5286 53.8403C11.5013 53.8403 0.124921 42.4619 0.126954 28.4285C0.122888 14.3951 11.4992 3.0188 25.5326 3.0188C39.566 3.0188 50.9423 14.3972 50.9423 28.4306Z" fill="#FFC300"/>
<path d="M35.5319 22.2074C35.2046 18.8043 32.267 17.6638 28.5549 17.3385V12.616H25.6823V17.2125C24.9281 17.2125 24.1556 17.2267 23.3892 17.243V12.616H20.5166L20.5146 17.3344C19.8925 17.3466 19.2806 17.3588 18.6849 17.3588V17.3446L14.7227 17.3426V20.4123C14.7227 20.4123 16.8451 20.3717 16.8085 20.4103C17.9734 20.4103 18.3515 21.0852 18.4613 21.6687V27.0479C18.5426 27.0479 18.6463 27.0519 18.7642 27.0682H18.4613L18.4593 34.6043C18.4085 34.9703 18.193 35.5537 17.3798 35.5557C17.4164 35.5883 15.292 35.5557 15.292 35.5557L14.7207 38.9874H18.4613C19.1566 38.9874 19.8417 38.9996 20.5126 39.0036L20.5146 43.779H23.3851V39.0544C24.1718 39.0707 24.9342 39.0768 25.6803 39.0768L25.6783 43.779H28.5508V39.0138C33.3811 38.7373 36.7659 37.5196 37.1847 32.982C37.5242 29.3288 35.8064 27.6964 33.0639 27.0377C34.733 26.192 35.7759 24.6978 35.5319 22.2074ZM31.5108 32.4169C31.5108 35.9847 25.4018 35.5801 23.4522 35.5801V29.2516C25.4018 29.2556 31.5108 28.6966 31.5108 32.4169ZM30.1731 23.4902C30.1731 26.7368 25.0745 26.3567 23.4522 26.3587V20.6217C25.0765 20.6217 30.1751 20.1053 30.1731 23.4902Z" fill="white"/>
<path d="M18.4678 26.9204H18.8947V27.2355H18.4678V26.9204Z" fill="white"/>
</svg>
