<svg width="60" height="24" viewBox="0 0 60 24" fill="none" xmlns="http://www.w3.org/2000/svg">
<path d="M1.41335 18V6.36364H5.8679C6.70881 6.36364 7.40767 6.49621 7.96449 6.76136C8.52509 7.02273 8.94366 7.38068 9.22017 7.83523C9.50047 8.28977 9.64062 8.80492 9.64062 9.38068C9.64062 9.85417 9.54972 10.2595 9.3679 10.5966C9.18608 10.9299 8.94176 11.2008 8.63494 11.4091C8.32812 11.6174 7.98532 11.767 7.60653 11.858V11.9716C8.01941 11.9943 8.41525 12.1212 8.79403 12.3523C9.17661 12.5795 9.48911 12.9015 9.73153 13.3182C9.97396 13.7348 10.0952 14.2386 10.0952 14.8295C10.0952 15.4318 9.94934 15.9735 9.65767 16.4545C9.366 16.9318 8.92661 17.3087 8.33949 17.5852C7.75237 17.8617 7.01373 18 6.12358 18H1.41335ZM3.52131 16.2386H5.78835C6.5535 16.2386 7.10464 16.0928 7.44176 15.8011C7.78267 15.5057 7.95312 15.1269 7.95312 14.6648C7.95312 14.3201 7.8679 14.0095 7.69744 13.733C7.52699 13.4527 7.28456 13.233 6.97017 13.0739C6.65578 12.911 6.28078 12.8295 5.84517 12.8295H3.52131V16.2386ZM3.52131 11.3125H5.60653C5.97017 11.3125 6.29782 11.2462 6.58949 11.1136C6.88116 10.9773 7.11032 10.786 7.27699 10.5398C7.44744 10.2898 7.53267 9.99432 7.53267 9.65341C7.53267 9.20265 7.37358 8.83144 7.0554 8.53977C6.741 8.24811 6.2732 8.10227 5.65199 8.10227H3.52131V11.3125ZM17.4006 14.3295V9.27273H19.4574V18H17.4631V16.4489H17.3722C17.1752 16.9375 16.8513 17.3371 16.4006 17.6477C15.9536 17.9583 15.4025 18.1136 14.7472 18.1136C14.1752 18.1136 13.6695 17.9867 13.2301 17.733C12.7945 17.4754 12.4536 17.1023 12.2074 16.6136C11.9612 16.1212 11.8381 15.5265 11.8381 14.8295V9.27273H13.8949V14.5114C13.8949 15.0644 14.0464 15.5038 14.3494 15.8295C14.6525 16.1553 15.0502 16.3182 15.5426 16.3182C15.8456 16.3182 16.1392 16.2443 16.4233 16.0966C16.7074 15.9489 16.9403 15.7292 17.1222 15.4375C17.3078 15.142 17.4006 14.7727 17.4006 14.3295ZM22.8509 21.2727C22.5705 21.2727 22.3111 21.25 22.0724 21.2045C21.8376 21.1629 21.6501 21.1136 21.5099 21.0568L21.9872 19.4545C22.2865 19.5417 22.5535 19.5833 22.7884 19.5795C23.0232 19.5758 23.2296 19.5019 23.4077 19.358C23.5895 19.2178 23.7429 18.983 23.8679 18.6534L24.044 18.1818L20.8793 9.27273H23.0611L25.0724 15.8636H25.1634L27.1804 9.27273H29.3679L25.8736 19.0568C25.7107 19.5189 25.4948 19.9148 25.2259 20.2443C24.9569 20.5777 24.6274 20.8314 24.2372 21.0057C23.8509 21.1837 23.3887 21.2727 22.8509 21.2727Z" fill="white"/>
<path d="M48.9091 7L54 12M54 12L48.9091 17M54 12L42 12" stroke="white" stroke-width="2" stroke-linecap="square"/>
</svg>
