<svg width="58" height="54" viewBox="0 0 58 54" fill="none" xmlns="http://www.w3.org/2000/svg">
<path d="M28.8377 3.16942C30.0356 2.54436 31.4977 3.99448 30.8602 5.19224C30.4906 6.16845 29.0892 6.42807 28.3734 5.68397C27.6158 4.96958 27.8631 3.55797 28.8377 3.16942ZM15.9536 4.55904C16.6813 4.25916 17.6024 4.92646 17.5281 5.72028C17.6053 6.58186 16.5527 7.21638 15.8109 6.80671C14.8283 6.42587 14.9406 4.82922 15.9536 4.55926V4.55904ZM42.3415 6.83091C41.2042 6.6934 41.0244 4.90424 42.1192 4.54276C42.9684 4.12825 43.7473 4.90556 43.8715 5.71104C43.6935 6.3988 43.1179 7.02871 42.3415 6.82981V6.83091ZM18.8847 10.0462C20.1013 9.27616 21.8371 10.4229 21.6501 11.8371C21.587 13.265 19.6917 14.0923 18.6227 13.1269C17.5894 12.3687 17.7455 10.629 18.8847 10.0467V10.0462ZM37.4558 10.8638C37.999 9.46538 40.1982 9.42137 40.816 10.7855C41.4265 11.8459 40.6755 13.1592 39.5878 13.5196C38.1467 13.7889 36.778 12.2299 37.4564 10.8649L37.4558 10.8638ZM27.2861 13.4397C27.2742 12.2365 28.3692 11.3399 29.5119 11.2581C30.2697 11.4101 31.0959 11.7333 31.421 12.4987C32.0269 13.5548 31.4889 15.0082 30.3941 15.4929C29.8936 15.7737 29.3015 15.6689 28.7563 15.6357C27.9229 15.2263 27.221 14.4232 27.2863 13.44L27.2861 13.4397ZM8.12584 15.1928C9.23712 14.509 10.7364 15.7569 10.3156 16.965C10.0839 18.0101 8.68027 18.4352 7.87787 17.7681C7.0205 17.143 7.15702 15.6399 8.12584 15.1928ZM49.2699 15.1906C50.2128 14.458 51.7686 15.2984 51.6562 16.4887C51.7195 17.5751 50.3743 18.3943 49.4383 17.835C48.4074 17.3714 48.3024 15.7842 49.2699 15.1895V15.1906ZM32.6743 17.3525C34.2301 16.7932 36.0783 17.4625 36.9651 18.8508C38.1348 20.548 37.5125 23.1325 35.6971 24.1063C33.8161 25.2581 31.0695 24.2823 30.3748 22.1796C29.586 20.2976 30.7351 17.9423 32.6743 17.3525ZM23.5455 17.5388C25.2699 16.7248 27.5905 17.4068 28.4235 19.1729C29.4038 20.8912 28.6458 23.2839 26.8934 24.171C25.1389 25.1683 22.6635 24.413 21.8152 22.5673C20.8622 20.7834 21.7077 18.3604 23.5455 17.5388ZM14.4049 20.6664C14.5368 19.5544 15.5841 18.831 16.6415 18.756C17.7809 18.8935 18.691 19.779 18.8148 20.9341C18.7401 22.0764 17.8579 23.1932 16.6483 23.1862C15.3174 23.3008 14.1507 21.9761 14.4049 20.6672V20.6664ZM41.4032 18.9986C42.7695 18.2026 44.6667 19.3614 44.606 20.9324C44.6997 22.5968 42.6 23.7706 41.2394 22.7935C39.8261 21.9805 39.9362 19.6912 41.4032 18.9989V18.9986ZM19.8305 24.864C21.4285 24.424 23.2555 25.1778 24.0393 26.6477C24.8966 28.1273 24.5469 30.1827 23.2136 31.268C21.5034 32.8598 18.3496 32.2207 17.4395 30.0482C16.3937 28.0569 17.664 25.3881 19.8305 24.8638V24.864ZM37.1451 24.8557C38.6985 24.411 40.5234 25.0097 41.3586 26.4266C42.4628 28.0465 41.9356 30.4625 40.2919 31.5067C38.5699 32.7192 35.9028 32.0825 34.9553 30.1866C33.8067 28.2254 34.9626 25.4539 37.1451 24.8557ZM9.55259 26.7038C10.933 26.1813 12.463 27.7057 11.9038 29.0753C11.5624 30.3228 9.80541 30.7849 8.89769 29.8643C7.83566 29.0005 8.22895 27.0785 9.55281 26.7038H9.55259ZM46.9671 28.6914C46.9273 27.5473 47.764 26.5331 48.9368 26.4693C49.8821 26.6191 50.8013 27.3823 50.7265 28.4122C50.8131 29.7726 49.1753 30.6971 48.0172 30.0579C47.4745 29.7818 47.1961 29.2247 46.9671 28.6908V28.6914ZM2.76597 27.3746C3.5963 27.0118 4.6236 27.7321 4.4341 28.6551C4.39013 29.7002 2.84797 30.1019 2.28167 29.2287C1.78109 28.6234 2.08051 27.6884 2.76597 27.3746ZM55.1268 27.3526C55.7116 26.9359 56.6498 27.2354 56.8813 27.9192C57.2744 28.6659 56.5538 29.689 55.714 29.5627C54.535 29.6703 54.1531 27.8721 55.1268 27.3526ZM24.3413 32.369C26.5265 31.8002 28.8755 33.6231 28.8893 35.8758C29.032 38.1512 26.7184 40.1692 24.4816 39.6436C22.7526 39.365 21.3959 37.6982 21.452 35.9495C21.4474 34.2774 22.7084 32.7228 24.3415 32.369H24.3413ZM32.9955 32.3643C35.2134 31.7439 37.6323 33.6002 37.5971 35.9042C37.7143 38.1376 35.4728 40.0875 33.2828 39.6444C31.2218 39.3778 29.7012 37.1116 30.2765 35.1099C30.5669 33.7762 31.6804 32.6915 32.9955 32.3643ZM16.3098 33.7504C17.8444 33.4884 19.2833 35.2025 18.6609 36.6604C18.207 38.2146 15.947 38.6361 14.9479 37.3666C13.7759 36.1475 14.6509 33.9188 16.3098 33.7504ZM41.6885 33.8211C43.057 33.2475 44.7368 34.4321 44.6315 35.9187C44.6865 37.5552 42.6125 38.6834 41.2744 37.7283C39.7575 36.8703 40.0345 34.3473 41.6885 33.8211ZM48.7823 40.9419C48.2465 39.9421 49.2197 38.6172 50.3288 38.8022C50.8808 38.793 51.2671 39.2282 51.6204 39.5943C51.6929 40.1868 51.8147 40.8924 51.3234 41.35C50.6562 42.1951 49.1448 41.9539 48.7823 40.9427V40.9419ZM8.12167 39.0808C9.1582 38.3901 10.6498 39.42 10.4168 40.633C10.2928 41.7055 8.94386 42.3185 8.05352 41.711C7.0992 41.1586 7.13437 39.5855 8.12167 39.0819V39.0808ZM28.5996 41.3271C29.9566 40.7278 31.6852 41.9101 31.5566 43.406C31.6573 45.0588 29.519 46.2035 28.1931 45.2102C26.7202 44.3578 26.9651 41.8505 28.6005 41.3265L28.5996 41.3271ZM19.1136 43.5405C20.2693 42.9319 21.8204 43.9829 21.7151 45.2786C21.7503 46.3415 20.7138 47.2475 19.6656 47.0904C18.7974 47.0717 18.2314 46.2929 17.953 45.5523C17.9673 44.745 18.2993 43.8461 19.1136 43.5416V43.5405ZM38.3259 43.5603C39.5143 42.8252 41.2036 43.881 41.0912 45.2654C41.1218 46.7122 39.2127 47.6391 38.1061 46.6887C37.0346 45.9437 37.1654 44.1528 38.3259 43.5603ZM41.6674 51.8265C41.1398 51.0258 41.7611 50.0613 42.6195 49.8789C43.3098 50.0195 44.0397 50.5389 43.8946 51.3398C43.7939 52.4236 42.21 52.7562 41.6674 51.8265ZM15.1464 51.1312C15.357 50.4967 15.867 49.8661 16.6134 50.0311C17.7013 50.1084 18.0243 51.7495 17.0719 52.2553C16.2157 52.833 15.2222 52.0419 15.1464 51.1312ZM27.941 51.8592C28.1494 50.9207 29.3633 50.4641 30.1635 50.9627C30.6911 51.19 30.8466 51.782 30.9824 52.2852C30.9099 52.5472 30.845 52.8097 30.7813 53.0717C30.4537 53.4603 30.0338 53.8491 29.4875 53.835C28.4743 53.9538 27.5604 52.8075 27.941 51.8592Z" fill="#3CC8C8"/>
</svg>
