<svg width="118" height="124" viewBox="0 0 118 124" fill="none" xmlns="http://www.w3.org/2000/svg">
<g filter="url(#filter0_b_344_1029)">
<path d="M0 64.8457C0 32.3461 26.5004 6 59 6V6C91.4996 6 118 32.3461 118 64.8457V64.8457C118 97.3453 91.4996 123.691 59 123.691V123.691C26.5004 123.691 0 97.3453 0 64.8457V64.8457Z" fill="url(#paint0_radial_344_1029)"/>
<path d="M59 123.191C26.7748 123.191 0.5 97.0675 0.5 64.8457C0.5 32.624 26.7748 6.5 59 6.5C91.2252 6.5 117.5 32.624 117.5 64.8457C117.5 97.0675 91.2252 123.191 59 123.191Z" stroke="url(#paint1_radial_344_1029)"/>
<path d="M59 123.191C26.7748 123.191 0.5 97.0675 0.5 64.8457C0.5 32.624 26.7748 6.5 59 6.5C91.2252 6.5 117.5 32.624 117.5 64.8457C117.5 97.0675 91.2252 123.191 59 123.191Z" stroke="url(#paint2_radial_344_1029)"/>
<path d="M59 123.191C26.7748 123.191 0.5 97.0675 0.5 64.8457C0.5 32.624 26.7748 6.5 59 6.5C91.2252 6.5 117.5 32.624 117.5 64.8457C117.5 97.0675 91.2252 123.191 59 123.191Z" stroke="url(#paint3_radial_344_1029)"/>
</g>
<g filter="url(#filter1_f_344_1029)">
<ellipse cx="58.6218" cy="37.6858" rx="37.4423" ry="24.1418" fill="url(#paint4_radial_344_1029)" fill-opacity="0.2"/>
</g>
<path d="M87.9228 66.2118L76.1647 60.3327C74.9866 59.7437 73.6602 60.8077 73.9796 62.0855L76.078 70.4791C76.1872 70.9157 76.4817 71.2828 76.8842 71.4841L83.6062 74.8451C86.2331 76.1585 89.4143 74.8409 90.343 72.0546C91.1025 69.7761 90.071 67.2859 87.9228 66.2118Z" fill="url(#paint5_linear_344_1029)"/>
<path d="M50.9995 55.0025C51.3426 53.6299 52.5759 52.667 53.9907 52.667H61.5093C62.9241 52.667 64.1574 53.6299 64.5005 55.0025L72.6868 87.7475C72.9792 88.9171 72.5631 90.1499 71.6217 90.903L59.6761 100.459C58.5501 101.36 56.9499 101.36 55.8239 100.459L43.8783 90.903C42.9369 90.1499 42.5208 88.9171 42.8132 87.7475L50.9995 55.0025Z" fill="url(#paint6_linear_344_1029)"/>
<path d="M47.6478 29.7044C48.1701 28.6598 49.2377 28 50.4056 28H65.0944C66.2623 28 67.3299 28.6598 67.8522 29.7044L69.3939 32.7878C69.8279 33.6558 69.8279 34.6775 69.3939 35.5456L64.7689 44.7956C64.2466 45.8402 63.1789 46.5 62.0111 46.5H53.4889C52.3211 46.5 51.2534 45.8402 50.7311 44.7956L46.1061 35.5456C45.6721 34.6775 45.6721 33.6558 46.1061 32.7878L47.6478 29.7044Z" fill="url(#paint7_linear_344_1029)"/>
<defs>
<filter id="filter0_b_344_1029" x="-5" y="1" width="128" height="127.691" filterUnits="userSpaceOnUse" color-interpolation-filters="sRGB">
<feFlood flood-opacity="0" result="BackgroundImageFix"/>
<feGaussianBlur in="BackgroundImage" stdDeviation="2.5"/>
<feComposite in2="SourceAlpha" operator="in" result="effect1_backgroundBlur_344_1029"/>
<feBlend mode="normal" in="SourceGraphic" in2="effect1_backgroundBlur_344_1029" result="shape"/>
</filter>
<filter id="filter1_f_344_1029" x="8.22491" y="0.589411" width="100.794" height="74.1923" filterUnits="userSpaceOnUse" color-interpolation-filters="sRGB">
<feFlood flood-opacity="0" result="BackgroundImageFix"/>
<feBlend mode="normal" in="SourceGraphic" in2="BackgroundImageFix" result="shape"/>
<feGaussianBlur stdDeviation="6.47727" result="effect1_foregroundBlur_344_1029"/>
</filter>
<radialGradient id="paint0_radial_344_1029" cx="0" cy="0" r="1" gradientUnits="userSpaceOnUse" gradientTransform="translate(9.87076 6) rotate(47.9449) scale(176.16 127.993)">
<stop stop-color="white" stop-opacity="0.36"/>
<stop offset="1" stop-color="white" stop-opacity="0"/>
</radialGradient>
<radialGradient id="paint1_radial_344_1029" cx="0" cy="0" r="1" gradientUnits="userSpaceOnUse" gradientTransform="translate(-62.8299 18.0401) rotate(35.0407) scale(135.923 80.2226)">
<stop stop-color="white"/>
<stop offset="1" stop-color="white" stop-opacity="0.06"/>
</radialGradient>
<radialGradient id="paint2_radial_344_1029" cx="0" cy="0" r="1" gradientUnits="userSpaceOnUse" gradientTransform="translate(152.546 84.7661) rotate(161.385) scale(98.5931 66.6382)">
<stop stop-color="#96E221"/>
<stop offset="1" stop-color="#CCFF33" stop-opacity="0.08"/>
</radialGradient>
<radialGradient id="paint3_radial_344_1029" cx="0" cy="0" r="1" gradientUnits="userSpaceOnUse" gradientTransform="translate(60.2847 -20.898) rotate(47.2149) scale(65.8484 47.3296)">
<stop/>
<stop offset="1" stop-color="white" stop-opacity="0"/>
</radialGradient>
<radialGradient id="paint4_radial_344_1029" cx="0" cy="0" r="1" gradientUnits="userSpaceOnUse" gradientTransform="translate(58.6218 13.5439) rotate(90) scale(35.7786 55.4969)">
<stop stop-color="white"/>
<stop offset="1" stop-color="white" stop-opacity="0"/>
</radialGradient>
<linearGradient id="paint5_linear_344_1029" x1="82.8861" y1="24.9515" x2="44.5798" y2="48.418" gradientUnits="userSpaceOnUse">
<stop stop-color="#56C00B"/>
<stop offset="0.291667" stop-color="#53BF0A"/>
<stop offset="0.604167" stop-color="#92E01F"/>
</linearGradient>
<linearGradient id="paint6_linear_344_1029" x1="58.8772" y1="-59.6908" x2="-25.9878" y2="-30.2935" gradientUnits="userSpaceOnUse">
<stop stop-color="#56C00B"/>
<stop offset="0.291667" stop-color="#53BF0A"/>
<stop offset="0.604167" stop-color="#92E01F"/>
</linearGradient>
<linearGradient id="paint7_linear_344_1029" x1="58.6477" y1="-14.8864" x2="8.92497" y2="21.0522" gradientUnits="userSpaceOnUse">
<stop stop-color="#56C00B"/>
<stop offset="0.291667" stop-color="#53BF0A"/>
<stop offset="0.604167" stop-color="#92E01F"/>
</linearGradient>
</defs>
</svg>
