<svg width="54" height="54" viewBox="0 0 54 54" fill="none" xmlns="http://www.w3.org/2000/svg">
<path d="M27 0C41.9094 0 54 12.0906 54 27C54 41.9094 41.9094 54 27 54C12.0906 54 0 41.9094 0 27C0 12.0906 12.0906 0 27 0Z" fill="#FFCCD5"/>
<path fill-rule="evenodd" clip-rule="evenodd" d="M31.9032 13.5703C34.7436 13.5703 37.098 14.5045 38.9448 16.3729C40.8024 18.2413 41.7366 20.6065 41.7366 23.4685C41.7366 26.3413 40.8024 28.7011 38.9556 30.5695C37.1088 32.4379 34.7544 33.3721 31.914 33.3721H26.5842V40.9645H20.25V36.8119C22.7934 36.0073 24.6348 33.6259 24.6348 30.8179C24.6348 28.0099 22.7934 25.6285 20.25 24.8239V20.9089V13.5703H31.9032ZM30.9205 28.2206C32.2057 28.2206 33.2533 27.7724 34.0741 26.8868C34.8949 26.0012 35.3107 24.8672 35.3053 23.4848C35.3053 22.1024 34.8949 20.9684 34.0741 20.0828C33.2479 19.1972 32.1949 18.749 30.9205 18.749H26.5735V28.2206H30.9205Z" fill="#343131"/>
<path d="M16.9777 35.4566C19.5157 35.4566 21.5677 33.3992 21.5677 30.8666C21.5677 28.3286 19.5103 26.2766 16.9777 26.2766C14.4451 26.2766 12.3877 28.334 12.3877 30.8666C12.3877 33.4046 14.4451 35.4566 16.9777 35.4566Z" fill="#FF3465"/>
</svg>
