<svg width="54" height="54" viewBox="0 0 54 54" fill="none" xmlns="http://www.w3.org/2000/svg">
<path opacity="0.1" d="M27 54C41.9117 54 54 41.9117 54 27C54 12.0883 41.9117 0 27 0C12.0883 0 0 12.0883 0 27C0 41.9117 12.0883 54 27 54Z" fill="#3AB83A"/>
<mask id="mask0_31_2653" style="mask-type:alpha" maskUnits="userSpaceOnUse" x="0" y="0" width="54" height="54">
<path d="M27 54C41.9117 54 54 41.9117 54 27C54 12.0883 41.9117 0 27 0C12.0883 0 0 12.0883 0 27C0 41.9117 12.0883 54 27 54Z" fill="white"/>
</mask>
<g mask="url(#mask0_31_2653)">
<path fill-rule="evenodd" clip-rule="evenodd" d="M20.7695 25.6001L28.0686 20.8554L35.308 25.6295L28.0368 12.4614L20.7695 25.6001ZM21.0479 26.9706L28.0765 22.3389L35.0136 26.9362L28.0805 31.5728L21.0479 26.9706ZM20.7695 28.296C23.3312 29.9758 26.0042 31.7342 28.0686 33.0947L35.308 28.296C32.6867 33.1045 30.5029 37.1075 28.0686 41.5378L26.5753 38.8309C24.57 35.1962 22.5021 31.4481 20.7695 28.296Z" fill="#3AB83A"/>
<path fill-rule="evenodd" clip-rule="evenodd" d="M28.0391 12.4614L28.0663 20.8554L35.3083 25.6295L28.0391 12.4614ZM28.0739 22.3389L35.0568 26.9362L28.0773 31.5728L28.0739 22.3389ZM28.0671 33.0947L35.3091 28.296C33.0629 33.1045 28.0671 41.5378 28.0671 41.5378V33.0947Z" fill="#0B8311"/>
</g>
</svg>
