<svg width="81" height="88" viewBox="0 0 81 88" fill="none" xmlns="http://www.w3.org/2000/svg">
<g filter="url(#filter0_b_24_1230)">
<path d="M0.324219 47.8954C0.324219 25.8618 18.2906 8 40.3242 8C62.3578 8 80.3242 25.8618 80.3242 47.8954C80.3242 69.929 62.3578 87.7908 40.3242 87.7908C18.2906 87.7908 0.324219 69.929 0.324219 47.8954Z" fill="url(#paint0_radial_24_1230)"/>
<path d="M0.824219 47.8954C0.824219 26.1396 18.565 8.5 40.3242 8.5C62.0834 8.5 79.8242 26.1396 79.8242 47.8954C79.8242 69.6512 62.0834 87.2908 40.3242 87.2908C18.565 87.2908 0.824219 69.6512 0.824219 47.8954Z" stroke="url(#paint1_radial_24_1230)"/>
<path d="M0.824219 47.8954C0.824219 26.1396 18.565 8.5 40.3242 8.5C62.0834 8.5 79.8242 26.1396 79.8242 47.8954C79.8242 69.6512 62.0834 87.2908 40.3242 87.2908C18.565 87.2908 0.824219 69.6512 0.824219 47.8954Z" stroke="url(#paint2_radial_24_1230)"/>
<path d="M0.824219 47.8954C0.824219 26.1396 18.565 8.5 40.3242 8.5C62.0834 8.5 79.8242 26.1396 79.8242 47.8954C79.8242 69.6512 62.0834 87.2908 40.3242 87.2908C18.565 87.2908 0.824219 69.6512 0.824219 47.8954Z" stroke="url(#paint3_radial_24_1230)"/>
</g>
<g filter="url(#filter1_f_24_1230)">
<ellipse cx="40.0682" cy="29.4822" rx="25.3846" ry="16.3673" fill="url(#paint4_radial_24_1230)" fill-opacity="0.2"/>
</g>
<path d="M55.1469 38.6666V34.9333C55.1469 32.8744 53.4725 31.2 51.4135 31.2H27.1469C24.0594 31.2 21.5469 33.7125 21.5469 36.8V59.1999C21.5469 63.3085 24.8957 64.7999 27.1469 64.7999H55.1469C57.2058 64.7999 58.8802 63.1255 58.8802 61.0666V42.4C58.8802 40.341 57.2058 38.6666 55.1469 38.6666ZM51.4135 55.4666H47.6802V48H51.4135V55.4666ZM27.1469 38.6666C26.6662 38.6451 26.2124 38.4391 25.8799 38.0913C25.5474 37.7436 25.3618 37.2811 25.3618 36.8C25.3618 36.3188 25.5474 35.8563 25.8799 35.5086C26.2124 35.1608 26.6662 34.9548 27.1469 34.9333H51.4135V38.6666H27.1469Z" fill="url(#paint5_linear_24_1230)"/>
<defs>
<filter id="filter0_b_24_1230" x="-4.67578" y="3" width="90" height="89.7908" filterUnits="userSpaceOnUse" color-interpolation-filters="sRGB">
<feFlood flood-opacity="0" result="BackgroundImageFix"/>
<feGaussianBlur in="BackgroundImage" stdDeviation="2.5"/>
<feComposite in2="SourceAlpha" operator="in" result="effect1_backgroundBlur_24_1230"/>
<feBlend mode="normal" in="SourceGraphic" in2="effect1_backgroundBlur_24_1230" result="shape"/>
</filter>
<filter id="filter1_f_24_1230" x="1.72906" y="0.160334" width="76.6786" height="58.6438" filterUnits="userSpaceOnUse" color-interpolation-filters="sRGB">
<feFlood flood-opacity="0" result="BackgroundImageFix"/>
<feBlend mode="normal" in="SourceGraphic" in2="BackgroundImageFix" result="shape"/>
<feGaussianBlur stdDeviation="6.47727" result="effect1_foregroundBlur_24_1230"/>
</filter>
<radialGradient id="paint0_radial_24_1230" cx="0" cy="0" r="1" gradientUnits="userSpaceOnUse" gradientTransform="translate(7.01626 8) rotate(47.9449) scale(119.431 86.7751)">
<stop stop-color="white" stop-opacity="0.36"/>
<stop offset="1" stop-color="white" stop-opacity="0"/>
</radialGradient>
<radialGradient id="paint1_radial_24_1230" cx="0" cy="0" r="1" gradientUnits="userSpaceOnUse" gradientTransform="translate(-42.2723 16.1628) rotate(35.0407) scale(92.1512 54.3882)">
<stop stop-color="white"/>
<stop offset="1" stop-color="white" stop-opacity="0.06"/>
</radialGradient>
<radialGradient id="paint2_radial_24_1230" cx="0" cy="0" r="1" gradientUnits="userSpaceOnUse" gradientTransform="translate(103.745 61.4008) rotate(161.385) scale(66.8428 45.1784)">
<stop stop-color="#96E221"/>
<stop offset="1" stop-color="#CCFF33" stop-opacity="0.03"/>
</radialGradient>
<radialGradient id="paint3_radial_24_1230" cx="0" cy="0" r="1" gradientUnits="userSpaceOnUse" gradientTransform="translate(41.1952 -10.2359) rotate(47.2149) scale(44.643 32.0879)">
<stop/>
<stop offset="1" stop-color="white" stop-opacity="0"/>
</radialGradient>
<radialGradient id="paint4_radial_24_1230" cx="0" cy="0" r="1" gradientUnits="userSpaceOnUse" gradientTransform="translate(40.0682 13.1149) rotate(90) scale(24.2566 37.625)">
<stop stop-color="white"/>
<stop offset="1" stop-color="white" stop-opacity="0"/>
</radialGradient>
<linearGradient id="paint5_linear_24_1230" x1="41.6135" y1="-46.6909" x2="-43.6129" y2="6.20318" gradientUnits="userSpaceOnUse">
<stop stop-color="#56C00B"/>
<stop offset="0.291667" stop-color="#53BF0A"/>
<stop offset="0.604167" stop-color="#92E01F"/>
</linearGradient>
</defs>
</svg>
