<svg width="81" height="88" viewBox="0 0 81 88" fill="none" xmlns="http://www.w3.org/2000/svg">
<g filter="url(#filter0_b_24_1259)">
<path d="M0.324219 47.8954C0.324219 25.8618 18.2906 8 40.3242 8C62.3578 8 80.3242 25.8618 80.3242 47.8954C80.3242 69.929 62.3578 87.7908 40.3242 87.7908C18.2906 87.7908 0.324219 69.929 0.324219 47.8954Z" fill="url(#paint0_radial_24_1259)"/>
<path d="M0.824219 47.8954C0.824219 26.1396 18.565 8.5 40.3242 8.5C62.0834 8.5 79.8242 26.1396 79.8242 47.8954C79.8242 69.6512 62.0834 87.2908 40.3242 87.2908C18.565 87.2908 0.824219 69.6512 0.824219 47.8954Z" stroke="url(#paint1_radial_24_1259)"/>
<path d="M0.824219 47.8954C0.824219 26.1396 18.565 8.5 40.3242 8.5C62.0834 8.5 79.8242 26.1396 79.8242 47.8954C79.8242 69.6512 62.0834 87.2908 40.3242 87.2908C18.565 87.2908 0.824219 69.6512 0.824219 47.8954Z" stroke="url(#paint2_radial_24_1259)"/>
<path d="M0.824219 47.8954C0.824219 26.1396 18.565 8.5 40.3242 8.5C62.0834 8.5 79.8242 26.1396 79.8242 47.8954C79.8242 69.6512 62.0834 87.2908 40.3242 87.2908C18.565 87.2908 0.824219 69.6512 0.824219 47.8954Z" stroke="url(#paint3_radial_24_1259)"/>
</g>
<g filter="url(#filter1_f_24_1259)">
<ellipse cx="40.0677" cy="29.4822" rx="25.3846" ry="16.3673" fill="url(#paint4_radial_24_1259)" fill-opacity="0.2"/>
</g>
<path fill-rule="evenodd" clip-rule="evenodd" d="M50.3353 49.7757C49.385 48.6739 47.7528 48.7307 46.4764 49.4293C44.5014 50.5104 42.2346 51.125 39.8242 51.125C37.4139 51.125 35.1471 50.5104 33.172 49.4293C31.8957 48.7307 30.2634 48.6739 29.3131 49.7757C27.2168 52.2063 25.9492 55.3718 25.9492 58.8333V60.375C25.9492 62.0778 27.3297 63.4583 29.0326 63.4583H50.6159C52.3188 63.4583 53.6992 62.0778 53.6992 60.375V58.8333C53.6992 55.3718 52.4316 52.2063 50.3353 49.7757Z" fill="url(#paint5_linear_24_1259)"/>
<path d="M47.5324 37.25C47.5324 41.5072 44.0813 44.9583 39.8241 44.9583C35.5669 44.9583 32.1157 41.5072 32.1157 37.25C32.1157 32.9928 35.5669 29.5416 39.8241 29.5416C44.0813 29.5416 47.5324 32.9928 47.5324 37.25Z" fill="url(#paint6_linear_24_1259)"/>
<defs>
<filter id="filter0_b_24_1259" x="-4.67578" y="3" width="90" height="89.7908" filterUnits="userSpaceOnUse" color-interpolation-filters="sRGB">
<feFlood flood-opacity="0" result="BackgroundImageFix"/>
<feGaussianBlur in="BackgroundImage" stdDeviation="2.5"/>
<feComposite in2="SourceAlpha" operator="in" result="effect1_backgroundBlur_24_1259"/>
<feBlend mode="normal" in="SourceGraphic" in2="effect1_backgroundBlur_24_1259" result="shape"/>
</filter>
<filter id="filter1_f_24_1259" x="1.72857" y="0.160334" width="76.6781" height="58.6438" filterUnits="userSpaceOnUse" color-interpolation-filters="sRGB">
<feFlood flood-opacity="0" result="BackgroundImageFix"/>
<feBlend mode="normal" in="SourceGraphic" in2="BackgroundImageFix" result="shape"/>
<feGaussianBlur stdDeviation="6.47727" result="effect1_foregroundBlur_24_1259"/>
</filter>
<radialGradient id="paint0_radial_24_1259" cx="0" cy="0" r="1" gradientUnits="userSpaceOnUse" gradientTransform="translate(7.01626 8) rotate(47.9449) scale(119.431 86.7751)">
<stop stop-color="white" stop-opacity="0.36"/>
<stop offset="1" stop-color="white" stop-opacity="0"/>
</radialGradient>
<radialGradient id="paint1_radial_24_1259" cx="0" cy="0" r="1" gradientUnits="userSpaceOnUse" gradientTransform="translate(-42.2723 16.1628) rotate(35.0407) scale(92.1512 54.3882)">
<stop stop-color="white"/>
<stop offset="1" stop-color="white" stop-opacity="0.06"/>
</radialGradient>
<radialGradient id="paint2_radial_24_1259" cx="0" cy="0" r="1" gradientUnits="userSpaceOnUse" gradientTransform="translate(103.745 61.4008) rotate(161.385) scale(66.8428 45.1784)">
<stop stop-color="#96E221"/>
<stop offset="1" stop-color="#CCFF33" stop-opacity="0.29"/>
</radialGradient>
<radialGradient id="paint3_radial_24_1259" cx="0" cy="0" r="1" gradientUnits="userSpaceOnUse" gradientTransform="translate(41.1952 -10.2359) rotate(47.2149) scale(44.643 32.0879)">
<stop/>
<stop offset="1" stop-color="white" stop-opacity="0"/>
</radialGradient>
<radialGradient id="paint4_radial_24_1259" cx="0" cy="0" r="1" gradientUnits="userSpaceOnUse" gradientTransform="translate(40.0677 13.1149) rotate(90) scale(24.2566 37.625)">
<stop stop-color="white"/>
<stop offset="1" stop-color="white" stop-opacity="0"/>
</radialGradient>
<linearGradient id="paint5_linear_24_1259" x1="40.8648" y1="15.2274" x2="-0.194082" y2="59.012" gradientUnits="userSpaceOnUse">
<stop stop-color="#56C00B"/>
<stop offset="0.291667" stop-color="#53BF0A"/>
<stop offset="0.604167" stop-color="#92E01F"/>
</linearGradient>
<linearGradient id="paint6_linear_24_1259" x1="40.4022" y1="-6.19701" x2="3.24505" y2="14.5577" gradientUnits="userSpaceOnUse">
<stop stop-color="#56C00B"/>
<stop offset="0.291667" stop-color="#53BF0A"/>
<stop offset="0.604167" stop-color="#92E01F"/>
</linearGradient>
</defs>
</svg>
