<svg width="381" height="365" viewBox="0 0 381 365" fill="none" xmlns="http://www.w3.org/2000/svg">
<g opacity="0.75">
<rect x="0.324219" width="380" height="365" rx="25" fill="url(#paint0_linear_24_1228)"/>
<g filter="url(#filter0_b_24_1228)">
<path d="M150.324 59.8954C150.324 37.8618 168.291 20 190.324 20C212.358 20 230.324 37.8618 230.324 59.8954C230.324 81.929 212.358 99.7908 190.324 99.7908C168.291 99.7908 150.324 81.929 150.324 59.8954Z" fill="url(#paint1_radial_24_1228)"/>
<path d="M150.824 59.8954C150.824 38.1396 168.565 20.5 190.324 20.5C212.083 20.5 229.824 38.1396 229.824 59.8954C229.824 81.6512 212.083 99.2908 190.324 99.2908C168.565 99.2908 150.824 81.6512 150.824 59.8954Z" stroke="url(#paint2_radial_24_1228)"/>
<path d="M150.824 59.8954C150.824 38.1396 168.565 20.5 190.324 20.5C212.083 20.5 229.824 38.1396 229.824 59.8954C229.824 81.6512 212.083 99.2908 190.324 99.2908C168.565 99.2908 150.824 81.6512 150.824 59.8954Z" stroke="url(#paint3_radial_24_1228)"/>
<path d="M150.824 59.8954C150.824 38.1396 168.565 20.5 190.324 20.5C212.083 20.5 229.824 38.1396 229.824 59.8954C229.824 81.6512 212.083 99.2908 190.324 99.2908C168.565 99.2908 150.824 81.6512 150.824 59.8954Z" stroke="url(#paint4_radial_24_1228)"/>
</g>
<g filter="url(#filter1_f_24_1228)">
<ellipse cx="190.068" cy="41.4822" rx="25.3846" ry="16.3673" fill="url(#paint5_radial_24_1228)" fill-opacity="0.2"/>
</g>
<path d="M205.147 50.6666V46.9333C205.147 44.8744 203.472 43.2 201.414 43.2H177.147C174.059 43.2 171.547 45.7125 171.547 48.8V71.1999C171.547 75.3085 174.896 76.7999 177.147 76.7999H205.147C207.206 76.7999 208.88 75.1255 208.88 73.0666V54.4C208.88 52.341 207.206 50.6666 205.147 50.6666ZM201.414 67.4666H197.68V60H201.414V67.4666ZM177.147 50.6666C176.666 50.6451 176.212 50.4391 175.88 50.0913C175.547 49.7436 175.362 49.2811 175.362 48.8C175.362 48.3188 175.547 47.8563 175.88 47.5086C176.212 47.1608 176.666 46.9548 177.147 46.9333H201.414V50.6666H177.147Z" fill="url(#paint6_linear_24_1228)"/>
<path d="M81.1855 124.273H89.5407L95.2878 138.278H95.5776L101.325 124.273H109.68V149H103.112V134.705H102.919L97.4128 148.807H93.4526L87.9469 134.608H87.7537V149H81.1855V124.273ZM118.126 149.29C116.942 149.29 115.896 149.097 114.986 148.71C114.085 148.316 113.376 147.72 112.861 146.923C112.346 146.126 112.089 145.112 112.089 143.881C112.089 142.866 112.262 142.001 112.608 141.285C112.954 140.56 113.437 139.969 114.057 139.51C114.676 139.051 115.397 138.701 116.218 138.46C117.047 138.218 117.94 138.061 118.898 137.989C119.937 137.908 120.77 137.812 121.398 137.699C122.033 137.578 122.492 137.413 122.774 137.204C123.056 136.987 123.197 136.701 123.197 136.347V136.298C123.197 135.815 123.011 135.445 122.641 135.188C122.271 134.93 121.796 134.801 121.216 134.801C120.581 134.801 120.061 134.942 119.659 135.224C119.265 135.497 119.027 135.92 118.947 136.491H112.813C112.894 135.365 113.252 134.326 113.888 133.376C114.532 132.419 115.469 131.654 116.701 131.082C117.932 130.503 119.47 130.213 121.313 130.213C122.641 130.213 123.832 130.37 124.887 130.684C125.941 130.99 126.839 131.42 127.579 131.976C128.32 132.523 128.883 133.167 129.27 133.908C129.664 134.64 129.861 135.437 129.861 136.298V149H123.631V146.392H123.486C123.116 147.084 122.665 147.644 122.134 148.07C121.611 148.497 121.011 148.807 120.335 149C119.667 149.193 118.93 149.29 118.126 149.29ZM120.299 145.088C120.806 145.088 121.281 144.983 121.724 144.774C122.174 144.565 122.541 144.263 122.822 143.869C123.104 143.474 123.245 142.995 123.245 142.432V140.886C123.068 140.959 122.879 141.027 122.677 141.092C122.484 141.156 122.275 141.216 122.05 141.273C121.832 141.329 121.599 141.381 121.349 141.43C121.108 141.478 120.854 141.522 120.589 141.562C120.073 141.643 119.651 141.776 119.321 141.961C118.999 142.138 118.757 142.359 118.596 142.625C118.443 142.883 118.367 143.172 118.367 143.494C118.367 144.009 118.548 144.404 118.91 144.678C119.273 144.951 119.735 145.088 120.299 145.088ZM139.711 138.568V149H133.046V130.455H139.373V133.98H139.566C139.968 132.805 140.676 131.883 141.691 131.215C142.713 130.547 143.904 130.213 145.265 130.213C146.577 130.213 147.716 130.515 148.681 131.119C149.655 131.714 150.408 132.535 150.939 133.582C151.479 134.628 151.744 135.823 151.736 137.168V149H145.071V138.568C145.079 137.651 144.846 136.93 144.371 136.407C143.904 135.884 143.252 135.622 142.415 135.622C141.868 135.622 141.389 135.743 140.978 135.984C140.576 136.218 140.266 136.556 140.049 136.999C139.831 137.433 139.719 137.956 139.711 138.568ZM160.194 149.29C159.011 149.29 157.964 149.097 157.055 148.71C156.153 148.316 155.445 147.72 154.93 146.923C154.415 146.126 154.157 145.112 154.157 143.881C154.157 142.866 154.33 142.001 154.676 141.285C155.022 140.56 155.505 139.969 156.125 139.51C156.745 139.051 157.465 138.701 158.286 138.46C159.115 138.218 160.009 138.061 160.967 137.989C162.005 137.908 162.838 137.812 163.466 137.699C164.102 137.578 164.561 137.413 164.842 137.204C165.124 136.987 165.265 136.701 165.265 136.347V136.298C165.265 135.815 165.08 135.445 164.71 135.188C164.339 134.93 163.864 134.801 163.285 134.801C162.649 134.801 162.13 134.942 161.727 135.224C161.333 135.497 161.095 135.92 161.015 136.491H154.881C154.962 135.365 155.32 134.326 155.956 133.376C156.6 132.419 157.538 131.654 158.769 131.082C160.001 130.503 161.538 130.213 163.381 130.213C164.71 130.213 165.901 130.37 166.955 130.684C168.01 130.99 168.907 131.42 169.648 131.976C170.388 132.523 170.952 133.167 171.338 133.908C171.732 134.64 171.93 135.437 171.93 136.298V149H165.7V146.392H165.555C165.184 147.084 164.734 147.644 164.202 148.07C163.679 148.497 163.08 148.807 162.403 149C161.735 149.193 160.999 149.29 160.194 149.29ZM162.367 145.088C162.874 145.088 163.349 144.983 163.792 144.774C164.243 144.565 164.609 144.263 164.891 143.869C165.172 143.474 165.313 142.995 165.313 142.432V140.886C165.136 140.959 164.947 141.027 164.746 141.092C164.553 141.156 164.343 141.216 164.118 141.273C163.901 141.329 163.667 141.381 163.418 141.43C163.176 141.478 162.923 141.522 162.657 141.562C162.142 141.643 161.719 141.776 161.389 141.961C161.067 142.138 160.826 142.359 160.665 142.625C160.512 142.883 160.435 143.172 160.435 143.494C160.435 144.009 160.616 144.404 160.979 144.678C161.341 144.951 161.804 145.088 162.367 145.088ZM184.049 156.341C182.189 156.341 180.596 156.075 179.268 155.544C177.948 155.021 176.921 154.296 176.189 153.371C175.464 152.453 175.058 151.399 174.969 150.207H181.393C181.457 150.602 181.618 150.92 181.876 151.161C182.133 151.403 182.463 151.576 182.866 151.68C183.276 151.793 183.735 151.849 184.242 151.849C185.103 151.849 185.816 151.64 186.379 151.222C186.951 150.803 187.236 150.046 187.236 148.952V145.812H187.043C186.802 146.44 186.431 146.976 185.932 147.418C185.433 147.853 184.834 148.187 184.133 148.42C183.433 148.646 182.664 148.759 181.827 148.759C180.507 148.759 179.292 148.453 178.181 147.841C177.078 147.229 176.193 146.259 175.525 144.931C174.865 143.603 174.535 141.868 174.535 139.727C174.535 137.49 174.881 135.67 175.573 134.27C176.273 132.869 177.175 131.843 178.278 131.191C179.388 130.539 180.555 130.213 181.779 130.213C182.697 130.213 183.501 130.374 184.194 130.696C184.886 131.01 185.465 131.433 185.932 131.964C186.399 132.487 186.753 133.062 186.995 133.69H187.14V130.455H193.805V148.952C193.805 150.521 193.398 151.853 192.585 152.948C191.78 154.051 190.645 154.892 189.18 155.472C187.715 156.051 186.005 156.341 184.049 156.341ZM184.29 144.026C184.902 144.026 185.425 143.857 185.86 143.518C186.303 143.172 186.641 142.681 186.874 142.045C187.116 141.402 187.236 140.629 187.236 139.727C187.236 138.81 187.116 138.025 186.874 137.373C186.641 136.713 186.303 136.21 185.86 135.864C185.425 135.509 184.902 135.332 184.29 135.332C183.679 135.332 183.155 135.509 182.721 135.864C182.294 136.21 181.964 136.713 181.731 137.373C181.505 138.025 181.393 138.81 181.393 139.727C181.393 140.645 181.505 141.426 181.731 142.07C181.964 142.705 182.294 143.192 182.721 143.531C183.155 143.861 183.679 144.026 184.29 144.026ZM206.081 149.338C204.1 149.338 202.394 148.96 200.961 148.203C199.537 147.438 198.438 146.344 197.665 144.919C196.9 143.486 196.518 141.772 196.518 139.776C196.518 137.86 196.904 136.186 197.677 134.753C198.45 133.32 199.541 132.205 200.949 131.408C202.358 130.612 204.02 130.213 205.936 130.213C207.336 130.213 208.604 130.43 209.739 130.865C210.874 131.3 211.844 131.932 212.649 132.761C213.454 133.582 214.074 134.58 214.508 135.755C214.943 136.93 215.16 138.254 215.16 139.727V141.273H198.595V137.602H209.027C209.019 137.071 208.882 136.604 208.616 136.202C208.359 135.791 208.008 135.473 207.566 135.248C207.131 135.014 206.636 134.898 206.081 134.898C205.541 134.898 205.046 135.014 204.596 135.248C204.145 135.473 203.783 135.787 203.509 136.19C203.243 136.592 203.102 137.063 203.086 137.602V141.562C203.086 142.158 203.211 142.689 203.461 143.156C203.71 143.623 204.068 143.989 204.535 144.255C205.002 144.521 205.565 144.653 206.225 144.653C206.684 144.653 207.103 144.589 207.481 144.46C207.868 144.331 208.198 144.146 208.471 143.905C208.745 143.655 208.946 143.357 209.075 143.011H215.16C214.951 144.299 214.456 145.418 213.675 146.368C212.894 147.31 211.86 148.042 210.572 148.565C209.292 149.08 207.795 149.338 206.081 149.338ZM228.71 155.955C227.945 155.955 227.217 155.894 226.525 155.773C225.832 155.661 225.225 155.504 224.702 155.303L226.15 150.57C226.698 150.763 227.197 150.888 227.648 150.944C228.106 151 228.497 150.968 228.819 150.847C229.149 150.727 229.386 150.497 229.531 150.159L229.676 149.821L223.156 130.455H230.111L233.105 143.301H233.298L236.341 130.455H243.344L236.582 150.545C236.244 151.568 235.753 152.485 235.109 153.298C234.473 154.119 233.636 154.767 232.598 155.242C231.559 155.717 230.264 155.955 228.71 155.955ZM253.609 149.338C251.597 149.338 249.875 148.94 248.442 148.143C247.009 147.338 245.91 146.219 245.146 144.786C244.381 143.345 243.999 141.675 243.999 139.776C243.999 137.876 244.381 136.21 245.146 134.777C245.91 133.336 247.009 132.217 248.442 131.42C249.875 130.616 251.597 130.213 253.609 130.213C255.622 130.213 257.344 130.616 258.777 131.42C260.21 132.217 261.308 133.336 262.073 134.777C262.838 136.21 263.22 137.876 263.22 139.776C263.22 141.675 262.838 143.345 262.073 144.786C261.308 146.219 260.21 147.338 258.777 148.143C257.344 148.94 255.622 149.338 253.609 149.338ZM253.658 144.412C254.221 144.412 254.708 144.223 255.119 143.844C255.529 143.466 255.847 142.927 256.072 142.227C256.298 141.526 256.411 140.693 256.411 139.727C256.411 138.753 256.298 137.92 256.072 137.228C255.847 136.528 255.529 135.988 255.119 135.61C254.708 135.232 254.221 135.043 253.658 135.043C253.062 135.043 252.551 135.232 252.124 135.61C251.698 135.988 251.372 136.528 251.146 137.228C250.921 137.92 250.808 138.753 250.808 139.727C250.808 140.693 250.921 141.526 251.146 142.227C251.372 142.927 251.698 143.466 252.124 143.844C252.551 144.223 253.062 144.412 253.658 144.412ZM277.95 140.886V130.455H284.615V149H278.288V145.474H278.095C277.693 146.658 276.988 147.583 275.982 148.251C274.976 148.911 273.781 149.241 272.396 149.241C271.1 149.241 269.965 148.944 268.991 148.348C268.026 147.752 267.273 146.931 266.734 145.885C266.202 144.839 265.933 143.639 265.925 142.287V130.455H272.589V140.886C272.598 141.804 272.831 142.524 273.29 143.048C273.757 143.571 274.409 143.832 275.246 143.832C275.801 143.832 276.28 143.716 276.683 143.482C277.093 143.241 277.407 142.903 277.624 142.468C277.85 142.025 277.958 141.498 277.95 140.886ZM288.005 149V130.455H294.476V133.98H294.67C295.008 132.676 295.543 131.722 296.275 131.119C297.016 130.515 297.881 130.213 298.871 130.213C299.161 130.213 299.447 130.237 299.729 130.286C300.018 130.326 300.296 130.386 300.562 130.467V136.153C300.232 136.041 299.825 135.956 299.342 135.9C298.859 135.844 298.445 135.815 298.099 135.815C297.447 135.815 296.859 135.964 296.336 136.262C295.821 136.552 295.414 136.962 295.116 137.494C294.818 138.017 294.67 138.633 294.67 139.341V149H288.005ZM117.872 199.955V174.455H124.488V177.69H124.633C124.875 177.062 125.229 176.487 125.696 175.964C126.163 175.433 126.742 175.01 127.434 174.696C128.127 174.374 128.932 174.213 129.849 174.213C131.073 174.213 132.236 174.539 133.339 175.191C134.449 175.843 135.351 176.869 136.043 178.27C136.743 179.67 137.094 181.49 137.094 183.727C137.094 185.868 136.76 187.643 136.091 189.052C135.431 190.46 134.546 191.511 133.435 192.203C132.332 192.895 131.121 193.241 129.801 193.241C128.932 193.241 128.155 193.101 127.471 192.819C126.795 192.529 126.215 192.139 125.732 191.648C125.257 191.149 124.891 190.585 124.633 189.957H124.537V199.955H117.872ZM124.392 183.727C124.392 184.629 124.509 185.41 124.742 186.07C124.983 186.722 125.322 187.229 125.756 187.591C126.199 187.945 126.726 188.122 127.338 188.122C127.95 188.122 128.469 187.949 128.895 187.603C129.33 187.249 129.66 186.746 129.885 186.094C130.119 185.434 130.236 184.645 130.236 183.727C130.236 182.81 130.119 182.025 129.885 181.373C129.66 180.713 129.33 180.21 128.895 179.864C128.469 179.509 127.95 179.332 127.338 179.332C126.726 179.332 126.199 179.509 125.756 179.864C125.322 180.21 124.983 180.713 124.742 181.373C124.509 182.025 124.392 182.81 124.392 183.727ZM148.82 193.338C146.808 193.338 145.085 192.94 143.653 192.143C142.22 191.338 141.121 190.219 140.357 188.786C139.592 187.345 139.21 185.675 139.21 183.776C139.21 181.876 139.592 180.21 140.357 178.777C141.121 177.336 142.22 176.217 143.653 175.42C145.085 174.616 146.808 174.213 148.82 174.213C150.833 174.213 152.555 174.616 153.988 175.42C155.421 176.217 156.519 177.336 157.284 178.777C158.049 180.21 158.431 181.876 158.431 183.776C158.431 185.675 158.049 187.345 157.284 188.786C156.519 190.219 155.421 191.338 153.988 192.143C152.555 192.94 150.833 193.338 148.82 193.338ZM148.869 188.412C149.432 188.412 149.919 188.223 150.33 187.844C150.74 187.466 151.058 186.927 151.283 186.227C151.509 185.526 151.621 184.693 151.621 183.727C151.621 182.753 151.509 181.92 151.283 181.228C151.058 180.528 150.74 179.988 150.33 179.61C149.919 179.232 149.432 179.043 148.869 179.043C148.273 179.043 147.762 179.232 147.335 179.61C146.909 179.988 146.583 180.528 146.357 181.228C146.132 181.92 146.019 182.753 146.019 183.727C146.019 184.693 146.132 185.526 146.357 186.227C146.583 186.927 146.909 187.466 147.335 187.844C147.762 188.223 148.273 188.412 148.869 188.412ZM161.136 193V174.455H167.607V177.98H167.8C168.138 176.676 168.674 175.722 169.406 175.119C170.147 174.515 171.012 174.213 172.002 174.213C172.292 174.213 172.578 174.237 172.859 174.286C173.149 174.326 173.427 174.386 173.692 174.467V180.153C173.362 180.041 172.956 179.956 172.473 179.9C171.99 179.844 171.576 179.815 171.229 179.815C170.577 179.815 169.99 179.964 169.467 180.262C168.951 180.552 168.545 180.962 168.247 181.494C167.949 182.017 167.8 182.633 167.8 183.341V193H161.136ZM187.701 174.455V179.284H175.482V174.455H187.701ZM177.849 170.011H184.514V187.036C184.514 187.293 184.558 187.51 184.646 187.688C184.735 187.857 184.872 187.985 185.057 188.074C185.242 188.154 185.48 188.195 185.769 188.195C185.971 188.195 186.204 188.17 186.47 188.122C186.743 188.074 186.945 188.034 187.073 188.001L188.039 192.686C187.741 192.775 187.315 192.883 186.759 193.012C186.212 193.141 185.56 193.225 184.803 193.266C183.274 193.346 181.99 193.189 180.952 192.795C179.914 192.392 179.133 191.76 178.61 190.899C178.086 190.038 177.833 188.959 177.849 187.663V170.011ZM201.529 174.455V179.284H189.117V174.455H201.529ZM191.483 193V173.923C191.483 172.394 191.757 171.126 192.304 170.12C192.852 169.114 193.624 168.361 194.623 167.862C195.621 167.363 196.796 167.114 198.148 167.114C198.993 167.114 199.814 167.178 200.611 167.307C201.416 167.436 202.012 167.548 202.398 167.645L201.432 172.426C201.191 172.354 200.909 172.297 200.587 172.257C200.265 172.209 199.983 172.185 199.742 172.185C199.114 172.185 198.691 172.317 198.474 172.583C198.257 172.849 198.148 173.199 198.148 173.634V193H191.483ZM212.471 193.338C210.458 193.338 208.736 192.94 207.303 192.143C205.87 191.338 204.772 190.219 204.007 188.786C203.242 187.345 202.86 185.675 202.86 183.776C202.86 181.876 203.242 180.21 204.007 178.777C204.772 177.336 205.87 176.217 207.303 175.42C208.736 174.616 210.458 174.213 212.471 174.213C214.483 174.213 216.206 174.616 217.638 175.42C219.071 176.217 220.17 177.336 220.934 178.777C221.699 180.21 222.082 181.876 222.082 183.776C222.082 185.675 221.699 187.345 220.934 188.786C220.17 190.219 219.071 191.338 217.638 192.143C216.206 192.94 214.483 193.338 212.471 193.338ZM212.519 188.412C213.082 188.412 213.569 188.223 213.98 187.844C214.39 187.466 214.708 186.927 214.934 186.227C215.159 185.526 215.272 184.693 215.272 183.727C215.272 182.753 215.159 181.92 214.934 181.228C214.708 180.528 214.39 179.988 213.98 179.61C213.569 179.232 213.082 179.043 212.519 179.043C211.923 179.043 211.412 179.232 210.986 179.61C210.559 179.988 210.233 180.528 210.008 181.228C209.782 181.92 209.67 182.753 209.67 183.727C209.67 184.693 209.782 185.526 210.008 186.227C210.233 186.927 210.559 187.466 210.986 187.844C211.412 188.223 211.923 188.412 212.519 188.412ZM231.451 168.273V193H224.786V168.273H231.451ZM234.847 193V174.455H241.511V193H234.847ZM238.179 172.523C237.277 172.523 236.505 172.225 235.861 171.629C235.217 171.034 234.895 170.317 234.895 169.48C234.895 168.643 235.217 167.927 235.861 167.331C236.505 166.735 237.277 166.438 238.179 166.438C239.089 166.438 239.861 166.735 240.497 167.331C241.141 167.927 241.463 168.643 241.463 169.48C241.463 170.317 241.141 171.034 240.497 171.629C239.861 172.225 239.089 172.523 238.179 172.523ZM253.842 193.338C251.829 193.338 250.107 192.94 248.674 192.143C247.241 191.338 246.143 190.219 245.378 188.786C244.613 187.345 244.231 185.675 244.231 183.776C244.231 181.876 244.613 180.21 245.378 178.777C246.143 177.336 247.241 176.217 248.674 175.42C250.107 174.616 251.829 174.213 253.842 174.213C255.854 174.213 257.577 174.616 259.009 175.42C260.442 176.217 261.541 177.336 262.306 178.777C263.07 180.21 263.453 181.876 263.453 183.776C263.453 185.675 263.07 187.345 262.306 188.786C261.541 190.219 260.442 191.338 259.009 192.143C257.577 192.94 255.854 193.338 253.842 193.338ZM253.89 188.412C254.454 188.412 254.941 188.223 255.351 187.844C255.762 187.466 256.079 186.927 256.305 186.227C256.53 185.526 256.643 184.693 256.643 183.727C256.643 182.753 256.53 181.92 256.305 181.228C256.079 180.528 255.762 179.988 255.351 179.61C254.941 179.232 254.454 179.043 253.89 179.043C253.294 179.043 252.783 179.232 252.357 179.61C251.93 179.988 251.604 180.528 251.379 181.228C251.153 181.92 251.041 182.753 251.041 183.727C251.041 184.693 251.153 185.526 251.379 186.227C251.604 186.927 251.93 187.466 252.357 187.844C252.783 188.223 253.294 188.412 253.89 188.412Z" fill="white"/>
<path d="M53.9918 227.364V239H52.6282L46.2873 229.864H46.1737V239H44.7646V227.364H46.1282L52.4918 236.523H52.6055V227.364H53.9918ZM60.2887 239.182C59.4478 239.182 58.7224 238.996 58.1126 238.625C57.5065 238.25 57.0387 237.727 56.7092 237.057C56.3834 236.383 56.2205 235.598 56.2205 234.705C56.2205 233.811 56.3834 233.023 56.7092 232.341C57.0387 231.655 57.497 231.121 58.0842 230.739C58.6751 230.352 59.3645 230.159 60.1523 230.159C60.6069 230.159 61.0558 230.235 61.4989 230.386C61.9421 230.538 62.3455 230.784 62.7092 231.125C63.0728 231.462 63.3626 231.909 63.5785 232.466C63.7944 233.023 63.9023 233.708 63.9023 234.523V235.091H57.1751V233.932H62.5387C62.5387 233.439 62.4402 233 62.2433 232.614C62.0501 232.227 61.7736 231.922 61.4137 231.699C61.0576 231.475 60.6372 231.364 60.1523 231.364C59.6183 231.364 59.1561 231.496 58.766 231.761C58.3796 232.023 58.0823 232.364 57.8739 232.784C57.6656 233.205 57.5614 233.655 57.5614 234.136V234.909C57.5614 235.568 57.6751 236.127 57.9023 236.585C58.1334 237.04 58.4535 237.386 58.8626 237.625C59.2717 237.86 59.747 237.977 60.2887 237.977C60.641 237.977 60.9592 237.928 61.2433 237.83C61.5311 237.727 61.7792 237.576 61.9876 237.375C62.1959 237.17 62.3569 236.917 62.4705 236.614L63.766 236.977C63.6296 237.417 63.4004 237.803 63.0785 238.136C62.7565 238.466 62.3588 238.723 61.8853 238.909C61.4118 239.091 60.8796 239.182 60.2887 239.182ZM71.8967 242.273V237.659H71.783C71.6845 237.818 71.5444 238.019 71.3626 238.261C71.1808 238.5 70.9213 238.714 70.5842 238.903C70.247 239.089 69.7982 239.182 69.2376 239.182C68.5103 239.182 67.8683 238.998 67.3114 238.631C66.7546 238.259 66.319 237.737 66.0046 237.062C65.6902 236.384 65.533 235.583 65.533 234.659C65.533 233.742 65.6902 232.947 66.0046 232.273C66.319 231.598 66.7565 231.078 67.3171 230.71C67.8777 230.343 68.5254 230.159 69.2603 230.159C69.8285 230.159 70.2773 230.254 70.6069 230.443C70.9402 230.629 71.194 230.841 71.3683 231.08C71.5463 231.314 71.6845 231.508 71.783 231.659H71.9421V230.273H73.2376V242.273H71.8967ZM69.4194 237.977C69.9573 237.977 70.4118 237.837 70.783 237.557C71.1542 237.273 71.4364 236.881 71.6296 236.381C71.8228 235.877 71.9194 235.295 71.9194 234.636C71.9194 233.985 71.8247 233.415 71.6353 232.926C71.4459 232.434 71.1656 232.051 70.7944 231.778C70.4232 231.502 69.9648 231.364 69.4194 231.364C68.8512 231.364 68.3777 231.509 67.9989 231.801C67.6239 232.089 67.3417 232.481 67.1523 232.977C66.9667 233.47 66.8739 234.023 66.8739 234.636C66.8739 235.258 66.9686 235.822 67.158 236.33C67.3512 236.833 67.6353 237.235 68.0103 237.534C68.3891 237.83 68.8588 237.977 69.4194 237.977ZM81.1921 235.432V230.273H82.533V239H81.1921V237.523H81.1012C80.8967 237.966 80.5785 238.343 80.1467 238.653C79.7148 238.96 79.1694 239.114 78.5103 239.114C77.9648 239.114 77.48 238.994 77.0558 238.756C76.6315 238.513 76.2982 238.15 76.0558 237.665C75.8133 237.176 75.6921 236.561 75.6921 235.818V230.273H77.033V235.727C77.033 236.364 77.2111 236.871 77.5671 237.25C77.927 237.629 78.3853 237.818 78.9421 237.818C79.2755 237.818 79.6145 237.733 79.9592 237.562C80.3076 237.392 80.5993 237.131 80.8342 236.778C81.0728 236.426 81.1921 235.977 81.1921 235.432ZM88.6481 239.182C87.8072 239.182 87.0818 238.996 86.4719 238.625C85.8659 238.25 85.3981 237.727 85.0685 237.057C84.7428 236.383 84.5799 235.598 84.5799 234.705C84.5799 233.811 84.7428 233.023 85.0685 232.341C85.3981 231.655 85.8564 231.121 86.4435 230.739C87.0344 230.352 87.7238 230.159 88.5117 230.159C88.9663 230.159 89.4151 230.235 89.8583 230.386C90.3015 230.538 90.7049 230.784 91.0685 231.125C91.4322 231.462 91.7219 231.909 91.9379 232.466C92.1538 233.023 92.2617 233.708 92.2617 234.523V235.091H85.5344V233.932H90.8981C90.8981 233.439 90.7996 233 90.6026 232.614C90.4094 232.227 90.1329 231.922 89.7731 231.699C89.417 231.475 88.9966 231.364 88.5117 231.364C87.9776 231.364 87.5155 231.496 87.1254 231.761C86.739 232.023 86.4416 232.364 86.2333 232.784C86.025 233.205 85.9208 233.655 85.9208 234.136V234.909C85.9208 235.568 86.0344 236.127 86.2617 236.585C86.4928 237.04 86.8129 237.386 87.2219 237.625C87.631 237.86 88.1064 237.977 88.6481 237.977C89.0004 237.977 89.3185 237.928 89.6026 237.83C89.8905 237.727 90.1386 237.576 90.3469 237.375C90.5553 237.17 90.7163 236.917 90.8299 236.614L92.1254 236.977C91.989 237.417 91.7598 237.803 91.4379 238.136C91.1159 238.466 90.7182 238.723 90.2447 238.909C89.7712 239.091 89.239 239.182 88.6481 239.182ZM98.8015 242.273V230.273H100.097V231.659H100.256C100.355 231.508 100.491 231.314 100.665 231.08C100.843 230.841 101.097 230.629 101.426 230.443C101.76 230.254 102.211 230.159 102.779 230.159C103.514 230.159 104.161 230.343 104.722 230.71C105.283 231.078 105.72 231.598 106.034 232.273C106.349 232.947 106.506 233.742 106.506 234.659C106.506 235.583 106.349 236.384 106.034 237.062C105.72 237.737 105.284 238.259 104.728 238.631C104.171 238.998 103.529 239.182 102.801 239.182C102.241 239.182 101.792 239.089 101.455 238.903C101.118 238.714 100.858 238.5 100.676 238.261C100.495 238.019 100.355 237.818 100.256 237.659H100.142V242.273H98.8015ZM100.12 234.636C100.12 235.295 100.216 235.877 100.409 236.381C100.603 236.881 100.885 237.273 101.256 237.557C101.627 237.837 102.082 237.977 102.62 237.977C103.18 237.977 103.648 237.83 104.023 237.534C104.402 237.235 104.686 236.833 104.875 236.33C105.069 235.822 105.165 235.258 105.165 234.636C105.165 234.023 105.07 233.47 104.881 232.977C104.695 232.481 104.413 232.089 104.034 231.801C103.659 231.509 103.188 231.364 102.62 231.364C102.074 231.364 101.616 231.502 101.245 231.778C100.873 232.051 100.593 232.434 100.404 232.926C100.214 233.415 100.12 233.985 100.12 234.636ZM112.097 239.182C111.309 239.182 110.618 238.994 110.023 238.619C109.432 238.244 108.97 237.72 108.637 237.045C108.307 236.371 108.142 235.583 108.142 234.682C108.142 233.773 108.307 232.979 108.637 232.301C108.97 231.623 109.432 231.097 110.023 230.722C110.618 230.347 111.309 230.159 112.097 230.159C112.885 230.159 113.574 230.347 114.165 230.722C114.76 231.097 115.222 231.623 115.551 232.301C115.885 232.979 116.051 233.773 116.051 234.682C116.051 235.583 115.885 236.371 115.551 237.045C115.222 237.72 114.76 238.244 114.165 238.619C113.574 238.994 112.885 239.182 112.097 239.182ZM112.097 237.977C112.695 237.977 113.188 237.824 113.574 237.517C113.961 237.21 114.247 236.807 114.432 236.307C114.618 235.807 114.711 235.265 114.711 234.682C114.711 234.098 114.618 233.555 114.432 233.051C114.247 232.547 113.961 232.14 113.574 231.83C113.188 231.519 112.695 231.364 112.097 231.364C111.498 231.364 111.006 231.519 110.62 231.83C110.233 232.14 109.947 232.547 109.762 233.051C109.576 233.555 109.483 234.098 109.483 234.682C109.483 235.265 109.576 235.807 109.762 236.307C109.947 236.807 110.233 237.21 110.62 237.517C111.006 237.824 111.498 237.977 112.097 237.977ZM118.098 239V230.273H119.394V231.591H119.485C119.644 231.159 119.932 230.809 120.348 230.54C120.765 230.271 121.235 230.136 121.757 230.136C121.856 230.136 121.979 230.138 122.127 230.142C122.275 230.146 122.386 230.152 122.462 230.159V231.523C122.417 231.511 122.312 231.494 122.15 231.472C121.99 231.445 121.822 231.432 121.644 231.432C121.22 231.432 120.841 231.521 120.507 231.699C120.178 231.873 119.917 232.116 119.723 232.426C119.534 232.733 119.439 233.083 119.439 233.477V239H118.098ZM124.051 239V230.273H125.347V231.591H125.438C125.597 231.159 125.885 230.809 126.301 230.54C126.718 230.271 127.188 230.136 127.711 230.136C127.809 230.136 127.932 230.138 128.08 230.142C128.228 230.146 128.339 230.152 128.415 230.159V231.523C128.37 231.511 128.266 231.494 128.103 231.472C127.944 231.445 127.775 231.432 127.597 231.432C127.173 231.432 126.794 231.521 126.461 231.699C126.131 231.873 125.87 232.116 125.676 232.426C125.487 232.733 125.392 233.083 125.392 233.477V239H124.051ZM133.284 239.182C132.497 239.182 131.805 238.994 131.211 238.619C130.62 238.244 130.158 237.72 129.824 237.045C129.495 236.371 129.33 235.583 129.33 234.682C129.33 233.773 129.495 232.979 129.824 232.301C130.158 231.623 130.62 231.097 131.211 230.722C131.805 230.347 132.497 230.159 133.284 230.159C134.072 230.159 134.762 230.347 135.353 230.722C135.947 231.097 136.409 231.623 136.739 232.301C137.072 232.979 137.239 233.773 137.239 234.682C137.239 235.583 137.072 236.371 136.739 237.045C136.409 237.72 135.947 238.244 135.353 238.619C134.762 238.994 134.072 239.182 133.284 239.182ZM133.284 237.977C133.883 237.977 134.375 237.824 134.762 237.517C135.148 237.21 135.434 236.807 135.62 236.307C135.805 235.807 135.898 235.265 135.898 234.682C135.898 234.098 135.805 233.555 135.62 233.051C135.434 232.547 135.148 232.14 134.762 231.83C134.375 231.519 133.883 231.364 133.284 231.364C132.686 231.364 132.194 231.519 131.807 231.83C131.421 232.14 131.135 232.547 130.949 233.051C130.764 233.555 130.671 234.098 130.671 234.682C130.671 235.265 130.764 235.807 130.949 236.307C131.135 236.807 131.421 237.21 131.807 237.517C132.194 237.824 132.686 237.977 133.284 237.977ZM149.74 242.273V237.659H149.627C149.528 237.818 149.388 238.019 149.206 238.261C149.025 238.5 148.765 238.714 148.428 238.903C148.091 239.089 147.642 239.182 147.081 239.182C146.354 239.182 145.712 238.998 145.155 238.631C144.598 238.259 144.163 237.737 143.848 237.062C143.534 236.384 143.377 235.583 143.377 234.659C143.377 233.742 143.534 232.947 143.848 232.273C144.163 231.598 144.6 231.078 145.161 230.71C145.721 230.343 146.369 230.159 147.104 230.159C147.672 230.159 148.121 230.254 148.451 230.443C148.784 230.629 149.038 230.841 149.212 231.08C149.39 231.314 149.528 231.508 149.627 231.659H149.786V230.273H151.081V242.273H149.74ZM147.263 237.977C147.801 237.977 148.256 237.837 148.627 237.557C148.998 237.273 149.28 236.881 149.473 236.381C149.667 235.877 149.763 235.295 149.763 234.636C149.763 233.985 149.668 233.415 149.479 232.926C149.29 232.434 149.009 232.051 148.638 231.778C148.267 231.502 147.809 231.364 147.263 231.364C146.695 231.364 146.221 231.509 145.843 231.801C145.468 232.089 145.185 232.481 144.996 232.977C144.81 233.47 144.718 234.023 144.718 234.636C144.718 235.258 144.812 235.822 145.002 236.33C145.195 236.833 145.479 237.235 145.854 237.534C146.233 237.83 146.703 237.977 147.263 237.977ZM159.036 235.432V230.273H160.377V239H159.036V237.523H158.945C158.74 237.966 158.422 238.343 157.99 238.653C157.559 238.96 157.013 239.114 156.354 239.114C155.809 239.114 155.324 238.994 154.9 238.756C154.475 238.513 154.142 238.15 153.9 237.665C153.657 237.176 153.536 236.561 153.536 235.818V230.273H154.877V235.727C154.877 236.364 155.055 236.871 155.411 237.25C155.771 237.629 156.229 237.818 156.786 237.818C157.119 237.818 157.458 237.733 157.803 237.562C158.151 237.392 158.443 237.131 158.678 236.778C158.917 236.426 159.036 235.977 159.036 235.432ZM162.833 239V230.273H164.174V239H162.833ZM163.515 228.818C163.253 228.818 163.028 228.729 162.838 228.551C162.653 228.373 162.56 228.159 162.56 227.909C162.56 227.659 162.653 227.445 162.838 227.267C163.028 227.089 163.253 227 163.515 227C163.776 227 163.999 227.089 164.185 227.267C164.374 227.445 164.469 227.659 164.469 227.909C164.469 228.159 164.374 228.373 164.185 228.551C163.999 228.729 163.776 228.818 163.515 228.818ZM172.811 232.227L171.607 232.568C171.531 232.367 171.419 232.172 171.272 231.983C171.128 231.79 170.931 231.631 170.681 231.506C170.431 231.381 170.111 231.318 169.721 231.318C169.186 231.318 168.741 231.441 168.385 231.688C168.033 231.93 167.857 232.239 167.857 232.614C167.857 232.947 167.978 233.21 168.221 233.403C168.463 233.597 168.842 233.758 169.357 233.886L170.652 234.205C171.433 234.394 172.014 234.684 172.397 235.074C172.779 235.46 172.971 235.958 172.971 236.568C172.971 237.068 172.827 237.515 172.539 237.909C172.255 238.303 171.857 238.614 171.346 238.841C170.834 239.068 170.239 239.182 169.561 239.182C168.671 239.182 167.935 238.989 167.351 238.602C166.768 238.216 166.399 237.652 166.243 236.909L167.516 236.591C167.637 237.061 167.866 237.413 168.203 237.648C168.544 237.883 168.989 238 169.539 238C170.164 238 170.66 237.867 171.027 237.602C171.399 237.333 171.584 237.011 171.584 236.636C171.584 236.333 171.478 236.08 171.266 235.875C171.054 235.667 170.728 235.511 170.289 235.409L168.834 235.068C168.035 234.879 167.448 234.585 167.073 234.188C166.702 233.786 166.516 233.284 166.516 232.682C166.516 232.189 166.654 231.754 166.931 231.375C167.211 230.996 167.592 230.699 168.073 230.483C168.558 230.267 169.107 230.159 169.721 230.159C170.584 230.159 171.262 230.348 171.755 230.727C172.251 231.106 172.603 231.606 172.811 232.227ZM180.944 242.273V237.659H180.83C180.731 237.818 180.591 238.019 180.409 238.261C180.228 238.5 179.968 238.714 179.631 238.903C179.294 239.089 178.845 239.182 178.284 239.182C177.557 239.182 176.915 238.998 176.358 238.631C175.801 238.259 175.366 237.737 175.051 237.062C174.737 236.384 174.58 235.583 174.58 234.659C174.58 233.742 174.737 232.947 175.051 232.273C175.366 231.598 175.803 231.078 176.364 230.71C176.925 230.343 177.572 230.159 178.307 230.159C178.875 230.159 179.324 230.254 179.654 230.443C179.987 230.629 180.241 230.841 180.415 231.08C180.593 231.314 180.731 231.508 180.83 231.659H180.989V230.273H182.284V242.273H180.944ZM178.466 237.977C179.004 237.977 179.459 237.837 179.83 237.557C180.201 237.273 180.483 236.881 180.676 236.381C180.87 235.877 180.966 235.295 180.966 234.636C180.966 233.985 180.872 233.415 180.682 232.926C180.493 232.434 180.212 232.051 179.841 231.778C179.47 231.502 179.012 231.364 178.466 231.364C177.898 231.364 177.425 231.509 177.046 231.801C176.671 232.089 176.389 232.481 176.199 232.977C176.014 233.47 175.921 234.023 175.921 234.636C175.921 235.258 176.016 235.822 176.205 236.33C176.398 236.833 176.682 237.235 177.057 237.534C177.436 237.83 177.906 237.977 178.466 237.977ZM190.239 235.432V230.273H191.58V239H190.239V237.523H190.148C189.944 237.966 189.625 238.343 189.194 238.653C188.762 238.96 188.216 239.114 187.557 239.114C187.012 239.114 186.527 238.994 186.103 238.756C185.678 238.513 185.345 238.15 185.103 237.665C184.86 237.176 184.739 236.561 184.739 235.818V230.273H186.08V235.727C186.08 236.364 186.258 236.871 186.614 237.25C186.974 237.629 187.432 237.818 187.989 237.818C188.322 237.818 188.661 237.733 189.006 237.562C189.355 237.392 189.646 237.131 189.881 236.778C190.12 236.426 190.239 235.977 190.239 235.432ZM196.604 239.205C196.051 239.205 195.549 239.1 195.098 238.892C194.648 238.68 194.29 238.375 194.025 237.977C193.759 237.576 193.627 237.091 193.627 236.523C193.627 236.023 193.725 235.617 193.922 235.307C194.119 234.992 194.382 234.746 194.712 234.568C195.042 234.39 195.405 234.258 195.803 234.17C196.204 234.08 196.608 234.008 197.013 233.955C197.543 233.886 197.973 233.835 198.303 233.801C198.636 233.763 198.879 233.701 199.03 233.614C199.185 233.527 199.263 233.375 199.263 233.159V233.114C199.263 232.553 199.11 232.117 198.803 231.807C198.5 231.496 198.04 231.341 197.422 231.341C196.782 231.341 196.28 231.481 195.917 231.761C195.553 232.042 195.297 232.341 195.15 232.659L193.877 232.205C194.104 231.674 194.407 231.261 194.786 230.966C195.168 230.667 195.585 230.458 196.036 230.341C196.49 230.22 196.937 230.159 197.377 230.159C197.657 230.159 197.979 230.193 198.343 230.261C198.71 230.326 199.064 230.46 199.405 230.665C199.75 230.869 200.036 231.178 200.263 231.591C200.49 232.004 200.604 232.557 200.604 233.25V239H199.263V237.818H199.195C199.104 238.008 198.953 238.21 198.74 238.426C198.528 238.642 198.246 238.826 197.894 238.977C197.542 239.129 197.112 239.205 196.604 239.205ZM196.809 238C197.339 238 197.786 237.896 198.15 237.688C198.517 237.479 198.793 237.21 198.979 236.881C199.168 236.551 199.263 236.205 199.263 235.841V234.614C199.206 234.682 199.081 234.744 198.888 234.801C198.699 234.854 198.479 234.902 198.229 234.943C197.983 234.981 197.742 235.015 197.507 235.045C197.276 235.072 197.089 235.095 196.945 235.114C196.596 235.159 196.271 235.233 195.968 235.335C195.668 235.434 195.426 235.583 195.24 235.784C195.059 235.981 194.968 236.25 194.968 236.591C194.968 237.057 195.14 237.409 195.485 237.648C195.833 237.883 196.275 238 196.809 238ZM203.051 239V230.273H204.347V231.636H204.461C204.642 231.17 204.936 230.809 205.341 230.551C205.747 230.29 206.233 230.159 206.801 230.159C207.377 230.159 207.856 230.29 208.239 230.551C208.625 230.809 208.926 231.17 209.142 231.636H209.233C209.457 231.186 209.792 230.828 210.239 230.562C210.686 230.294 211.222 230.159 211.847 230.159C212.627 230.159 213.266 230.403 213.762 230.892C214.258 231.377 214.506 232.133 214.506 233.159V239H213.165V233.159C213.165 232.515 212.989 232.055 212.637 231.778C212.284 231.502 211.87 231.364 211.392 231.364C210.779 231.364 210.303 231.549 209.966 231.92C209.629 232.288 209.461 232.754 209.461 233.318V239H208.097V233.023C208.097 232.527 207.936 232.127 207.614 231.824C207.292 231.517 206.877 231.364 206.37 231.364C206.021 231.364 205.695 231.456 205.392 231.642C205.093 231.828 204.851 232.085 204.665 232.415C204.483 232.741 204.392 233.117 204.392 233.545V239H203.051ZM225.117 239.182C224.276 239.182 223.551 238.996 222.941 238.625C222.335 238.25 221.867 237.727 221.537 237.057C221.212 236.383 221.049 235.598 221.049 234.705C221.049 233.811 221.212 233.023 221.537 232.341C221.867 231.655 222.325 231.121 222.912 230.739C223.503 230.352 224.193 230.159 224.98 230.159C225.435 230.159 225.884 230.235 226.327 230.386C226.77 230.538 227.174 230.784 227.537 231.125C227.901 231.462 228.191 231.909 228.407 232.466C228.623 233.023 228.73 233.708 228.73 234.523V235.091H222.003V233.932H227.367C227.367 233.439 227.268 233 227.071 232.614C226.878 232.227 226.602 231.922 226.242 231.699C225.886 231.475 225.465 231.364 224.98 231.364C224.446 231.364 223.984 231.496 223.594 231.761C223.208 232.023 222.91 232.364 222.702 232.784C222.494 233.205 222.39 233.655 222.39 234.136V234.909C222.39 235.568 222.503 236.127 222.73 236.585C222.962 237.04 223.282 237.386 223.691 237.625C224.1 237.86 224.575 237.977 225.117 237.977C225.469 237.977 225.787 237.928 226.071 237.83C226.359 237.727 226.607 237.576 226.816 237.375C227.024 237.17 227.185 236.917 227.299 236.614L228.594 236.977C228.458 237.417 228.229 237.803 227.907 238.136C227.585 238.466 227.187 238.723 226.713 238.909C226.24 239.091 225.708 239.182 225.117 239.182ZM236.952 232.227L235.748 232.568C235.672 232.367 235.56 232.172 235.412 231.983C235.268 231.79 235.071 231.631 234.821 231.506C234.571 231.381 234.251 231.318 233.861 231.318C233.327 231.318 232.882 231.441 232.526 231.688C232.174 231.93 231.998 232.239 231.998 232.614C231.998 232.947 232.119 233.21 232.361 233.403C232.604 233.597 232.982 233.758 233.498 233.886L234.793 234.205C235.573 234.394 236.155 234.684 236.537 235.074C236.92 235.46 237.111 235.958 237.111 236.568C237.111 237.068 236.967 237.515 236.679 237.909C236.395 238.303 235.998 238.614 235.486 238.841C234.975 239.068 234.38 239.182 233.702 239.182C232.812 239.182 232.075 238.989 231.492 238.602C230.908 238.216 230.539 237.652 230.384 236.909L231.657 236.591C231.778 237.061 232.007 237.413 232.344 237.648C232.685 237.883 233.13 238 233.679 238C234.304 238 234.801 237.867 235.168 237.602C235.539 237.333 235.725 237.011 235.725 236.636C235.725 236.333 235.619 236.08 235.407 235.875C235.194 235.667 234.869 235.511 234.429 235.409L232.975 235.068C232.176 234.879 231.588 234.585 231.213 234.188C230.842 233.786 230.657 233.284 230.657 232.682C230.657 232.189 230.795 231.754 231.071 231.375C231.352 230.996 231.732 230.699 232.213 230.483C232.698 230.267 233.248 230.159 233.861 230.159C234.725 230.159 235.403 230.348 235.895 230.727C236.391 231.106 236.744 231.606 236.952 232.227ZM242.925 230.273V231.409H238.402V230.273H242.925ZM239.721 228.182H241.061V236.5C241.061 236.879 241.116 237.163 241.226 237.352C241.34 237.538 241.484 237.663 241.658 237.727C241.836 237.788 242.024 237.818 242.221 237.818C242.368 237.818 242.489 237.811 242.584 237.795C242.679 237.777 242.755 237.761 242.811 237.75L243.084 238.955C242.993 238.989 242.866 239.023 242.703 239.057C242.541 239.095 242.334 239.114 242.084 239.114C241.705 239.114 241.334 239.032 240.971 238.869C240.611 238.706 240.311 238.458 240.073 238.125C239.838 237.792 239.721 237.371 239.721 236.864V228.182ZM255.397 242.273V237.659H255.283C255.185 237.818 255.044 238.019 254.863 238.261C254.681 238.5 254.421 238.714 254.084 238.903C253.747 239.089 253.298 239.182 252.738 239.182C252.01 239.182 251.368 238.998 250.811 238.631C250.255 238.259 249.819 237.737 249.505 237.062C249.19 236.384 249.033 235.583 249.033 234.659C249.033 233.742 249.19 232.947 249.505 232.273C249.819 231.598 250.257 231.078 250.817 230.71C251.378 230.343 252.025 230.159 252.76 230.159C253.328 230.159 253.777 230.254 254.107 230.443C254.44 230.629 254.694 230.841 254.868 231.08C255.046 231.314 255.185 231.508 255.283 231.659H255.442V230.273H256.738V242.273H255.397ZM252.919 237.977C253.457 237.977 253.912 237.837 254.283 237.557C254.654 237.273 254.936 236.881 255.13 236.381C255.323 235.877 255.419 235.295 255.419 234.636C255.419 233.985 255.325 233.415 255.135 232.926C254.946 232.434 254.666 232.051 254.294 231.778C253.923 231.502 253.465 231.364 252.919 231.364C252.351 231.364 251.878 231.509 251.499 231.801C251.124 232.089 250.842 232.481 250.652 232.977C250.467 233.47 250.374 234.023 250.374 234.636C250.374 235.258 250.469 235.822 250.658 236.33C250.851 236.833 251.135 237.235 251.51 237.534C251.889 237.83 252.359 237.977 252.919 237.977ZM264.692 235.432V230.273H266.033V239H264.692V237.523H264.601C264.397 237.966 264.078 238.343 263.647 238.653C263.215 238.96 262.669 239.114 262.01 239.114C261.465 239.114 260.98 238.994 260.556 238.756C260.132 238.513 259.798 238.15 259.556 237.665C259.313 237.176 259.192 236.561 259.192 235.818V230.273H260.533V235.727C260.533 236.364 260.711 236.871 261.067 237.25C261.427 237.629 261.885 237.818 262.442 237.818C262.775 237.818 263.114 237.733 263.459 237.562C263.808 237.392 264.099 237.131 264.334 236.778C264.573 236.426 264.692 235.977 264.692 235.432ZM268.489 239V230.273H269.83V239H268.489ZM269.171 228.818C268.909 228.818 268.684 228.729 268.495 228.551C268.309 228.373 268.216 228.159 268.216 227.909C268.216 227.659 268.309 227.445 268.495 227.267C268.684 227.089 268.909 227 269.171 227C269.432 227 269.656 227.089 269.841 227.267C270.031 227.445 270.125 227.659 270.125 227.909C270.125 228.159 270.031 228.373 269.841 228.551C269.656 228.729 269.432 228.818 269.171 228.818ZM280.081 239.182C279.354 239.182 278.712 238.998 278.155 238.631C277.598 238.259 277.163 237.737 276.848 237.062C276.534 236.384 276.377 235.583 276.377 234.659C276.377 233.742 276.534 232.947 276.848 232.273C277.163 231.598 277.6 231.078 278.161 230.71C278.721 230.343 279.369 230.159 280.104 230.159C280.672 230.159 281.121 230.254 281.451 230.443C281.784 230.629 282.038 230.841 282.212 231.08C282.39 231.314 282.528 231.508 282.627 231.659H282.74V227.364H284.081V239H282.786V237.659H282.627C282.528 237.818 282.388 238.019 282.206 238.261C282.025 238.5 281.765 238.714 281.428 238.903C281.091 239.089 280.642 239.182 280.081 239.182ZM280.263 237.977C280.801 237.977 281.256 237.837 281.627 237.557C281.998 237.273 282.28 236.881 282.473 236.381C282.667 235.877 282.763 235.295 282.763 234.636C282.763 233.985 282.668 233.415 282.479 232.926C282.29 232.434 282.009 232.051 281.638 231.778C281.267 231.502 280.809 231.364 280.263 231.364C279.695 231.364 279.221 231.509 278.843 231.801C278.468 232.089 278.185 232.481 277.996 232.977C277.81 233.47 277.718 234.023 277.718 234.636C277.718 235.258 277.812 235.822 278.002 236.33C278.195 236.833 278.479 237.235 278.854 237.534C279.233 237.83 279.703 237.977 280.263 237.977ZM290.269 239.182C289.481 239.182 288.79 238.994 288.195 238.619C287.604 238.244 287.142 237.72 286.809 237.045C286.479 236.371 286.314 235.583 286.314 234.682C286.314 233.773 286.479 232.979 286.809 232.301C287.142 231.623 287.604 231.097 288.195 230.722C288.79 230.347 289.481 230.159 290.269 230.159C291.057 230.159 291.746 230.347 292.337 230.722C292.932 231.097 293.394 231.623 293.723 232.301C294.057 232.979 294.223 233.773 294.223 234.682C294.223 235.583 294.057 236.371 293.723 237.045C293.394 237.72 292.932 238.244 292.337 238.619C291.746 238.994 291.057 239.182 290.269 239.182ZM290.269 237.977C290.867 237.977 291.36 237.824 291.746 237.517C292.132 237.21 292.418 236.807 292.604 236.307C292.79 235.807 292.882 235.265 292.882 234.682C292.882 234.098 292.79 233.555 292.604 233.051C292.418 232.547 292.132 232.14 291.746 231.83C291.36 231.519 290.867 231.364 290.269 231.364C289.67 231.364 289.178 231.519 288.792 231.83C288.405 232.14 288.119 232.547 287.934 233.051C287.748 233.555 287.655 234.098 287.655 234.682C287.655 235.265 287.748 235.807 287.934 236.307C288.119 236.807 288.405 237.21 288.792 237.517C289.178 237.824 289.67 237.977 290.269 237.977ZM297.611 227.364V239H296.27V227.364H297.611ZM303.613 239.182C302.825 239.182 302.133 238.994 301.539 238.619C300.948 238.244 300.486 237.72 300.152 237.045C299.823 236.371 299.658 235.583 299.658 234.682C299.658 233.773 299.823 232.979 300.152 232.301C300.486 231.623 300.948 231.097 301.539 230.722C302.133 230.347 302.825 230.159 303.613 230.159C304.4 230.159 305.09 230.347 305.681 230.722C306.275 231.097 306.738 231.623 307.067 232.301C307.4 232.979 307.567 233.773 307.567 234.682C307.567 235.583 307.4 236.371 307.067 237.045C306.738 237.72 306.275 238.244 305.681 238.619C305.09 238.994 304.4 239.182 303.613 239.182ZM303.613 237.977C304.211 237.977 304.703 237.824 305.09 237.517C305.476 237.21 305.762 236.807 305.948 236.307C306.133 235.807 306.226 235.265 306.226 234.682C306.226 234.098 306.133 233.555 305.948 233.051C305.762 232.547 305.476 232.14 305.09 231.83C304.703 231.519 304.211 231.364 303.613 231.364C303.014 231.364 302.522 231.519 302.135 231.83C301.749 232.14 301.463 232.547 301.277 233.051C301.092 233.555 300.999 234.098 300.999 234.682C300.999 235.265 301.092 235.807 301.277 236.307C301.463 236.807 301.749 237.21 302.135 237.517C302.522 237.824 303.014 237.977 303.613 237.977ZM309.614 239V230.273H310.909V231.591H311C311.159 231.159 311.447 230.809 311.864 230.54C312.281 230.271 312.75 230.136 313.273 230.136C313.372 230.136 313.495 230.138 313.642 230.142C313.79 230.146 313.902 230.152 313.978 230.159V231.523C313.932 231.511 313.828 231.494 313.665 231.472C313.506 231.445 313.337 231.432 313.159 231.432C312.735 231.432 312.356 231.521 312.023 231.699C311.694 231.873 311.432 232.116 311.239 232.426C311.05 232.733 310.955 233.083 310.955 233.477V239H309.614ZM318.961 239.182C318.12 239.182 317.394 238.996 316.784 238.625C316.178 238.25 315.711 237.727 315.381 237.057C315.055 236.383 314.892 235.598 314.892 234.705C314.892 233.811 315.055 233.023 315.381 232.341C315.711 231.655 316.169 231.121 316.756 230.739C317.347 230.352 318.036 230.159 318.824 230.159C319.279 230.159 319.728 230.235 320.171 230.386C320.614 230.538 321.017 230.784 321.381 231.125C321.745 231.462 322.034 231.909 322.25 232.466C322.466 233.023 322.574 233.708 322.574 234.523V235.091H315.847V233.932H321.211C321.211 233.439 321.112 233 320.915 232.614C320.722 232.227 320.445 231.922 320.086 231.699C319.73 231.475 319.309 231.364 318.824 231.364C318.29 231.364 317.828 231.496 317.438 231.761C317.051 232.023 316.754 232.364 316.546 232.784C316.337 233.205 316.233 233.655 316.233 234.136V234.909C316.233 235.568 316.347 236.127 316.574 236.585C316.805 237.04 317.125 237.386 317.534 237.625C317.944 237.86 318.419 237.977 318.961 237.977C319.313 237.977 319.631 237.928 319.915 237.83C320.203 237.727 320.451 237.576 320.659 237.375C320.868 237.17 321.029 236.917 321.142 236.614L322.438 236.977C322.301 237.417 322.072 237.803 321.75 238.136C321.428 238.466 321.031 238.723 320.557 238.909C320.084 239.091 319.551 239.182 318.961 239.182ZM324.614 239V230.273H325.909V231.636H326.023C326.205 231.17 326.498 230.809 326.904 230.551C327.309 230.29 327.796 230.159 328.364 230.159C328.94 230.159 329.419 230.29 329.801 230.551C330.188 230.809 330.489 231.17 330.705 231.636H330.796C331.019 231.186 331.355 230.828 331.801 230.562C332.248 230.294 332.784 230.159 333.409 230.159C334.19 230.159 334.828 230.403 335.324 230.892C335.82 231.377 336.069 232.133 336.069 233.159V239H334.728V233.159C334.728 232.515 334.551 232.055 334.199 231.778C333.847 231.502 333.432 231.364 332.955 231.364C332.341 231.364 331.866 231.549 331.529 231.92C331.192 232.288 331.023 232.754 331.023 233.318V239H329.659V233.023C329.659 232.527 329.498 232.127 329.176 231.824C328.855 231.517 328.44 231.364 327.932 231.364C327.584 231.364 327.258 231.456 326.955 231.642C326.656 231.828 326.413 232.085 326.228 232.415C326.046 232.741 325.955 233.117 325.955 233.545V239H324.614ZM45.1999 263V254.273H46.5408V263H45.1999ZM45.8817 252.818C45.6204 252.818 45.395 252.729 45.2056 252.551C45.02 252.373 44.9272 252.159 44.9272 251.909C44.9272 251.659 45.02 251.445 45.2056 251.267C45.395 251.089 45.6204 251 45.8817 251C46.1431 251 46.3666 251.089 46.5522 251.267C46.7416 251.445 46.8363 251.659 46.8363 251.909C46.8363 252.159 46.7416 252.373 46.5522 252.551C46.3666 252.729 46.1431 252.818 45.8817 252.818ZM48.9968 266.273V254.273H50.2923V255.659H50.4513C50.5498 255.508 50.6862 255.314 50.8604 255.08C51.0385 254.841 51.2923 254.629 51.6218 254.443C51.9551 254.254 52.4059 254.159 52.9741 254.159C53.7089 254.159 54.3567 254.343 54.9173 254.71C55.4779 255.078 55.9154 255.598 56.2298 256.273C56.5442 256.947 56.7013 257.742 56.7013 258.659C56.7013 259.583 56.5442 260.384 56.2298 261.062C55.9154 261.737 55.4798 262.259 54.9229 262.631C54.3661 262.998 53.7241 263.182 52.9968 263.182C52.4362 263.182 51.9873 263.089 51.6502 262.903C51.3131 262.714 51.0536 262.5 50.8718 262.261C50.69 262.019 50.5498 261.818 50.4513 261.659H50.3377V266.273H48.9968ZM50.315 258.636C50.315 259.295 50.4116 259.877 50.6048 260.381C50.7979 260.881 51.0801 261.273 51.4513 261.557C51.8226 261.837 52.2771 261.977 52.815 261.977C53.3756 261.977 53.8434 261.83 54.2184 261.534C54.5972 261.235 54.8813 260.833 55.0707 260.33C55.2638 259.822 55.3604 259.258 55.3604 258.636C55.3604 258.023 55.2657 257.47 55.0763 256.977C54.8907 256.481 54.6085 256.089 54.2298 255.801C53.8548 255.509 53.3832 255.364 52.815 255.364C52.2695 255.364 51.8112 255.502 51.44 255.778C51.0688 256.051 50.7885 256.434 50.5991 256.926C50.4097 257.415 50.315 257.985 50.315 258.636ZM64.9286 256.227L63.7241 256.568C63.6483 256.367 63.5366 256.172 63.3888 255.983C63.2449 255.79 63.0479 255.631 62.7979 255.506C62.5479 255.381 62.2279 255.318 61.8377 255.318C61.3036 255.318 60.8585 255.441 60.5025 255.688C60.1502 255.93 59.9741 256.239 59.9741 256.614C59.9741 256.947 60.0953 257.21 60.3377 257.403C60.5801 257.597 60.9589 257.758 61.4741 257.886L62.7695 258.205C63.5498 258.394 64.1313 258.684 64.5138 259.074C64.8964 259.46 65.0877 259.958 65.0877 260.568C65.0877 261.068 64.9438 261.515 64.6559 261.909C64.3718 262.303 63.9741 262.614 63.4627 262.841C62.9513 263.068 62.3567 263.182 61.6786 263.182C60.7885 263.182 60.0517 262.989 59.4684 262.602C58.8851 262.216 58.5157 261.652 58.3604 260.909L59.6332 260.591C59.7544 261.061 59.9835 261.413 60.3207 261.648C60.6616 261.883 61.1067 262 61.6559 262C62.2809 262 62.7771 261.867 63.1445 261.602C63.5157 261.333 63.7013 261.011 63.7013 260.636C63.7013 260.333 63.5953 260.08 63.3832 259.875C63.171 259.667 62.8453 259.511 62.4059 259.409L60.9513 259.068C60.1521 258.879 59.565 258.585 59.19 258.188C58.8188 257.786 58.6332 257.284 58.6332 256.682C58.6332 256.189 58.7714 255.754 59.0479 255.375C59.3282 254.996 59.7089 254.699 60.19 254.483C60.6748 254.267 61.2241 254.159 61.8377 254.159C62.7013 254.159 63.3794 254.348 63.8718 254.727C64.368 255.106 64.7203 255.606 64.9286 256.227ZM72.6062 259.432V254.273H73.9471V263H72.6062V261.523H72.5153C72.3107 261.966 71.9925 262.343 71.5607 262.653C71.1289 262.96 70.5835 263.114 69.9244 263.114C69.3789 263.114 68.8941 262.994 68.4698 262.756C68.0456 262.513 67.7122 262.15 67.4698 261.665C67.2274 261.176 67.1062 260.561 67.1062 259.818V254.273H68.4471V259.727C68.4471 260.364 68.6251 260.871 68.9812 261.25C69.341 261.629 69.7994 261.818 70.3562 261.818C70.6895 261.818 71.0285 261.733 71.3732 261.562C71.7217 261.392 72.0134 261.131 72.2482 260.778C72.4869 260.426 72.6062 259.977 72.6062 259.432ZM76.4031 263V254.273H77.6985V255.636H77.8121C77.994 255.17 78.2875 254.809 78.6928 254.551C79.0981 254.29 79.5849 254.159 80.1531 254.159C80.7288 254.159 81.208 254.29 81.5906 254.551C81.9769 254.809 82.2781 255.17 82.494 255.636H82.5849C82.8084 255.186 83.1436 254.828 83.5906 254.562C84.0375 254.294 84.5735 254.159 85.1985 254.159C85.9788 254.159 86.6171 254.403 87.1133 254.892C87.6095 255.377 87.8576 256.133 87.8576 257.159V263H86.5167V257.159C86.5167 256.515 86.3406 256.055 85.9883 255.778C85.636 255.502 85.2212 255.364 84.744 255.364C84.1303 255.364 83.6549 255.549 83.3178 255.92C82.9807 256.288 82.8121 256.754 82.8121 257.318V263H81.4485V257.023C81.4485 256.527 81.2875 256.127 80.9656 255.824C80.6436 255.517 80.2288 255.364 79.7212 255.364C79.3728 255.364 79.047 255.456 78.744 255.642C78.4447 255.828 78.2023 256.085 78.0167 256.415C77.8349 256.741 77.744 257.117 77.744 257.545V263H76.4031ZM100.764 266.273V261.659H100.65C100.552 261.818 100.412 262.019 100.23 262.261C100.048 262.5 99.7885 262.714 99.4513 262.903C99.1142 263.089 98.6654 263.182 98.1048 263.182C97.3775 263.182 96.7354 262.998 96.1786 262.631C95.6218 262.259 95.1862 261.737 94.8718 261.062C94.5574 260.384 94.4002 259.583 94.4002 258.659C94.4002 257.742 94.5574 256.947 94.8718 256.273C95.1862 255.598 95.6237 255.078 96.1843 254.71C96.7449 254.343 97.3926 254.159 98.1275 254.159C98.6957 254.159 99.1445 254.254 99.4741 254.443C99.8074 254.629 100.061 254.841 100.235 255.08C100.413 255.314 100.552 255.508 100.65 255.659H100.809V254.273H102.105V266.273H100.764ZM98.2866 261.977C98.8245 261.977 99.279 261.837 99.6502 261.557C100.021 261.273 100.304 260.881 100.497 260.381C100.69 259.877 100.787 259.295 100.787 258.636C100.787 257.985 100.692 257.415 100.502 256.926C100.313 256.434 100.033 256.051 99.6616 255.778C99.2904 255.502 98.832 255.364 98.2866 255.364C97.7184 255.364 97.2449 255.509 96.8661 255.801C96.4911 256.089 96.2089 256.481 96.0195 256.977C95.8339 257.47 95.7411 258.023 95.7411 258.636C95.7411 259.258 95.8358 259.822 96.0252 260.33C96.2184 260.833 96.5025 261.235 96.8775 261.534C97.2563 261.83 97.726 261.977 98.2866 261.977ZM110.059 259.432V254.273H111.4V263H110.059V261.523H109.968C109.764 261.966 109.446 262.343 109.014 262.653C108.582 262.96 108.037 263.114 107.377 263.114C106.832 263.114 106.347 262.994 105.923 262.756C105.499 262.513 105.165 262.15 104.923 261.665C104.681 261.176 104.559 260.561 104.559 259.818V254.273H105.9V259.727C105.9 260.364 106.078 260.871 106.434 261.25C106.794 261.629 107.252 261.818 107.809 261.818C108.143 261.818 108.482 261.733 108.826 261.562C109.175 261.392 109.467 261.131 109.701 260.778C109.94 260.426 110.059 259.977 110.059 259.432ZM113.856 263V254.273H115.197V263H113.856ZM114.538 252.818C114.277 252.818 114.051 252.729 113.862 252.551C113.676 252.373 113.583 252.159 113.583 251.909C113.583 251.659 113.676 251.445 113.862 251.267C114.051 251.089 114.277 251 114.538 251C114.799 251 115.023 251.089 115.208 251.267C115.398 251.445 115.493 251.659 115.493 251.909C115.493 252.159 115.398 252.373 115.208 252.551C115.023 252.729 114.799 252.818 114.538 252.818ZM120.221 263.205C119.668 263.205 119.166 263.1 118.716 262.892C118.265 262.68 117.907 262.375 117.642 261.977C117.377 261.576 117.244 261.091 117.244 260.523C117.244 260.023 117.342 259.617 117.539 259.307C117.736 258.992 118 258.746 118.329 258.568C118.659 258.39 119.022 258.258 119.42 258.17C119.822 258.08 120.225 258.008 120.63 257.955C121.161 257.886 121.591 257.835 121.92 257.801C122.253 257.763 122.496 257.701 122.647 257.614C122.803 257.527 122.88 257.375 122.88 257.159V257.114C122.88 256.553 122.727 256.117 122.42 255.807C122.117 255.496 121.657 255.341 121.039 255.341C120.399 255.341 119.897 255.481 119.534 255.761C119.17 256.042 118.914 256.341 118.767 256.659L117.494 256.205C117.721 255.674 118.024 255.261 118.403 254.966C118.786 254.667 119.202 254.458 119.653 254.341C120.108 254.22 120.555 254.159 120.994 254.159C121.274 254.159 121.596 254.193 121.96 254.261C122.327 254.326 122.681 254.46 123.022 254.665C123.367 254.869 123.653 255.178 123.88 255.591C124.108 256.004 124.221 256.557 124.221 257.25V263H122.88V261.818H122.812C122.721 262.008 122.57 262.21 122.358 262.426C122.145 262.642 121.863 262.826 121.511 262.977C121.159 263.129 120.729 263.205 120.221 263.205ZM120.426 262C120.956 262 121.403 261.896 121.767 261.688C122.134 261.479 122.411 261.21 122.596 260.881C122.786 260.551 122.88 260.205 122.88 259.841V258.614C122.824 258.682 122.699 258.744 122.505 258.801C122.316 258.854 122.096 258.902 121.846 258.943C121.6 258.981 121.359 259.015 121.125 259.045C120.894 259.072 120.706 259.095 120.562 259.114C120.214 259.159 119.888 259.233 119.585 259.335C119.286 259.434 119.043 259.583 118.858 259.784C118.676 259.981 118.585 260.25 118.585 260.591C118.585 261.057 118.757 261.409 119.102 261.648C119.45 261.883 119.892 262 120.426 262ZM134.464 263.182C133.737 263.182 133.095 262.998 132.538 262.631C131.981 262.259 131.546 261.737 131.231 261.062C130.917 260.384 130.76 259.583 130.76 258.659C130.76 257.742 130.917 256.947 131.231 256.273C131.546 255.598 131.983 255.078 132.544 254.71C133.104 254.343 133.752 254.159 134.487 254.159C135.055 254.159 135.504 254.254 135.833 254.443C136.167 254.629 136.421 254.841 136.595 255.08C136.773 255.314 136.911 255.508 137.01 255.659H137.123V251.364H138.464V263H137.169V261.659H137.01C136.911 261.818 136.771 262.019 136.589 262.261C136.407 262.5 136.148 262.714 135.811 262.903C135.474 263.089 135.025 263.182 134.464 263.182ZM134.646 261.977C135.184 261.977 135.638 261.837 136.01 261.557C136.381 261.273 136.663 260.881 136.856 260.381C137.049 259.877 137.146 259.295 137.146 258.636C137.146 257.985 137.051 257.415 136.862 256.926C136.672 256.434 136.392 256.051 136.021 255.778C135.65 255.502 135.191 255.364 134.646 255.364C134.078 255.364 133.604 255.509 133.225 255.801C132.85 256.089 132.568 256.481 132.379 256.977C132.193 257.47 132.1 258.023 132.1 258.636C132.1 259.258 132.195 259.822 132.385 260.33C132.578 260.833 132.862 261.235 133.237 261.534C133.616 261.83 134.085 261.977 134.646 261.977ZM144.652 263.182C143.864 263.182 143.172 262.994 142.578 262.619C141.987 262.244 141.525 261.72 141.191 261.045C140.862 260.371 140.697 259.583 140.697 258.682C140.697 257.773 140.862 256.979 141.191 256.301C141.525 255.623 141.987 255.097 142.578 254.722C143.172 254.347 143.864 254.159 144.652 254.159C145.44 254.159 146.129 254.347 146.72 254.722C147.315 255.097 147.777 255.623 148.106 256.301C148.44 256.979 148.606 257.773 148.606 258.682C148.606 259.583 148.44 260.371 148.106 261.045C147.777 261.72 147.315 262.244 146.72 262.619C146.129 262.994 145.44 263.182 144.652 263.182ZM144.652 261.977C145.25 261.977 145.743 261.824 146.129 261.517C146.515 261.21 146.801 260.807 146.987 260.307C147.172 259.807 147.265 259.265 147.265 258.682C147.265 258.098 147.172 257.555 146.987 257.051C146.801 256.547 146.515 256.14 146.129 255.83C145.743 255.519 145.25 255.364 144.652 255.364C144.053 255.364 143.561 255.519 143.174 255.83C142.788 256.14 142.502 256.547 142.316 257.051C142.131 257.555 142.038 258.098 142.038 258.682C142.038 259.265 142.131 259.807 142.316 260.307C142.502 260.807 142.788 261.21 143.174 261.517C143.561 261.824 144.053 261.977 144.652 261.977ZM151.994 251.364V263H150.653V251.364H151.994ZM157.995 263.182C157.208 263.182 156.516 262.994 155.922 262.619C155.331 262.244 154.868 261.72 154.535 261.045C154.206 260.371 154.041 259.583 154.041 258.682C154.041 257.773 154.206 256.979 154.535 256.301C154.868 255.623 155.331 255.097 155.922 254.722C156.516 254.347 157.208 254.159 157.995 254.159C158.783 254.159 159.473 254.347 160.064 254.722C160.658 255.097 161.12 255.623 161.45 256.301C161.783 256.979 161.95 257.773 161.95 258.682C161.95 259.583 161.783 260.371 161.45 261.045C161.12 261.72 160.658 262.244 160.064 262.619C159.473 262.994 158.783 263.182 157.995 263.182ZM157.995 261.977C158.594 261.977 159.086 261.824 159.473 261.517C159.859 261.21 160.145 260.807 160.331 260.307C160.516 259.807 160.609 259.265 160.609 258.682C160.609 258.098 160.516 257.555 160.331 257.051C160.145 256.547 159.859 256.14 159.473 255.83C159.086 255.519 158.594 255.364 157.995 255.364C157.397 255.364 156.904 255.519 156.518 255.83C156.132 256.14 155.846 256.547 155.66 257.051C155.475 257.555 155.382 258.098 155.382 258.682C155.382 259.265 155.475 259.807 155.66 260.307C155.846 260.807 156.132 261.21 156.518 261.517C156.904 261.824 157.397 261.977 157.995 261.977ZM163.997 263V254.273H165.292V255.591H165.383C165.542 255.159 165.83 254.809 166.247 254.54C166.663 254.271 167.133 254.136 167.656 254.136C167.754 254.136 167.877 254.138 168.025 254.142C168.173 254.146 168.285 254.152 168.36 254.159V255.523C168.315 255.511 168.211 255.494 168.048 255.472C167.889 255.445 167.72 255.432 167.542 255.432C167.118 255.432 166.739 255.521 166.406 255.699C166.076 255.873 165.815 256.116 165.622 256.426C165.432 256.733 165.338 257.083 165.338 257.477V263H163.997ZM180.632 256.227L179.427 256.568C179.351 256.367 179.24 256.172 179.092 255.983C178.948 255.79 178.751 255.631 178.501 255.506C178.251 255.381 177.931 255.318 177.541 255.318C177.007 255.318 176.562 255.441 176.206 255.688C175.853 255.93 175.677 256.239 175.677 256.614C175.677 256.947 175.798 257.21 176.041 257.403C176.283 257.597 176.662 257.758 177.177 257.886L178.473 258.205C179.253 258.394 179.834 258.684 180.217 259.074C180.6 259.46 180.791 259.958 180.791 260.568C180.791 261.068 180.647 261.515 180.359 261.909C180.075 262.303 179.677 262.614 179.166 262.841C178.654 263.068 178.06 263.182 177.382 263.182C176.492 263.182 175.755 262.989 175.172 262.602C174.588 262.216 174.219 261.652 174.064 260.909L175.336 260.591C175.458 261.061 175.687 261.413 176.024 261.648C176.365 261.883 176.81 262 177.359 262C177.984 262 178.48 261.867 178.848 261.602C179.219 261.333 179.404 261.011 179.404 260.636C179.404 260.333 179.298 260.08 179.086 259.875C178.874 259.667 178.548 259.511 178.109 259.409L176.654 259.068C175.855 258.879 175.268 258.585 174.893 258.188C174.522 257.786 174.336 257.284 174.336 256.682C174.336 256.189 174.475 255.754 174.751 255.375C175.031 254.996 175.412 254.699 175.893 254.483C176.378 254.267 176.927 254.159 177.541 254.159C178.404 254.159 179.083 254.348 179.575 254.727C180.071 255.106 180.423 255.606 180.632 256.227ZM182.809 263V254.273H184.15V263H182.809ZM183.491 252.818C183.23 252.818 183.004 252.729 182.815 252.551C182.629 252.373 182.537 252.159 182.537 251.909C182.537 251.659 182.629 251.445 182.815 251.267C183.004 251.089 183.23 251 183.491 251C183.752 251 183.976 251.089 184.162 251.267C184.351 251.445 184.446 251.659 184.446 251.909C184.446 252.159 184.351 252.373 184.162 252.551C183.976 252.729 183.752 252.818 183.491 252.818ZM190.402 254.273V255.409H185.879V254.273H190.402ZM187.197 252.182H188.538V260.5C188.538 260.879 188.593 261.163 188.703 261.352C188.816 261.538 188.96 261.663 189.135 261.727C189.313 261.788 189.5 261.818 189.697 261.818C189.845 261.818 189.966 261.811 190.061 261.795C190.155 261.777 190.231 261.761 190.288 261.75L190.561 262.955C190.47 262.989 190.343 263.023 190.18 263.057C190.017 263.095 189.811 263.114 189.561 263.114C189.182 263.114 188.811 263.032 188.447 262.869C188.087 262.706 187.788 262.458 187.549 262.125C187.315 261.792 187.197 261.371 187.197 260.864V252.182ZM199.487 263.205C198.934 263.205 198.432 263.1 197.981 262.892C197.53 262.68 197.172 262.375 196.907 261.977C196.642 261.576 196.51 261.091 196.51 260.523C196.51 260.023 196.608 259.617 196.805 259.307C197.002 258.992 197.265 258.746 197.595 258.568C197.924 258.39 198.288 258.258 198.686 258.17C199.087 258.08 199.491 258.008 199.896 257.955C200.426 257.886 200.856 257.835 201.186 257.801C201.519 257.763 201.761 257.701 201.913 257.614C202.068 257.527 202.146 257.375 202.146 257.159V257.114C202.146 256.553 201.993 256.117 201.686 255.807C201.383 255.496 200.922 255.341 200.305 255.341C199.665 255.341 199.163 255.481 198.799 255.761C198.436 256.042 198.18 256.341 198.032 256.659L196.76 256.205C196.987 255.674 197.29 255.261 197.669 254.966C198.051 254.667 198.468 254.458 198.919 254.341C199.373 254.22 199.82 254.159 200.26 254.159C200.54 254.159 200.862 254.193 201.225 254.261C201.593 254.326 201.947 254.46 202.288 254.665C202.633 254.869 202.919 255.178 203.146 255.591C203.373 256.004 203.487 256.557 203.487 257.25V263H202.146V261.818H202.078C201.987 262.008 201.835 262.21 201.623 262.426C201.411 262.642 201.129 262.826 200.777 262.977C200.424 263.129 199.994 263.205 199.487 263.205ZM199.691 262C200.222 262 200.669 261.896 201.032 261.688C201.4 261.479 201.676 261.21 201.862 260.881C202.051 260.551 202.146 260.205 202.146 259.841V258.614C202.089 258.682 201.964 258.744 201.771 258.801C201.582 258.854 201.362 258.902 201.112 258.943C200.866 258.981 200.625 259.015 200.39 259.045C200.159 259.072 199.972 259.095 199.828 259.114C199.479 259.159 199.154 259.233 198.85 259.335C198.551 259.434 198.309 259.583 198.123 259.784C197.941 259.981 197.85 260.25 197.85 260.591C197.85 261.057 198.023 261.409 198.368 261.648C198.716 261.883 199.157 262 199.691 262ZM205.934 263V254.273H207.23V255.636H207.343C207.525 255.17 207.819 254.809 208.224 254.551C208.629 254.29 209.116 254.159 209.684 254.159C210.26 254.159 210.739 254.29 211.122 254.551C211.508 254.809 211.809 255.17 212.025 255.636H212.116C212.34 255.186 212.675 254.828 213.122 254.562C213.569 254.294 214.105 254.159 214.73 254.159C215.51 254.159 216.148 254.403 216.645 254.892C217.141 255.377 217.389 256.133 217.389 257.159V263H216.048V257.159C216.048 256.515 215.872 256.055 215.52 255.778C215.167 255.502 214.752 255.364 214.275 255.364C213.662 255.364 213.186 255.549 212.849 255.92C212.512 256.288 212.343 256.754 212.343 257.318V263H210.98V257.023C210.98 256.527 210.819 256.127 210.497 255.824C210.175 255.517 209.76 255.364 209.252 255.364C208.904 255.364 208.578 255.456 208.275 255.642C207.976 255.828 207.734 256.085 207.548 256.415C207.366 256.741 207.275 257.117 207.275 257.545V263H205.934ZM223.5 263.182C222.659 263.182 221.933 262.996 221.324 262.625C220.717 262.25 220.25 261.727 219.92 261.057C219.594 260.383 219.431 259.598 219.431 258.705C219.431 257.811 219.594 257.023 219.92 256.341C220.25 255.655 220.708 255.121 221.295 254.739C221.886 254.352 222.575 254.159 223.363 254.159C223.818 254.159 224.267 254.235 224.71 254.386C225.153 254.538 225.556 254.784 225.92 255.125C226.284 255.462 226.574 255.909 226.789 256.466C227.005 257.023 227.113 257.708 227.113 258.523V259.091H220.386V257.932H225.75C225.75 257.439 225.651 257 225.454 256.614C225.261 256.227 224.984 255.922 224.625 255.699C224.269 255.475 223.848 255.364 223.363 255.364C222.829 255.364 222.367 255.496 221.977 255.761C221.591 256.023 221.293 256.364 221.085 256.784C220.877 257.205 220.772 257.655 220.772 258.136V258.909C220.772 259.568 220.886 260.127 221.113 260.585C221.344 261.04 221.664 261.386 222.074 261.625C222.483 261.86 222.958 261.977 223.5 261.977C223.852 261.977 224.17 261.928 224.454 261.83C224.742 261.727 224.99 261.576 225.199 261.375C225.407 261.17 225.568 260.917 225.681 260.614L226.977 260.977C226.841 261.417 226.611 261.803 226.289 262.136C225.967 262.466 225.57 262.723 225.096 262.909C224.623 263.091 224.091 263.182 223.5 263.182ZM232.949 254.273V255.409H228.426V254.273H232.949ZM229.744 252.182H231.085V260.5C231.085 260.879 231.14 261.163 231.25 261.352C231.363 261.538 231.507 261.663 231.681 261.727C231.859 261.788 232.047 261.818 232.244 261.818C232.392 261.818 232.513 261.811 232.608 261.795C232.702 261.777 232.778 261.761 232.835 261.75L233.108 262.955C233.017 262.989 232.89 263.023 232.727 263.057C232.564 263.095 232.358 263.114 232.108 263.114C231.729 263.114 231.358 263.032 230.994 262.869C230.634 262.706 230.335 262.458 230.096 262.125C229.861 261.792 229.744 261.371 229.744 260.864V252.182ZM236.966 261.409L236.875 262.023C236.81 262.455 236.712 262.917 236.579 263.409C236.45 263.902 236.316 264.366 236.176 264.801C236.036 265.237 235.92 265.583 235.829 265.841H234.806C234.856 265.598 234.92 265.278 235 264.881C235.079 264.483 235.159 264.038 235.238 263.545C235.322 263.057 235.39 262.557 235.443 262.045L235.511 261.409H236.966ZM247.495 263.182C246.677 263.182 245.973 262.989 245.382 262.602C244.791 262.216 244.336 261.684 244.018 261.006C243.7 260.328 243.541 259.553 243.541 258.682C243.541 257.795 243.704 257.013 244.029 256.335C244.359 255.653 244.817 255.121 245.404 254.739C245.995 254.352 246.685 254.159 247.473 254.159C248.086 254.159 248.639 254.273 249.132 254.5C249.624 254.727 250.028 255.045 250.342 255.455C250.656 255.864 250.851 256.341 250.927 256.886H249.586C249.484 256.489 249.257 256.136 248.904 255.83C248.556 255.519 248.086 255.364 247.495 255.364C246.973 255.364 246.514 255.5 246.12 255.773C245.73 256.042 245.425 256.422 245.206 256.915C244.99 257.403 244.882 257.977 244.882 258.636C244.882 259.311 244.988 259.898 245.2 260.398C245.416 260.898 245.719 261.286 246.109 261.562C246.503 261.839 246.965 261.977 247.495 261.977C247.844 261.977 248.16 261.917 248.444 261.795C248.728 261.674 248.969 261.5 249.166 261.273C249.363 261.045 249.503 260.773 249.586 260.455H250.927C250.851 260.97 250.664 261.434 250.365 261.847C250.069 262.256 249.677 262.581 249.189 262.824C248.704 263.062 248.139 263.182 247.495 263.182ZM256.433 263.182C255.645 263.182 254.954 262.994 254.359 262.619C253.768 262.244 253.306 261.72 252.973 261.045C252.643 260.371 252.478 259.583 252.478 258.682C252.478 257.773 252.643 256.979 252.973 256.301C253.306 255.623 253.768 255.097 254.359 254.722C254.954 254.347 255.645 254.159 256.433 254.159C257.221 254.159 257.91 254.347 258.501 254.722C259.096 255.097 259.558 255.623 259.887 256.301C260.221 256.979 260.387 257.773 260.387 258.682C260.387 259.583 260.221 260.371 259.887 261.045C259.558 261.72 259.096 262.244 258.501 262.619C257.91 262.994 257.221 263.182 256.433 263.182ZM256.433 261.977C257.031 261.977 257.524 261.824 257.91 261.517C258.297 261.21 258.583 260.807 258.768 260.307C258.954 259.807 259.047 259.265 259.047 258.682C259.047 258.098 258.954 257.555 258.768 257.051C258.583 256.547 258.297 256.14 257.91 255.83C257.524 255.519 257.031 255.364 256.433 255.364C255.834 255.364 255.342 255.519 254.956 255.83C254.569 256.14 254.283 256.547 254.098 257.051C253.912 257.555 253.819 258.098 253.819 258.682C253.819 259.265 253.912 259.807 254.098 260.307C254.283 260.807 254.569 261.21 254.956 261.517C255.342 261.824 255.834 261.977 256.433 261.977ZM263.775 257.75V263H262.434V254.273H263.73V255.636H263.843C264.048 255.193 264.359 254.837 264.775 254.568C265.192 254.295 265.73 254.159 266.389 254.159C266.98 254.159 267.497 254.28 267.94 254.523C268.383 254.761 268.728 255.125 268.974 255.614C269.22 256.098 269.343 256.712 269.343 257.455V263H268.002V257.545C268.002 256.86 267.824 256.326 267.468 255.943C267.112 255.557 266.624 255.364 266.002 255.364C265.574 255.364 265.192 255.456 264.855 255.642C264.521 255.828 264.258 256.098 264.065 256.455C263.872 256.811 263.775 257.242 263.775 257.75ZM277.975 256.227L276.771 256.568C276.695 256.367 276.583 256.172 276.436 255.983C276.292 255.79 276.095 255.631 275.845 255.506C275.595 255.381 275.275 255.318 274.885 255.318C274.35 255.318 273.905 255.441 273.549 255.688C273.197 255.93 273.021 256.239 273.021 256.614C273.021 256.947 273.142 257.21 273.385 257.403C273.627 257.597 274.006 257.758 274.521 257.886L275.816 258.205C276.597 258.394 277.178 258.684 277.561 259.074C277.943 259.46 278.135 259.958 278.135 260.568C278.135 261.068 277.991 261.515 277.703 261.909C277.419 262.303 277.021 262.614 276.51 262.841C275.998 263.068 275.404 263.182 274.725 263.182C273.835 263.182 273.099 262.989 272.515 262.602C271.932 262.216 271.563 261.652 271.407 260.909L272.68 260.591C272.801 261.061 273.03 261.413 273.368 261.648C273.708 261.883 274.154 262 274.703 262C275.328 262 275.824 261.867 276.191 261.602C276.563 261.333 276.748 261.011 276.748 260.636C276.748 260.333 276.642 260.08 276.43 259.875C276.218 259.667 275.892 259.511 275.453 259.409L273.998 259.068C273.199 258.879 272.612 258.585 272.237 258.188C271.866 257.786 271.68 257.284 271.68 256.682C271.68 256.189 271.818 255.754 272.095 255.375C272.375 254.996 272.756 254.699 273.237 254.483C273.722 254.267 274.271 254.159 274.885 254.159C275.748 254.159 276.426 254.348 276.919 254.727C277.415 255.106 277.767 255.606 277.975 256.227ZM283.812 263.182C282.971 263.182 282.246 262.996 281.636 262.625C281.03 262.25 280.562 261.727 280.233 261.057C279.907 260.383 279.744 259.598 279.744 258.705C279.744 257.811 279.907 257.023 280.233 256.341C280.562 255.655 281.02 255.121 281.608 254.739C282.199 254.352 282.888 254.159 283.676 254.159C284.13 254.159 284.579 254.235 285.022 254.386C285.466 254.538 285.869 254.784 286.233 255.125C286.596 255.462 286.886 255.909 287.102 256.466C287.318 257.023 287.426 257.708 287.426 258.523V259.091H280.699V257.932H286.062C286.062 257.439 285.964 257 285.767 256.614C285.574 256.227 285.297 255.922 284.937 255.699C284.581 255.475 284.161 255.364 283.676 255.364C283.142 255.364 282.68 255.496 282.289 255.761C281.903 256.023 281.606 256.364 281.397 256.784C281.189 257.205 281.085 257.655 281.085 258.136V258.909C281.085 259.568 281.199 260.127 281.426 260.585C281.657 261.04 281.977 261.386 282.386 261.625C282.795 261.86 283.27 261.977 283.812 261.977C284.164 261.977 284.483 261.928 284.767 261.83C285.055 261.727 285.303 261.576 285.511 261.375C285.719 261.17 285.88 260.917 285.994 260.614L287.289 260.977C287.153 261.417 286.924 261.803 286.602 262.136C286.28 262.466 285.882 262.723 285.409 262.909C284.935 263.091 284.403 263.182 283.812 263.182ZM293.011 263.182C292.193 263.182 291.488 262.989 290.897 262.602C290.306 262.216 289.852 261.684 289.534 261.006C289.216 260.328 289.056 259.553 289.056 258.682C289.056 257.795 289.219 257.013 289.545 256.335C289.875 255.653 290.333 255.121 290.92 254.739C291.511 254.352 292.2 254.159 292.988 254.159C293.602 254.159 294.155 254.273 294.647 254.5C295.14 254.727 295.543 255.045 295.858 255.455C296.172 255.864 296.367 256.341 296.443 256.886H295.102C295 256.489 294.772 256.136 294.42 255.83C294.072 255.519 293.602 255.364 293.011 255.364C292.488 255.364 292.03 255.5 291.636 255.773C291.246 256.042 290.941 256.422 290.721 256.915C290.505 257.403 290.397 257.977 290.397 258.636C290.397 259.311 290.503 259.898 290.716 260.398C290.931 260.898 291.234 261.286 291.625 261.562C292.019 261.839 292.481 261.977 293.011 261.977C293.359 261.977 293.676 261.917 293.96 261.795C294.244 261.674 294.484 261.5 294.681 261.273C294.878 261.045 295.019 260.773 295.102 260.455H296.443C296.367 260.97 296.18 261.434 295.88 261.847C295.585 262.256 295.193 262.581 294.704 262.824C294.219 263.062 293.655 263.182 293.011 263.182ZM302.199 254.273V255.409H297.676V254.273H302.199ZM298.994 252.182H300.335V260.5C300.335 260.879 300.39 261.163 300.5 261.352C300.613 261.538 300.757 261.663 300.931 261.727C301.109 261.788 301.297 261.818 301.494 261.818C301.642 261.818 301.763 261.811 301.858 261.795C301.952 261.777 302.028 261.761 302.085 261.75L302.358 262.955C302.267 262.989 302.14 263.023 301.977 263.057C301.814 263.095 301.608 263.114 301.358 263.114C300.979 263.114 300.608 263.032 300.244 262.869C299.884 262.706 299.585 262.458 299.346 262.125C299.111 261.792 298.994 261.371 298.994 260.864V252.182ZM307.781 263.182C306.94 263.182 306.215 262.996 305.605 262.625C304.999 262.25 304.531 261.727 304.201 261.057C303.876 260.383 303.713 259.598 303.713 258.705C303.713 257.811 303.876 257.023 304.201 256.341C304.531 255.655 304.989 255.121 305.576 254.739C306.167 254.352 306.857 254.159 307.645 254.159C308.099 254.159 308.548 254.235 308.991 254.386C309.434 254.538 309.838 254.784 310.201 255.125C310.565 255.462 310.855 255.909 311.071 256.466C311.287 257.023 311.395 257.708 311.395 258.523V259.091H304.667V257.932H310.031C310.031 257.439 309.932 257 309.735 256.614C309.542 256.227 309.266 255.922 308.906 255.699C308.55 255.475 308.129 255.364 307.645 255.364C307.11 255.364 306.648 255.496 306.258 255.761C305.872 256.023 305.574 256.364 305.366 256.784C305.158 257.205 305.054 257.655 305.054 258.136V258.909C305.054 259.568 305.167 260.127 305.395 260.585C305.626 261.04 305.946 261.386 306.355 261.625C306.764 261.86 307.239 261.977 307.781 261.977C308.133 261.977 308.451 261.928 308.735 261.83C309.023 261.727 309.271 261.576 309.48 261.375C309.688 261.17 309.849 260.917 309.963 260.614L311.258 260.977C311.122 261.417 310.893 261.803 310.571 262.136C310.249 262.466 309.851 262.723 309.377 262.909C308.904 263.091 308.372 263.182 307.781 263.182ZM317.23 254.273V255.409H312.707V254.273H317.23ZM314.025 252.182H315.366V260.5C315.366 260.879 315.421 261.163 315.531 261.352C315.645 261.538 315.788 261.663 315.963 261.727C316.141 261.788 316.328 261.818 316.525 261.818C316.673 261.818 316.794 261.811 316.889 261.795C316.984 261.777 317.059 261.761 317.116 261.75L317.389 262.955C317.298 262.989 317.171 263.023 317.008 263.057C316.845 263.095 316.639 263.114 316.389 263.114C316.01 263.114 315.639 263.032 315.275 262.869C314.915 262.706 314.616 262.458 314.377 262.125C314.143 261.792 314.025 261.371 314.025 260.864V252.182ZM324.747 259.432V254.273H326.088V263H324.747V261.523H324.656C324.451 261.966 324.133 262.343 323.701 262.653C323.27 262.96 322.724 263.114 322.065 263.114C321.52 263.114 321.035 262.994 320.61 262.756C320.186 262.513 319.853 262.15 319.61 261.665C319.368 261.176 319.247 260.561 319.247 259.818V254.273H320.588V259.727C320.588 260.364 320.766 260.871 321.122 261.25C321.482 261.629 321.94 261.818 322.497 261.818C322.83 261.818 323.169 261.733 323.514 261.562C323.862 261.392 324.154 261.131 324.389 260.778C324.627 260.426 324.747 259.977 324.747 259.432ZM328.544 263V254.273H329.839V255.591H329.93C330.089 255.159 330.377 254.809 330.794 254.54C331.21 254.271 331.68 254.136 332.203 254.136C332.301 254.136 332.424 254.138 332.572 254.142C332.72 254.146 332.832 254.152 332.907 254.159V255.523C332.862 255.511 332.758 255.494 332.595 255.472C332.436 255.445 332.267 255.432 332.089 255.432C331.665 255.432 331.286 255.521 330.953 255.699C330.623 255.873 330.362 256.116 330.169 256.426C329.979 256.733 329.885 257.083 329.885 257.477V263H328.544ZM334.474 263.091C334.194 263.091 333.953 262.991 333.752 262.79C333.552 262.589 333.451 262.348 333.451 262.068C333.451 261.788 333.552 261.547 333.752 261.347C333.953 261.146 334.194 261.045 334.474 261.045C334.754 261.045 334.995 261.146 335.196 261.347C335.396 261.547 335.497 261.788 335.497 262.068C335.497 262.254 335.449 262.424 335.355 262.58C335.264 262.735 335.141 262.86 334.985 262.955C334.834 263.045 334.663 263.091 334.474 263.091Z" fill="#898CA9"/>
<g clip-path="url(#clip0_24_1228)">
<path d="M139.455 295.08C139.36 294.773 139.23 294.498 139.063 294.256C138.9 294.009 138.703 293.799 138.472 293.625C138.245 293.451 137.983 293.32 137.688 293.233C137.392 293.142 137.07 293.097 136.722 293.097C136.097 293.097 135.54 293.254 135.051 293.568C134.563 293.883 134.178 294.345 133.898 294.955C133.622 295.561 133.483 296.299 133.483 297.17C133.483 298.049 133.622 298.794 133.898 299.403C134.175 300.013 134.559 300.477 135.051 300.795C135.544 301.11 136.116 301.267 136.767 301.267C137.358 301.267 137.87 301.153 138.301 300.926C138.737 300.699 139.072 300.377 139.307 299.96C139.542 299.54 139.659 299.047 139.659 298.483L140.137 298.557H136.978V296.909H141.699V298.307C141.699 299.303 141.487 300.165 141.063 300.892C140.639 301.619 140.055 302.18 139.313 302.574C138.57 302.964 137.718 303.159 136.756 303.159C135.684 303.159 134.743 302.919 133.932 302.438C133.125 301.953 132.495 301.265 132.04 300.375C131.589 299.481 131.364 298.42 131.364 297.193C131.364 296.254 131.497 295.415 131.762 294.676C132.031 293.938 132.406 293.311 132.887 292.795C133.368 292.277 133.932 291.883 134.58 291.614C135.228 291.341 135.932 291.205 136.694 291.205C137.337 291.205 137.938 291.299 138.495 291.489C139.051 291.674 139.546 291.939 139.978 292.284C140.413 292.629 140.771 293.038 141.051 293.511C141.332 293.985 141.516 294.508 141.603 295.08H139.455ZM147.51 303.17C146.635 303.17 145.88 302.989 145.243 302.625C144.611 302.258 144.124 301.739 143.783 301.068C143.442 300.394 143.272 299.6 143.272 298.688C143.272 297.79 143.442 297.002 143.783 296.324C144.128 295.642 144.609 295.112 145.226 294.733C145.844 294.35 146.569 294.159 147.402 294.159C147.94 294.159 148.448 294.246 148.925 294.42C149.406 294.591 149.83 294.856 150.198 295.216C150.569 295.576 150.861 296.034 151.073 296.591C151.285 297.144 151.391 297.803 151.391 298.568V299.199H144.238V297.812H149.419C149.416 297.419 149.33 297.068 149.164 296.761C148.997 296.451 148.764 296.206 148.465 296.028C148.169 295.85 147.825 295.761 147.431 295.761C147.01 295.761 146.641 295.864 146.323 296.068C146.005 296.269 145.757 296.534 145.578 296.864C145.404 297.189 145.315 297.547 145.311 297.938V299.148C145.311 299.655 145.404 300.091 145.59 300.455C145.775 300.814 146.035 301.091 146.368 301.284C146.702 301.473 147.092 301.568 147.539 301.568C147.838 301.568 148.109 301.527 148.351 301.443C148.594 301.356 148.804 301.229 148.982 301.062C149.16 300.896 149.294 300.689 149.385 300.443L151.306 300.659C151.185 301.167 150.953 301.61 150.613 301.989C150.275 302.364 149.844 302.655 149.317 302.864C148.791 303.068 148.188 303.17 147.51 303.17ZM157.489 294.273V295.864H152.472V294.273H157.489ZM153.711 292.182H155.767V300.375C155.767 300.652 155.809 300.864 155.892 301.011C155.98 301.155 156.093 301.254 156.233 301.307C156.373 301.36 156.529 301.386 156.699 301.386C156.828 301.386 156.945 301.377 157.051 301.358C157.161 301.339 157.245 301.322 157.301 301.307L157.648 302.915C157.538 302.953 157.381 302.994 157.176 303.04C156.976 303.085 156.73 303.112 156.438 303.119C155.923 303.134 155.459 303.057 155.046 302.886C154.633 302.712 154.305 302.443 154.063 302.08C153.824 301.716 153.707 301.261 153.711 300.716V292.182ZM169.593 294.562C169.54 294.066 169.316 293.68 168.922 293.403C168.532 293.127 168.025 292.989 167.4 292.989C166.96 292.989 166.583 293.055 166.269 293.188C165.954 293.32 165.714 293.5 165.547 293.727C165.381 293.955 165.295 294.214 165.292 294.506C165.292 294.748 165.346 294.958 165.456 295.136C165.57 295.314 165.723 295.466 165.917 295.591C166.11 295.712 166.324 295.814 166.559 295.898C166.793 295.981 167.03 296.051 167.269 296.108L168.36 296.381C168.799 296.483 169.221 296.621 169.627 296.795C170.036 296.97 170.401 297.189 170.723 297.455C171.049 297.72 171.307 298.04 171.496 298.415C171.685 298.79 171.78 299.229 171.78 299.733C171.78 300.415 171.606 301.015 171.257 301.534C170.909 302.049 170.405 302.453 169.746 302.744C169.091 303.032 168.297 303.176 167.365 303.176C166.46 303.176 165.674 303.036 165.007 302.756C164.345 302.475 163.826 302.066 163.451 301.528C163.079 300.991 162.879 300.335 162.848 299.562H164.922C164.953 299.968 165.078 300.305 165.297 300.574C165.517 300.843 165.803 301.044 166.155 301.176C166.511 301.309 166.909 301.375 167.348 301.375C167.807 301.375 168.208 301.307 168.553 301.17C168.901 301.03 169.174 300.837 169.371 300.591C169.568 300.341 169.668 300.049 169.672 299.716C169.668 299.413 169.579 299.163 169.405 298.966C169.231 298.765 168.987 298.598 168.672 298.466C168.362 298.33 167.998 298.208 167.581 298.102L166.257 297.761C165.299 297.515 164.542 297.142 163.985 296.642C163.432 296.138 163.155 295.47 163.155 294.636C163.155 293.951 163.341 293.35 163.712 292.835C164.087 292.32 164.596 291.92 165.24 291.636C165.884 291.348 166.614 291.205 167.428 291.205C168.254 291.205 168.977 291.348 169.598 291.636C170.223 291.92 170.714 292.316 171.07 292.824C171.426 293.328 171.61 293.907 171.621 294.562H169.593ZM177.926 294.273V295.864H172.909V294.273H177.926ZM174.148 292.182H176.205V300.375C176.205 300.652 176.247 300.864 176.33 301.011C176.417 301.155 176.531 301.254 176.671 301.307C176.811 301.36 176.966 301.386 177.137 301.386C177.266 301.386 177.383 301.377 177.489 301.358C177.599 301.339 177.682 301.322 177.739 301.307L178.086 302.915C177.976 302.953 177.819 302.994 177.614 303.04C177.413 303.085 177.167 303.112 176.875 303.119C176.36 303.134 175.896 303.057 175.483 302.886C175.07 302.712 174.743 302.443 174.5 302.08C174.262 301.716 174.144 301.261 174.148 300.716V292.182ZM182.158 303.176C181.605 303.176 181.107 303.078 180.664 302.881C180.224 302.68 179.876 302.384 179.618 301.994C179.364 301.604 179.238 301.123 179.238 300.551C179.238 300.059 179.328 299.652 179.51 299.33C179.692 299.008 179.94 298.75 180.255 298.557C180.569 298.364 180.923 298.218 181.317 298.119C181.715 298.017 182.126 297.943 182.55 297.898C183.061 297.845 183.476 297.797 183.794 297.756C184.113 297.71 184.344 297.642 184.488 297.551C184.635 297.456 184.709 297.311 184.709 297.114V297.08C184.709 296.652 184.582 296.32 184.328 296.085C184.075 295.85 183.709 295.733 183.232 295.733C182.728 295.733 182.328 295.843 182.033 296.062C181.741 296.282 181.544 296.542 181.442 296.841L179.522 296.568C179.673 296.038 179.923 295.595 180.272 295.239C180.62 294.879 181.046 294.61 181.55 294.432C182.054 294.25 182.611 294.159 183.221 294.159C183.641 294.159 184.06 294.208 184.476 294.307C184.893 294.405 185.274 294.568 185.618 294.795C185.963 295.019 186.239 295.324 186.448 295.71C186.66 296.097 186.766 296.58 186.766 297.159V303H184.789V301.801H184.721C184.596 302.044 184.419 302.271 184.192 302.483C183.969 302.691 183.686 302.86 183.346 302.989C183.008 303.114 182.613 303.176 182.158 303.176ZM182.692 301.665C183.105 301.665 183.463 301.583 183.766 301.42C184.069 301.254 184.302 301.034 184.465 300.761C184.632 300.489 184.715 300.191 184.715 299.869V298.841C184.65 298.894 184.541 298.943 184.385 298.989C184.234 299.034 184.063 299.074 183.874 299.108C183.685 299.142 183.497 299.172 183.311 299.199C183.126 299.225 182.965 299.248 182.828 299.267C182.522 299.309 182.247 299.377 182.005 299.472C181.762 299.566 181.571 299.699 181.431 299.869C181.291 300.036 181.221 300.252 181.221 300.517C181.221 300.896 181.359 301.182 181.635 301.375C181.912 301.568 182.264 301.665 182.692 301.665ZM188.834 303V294.273H190.828V295.727H190.919C191.078 295.223 191.351 294.835 191.738 294.562C192.128 294.286 192.573 294.148 193.073 294.148C193.186 294.148 193.313 294.153 193.453 294.165C193.597 294.172 193.717 294.186 193.811 294.205V296.097C193.724 296.066 193.586 296.04 193.397 296.017C193.211 295.991 193.031 295.977 192.857 295.977C192.482 295.977 192.145 296.059 191.846 296.222C191.55 296.381 191.317 296.602 191.147 296.886C190.976 297.17 190.891 297.498 190.891 297.869V303H188.834ZM200.005 294.273V295.864H194.988V294.273H200.005ZM196.226 292.182H198.283V300.375C198.283 300.652 198.325 300.864 198.408 301.011C198.495 301.155 198.609 301.254 198.749 301.307C198.889 301.36 199.044 301.386 199.215 301.386C199.344 301.386 199.461 301.377 199.567 301.358C199.677 301.339 199.76 301.322 199.817 301.307L200.164 302.915C200.054 302.953 199.897 302.994 199.692 303.04C199.491 303.085 199.245 303.112 198.953 303.119C198.438 303.134 197.974 303.057 197.561 302.886C197.149 302.712 196.821 302.443 196.578 302.08C196.34 301.716 196.222 301.261 196.226 300.716V292.182ZM205.495 303.17C204.62 303.17 203.864 302.989 203.228 302.625C202.595 302.258 202.108 301.739 201.767 301.068C201.426 300.394 201.256 299.6 201.256 298.688C201.256 297.79 201.426 297.002 201.767 296.324C202.112 295.642 202.593 295.112 203.211 294.733C203.828 294.35 204.553 294.159 205.387 294.159C205.925 294.159 206.432 294.246 206.909 294.42C207.391 294.591 207.815 294.856 208.182 295.216C208.553 295.576 208.845 296.034 209.057 296.591C209.269 297.144 209.375 297.803 209.375 298.568V299.199H202.222V297.812H207.404C207.4 297.419 207.315 297.068 207.148 296.761C206.981 296.451 206.748 296.206 206.449 296.028C206.154 295.85 205.809 295.761 205.415 295.761C204.995 295.761 204.625 295.864 204.307 296.068C203.989 296.269 203.741 296.534 203.563 296.864C203.389 297.189 203.3 297.547 203.296 297.938V299.148C203.296 299.655 203.389 300.091 203.574 300.455C203.76 300.814 204.019 301.091 204.353 301.284C204.686 301.473 205.076 301.568 205.523 301.568C205.822 301.568 206.093 301.527 206.336 301.443C206.578 301.356 206.788 301.229 206.966 301.062C207.144 300.896 207.279 300.689 207.37 300.443L209.29 300.659C209.169 301.167 208.938 301.61 208.597 301.989C208.26 302.364 207.828 302.655 207.301 302.864C206.775 303.068 206.173 303.17 205.495 303.17ZM214.354 303.153C213.668 303.153 213.055 302.977 212.513 302.625C211.971 302.273 211.543 301.761 211.229 301.091C210.915 300.42 210.757 299.606 210.757 298.648C210.757 297.678 210.917 296.86 211.235 296.193C211.557 295.523 211.99 295.017 212.536 294.676C213.081 294.331 213.689 294.159 214.36 294.159C214.871 294.159 215.292 294.246 215.621 294.42C215.951 294.591 216.212 294.797 216.405 295.04C216.598 295.278 216.748 295.504 216.854 295.716H216.939V291.364H219.002V303H216.979V301.625H216.854C216.748 301.837 216.595 302.062 216.394 302.301C216.193 302.536 215.928 302.737 215.598 302.903C215.269 303.07 214.854 303.153 214.354 303.153ZM214.928 301.466C215.364 301.466 215.735 301.348 216.042 301.114C216.348 300.875 216.581 300.544 216.74 300.119C216.9 299.695 216.979 299.201 216.979 298.636C216.979 298.072 216.9 297.581 216.74 297.165C216.585 296.748 216.354 296.424 216.047 296.193C215.744 295.962 215.371 295.847 214.928 295.847C214.47 295.847 214.087 295.966 213.78 296.205C213.473 296.443 213.242 296.773 213.087 297.193C212.932 297.614 212.854 298.095 212.854 298.636C212.854 299.182 212.932 299.669 213.087 300.097C213.246 300.521 213.479 300.856 213.786 301.102C214.096 301.345 214.477 301.466 214.928 301.466Z" fill="url(#paint7_linear_24_1228)"/>
<path d="M239.233 292L244.324 297M244.324 297L239.233 302M244.324 297L232.324 297" stroke="url(#paint8_linear_24_1228)" stroke-width="2" stroke-linecap="square"/>
</g>
</g>
<defs>
<filter id="filter0_b_24_1228" x="145.324" y="15" width="90" height="89.7908" filterUnits="userSpaceOnUse" color-interpolation-filters="sRGB">
<feFlood flood-opacity="0" result="BackgroundImageFix"/>
<feGaussianBlur in="BackgroundImage" stdDeviation="2.5"/>
<feComposite in2="SourceAlpha" operator="in" result="effect1_backgroundBlur_24_1228"/>
<feBlend mode="normal" in="SourceGraphic" in2="effect1_backgroundBlur_24_1228" result="shape"/>
</filter>
<filter id="filter1_f_24_1228" x="151.729" y="12.1603" width="76.6786" height="58.6438" filterUnits="userSpaceOnUse" color-interpolation-filters="sRGB">
<feFlood flood-opacity="0" result="BackgroundImageFix"/>
<feBlend mode="normal" in="SourceGraphic" in2="BackgroundImageFix" result="shape"/>
<feGaussianBlur stdDeviation="6.47727" result="effect1_foregroundBlur_24_1228"/>
</filter>
<linearGradient id="paint0_linear_24_1228" x1="158.936" y1="-147.874" x2="564.213" y2="-23.3951" gradientUnits="userSpaceOnUse">
<stop stop-color="#071B0A"/>
<stop offset="1" stop-color="#09210C"/>
</linearGradient>
<radialGradient id="paint1_radial_24_1228" cx="0" cy="0" r="1" gradientUnits="userSpaceOnUse" gradientTransform="translate(157.016 20) rotate(47.9449) scale(119.431 86.7751)">
<stop stop-color="white" stop-opacity="0.36"/>
<stop offset="1" stop-color="white" stop-opacity="0"/>
</radialGradient>
<radialGradient id="paint2_radial_24_1228" cx="0" cy="0" r="1" gradientUnits="userSpaceOnUse" gradientTransform="translate(107.728 28.1628) rotate(35.0407) scale(92.1512 54.3882)">
<stop stop-color="white"/>
<stop offset="1" stop-color="white" stop-opacity="0.06"/>
</radialGradient>
<radialGradient id="paint3_radial_24_1228" cx="0" cy="0" r="1" gradientUnits="userSpaceOnUse" gradientTransform="translate(253.745 73.4008) rotate(161.385) scale(66.8428 45.1784)">
<stop stop-color="#96E221"/>
<stop offset="1" stop-color="#CCFF33" stop-opacity="0.03"/>
</radialGradient>
<radialGradient id="paint4_radial_24_1228" cx="0" cy="0" r="1" gradientUnits="userSpaceOnUse" gradientTransform="translate(191.195 1.76407) rotate(47.2149) scale(44.643 32.0879)">
<stop/>
<stop offset="1" stop-color="white" stop-opacity="0"/>
</radialGradient>
<radialGradient id="paint5_radial_24_1228" cx="0" cy="0" r="1" gradientUnits="userSpaceOnUse" gradientTransform="translate(190.068 25.1149) rotate(90) scale(24.2566 37.625)">
<stop stop-color="white"/>
<stop offset="1" stop-color="white" stop-opacity="0"/>
</radialGradient>
<linearGradient id="paint6_linear_24_1228" x1="191.614" y1="-34.6909" x2="106.387" y2="18.2032" gradientUnits="userSpaceOnUse">
<stop stop-color="#56C00B"/>
<stop offset="0.291667" stop-color="#53BF0A"/>
<stop offset="0.604167" stop-color="#92E01F"/>
</linearGradient>
<linearGradient id="paint7_linear_24_1228" x1="178.699" y1="251.909" x2="152.522" y2="334.157" gradientUnits="userSpaceOnUse">
<stop stop-color="#56C00B"/>
<stop offset="0.291667" stop-color="#53BF0A"/>
<stop offset="0.604167" stop-color="#92E01F"/>
</linearGradient>
<linearGradient id="paint8_linear_24_1228" x1="204.506" y1="296.625" x2="216.604" y2="322.615" gradientUnits="userSpaceOnUse">
<stop stop-color="#56C00B"/>
<stop offset="0.291667" stop-color="#53BF0A"/>
<stop offset="0.604167" stop-color="#92E01F"/>
</linearGradient>
<clipPath id="clip0_24_1228">
<rect x="130.324" y="285" width="120" height="24" rx="10" fill="white"/>
</clipPath>
</defs>
</svg>
