<svg width="381" height="365" viewBox="0 0 381 365" fill="none" xmlns="http://www.w3.org/2000/svg">
<g opacity="0.75">
<rect x="0.324219" width="380" height="365" rx="25" fill="url(#paint0_linear_24_1245)"/>
<g filter="url(#filter0_b_24_1245)">
<path d="M150.324 59.8954C150.324 37.8618 168.291 20 190.324 20V20C212.358 20 230.324 37.8618 230.324 59.8954V59.8954C230.324 81.929 212.358 99.7908 190.324 99.7908V99.7908C168.291 99.7908 150.324 81.929 150.324 59.8954V59.8954Z" fill="url(#paint1_radial_24_1245)"/>
<path d="M190.324 99.2908C168.565 99.2908 150.824 81.6512 150.824 59.8954C150.824 38.1396 168.565 20.5 190.324 20.5C212.083 20.5 229.824 38.1396 229.824 59.8954C229.824 81.6512 212.083 99.2908 190.324 99.2908Z" stroke="url(#paint2_radial_24_1245)"/>
<path d="M190.324 99.2908C168.565 99.2908 150.824 81.6512 150.824 59.8954C150.824 38.1396 168.565 20.5 190.324 20.5C212.083 20.5 229.824 38.1396 229.824 59.8954C229.824 81.6512 212.083 99.2908 190.324 99.2908Z" stroke="url(#paint3_radial_24_1245)"/>
<path d="M190.324 99.2908C168.565 99.2908 150.824 81.6512 150.824 59.8954C150.824 38.1396 168.565 20.5 190.324 20.5C212.083 20.5 229.824 38.1396 229.824 59.8954C229.824 81.6512 212.083 99.2908 190.324 99.2908Z" stroke="url(#paint4_radial_24_1245)"/>
</g>
<g filter="url(#filter1_f_24_1245)">
<ellipse cx="190.068" cy="41.4822" rx="25.3846" ry="16.3673" fill="url(#paint5_radial_24_1245)" fill-opacity="0.2"/>
</g>
<path fill-rule="evenodd" clip-rule="evenodd" d="M178.472 59.6384C178.686 56.6832 181.009 54.3887 183.966 54.2008C185.735 54.0884 187.897 54 190.324 54C192.752 54 194.914 54.0884 196.682 54.2008C199.639 54.3887 201.962 56.6832 202.176 59.6384C202.262 60.8312 202.324 62.1133 202.324 63.3333C202.324 64.5534 202.262 65.8355 202.176 67.0282C201.962 69.9835 199.639 72.2779 196.682 72.4659C194.914 72.5783 192.752 72.6667 190.324 72.6667C187.897 72.6667 185.735 72.5783 183.966 72.4659C181.009 72.2779 178.686 69.9835 178.472 67.0282C178.386 65.8355 178.324 64.5534 178.324 63.3333C178.324 62.1133 178.386 60.8312 178.472 59.6384ZM192.991 62C192.991 62.987 192.455 63.8488 191.658 64.3099V66C191.658 66.7364 191.061 67.3333 190.324 67.3333C189.588 67.3333 188.991 66.7364 188.991 66V64.3099C188.194 63.8488 187.658 62.987 187.658 62C187.658 60.5272 188.851 59.3333 190.324 59.3333C191.797 59.3333 192.991 60.5272 192.991 62Z" fill="url(#paint6_linear_24_1245)"/>
<path fill-rule="evenodd" clip-rule="evenodd" d="M183.657 50C183.657 46.3181 186.642 43.3334 190.324 43.3334C194.006 43.3334 196.991 46.3181 196.991 50V55.3334C196.991 56.0698 196.394 56.6667 195.657 56.6667C194.921 56.6667 194.324 56.0698 194.324 55.3334V50C194.324 47.7909 192.533 46 190.324 46C188.115 46 186.324 47.7909 186.324 50V55.3334C186.324 56.0698 185.727 56.6667 184.991 56.6667C184.254 56.6667 183.657 56.0698 183.657 55.3334V50Z" fill="url(#paint7_linear_24_1245)"/>
<path d="M132.649 132C132.584 131.195 132.283 130.567 131.743 130.116C131.212 129.666 130.403 129.44 129.316 129.44C128.624 129.44 128.057 129.525 127.614 129.694C127.179 129.855 126.857 130.076 126.648 130.358C126.439 130.64 126.33 130.962 126.322 131.324C126.306 131.622 126.358 131.891 126.479 132.133C126.608 132.366 126.809 132.58 127.083 132.773C127.357 132.958 127.707 133.127 128.133 133.28C128.56 133.433 129.067 133.57 129.655 133.69L131.683 134.125C133.051 134.415 134.223 134.797 135.196 135.272C136.17 135.747 136.967 136.306 137.587 136.95C138.207 137.586 138.662 138.303 138.951 139.099C139.249 139.896 139.402 140.766 139.41 141.707C139.402 143.333 138.996 144.71 138.191 145.837C137.386 146.964 136.235 147.821 134.738 148.408C133.249 148.996 131.458 149.29 129.365 149.29C127.216 149.29 125.34 148.972 123.738 148.336C122.145 147.7 120.905 146.722 120.02 145.402C119.142 144.074 118.7 142.375 118.691 140.307H125.066C125.107 141.063 125.296 141.699 125.634 142.214C125.972 142.73 126.447 143.12 127.059 143.386C127.678 143.651 128.415 143.784 129.268 143.784C129.985 143.784 130.584 143.696 131.067 143.518C131.55 143.341 131.916 143.096 132.166 142.782C132.415 142.468 132.544 142.11 132.552 141.707C132.544 141.329 132.419 140.999 132.178 140.717C131.945 140.428 131.558 140.17 131.019 139.945C130.48 139.711 129.751 139.494 128.834 139.293L126.37 138.761C124.181 138.286 122.455 137.494 121.191 136.383C119.935 135.264 119.311 133.739 119.319 131.807C119.311 130.237 119.73 128.865 120.575 127.69C121.428 126.506 122.607 125.585 124.113 124.925C125.626 124.265 127.361 123.935 129.316 123.935C131.313 123.935 133.039 124.269 134.496 124.937C135.953 125.605 137.076 126.547 137.865 127.762C138.662 128.969 139.064 130.382 139.072 132H132.649ZM150.947 149.338C148.967 149.338 147.26 148.96 145.828 148.203C144.403 147.438 143.304 146.344 142.531 144.919C141.767 143.486 141.384 141.772 141.384 139.776C141.384 137.86 141.771 136.186 142.543 134.753C143.316 133.32 144.407 132.205 145.815 131.408C147.224 130.612 148.886 130.213 150.802 130.213C152.203 130.213 153.47 130.43 154.605 130.865C155.74 131.3 156.71 131.932 157.515 132.761C158.32 133.582 158.94 134.58 159.374 135.755C159.809 136.93 160.026 138.254 160.026 139.727V141.273H143.461V137.602H153.893C153.885 137.071 153.748 136.604 153.482 136.202C153.225 135.791 152.875 135.473 152.432 135.248C151.997 135.014 151.502 134.898 150.947 134.898C150.408 134.898 149.912 135.014 149.462 135.248C149.011 135.473 148.649 135.787 148.375 136.19C148.109 136.592 147.969 137.063 147.953 137.602V141.562C147.953 142.158 148.077 142.689 148.327 143.156C148.576 143.623 148.935 143.989 149.401 144.255C149.868 144.521 150.432 144.653 151.092 144.653C151.551 144.653 151.969 144.589 152.347 144.46C152.734 144.331 153.064 144.146 153.337 143.905C153.611 143.655 153.812 143.357 153.941 143.011H160.026C159.817 144.299 159.322 145.418 158.541 146.368C157.761 147.31 156.726 148.042 155.438 148.565C154.158 149.08 152.661 149.338 150.947 149.338ZM171.681 149.338C169.668 149.338 167.946 148.94 166.513 148.143C165.08 147.338 163.982 146.219 163.217 144.786C162.452 143.345 162.07 141.675 162.07 139.776C162.07 137.876 162.452 136.21 163.217 134.777C163.982 133.336 165.08 132.217 166.513 131.42C167.946 130.616 169.668 130.213 171.681 130.213C173.5 130.213 175.073 130.543 176.402 131.203C177.738 131.855 178.772 132.781 179.505 133.98C180.237 135.171 180.607 136.572 180.615 138.182H174.434C174.345 137.208 174.063 136.467 173.588 135.96C173.121 135.445 172.518 135.188 171.777 135.188C171.198 135.188 170.691 135.357 170.256 135.695C169.821 136.025 169.483 136.528 169.242 137.204C169 137.872 168.88 138.713 168.88 139.727C168.88 140.741 169 141.587 169.242 142.263C169.483 142.931 169.821 143.434 170.256 143.772C170.691 144.102 171.198 144.267 171.777 144.267C172.268 144.267 172.703 144.154 173.081 143.929C173.46 143.696 173.765 143.357 173.999 142.915C174.24 142.464 174.385 141.917 174.434 141.273H180.615C180.591 142.907 180.217 144.331 179.492 145.547C178.768 146.754 177.742 147.688 176.414 148.348C175.094 149.008 173.516 149.338 171.681 149.338ZM195.391 140.886V130.455H202.055V149H195.729V145.474H195.536C195.133 146.658 194.429 147.583 193.423 148.251C192.417 148.911 191.221 149.241 189.837 149.241C188.541 149.241 187.406 148.944 186.432 148.348C185.466 147.752 184.713 146.931 184.174 145.885C183.643 144.839 183.373 143.639 183.365 142.287V130.455H190.03V140.886C190.038 141.804 190.271 142.524 190.73 143.048C191.197 143.571 191.849 143.832 192.686 143.832C193.242 143.832 193.72 143.716 194.123 143.482C194.533 143.241 194.847 142.903 195.065 142.468C195.29 142.025 195.399 141.498 195.391 140.886ZM205.445 149V130.455H211.917V133.98H212.11C212.448 132.676 212.983 131.722 213.716 131.119C214.456 130.515 215.322 130.213 216.312 130.213C216.601 130.213 216.887 130.237 217.169 130.286C217.459 130.326 217.736 130.386 218.002 130.467V136.153C217.672 136.041 217.266 135.956 216.783 135.9C216.3 135.844 215.885 135.815 215.539 135.815C214.887 135.815 214.299 135.964 213.776 136.262C213.261 136.552 212.855 136.962 212.557 137.494C212.259 138.017 212.11 138.633 212.11 139.341V149H205.445ZM220.187 149V130.455H226.852V149H220.187ZM223.52 128.523C222.618 128.523 221.846 128.225 221.202 127.629C220.558 127.034 220.236 126.317 220.236 125.48C220.236 124.643 220.558 123.927 221.202 123.331C221.846 122.735 222.618 122.438 223.52 122.438C224.429 122.438 225.202 122.735 225.838 123.331C226.482 123.927 226.804 124.643 226.804 125.48C226.804 126.317 226.482 127.034 225.838 127.629C225.202 128.225 224.429 128.523 223.52 128.523ZM241.308 130.455V135.284H229.089V130.455H241.308ZM231.455 126.011H238.12V143.036C238.12 143.293 238.164 143.51 238.253 143.688C238.341 143.857 238.478 143.985 238.663 144.074C238.849 144.154 239.086 144.195 239.376 144.195C239.577 144.195 239.81 144.17 240.076 144.122C240.35 144.074 240.551 144.034 240.68 144.001L241.646 148.686C241.348 148.775 240.921 148.883 240.366 149.012C239.819 149.141 239.167 149.225 238.41 149.266C236.881 149.346 235.597 149.189 234.558 148.795C233.52 148.392 232.739 147.76 232.216 146.899C231.693 146.038 231.439 144.959 231.455 143.663V126.011ZM248.084 155.955C247.319 155.955 246.591 155.894 245.899 155.773C245.206 155.661 244.599 155.504 244.076 155.303L245.524 150.57C246.072 150.763 246.571 150.888 247.022 150.944C247.48 151 247.871 150.968 248.193 150.847C248.523 150.727 248.76 150.497 248.905 150.159L249.05 149.821L242.53 130.455H249.485L252.479 143.301H252.672L255.715 130.455H262.718L255.956 150.545C255.618 151.568 255.127 152.485 254.483 153.298C253.847 154.119 253.01 154.767 251.972 155.242C250.934 155.717 249.638 155.955 248.084 155.955Z" fill="white"/>
<path d="M53.9918 227.364V239H52.6282L46.2873 229.864H46.1737V239H44.7646V227.364H46.1282L52.4918 236.523H52.6055V227.364H53.9918ZM60.2887 239.182C59.4478 239.182 58.7224 238.996 58.1126 238.625C57.5065 238.25 57.0387 237.727 56.7092 237.057C56.3834 236.383 56.2205 235.598 56.2205 234.705C56.2205 233.811 56.3834 233.023 56.7092 232.341C57.0387 231.655 57.497 231.121 58.0842 230.739C58.6751 230.352 59.3645 230.159 60.1523 230.159C60.6069 230.159 61.0558 230.235 61.4989 230.386C61.9421 230.538 62.3455 230.784 62.7092 231.125C63.0728 231.462 63.3626 231.909 63.5785 232.466C63.7944 233.023 63.9023 233.708 63.9023 234.523V235.091H57.1751V233.932H62.5387C62.5387 233.439 62.4402 233 62.2433 232.614C62.0501 232.227 61.7736 231.922 61.4137 231.699C61.0576 231.475 60.6372 231.364 60.1523 231.364C59.6183 231.364 59.1561 231.496 58.766 231.761C58.3796 232.023 58.0823 232.364 57.8739 232.784C57.6656 233.205 57.5614 233.655 57.5614 234.136V234.909C57.5614 235.568 57.6751 236.127 57.9023 236.585C58.1334 237.04 58.4535 237.386 58.8626 237.625C59.2717 237.86 59.747 237.977 60.2887 237.977C60.641 237.977 60.9592 237.928 61.2433 237.83C61.5311 237.727 61.7792 237.576 61.9876 237.375C62.1959 237.17 62.3569 236.917 62.4705 236.614L63.766 236.977C63.6296 237.417 63.4004 237.803 63.0785 238.136C62.7565 238.466 62.3588 238.723 61.8853 238.909C61.4118 239.091 60.8796 239.182 60.2887 239.182ZM71.8967 242.273V237.659H71.783C71.6845 237.818 71.5444 238.019 71.3626 238.261C71.1808 238.5 70.9213 238.714 70.5842 238.903C70.247 239.089 69.7982 239.182 69.2376 239.182C68.5103 239.182 67.8683 238.998 67.3114 238.631C66.7546 238.259 66.319 237.737 66.0046 237.062C65.6902 236.384 65.533 235.583 65.533 234.659C65.533 233.742 65.6902 232.947 66.0046 232.273C66.319 231.598 66.7565 231.078 67.3171 230.71C67.8777 230.343 68.5254 230.159 69.2603 230.159C69.8285 230.159 70.2773 230.254 70.6069 230.443C70.9402 230.629 71.194 230.841 71.3683 231.08C71.5463 231.314 71.6845 231.508 71.783 231.659H71.9421V230.273H73.2376V242.273H71.8967ZM69.4194 237.977C69.9573 237.977 70.4118 237.837 70.783 237.557C71.1542 237.273 71.4364 236.881 71.6296 236.381C71.8228 235.877 71.9194 235.295 71.9194 234.636C71.9194 233.985 71.8247 233.415 71.6353 232.926C71.4459 232.434 71.1656 232.051 70.7944 231.778C70.4232 231.502 69.9648 231.364 69.4194 231.364C68.8512 231.364 68.3777 231.509 67.9989 231.801C67.6239 232.089 67.3417 232.481 67.1523 232.977C66.9667 233.47 66.8739 234.023 66.8739 234.636C66.8739 235.258 66.9686 235.822 67.158 236.33C67.3512 236.833 67.6353 237.235 68.0103 237.534C68.3891 237.83 68.8588 237.977 69.4194 237.977ZM81.1921 235.432V230.273H82.533V239H81.1921V237.523H81.1012C80.8967 237.966 80.5785 238.343 80.1467 238.653C79.7148 238.96 79.1694 239.114 78.5103 239.114C77.9648 239.114 77.48 238.994 77.0558 238.756C76.6315 238.513 76.2982 238.15 76.0558 237.665C75.8133 237.176 75.6921 236.561 75.6921 235.818V230.273H77.033V235.727C77.033 236.364 77.2111 236.871 77.5671 237.25C77.927 237.629 78.3853 237.818 78.9421 237.818C79.2755 237.818 79.6145 237.733 79.9592 237.562C80.3076 237.392 80.5993 237.131 80.8342 236.778C81.0728 236.426 81.1921 235.977 81.1921 235.432ZM88.6481 239.182C87.8072 239.182 87.0818 238.996 86.4719 238.625C85.8659 238.25 85.3981 237.727 85.0685 237.057C84.7428 236.383 84.5799 235.598 84.5799 234.705C84.5799 233.811 84.7428 233.023 85.0685 232.341C85.3981 231.655 85.8564 231.121 86.4435 230.739C87.0344 230.352 87.7238 230.159 88.5117 230.159C88.9663 230.159 89.4151 230.235 89.8583 230.386C90.3015 230.538 90.7049 230.784 91.0685 231.125C91.4322 231.462 91.7219 231.909 91.9379 232.466C92.1538 233.023 92.2617 233.708 92.2617 234.523V235.091H85.5344V233.932H90.8981C90.8981 233.439 90.7996 233 90.6026 232.614C90.4094 232.227 90.1329 231.922 89.7731 231.699C89.417 231.475 88.9966 231.364 88.5117 231.364C87.9776 231.364 87.5155 231.496 87.1254 231.761C86.739 232.023 86.4416 232.364 86.2333 232.784C86.025 233.205 85.9208 233.655 85.9208 234.136V234.909C85.9208 235.568 86.0344 236.127 86.2617 236.585C86.4928 237.04 86.8129 237.386 87.2219 237.625C87.631 237.86 88.1064 237.977 88.6481 237.977C89.0004 237.977 89.3185 237.928 89.6026 237.83C89.8905 237.727 90.1386 237.576 90.3469 237.375C90.5553 237.17 90.7163 236.917 90.8299 236.614L92.1254 236.977C91.989 237.417 91.7598 237.803 91.4379 238.136C91.1159 238.466 90.7182 238.723 90.2447 238.909C89.7712 239.091 89.239 239.182 88.6481 239.182ZM98.8015 242.273V230.273H100.097V231.659H100.256C100.355 231.508 100.491 231.314 100.665 231.08C100.843 230.841 101.097 230.629 101.426 230.443C101.76 230.254 102.211 230.159 102.779 230.159C103.514 230.159 104.161 230.343 104.722 230.71C105.283 231.078 105.72 231.598 106.034 232.273C106.349 232.947 106.506 233.742 106.506 234.659C106.506 235.583 106.349 236.384 106.034 237.062C105.72 237.737 105.284 238.259 104.728 238.631C104.171 238.998 103.529 239.182 102.801 239.182C102.241 239.182 101.792 239.089 101.455 238.903C101.118 238.714 100.858 238.5 100.676 238.261C100.495 238.019 100.355 237.818 100.256 237.659H100.142V242.273H98.8015ZM100.12 234.636C100.12 235.295 100.216 235.877 100.409 236.381C100.603 236.881 100.885 237.273 101.256 237.557C101.627 237.837 102.082 237.977 102.62 237.977C103.18 237.977 103.648 237.83 104.023 237.534C104.402 237.235 104.686 236.833 104.875 236.33C105.069 235.822 105.165 235.258 105.165 234.636C105.165 234.023 105.07 233.47 104.881 232.977C104.695 232.481 104.413 232.089 104.034 231.801C103.659 231.509 103.188 231.364 102.62 231.364C102.074 231.364 101.616 231.502 101.245 231.778C100.873 232.051 100.593 232.434 100.404 232.926C100.214 233.415 100.12 233.985 100.12 234.636ZM112.097 239.182C111.309 239.182 110.618 238.994 110.023 238.619C109.432 238.244 108.97 237.72 108.637 237.045C108.307 236.371 108.142 235.583 108.142 234.682C108.142 233.773 108.307 232.979 108.637 232.301C108.97 231.623 109.432 231.097 110.023 230.722C110.618 230.347 111.309 230.159 112.097 230.159C112.885 230.159 113.574 230.347 114.165 230.722C114.76 231.097 115.222 231.623 115.551 232.301C115.885 232.979 116.051 233.773 116.051 234.682C116.051 235.583 115.885 236.371 115.551 237.045C115.222 237.72 114.76 238.244 114.165 238.619C113.574 238.994 112.885 239.182 112.097 239.182ZM112.097 237.977C112.695 237.977 113.188 237.824 113.574 237.517C113.961 237.21 114.247 236.807 114.432 236.307C114.618 235.807 114.711 235.265 114.711 234.682C114.711 234.098 114.618 233.555 114.432 233.051C114.247 232.547 113.961 232.14 113.574 231.83C113.188 231.519 112.695 231.364 112.097 231.364C111.498 231.364 111.006 231.519 110.62 231.83C110.233 232.14 109.947 232.547 109.762 233.051C109.576 233.555 109.483 234.098 109.483 234.682C109.483 235.265 109.576 235.807 109.762 236.307C109.947 236.807 110.233 237.21 110.62 237.517C111.006 237.824 111.498 237.977 112.097 237.977ZM118.098 239V230.273H119.394V231.591H119.485C119.644 231.159 119.932 230.809 120.348 230.54C120.765 230.271 121.235 230.136 121.757 230.136C121.856 230.136 121.979 230.138 122.127 230.142C122.275 230.146 122.386 230.152 122.462 230.159V231.523C122.417 231.511 122.312 231.494 122.15 231.472C121.99 231.445 121.822 231.432 121.644 231.432C121.22 231.432 120.841 231.521 120.507 231.699C120.178 231.873 119.917 232.116 119.723 232.426C119.534 232.733 119.439 233.083 119.439 233.477V239H118.098ZM124.051 239V230.273H125.347V231.591H125.438C125.597 231.159 125.885 230.809 126.301 230.54C126.718 230.271 127.188 230.136 127.711 230.136C127.809 230.136 127.932 230.138 128.08 230.142C128.228 230.146 128.339 230.152 128.415 230.159V231.523C128.37 231.511 128.266 231.494 128.103 231.472C127.944 231.445 127.775 231.432 127.597 231.432C127.173 231.432 126.794 231.521 126.461 231.699C126.131 231.873 125.87 232.116 125.676 232.426C125.487 232.733 125.392 233.083 125.392 233.477V239H124.051ZM133.284 239.182C132.497 239.182 131.805 238.994 131.211 238.619C130.62 238.244 130.158 237.72 129.824 237.045C129.495 236.371 129.33 235.583 129.33 234.682C129.33 233.773 129.495 232.979 129.824 232.301C130.158 231.623 130.62 231.097 131.211 230.722C131.805 230.347 132.497 230.159 133.284 230.159C134.072 230.159 134.762 230.347 135.353 230.722C135.947 231.097 136.409 231.623 136.739 232.301C137.072 232.979 137.239 233.773 137.239 234.682C137.239 235.583 137.072 236.371 136.739 237.045C136.409 237.72 135.947 238.244 135.353 238.619C134.762 238.994 134.072 239.182 133.284 239.182ZM133.284 237.977C133.883 237.977 134.375 237.824 134.762 237.517C135.148 237.21 135.434 236.807 135.62 236.307C135.805 235.807 135.898 235.265 135.898 234.682C135.898 234.098 135.805 233.555 135.62 233.051C135.434 232.547 135.148 232.14 134.762 231.83C134.375 231.519 133.883 231.364 133.284 231.364C132.686 231.364 132.194 231.519 131.807 231.83C131.421 232.14 131.135 232.547 130.949 233.051C130.764 233.555 130.671 234.098 130.671 234.682C130.671 235.265 130.764 235.807 130.949 236.307C131.135 236.807 131.421 237.21 131.807 237.517C132.194 237.824 132.686 237.977 133.284 237.977ZM149.74 242.273V237.659H149.627C149.528 237.818 149.388 238.019 149.206 238.261C149.025 238.5 148.765 238.714 148.428 238.903C148.091 239.089 147.642 239.182 147.081 239.182C146.354 239.182 145.712 238.998 145.155 238.631C144.598 238.259 144.163 237.737 143.848 237.062C143.534 236.384 143.377 235.583 143.377 234.659C143.377 233.742 143.534 232.947 143.848 232.273C144.163 231.598 144.6 231.078 145.161 230.71C145.721 230.343 146.369 230.159 147.104 230.159C147.672 230.159 148.121 230.254 148.451 230.443C148.784 230.629 149.038 230.841 149.212 231.08C149.39 231.314 149.528 231.508 149.627 231.659H149.786V230.273H151.081V242.273H149.74ZM147.263 237.977C147.801 237.977 148.256 237.837 148.627 237.557C148.998 237.273 149.28 236.881 149.473 236.381C149.667 235.877 149.763 235.295 149.763 234.636C149.763 233.985 149.668 233.415 149.479 232.926C149.29 232.434 149.009 232.051 148.638 231.778C148.267 231.502 147.809 231.364 147.263 231.364C146.695 231.364 146.221 231.509 145.843 231.801C145.468 232.089 145.185 232.481 144.996 232.977C144.81 233.47 144.718 234.023 144.718 234.636C144.718 235.258 144.812 235.822 145.002 236.33C145.195 236.833 145.479 237.235 145.854 237.534C146.233 237.83 146.703 237.977 147.263 237.977ZM159.036 235.432V230.273H160.377V239H159.036V237.523H158.945C158.74 237.966 158.422 238.343 157.99 238.653C157.559 238.96 157.013 239.114 156.354 239.114C155.809 239.114 155.324 238.994 154.9 238.756C154.475 238.513 154.142 238.15 153.9 237.665C153.657 237.176 153.536 236.561 153.536 235.818V230.273H154.877V235.727C154.877 236.364 155.055 236.871 155.411 237.25C155.771 237.629 156.229 237.818 156.786 237.818C157.119 237.818 157.458 237.733 157.803 237.562C158.151 237.392 158.443 237.131 158.678 236.778C158.917 236.426 159.036 235.977 159.036 235.432ZM162.833 239V230.273H164.174V239H162.833ZM163.515 228.818C163.253 228.818 163.028 228.729 162.838 228.551C162.653 228.373 162.56 228.159 162.56 227.909C162.56 227.659 162.653 227.445 162.838 227.267C163.028 227.089 163.253 227 163.515 227C163.776 227 163.999 227.089 164.185 227.267C164.374 227.445 164.469 227.659 164.469 227.909C164.469 228.159 164.374 228.373 164.185 228.551C163.999 228.729 163.776 228.818 163.515 228.818ZM172.811 232.227L171.607 232.568C171.531 232.367 171.419 232.172 171.272 231.983C171.128 231.79 170.931 231.631 170.681 231.506C170.431 231.381 170.111 231.318 169.721 231.318C169.186 231.318 168.741 231.441 168.385 231.688C168.033 231.93 167.857 232.239 167.857 232.614C167.857 232.947 167.978 233.21 168.221 233.403C168.463 233.597 168.842 233.758 169.357 233.886L170.652 234.205C171.433 234.394 172.014 234.684 172.397 235.074C172.779 235.46 172.971 235.958 172.971 236.568C172.971 237.068 172.827 237.515 172.539 237.909C172.255 238.303 171.857 238.614 171.346 238.841C170.834 239.068 170.239 239.182 169.561 239.182C168.671 239.182 167.935 238.989 167.351 238.602C166.768 238.216 166.399 237.652 166.243 236.909L167.516 236.591C167.637 237.061 167.866 237.413 168.203 237.648C168.544 237.883 168.989 238 169.539 238C170.164 238 170.66 237.867 171.027 237.602C171.399 237.333 171.584 237.011 171.584 236.636C171.584 236.333 171.478 236.08 171.266 235.875C171.054 235.667 170.728 235.511 170.289 235.409L168.834 235.068C168.035 234.879 167.448 234.585 167.073 234.188C166.702 233.786 166.516 233.284 166.516 232.682C166.516 232.189 166.654 231.754 166.931 231.375C167.211 230.996 167.592 230.699 168.073 230.483C168.558 230.267 169.107 230.159 169.721 230.159C170.584 230.159 171.262 230.348 171.755 230.727C172.251 231.106 172.603 231.606 172.811 232.227ZM180.944 242.273V237.659H180.83C180.731 237.818 180.591 238.019 180.409 238.261C180.228 238.5 179.968 238.714 179.631 238.903C179.294 239.089 178.845 239.182 178.284 239.182C177.557 239.182 176.915 238.998 176.358 238.631C175.801 238.259 175.366 237.737 175.051 237.062C174.737 236.384 174.58 235.583 174.58 234.659C174.58 233.742 174.737 232.947 175.051 232.273C175.366 231.598 175.803 231.078 176.364 230.71C176.925 230.343 177.572 230.159 178.307 230.159C178.875 230.159 179.324 230.254 179.654 230.443C179.987 230.629 180.241 230.841 180.415 231.08C180.593 231.314 180.731 231.508 180.83 231.659H180.989V230.273H182.284V242.273H180.944ZM178.466 237.977C179.004 237.977 179.459 237.837 179.83 237.557C180.201 237.273 180.483 236.881 180.676 236.381C180.87 235.877 180.966 235.295 180.966 234.636C180.966 233.985 180.872 233.415 180.682 232.926C180.493 232.434 180.212 232.051 179.841 231.778C179.47 231.502 179.012 231.364 178.466 231.364C177.898 231.364 177.425 231.509 177.046 231.801C176.671 232.089 176.389 232.481 176.199 232.977C176.014 233.47 175.921 234.023 175.921 234.636C175.921 235.258 176.016 235.822 176.205 236.33C176.398 236.833 176.682 237.235 177.057 237.534C177.436 237.83 177.906 237.977 178.466 237.977ZM190.239 235.432V230.273H191.58V239H190.239V237.523H190.148C189.944 237.966 189.625 238.343 189.194 238.653C188.762 238.96 188.216 239.114 187.557 239.114C187.012 239.114 186.527 238.994 186.103 238.756C185.678 238.513 185.345 238.15 185.103 237.665C184.86 237.176 184.739 236.561 184.739 235.818V230.273H186.08V235.727C186.08 236.364 186.258 236.871 186.614 237.25C186.974 237.629 187.432 237.818 187.989 237.818C188.322 237.818 188.661 237.733 189.006 237.562C189.355 237.392 189.646 237.131 189.881 236.778C190.12 236.426 190.239 235.977 190.239 235.432ZM196.604 239.205C196.051 239.205 195.549 239.1 195.098 238.892C194.648 238.68 194.29 238.375 194.025 237.977C193.759 237.576 193.627 237.091 193.627 236.523C193.627 236.023 193.725 235.617 193.922 235.307C194.119 234.992 194.382 234.746 194.712 234.568C195.042 234.39 195.405 234.258 195.803 234.17C196.204 234.08 196.608 234.008 197.013 233.955C197.543 233.886 197.973 233.835 198.303 233.801C198.636 233.763 198.879 233.701 199.03 233.614C199.185 233.527 199.263 233.375 199.263 233.159V233.114C199.263 232.553 199.11 232.117 198.803 231.807C198.5 231.496 198.04 231.341 197.422 231.341C196.782 231.341 196.28 231.481 195.917 231.761C195.553 232.042 195.297 232.341 195.15 232.659L193.877 232.205C194.104 231.674 194.407 231.261 194.786 230.966C195.168 230.667 195.585 230.458 196.036 230.341C196.49 230.22 196.937 230.159 197.377 230.159C197.657 230.159 197.979 230.193 198.343 230.261C198.71 230.326 199.064 230.46 199.405 230.665C199.75 230.869 200.036 231.178 200.263 231.591C200.49 232.004 200.604 232.557 200.604 233.25V239H199.263V237.818H199.195C199.104 238.008 198.953 238.21 198.74 238.426C198.528 238.642 198.246 238.826 197.894 238.977C197.542 239.129 197.112 239.205 196.604 239.205ZM196.809 238C197.339 238 197.786 237.896 198.15 237.688C198.517 237.479 198.793 237.21 198.979 236.881C199.168 236.551 199.263 236.205 199.263 235.841V234.614C199.206 234.682 199.081 234.744 198.888 234.801C198.699 234.854 198.479 234.902 198.229 234.943C197.983 234.981 197.742 235.015 197.507 235.045C197.276 235.072 197.089 235.095 196.945 235.114C196.596 235.159 196.271 235.233 195.968 235.335C195.668 235.434 195.426 235.583 195.24 235.784C195.059 235.981 194.968 236.25 194.968 236.591C194.968 237.057 195.14 237.409 195.485 237.648C195.833 237.883 196.275 238 196.809 238ZM203.051 239V230.273H204.347V231.636H204.461C204.642 231.17 204.936 230.809 205.341 230.551C205.747 230.29 206.233 230.159 206.801 230.159C207.377 230.159 207.856 230.29 208.239 230.551C208.625 230.809 208.926 231.17 209.142 231.636H209.233C209.457 231.186 209.792 230.828 210.239 230.562C210.686 230.294 211.222 230.159 211.847 230.159C212.627 230.159 213.266 230.403 213.762 230.892C214.258 231.377 214.506 232.133 214.506 233.159V239H213.165V233.159C213.165 232.515 212.989 232.055 212.637 231.778C212.284 231.502 211.87 231.364 211.392 231.364C210.779 231.364 210.303 231.549 209.966 231.92C209.629 232.288 209.461 232.754 209.461 233.318V239H208.097V233.023C208.097 232.527 207.936 232.127 207.614 231.824C207.292 231.517 206.877 231.364 206.37 231.364C206.021 231.364 205.695 231.456 205.392 231.642C205.093 231.828 204.851 232.085 204.665 232.415C204.483 232.741 204.392 233.117 204.392 233.545V239H203.051ZM225.117 239.182C224.276 239.182 223.551 238.996 222.941 238.625C222.335 238.25 221.867 237.727 221.537 237.057C221.212 236.383 221.049 235.598 221.049 234.705C221.049 233.811 221.212 233.023 221.537 232.341C221.867 231.655 222.325 231.121 222.912 230.739C223.503 230.352 224.193 230.159 224.98 230.159C225.435 230.159 225.884 230.235 226.327 230.386C226.77 230.538 227.174 230.784 227.537 231.125C227.901 231.462 228.191 231.909 228.407 232.466C228.623 233.023 228.73 233.708 228.73 234.523V235.091H222.003V233.932H227.367C227.367 233.439 227.268 233 227.071 232.614C226.878 232.227 226.602 231.922 226.242 231.699C225.886 231.475 225.465 231.364 224.98 231.364C224.446 231.364 223.984 231.496 223.594 231.761C223.208 232.023 222.91 232.364 222.702 232.784C222.494 233.205 222.39 233.655 222.39 234.136V234.909C222.39 235.568 222.503 236.127 222.73 236.585C222.962 237.04 223.282 237.386 223.691 237.625C224.1 237.86 224.575 237.977 225.117 237.977C225.469 237.977 225.787 237.928 226.071 237.83C226.359 237.727 226.607 237.576 226.816 237.375C227.024 237.17 227.185 236.917 227.299 236.614L228.594 236.977C228.458 237.417 228.229 237.803 227.907 238.136C227.585 238.466 227.187 238.723 226.713 238.909C226.24 239.091 225.708 239.182 225.117 239.182ZM236.952 232.227L235.748 232.568C235.672 232.367 235.56 232.172 235.412 231.983C235.268 231.79 235.071 231.631 234.821 231.506C234.571 231.381 234.251 231.318 233.861 231.318C233.327 231.318 232.882 231.441 232.526 231.688C232.174 231.93 231.998 232.239 231.998 232.614C231.998 232.947 232.119 233.21 232.361 233.403C232.604 233.597 232.982 233.758 233.498 233.886L234.793 234.205C235.573 234.394 236.155 234.684 236.537 235.074C236.92 235.46 237.111 235.958 237.111 236.568C237.111 237.068 236.967 237.515 236.679 237.909C236.395 238.303 235.998 238.614 235.486 238.841C234.975 239.068 234.38 239.182 233.702 239.182C232.812 239.182 232.075 238.989 231.492 238.602C230.908 238.216 230.539 237.652 230.384 236.909L231.657 236.591C231.778 237.061 232.007 237.413 232.344 237.648C232.685 237.883 233.13 238 233.679 238C234.304 238 234.801 237.867 235.168 237.602C235.539 237.333 235.725 237.011 235.725 236.636C235.725 236.333 235.619 236.08 235.407 235.875C235.194 235.667 234.869 235.511 234.429 235.409L232.975 235.068C232.176 234.879 231.588 234.585 231.213 234.188C230.842 233.786 230.657 233.284 230.657 232.682C230.657 232.189 230.795 231.754 231.071 231.375C231.352 230.996 231.732 230.699 232.213 230.483C232.698 230.267 233.248 230.159 233.861 230.159C234.725 230.159 235.403 230.348 235.895 230.727C236.391 231.106 236.744 231.606 236.952 232.227ZM242.925 230.273V231.409H238.402V230.273H242.925ZM239.721 228.182H241.061V236.5C241.061 236.879 241.116 237.163 241.226 237.352C241.34 237.538 241.484 237.663 241.658 237.727C241.836 237.788 242.024 237.818 242.221 237.818C242.368 237.818 242.489 237.811 242.584 237.795C242.679 237.777 242.755 237.761 242.811 237.75L243.084 238.955C242.993 238.989 242.866 239.023 242.703 239.057C242.541 239.095 242.334 239.114 242.084 239.114C241.705 239.114 241.334 239.032 240.971 238.869C240.611 238.706 240.311 238.458 240.073 238.125C239.838 237.792 239.721 237.371 239.721 236.864V228.182ZM255.397 242.273V237.659H255.283C255.185 237.818 255.044 238.019 254.863 238.261C254.681 238.5 254.421 238.714 254.084 238.903C253.747 239.089 253.298 239.182 252.738 239.182C252.01 239.182 251.368 238.998 250.811 238.631C250.255 238.259 249.819 237.737 249.505 237.062C249.19 236.384 249.033 235.583 249.033 234.659C249.033 233.742 249.19 232.947 249.505 232.273C249.819 231.598 250.257 231.078 250.817 230.71C251.378 230.343 252.025 230.159 252.76 230.159C253.328 230.159 253.777 230.254 254.107 230.443C254.44 230.629 254.694 230.841 254.868 231.08C255.046 231.314 255.185 231.508 255.283 231.659H255.442V230.273H256.738V242.273H255.397ZM252.919 237.977C253.457 237.977 253.912 237.837 254.283 237.557C254.654 237.273 254.936 236.881 255.13 236.381C255.323 235.877 255.419 235.295 255.419 234.636C255.419 233.985 255.325 233.415 255.135 232.926C254.946 232.434 254.666 232.051 254.294 231.778C253.923 231.502 253.465 231.364 252.919 231.364C252.351 231.364 251.878 231.509 251.499 231.801C251.124 232.089 250.842 232.481 250.652 232.977C250.467 233.47 250.374 234.023 250.374 234.636C250.374 235.258 250.469 235.822 250.658 236.33C250.851 236.833 251.135 237.235 251.51 237.534C251.889 237.83 252.359 237.977 252.919 237.977ZM264.692 235.432V230.273H266.033V239H264.692V237.523H264.601C264.397 237.966 264.078 238.343 263.647 238.653C263.215 238.96 262.669 239.114 262.01 239.114C261.465 239.114 260.98 238.994 260.556 238.756C260.132 238.513 259.798 238.15 259.556 237.665C259.313 237.176 259.192 236.561 259.192 235.818V230.273H260.533V235.727C260.533 236.364 260.711 236.871 261.067 237.25C261.427 237.629 261.885 237.818 262.442 237.818C262.775 237.818 263.114 237.733 263.459 237.562C263.808 237.392 264.099 237.131 264.334 236.778C264.573 236.426 264.692 235.977 264.692 235.432ZM268.489 239V230.273H269.83V239H268.489ZM269.171 228.818C268.909 228.818 268.684 228.729 268.495 228.551C268.309 228.373 268.216 228.159 268.216 227.909C268.216 227.659 268.309 227.445 268.495 227.267C268.684 227.089 268.909 227 269.171 227C269.432 227 269.656 227.089 269.841 227.267C270.031 227.445 270.125 227.659 270.125 227.909C270.125 228.159 270.031 228.373 269.841 228.551C269.656 228.729 269.432 228.818 269.171 228.818ZM280.081 239.182C279.354 239.182 278.712 238.998 278.155 238.631C277.598 238.259 277.163 237.737 276.848 237.062C276.534 236.384 276.377 235.583 276.377 234.659C276.377 233.742 276.534 232.947 276.848 232.273C277.163 231.598 277.6 231.078 278.161 230.71C278.721 230.343 279.369 230.159 280.104 230.159C280.672 230.159 281.121 230.254 281.451 230.443C281.784 230.629 282.038 230.841 282.212 231.08C282.39 231.314 282.528 231.508 282.627 231.659H282.74V227.364H284.081V239H282.786V237.659H282.627C282.528 237.818 282.388 238.019 282.206 238.261C282.025 238.5 281.765 238.714 281.428 238.903C281.091 239.089 280.642 239.182 280.081 239.182ZM280.263 237.977C280.801 237.977 281.256 237.837 281.627 237.557C281.998 237.273 282.28 236.881 282.473 236.381C282.667 235.877 282.763 235.295 282.763 234.636C282.763 233.985 282.668 233.415 282.479 232.926C282.29 232.434 282.009 232.051 281.638 231.778C281.267 231.502 280.809 231.364 280.263 231.364C279.695 231.364 279.221 231.509 278.843 231.801C278.468 232.089 278.185 232.481 277.996 232.977C277.81 233.47 277.718 234.023 277.718 234.636C277.718 235.258 277.812 235.822 278.002 236.33C278.195 236.833 278.479 237.235 278.854 237.534C279.233 237.83 279.703 237.977 280.263 237.977ZM290.269 239.182C289.481 239.182 288.79 238.994 288.195 238.619C287.604 238.244 287.142 237.72 286.809 237.045C286.479 236.371 286.314 235.583 286.314 234.682C286.314 233.773 286.479 232.979 286.809 232.301C287.142 231.623 287.604 231.097 288.195 230.722C288.79 230.347 289.481 230.159 290.269 230.159C291.057 230.159 291.746 230.347 292.337 230.722C292.932 231.097 293.394 231.623 293.723 232.301C294.057 232.979 294.223 233.773 294.223 234.682C294.223 235.583 294.057 236.371 293.723 237.045C293.394 237.72 292.932 238.244 292.337 238.619C291.746 238.994 291.057 239.182 290.269 239.182ZM290.269 237.977C290.867 237.977 291.36 237.824 291.746 237.517C292.132 237.21 292.418 236.807 292.604 236.307C292.79 235.807 292.882 235.265 292.882 234.682C292.882 234.098 292.79 233.555 292.604 233.051C292.418 232.547 292.132 232.14 291.746 231.83C291.36 231.519 290.867 231.364 290.269 231.364C289.67 231.364 289.178 231.519 288.792 231.83C288.405 232.14 288.119 232.547 287.934 233.051C287.748 233.555 287.655 234.098 287.655 234.682C287.655 235.265 287.748 235.807 287.934 236.307C288.119 236.807 288.405 237.21 288.792 237.517C289.178 237.824 289.67 237.977 290.269 237.977ZM297.611 227.364V239H296.27V227.364H297.611ZM303.613 239.182C302.825 239.182 302.133 238.994 301.539 238.619C300.948 238.244 300.486 237.72 300.152 237.045C299.823 236.371 299.658 235.583 299.658 234.682C299.658 233.773 299.823 232.979 300.152 232.301C300.486 231.623 300.948 231.097 301.539 230.722C302.133 230.347 302.825 230.159 303.613 230.159C304.4 230.159 305.09 230.347 305.681 230.722C306.275 231.097 306.738 231.623 307.067 232.301C307.4 232.979 307.567 233.773 307.567 234.682C307.567 235.583 307.4 236.371 307.067 237.045C306.738 237.72 306.275 238.244 305.681 238.619C305.09 238.994 304.4 239.182 303.613 239.182ZM303.613 237.977C304.211 237.977 304.703 237.824 305.09 237.517C305.476 237.21 305.762 236.807 305.948 236.307C306.133 235.807 306.226 235.265 306.226 234.682C306.226 234.098 306.133 233.555 305.948 233.051C305.762 232.547 305.476 232.14 305.09 231.83C304.703 231.519 304.211 231.364 303.613 231.364C303.014 231.364 302.522 231.519 302.135 231.83C301.749 232.14 301.463 232.547 301.277 233.051C301.092 233.555 300.999 234.098 300.999 234.682C300.999 235.265 301.092 235.807 301.277 236.307C301.463 236.807 301.749 237.21 302.135 237.517C302.522 237.824 303.014 237.977 303.613 237.977ZM309.614 239V230.273H310.909V231.591H311C311.159 231.159 311.447 230.809 311.864 230.54C312.281 230.271 312.75 230.136 313.273 230.136C313.372 230.136 313.495 230.138 313.642 230.142C313.79 230.146 313.902 230.152 313.978 230.159V231.523C313.932 231.511 313.828 231.494 313.665 231.472C313.506 231.445 313.337 231.432 313.159 231.432C312.735 231.432 312.356 231.521 312.023 231.699C311.694 231.873 311.432 232.116 311.239 232.426C311.05 232.733 310.955 233.083 310.955 233.477V239H309.614ZM318.961 239.182C318.12 239.182 317.394 238.996 316.784 238.625C316.178 238.25 315.711 237.727 315.381 237.057C315.055 236.383 314.892 235.598 314.892 234.705C314.892 233.811 315.055 233.023 315.381 232.341C315.711 231.655 316.169 231.121 316.756 230.739C317.347 230.352 318.036 230.159 318.824 230.159C319.279 230.159 319.728 230.235 320.171 230.386C320.614 230.538 321.017 230.784 321.381 231.125C321.745 231.462 322.034 231.909 322.25 232.466C322.466 233.023 322.574 233.708 322.574 234.523V235.091H315.847V233.932H321.211C321.211 233.439 321.112 233 320.915 232.614C320.722 232.227 320.445 231.922 320.086 231.699C319.73 231.475 319.309 231.364 318.824 231.364C318.29 231.364 317.828 231.496 317.438 231.761C317.051 232.023 316.754 232.364 316.546 232.784C316.337 233.205 316.233 233.655 316.233 234.136V234.909C316.233 235.568 316.347 236.127 316.574 236.585C316.805 237.04 317.125 237.386 317.534 237.625C317.944 237.86 318.419 237.977 318.961 237.977C319.313 237.977 319.631 237.928 319.915 237.83C320.203 237.727 320.451 237.576 320.659 237.375C320.868 237.17 321.029 236.917 321.142 236.614L322.438 236.977C322.301 237.417 322.072 237.803 321.75 238.136C321.428 238.466 321.031 238.723 320.557 238.909C320.084 239.091 319.551 239.182 318.961 239.182ZM324.614 239V230.273H325.909V231.636H326.023C326.205 231.17 326.498 230.809 326.904 230.551C327.309 230.29 327.796 230.159 328.364 230.159C328.94 230.159 329.419 230.29 329.801 230.551C330.188 230.809 330.489 231.17 330.705 231.636H330.796C331.019 231.186 331.355 230.828 331.801 230.562C332.248 230.294 332.784 230.159 333.409 230.159C334.19 230.159 334.828 230.403 335.324 230.892C335.82 231.377 336.069 232.133 336.069 233.159V239H334.728V233.159C334.728 232.515 334.551 232.055 334.199 231.778C333.847 231.502 333.432 231.364 332.955 231.364C332.341 231.364 331.866 231.549 331.529 231.92C331.192 232.288 331.023 232.754 331.023 233.318V239H329.659V233.023C329.659 232.527 329.498 232.127 329.176 231.824C328.855 231.517 328.44 231.364 327.932 231.364C327.584 231.364 327.258 231.456 326.955 231.642C326.656 231.828 326.413 232.085 326.228 232.415C326.046 232.741 325.955 233.117 325.955 233.545V239H324.614ZM45.1609 263V254.273H46.5018V263H45.1609ZM45.8427 252.818C45.5813 252.818 45.3559 252.729 45.1665 252.551C44.9809 252.373 44.8881 252.159 44.8881 251.909C44.8881 251.659 44.9809 251.445 45.1665 251.267C45.3559 251.089 45.5813 251 45.8427 251C46.104 251 46.3275 251.089 46.5131 251.267C46.7025 251.445 46.7972 251.659 46.7972 251.909C46.7972 252.159 46.7025 252.373 46.5131 252.551C46.3275 252.729 46.104 252.818 45.8427 252.818ZM48.9577 266.273V254.273H50.2532V255.659H50.4123C50.5108 255.508 50.6471 255.314 50.8214 255.08C50.9994 254.841 51.2532 254.629 51.5827 254.443C51.9161 254.254 52.3668 254.159 52.935 254.159C53.6699 254.159 54.3176 254.343 54.8782 254.71C55.4388 255.078 55.8763 255.598 56.1907 256.273C56.5051 256.947 56.6623 257.742 56.6623 258.659C56.6623 259.583 56.5051 260.384 56.1907 261.062C55.8763 261.737 55.4407 262.259 54.8839 262.631C54.3271 262.998 53.685 263.182 52.9577 263.182C52.3971 263.182 51.9483 263.089 51.6112 262.903C51.274 262.714 51.0146 262.5 50.8327 262.261C50.6509 262.019 50.5108 261.818 50.4123 261.659H50.2987V266.273H48.9577ZM50.2759 258.636C50.2759 259.295 50.3725 259.877 50.5657 260.381C50.7589 260.881 51.0411 261.273 51.4123 261.557C51.7835 261.837 52.238 261.977 52.7759 261.977C53.3365 261.977 53.8043 261.83 54.1793 261.534C54.5581 261.235 54.8422 260.833 55.0316 260.33C55.2248 259.822 55.3214 259.258 55.3214 258.636C55.3214 258.023 55.2267 257.47 55.0373 256.977C54.8517 256.481 54.5695 256.089 54.1907 255.801C53.8157 255.509 53.3441 255.364 52.7759 255.364C52.2305 255.364 51.7721 255.502 51.4009 255.778C51.0297 256.051 50.7494 256.434 50.56 256.926C50.3706 257.415 50.2759 257.985 50.2759 258.636ZM64.8896 256.227L63.685 256.568C63.6093 256.367 63.4975 256.172 63.3498 255.983C63.2058 255.79 63.0089 255.631 62.7589 255.506C62.5089 255.381 62.1888 255.318 61.7987 255.318C61.2646 255.318 60.8195 255.441 60.4634 255.688C60.1112 255.93 59.935 256.239 59.935 256.614C59.935 256.947 60.0562 257.21 60.2987 257.403C60.5411 257.597 60.9199 257.758 61.435 257.886L62.7305 258.205C63.5108 258.394 64.0922 258.684 64.4748 259.074C64.8574 259.46 65.0487 259.958 65.0487 260.568C65.0487 261.068 64.9047 261.515 64.6168 261.909C64.3327 262.303 63.935 262.614 63.4237 262.841C62.9123 263.068 62.3176 263.182 61.6396 263.182C60.7494 263.182 60.0127 262.989 59.4293 262.602C58.846 262.216 58.4767 261.652 58.3214 260.909L59.5941 260.591C59.7153 261.061 59.9445 261.413 60.2816 261.648C60.6225 261.883 61.0676 262 61.6168 262C62.2418 262 62.738 261.867 63.1055 261.602C63.4767 261.333 63.6623 261.011 63.6623 260.636C63.6623 260.333 63.5562 260.08 63.3441 259.875C63.132 259.667 62.8062 259.511 62.3668 259.409L60.9123 259.068C60.113 258.879 59.5259 258.585 59.1509 258.188C58.7797 257.786 58.5941 257.284 58.5941 256.682C58.5941 256.189 58.7324 255.754 59.0089 255.375C59.2892 254.996 59.6699 254.699 60.1509 254.483C60.6358 254.267 61.185 254.159 61.7987 254.159C62.6623 254.159 63.3403 254.348 63.8327 254.727C64.329 255.106 64.6812 255.606 64.8896 256.227ZM72.5671 259.432V254.273H73.908V263H72.5671V261.523H72.4762C72.2717 261.966 71.9535 262.343 71.5217 262.653C71.0898 262.96 70.5444 263.114 69.8853 263.114C69.3398 263.114 68.855 262.994 68.4308 262.756C68.0065 262.513 67.6732 262.15 67.4308 261.665C67.1883 261.176 67.0671 260.561 67.0671 259.818V254.273H68.408V259.727C68.408 260.364 68.5861 260.871 68.9421 261.25C69.302 261.629 69.7603 261.818 70.3171 261.818C70.6505 261.818 70.9895 261.733 71.3342 261.562C71.6826 261.392 71.9743 261.131 72.2092 260.778C72.4478 260.426 72.5671 259.977 72.5671 259.432ZM76.364 263V254.273H77.6594V255.636H77.7731C77.9549 255.17 78.2485 254.809 78.6538 254.551C79.0591 254.29 79.5458 254.159 80.114 254.159C80.6897 254.159 81.1689 254.29 81.5515 254.551C81.9379 254.809 82.239 255.17 82.4549 255.636H82.5458C82.7693 255.186 83.1045 254.828 83.5515 254.562C83.9985 254.294 84.5344 254.159 85.1594 254.159C85.9397 254.159 86.578 254.403 87.0742 254.892C87.5704 255.377 87.8185 256.133 87.8185 257.159V263H86.4776V257.159C86.4776 256.515 86.3015 256.055 85.9492 255.778C85.5969 255.502 85.1822 255.364 84.7049 255.364C84.0913 255.364 83.6159 255.549 83.2788 255.92C82.9416 256.288 82.7731 256.754 82.7731 257.318V263H81.4094V257.023C81.4094 256.527 81.2485 256.127 80.9265 255.824C80.6045 255.517 80.1897 255.364 79.6822 255.364C79.3337 255.364 79.0079 255.456 78.7049 255.642C78.4057 255.828 78.1632 256.085 77.9776 256.415C77.7958 256.741 77.7049 257.117 77.7049 257.545V263H76.364ZM100.725 266.273V261.659H100.611C100.513 261.818 100.373 262.019 100.191 262.261C100.009 262.5 99.7494 262.714 99.4123 262.903C99.0752 263.089 98.6263 263.182 98.0657 263.182C97.3384 263.182 96.6964 262.998 96.1396 262.631C95.5827 262.259 95.1471 261.737 94.8327 261.062C94.5183 260.384 94.3612 259.583 94.3612 258.659C94.3612 257.742 94.5183 256.947 94.8327 256.273C95.1471 255.598 95.5846 255.078 96.1452 254.71C96.7058 254.343 97.3536 254.159 98.0884 254.159C98.6566 254.159 99.1055 254.254 99.435 254.443C99.7683 254.629 100.022 254.841 100.196 255.08C100.374 255.314 100.513 255.508 100.611 255.659H100.77V254.273H102.066V266.273H100.725ZM98.2475 261.977C98.7854 261.977 99.2399 261.837 99.6112 261.557C99.9824 261.273 100.265 260.881 100.458 260.381C100.651 259.877 100.748 259.295 100.748 258.636C100.748 257.985 100.653 257.415 100.463 256.926C100.274 256.434 99.9937 256.051 99.6225 255.778C99.2513 255.502 98.793 255.364 98.2475 255.364C97.6793 255.364 97.2058 255.509 96.8271 255.801C96.4521 256.089 96.1699 256.481 95.9805 256.977C95.7949 257.47 95.7021 258.023 95.7021 258.636C95.7021 259.258 95.7968 259.822 95.9862 260.33C96.1793 260.833 96.4634 261.235 96.8384 261.534C97.2172 261.83 97.6869 261.977 98.2475 261.977ZM110.02 259.432V254.273H111.361V263H110.02V261.523H109.929C109.725 261.966 109.407 262.343 108.975 262.653C108.543 262.96 107.998 263.114 107.338 263.114C106.793 263.114 106.308 262.994 105.884 262.756C105.46 262.513 105.126 262.15 104.884 261.665C104.641 261.176 104.52 260.561 104.52 259.818V254.273H105.861V259.727C105.861 260.364 106.039 260.871 106.395 261.25C106.755 261.629 107.213 261.818 107.77 261.818C108.104 261.818 108.443 261.733 108.787 261.562C109.136 261.392 109.427 261.131 109.662 260.778C109.901 260.426 110.02 259.977 110.02 259.432ZM113.817 263V254.273H115.158V263H113.817ZM114.499 252.818C114.238 252.818 114.012 252.729 113.823 252.551C113.637 252.373 113.544 252.159 113.544 251.909C113.544 251.659 113.637 251.445 113.823 251.267C114.012 251.089 114.238 251 114.499 251C114.76 251 114.984 251.089 115.169 251.267C115.359 251.445 115.453 251.659 115.453 251.909C115.453 252.159 115.359 252.373 115.169 252.551C114.984 252.729 114.76 252.818 114.499 252.818ZM120.182 263.205C119.629 263.205 119.127 263.1 118.676 262.892C118.226 262.68 117.868 262.375 117.603 261.977C117.337 261.576 117.205 261.091 117.205 260.523C117.205 260.023 117.303 259.617 117.5 259.307C117.697 258.992 117.961 258.746 118.29 258.568C118.62 258.39 118.983 258.258 119.381 258.17C119.783 258.08 120.186 258.008 120.591 257.955C121.122 257.886 121.551 257.835 121.881 257.801C122.214 257.763 122.457 257.701 122.608 257.614C122.764 257.527 122.841 257.375 122.841 257.159V257.114C122.841 256.553 122.688 256.117 122.381 255.807C122.078 255.496 121.618 255.341 121 255.341C120.36 255.341 119.858 255.481 119.495 255.761C119.131 256.042 118.875 256.341 118.728 256.659L117.455 256.205C117.682 255.674 117.985 255.261 118.364 254.966C118.747 254.667 119.163 254.458 119.614 254.341C120.069 254.22 120.516 254.159 120.955 254.159C121.235 254.159 121.557 254.193 121.921 254.261C122.288 254.326 122.642 254.46 122.983 254.665C123.328 254.869 123.614 255.178 123.841 255.591C124.069 256.004 124.182 256.557 124.182 257.25V263H122.841V261.818H122.773C122.682 262.008 122.531 262.21 122.319 262.426C122.106 262.642 121.824 262.826 121.472 262.977C121.12 263.129 120.69 263.205 120.182 263.205ZM120.387 262C120.917 262 121.364 261.896 121.728 261.688C122.095 261.479 122.372 261.21 122.557 260.881C122.747 260.551 122.841 260.205 122.841 259.841V258.614C122.784 258.682 122.659 258.744 122.466 258.801C122.277 258.854 122.057 258.902 121.807 258.943C121.561 258.981 121.32 259.015 121.086 259.045C120.855 259.072 120.667 259.095 120.523 259.114C120.175 259.159 119.849 259.233 119.546 259.335C119.247 259.434 119.004 259.583 118.819 259.784C118.637 259.981 118.546 260.25 118.546 260.591C118.546 261.057 118.718 261.409 119.063 261.648C119.411 261.883 119.853 262 120.387 262ZM134.425 263.182C133.698 263.182 133.056 262.998 132.499 262.631C131.942 262.259 131.507 261.737 131.192 261.062C130.878 260.384 130.721 259.583 130.721 258.659C130.721 257.742 130.878 256.947 131.192 256.273C131.507 255.598 131.944 255.078 132.505 254.71C133.065 254.343 133.713 254.159 134.448 254.159C135.016 254.159 135.465 254.254 135.794 254.443C136.128 254.629 136.382 254.841 136.556 255.08C136.734 255.314 136.872 255.508 136.971 255.659H137.084V251.364H138.425V263H137.13V261.659H136.971C136.872 261.818 136.732 262.019 136.55 262.261C136.368 262.5 136.109 262.714 135.772 262.903C135.435 263.089 134.986 263.182 134.425 263.182ZM134.607 261.977C135.145 261.977 135.599 261.837 135.971 261.557C136.342 261.273 136.624 260.881 136.817 260.381C137.01 259.877 137.107 259.295 137.107 258.636C137.107 257.985 137.012 257.415 136.823 256.926C136.633 256.434 136.353 256.051 135.982 255.778C135.611 255.502 135.152 255.364 134.607 255.364C134.039 255.364 133.565 255.509 133.186 255.801C132.811 256.089 132.529 256.481 132.34 256.977C132.154 257.47 132.061 258.023 132.061 258.636C132.061 259.258 132.156 259.822 132.346 260.33C132.539 260.833 132.823 261.235 133.198 261.534C133.577 261.83 134.046 261.977 134.607 261.977ZM144.613 263.182C143.825 263.182 143.133 262.994 142.539 262.619C141.948 262.244 141.486 261.72 141.152 261.045C140.823 260.371 140.658 259.583 140.658 258.682C140.658 257.773 140.823 256.979 141.152 256.301C141.486 255.623 141.948 255.097 142.539 254.722C143.133 254.347 143.825 254.159 144.613 254.159C145.4 254.159 146.09 254.347 146.681 254.722C147.275 255.097 147.738 255.623 148.067 256.301C148.4 256.979 148.567 257.773 148.567 258.682C148.567 259.583 148.4 260.371 148.067 261.045C147.738 261.72 147.275 262.244 146.681 262.619C146.09 262.994 145.4 263.182 144.613 263.182ZM144.613 261.977C145.211 261.977 145.703 261.824 146.09 261.517C146.476 261.21 146.762 260.807 146.948 260.307C147.133 259.807 147.226 259.265 147.226 258.682C147.226 258.098 147.133 257.555 146.948 257.051C146.762 256.547 146.476 256.14 146.09 255.83C145.703 255.519 145.211 255.364 144.613 255.364C144.014 255.364 143.522 255.519 143.135 255.83C142.749 256.14 142.463 256.547 142.277 257.051C142.092 257.555 141.999 258.098 141.999 258.682C141.999 259.265 142.092 259.807 142.277 260.307C142.463 260.807 142.749 261.21 143.135 261.517C143.522 261.824 144.014 261.977 144.613 261.977ZM151.955 251.364V263H150.614V251.364H151.955ZM157.956 263.182C157.168 263.182 156.477 262.994 155.882 262.619C155.292 262.244 154.829 261.72 154.496 261.045C154.167 260.371 154.002 259.583 154.002 258.682C154.002 257.773 154.167 256.979 154.496 256.301C154.829 255.623 155.292 255.097 155.882 254.722C156.477 254.347 157.168 254.159 157.956 254.159C158.744 254.159 159.434 254.347 160.025 254.722C160.619 255.097 161.081 255.623 161.411 256.301C161.744 256.979 161.911 257.773 161.911 258.682C161.911 259.583 161.744 260.371 161.411 261.045C161.081 261.72 160.619 262.244 160.025 262.619C159.434 262.994 158.744 263.182 157.956 263.182ZM157.956 261.977C158.555 261.977 159.047 261.824 159.434 261.517C159.82 261.21 160.106 260.807 160.292 260.307C160.477 259.807 160.57 259.265 160.57 258.682C160.57 258.098 160.477 257.555 160.292 257.051C160.106 256.547 159.82 256.14 159.434 255.83C159.047 255.519 158.555 255.364 157.956 255.364C157.358 255.364 156.865 255.519 156.479 255.83C156.093 256.14 155.807 256.547 155.621 257.051C155.435 257.555 155.343 258.098 155.343 258.682C155.343 259.265 155.435 259.807 155.621 260.307C155.807 260.807 156.093 261.21 156.479 261.517C156.865 261.824 157.358 261.977 157.956 261.977ZM163.958 263V254.273H165.253V255.591H165.344C165.503 255.159 165.791 254.809 166.208 254.54C166.624 254.271 167.094 254.136 167.617 254.136C167.715 254.136 167.838 254.138 167.986 254.142C168.134 254.146 168.246 254.152 168.321 254.159V255.523C168.276 255.511 168.172 255.494 168.009 255.472C167.85 255.445 167.681 255.432 167.503 255.432C167.079 255.432 166.7 255.521 166.367 255.699C166.037 255.873 165.776 256.116 165.583 256.426C165.393 256.733 165.299 257.083 165.299 257.477V263H163.958ZM180.593 256.227L179.388 256.568C179.312 256.367 179.201 256.172 179.053 255.983C178.909 255.79 178.712 255.631 178.462 255.506C178.212 255.381 177.892 255.318 177.502 255.318C176.968 255.318 176.523 255.441 176.167 255.688C175.814 255.93 175.638 256.239 175.638 256.614C175.638 256.947 175.759 257.21 176.002 257.403C176.244 257.597 176.623 257.758 177.138 257.886L178.434 258.205C179.214 258.394 179.795 258.684 180.178 259.074C180.56 259.46 180.752 259.958 180.752 260.568C180.752 261.068 180.608 261.515 180.32 261.909C180.036 262.303 179.638 262.614 179.127 262.841C178.615 263.068 178.021 263.182 177.343 263.182C176.453 263.182 175.716 262.989 175.132 262.602C174.549 262.216 174.18 261.652 174.025 260.909L175.297 260.591C175.418 261.061 175.648 261.413 175.985 261.648C176.326 261.883 176.771 262 177.32 262C177.945 262 178.441 261.867 178.809 261.602C179.18 261.333 179.365 261.011 179.365 260.636C179.365 260.333 179.259 260.08 179.047 259.875C178.835 259.667 178.509 259.511 178.07 259.409L176.615 259.068C175.816 258.879 175.229 258.585 174.854 258.188C174.483 257.786 174.297 257.284 174.297 256.682C174.297 256.189 174.435 255.754 174.712 255.375C174.992 254.996 175.373 254.699 175.854 254.483C176.339 254.267 176.888 254.159 177.502 254.159C178.365 254.159 179.043 254.348 179.536 254.727C180.032 255.106 180.384 255.606 180.593 256.227ZM182.77 263V254.273H184.111V263H182.77ZM183.452 252.818C183.191 252.818 182.965 252.729 182.776 252.551C182.59 252.373 182.498 252.159 182.498 251.909C182.498 251.659 182.59 251.445 182.776 251.267C182.965 251.089 183.191 251 183.452 251C183.713 251 183.937 251.089 184.123 251.267C184.312 251.445 184.407 251.659 184.407 251.909C184.407 252.159 184.312 252.373 184.123 252.551C183.937 252.729 183.713 252.818 183.452 252.818ZM190.363 254.273V255.409H185.84V254.273H190.363ZM187.158 252.182H188.499V260.5C188.499 260.879 188.554 261.163 188.664 261.352C188.777 261.538 188.921 261.663 189.096 261.727C189.274 261.788 189.461 261.818 189.658 261.818C189.806 261.818 189.927 261.811 190.022 261.795C190.116 261.777 190.192 261.761 190.249 261.75L190.522 262.955C190.431 262.989 190.304 263.023 190.141 263.057C189.978 263.095 189.772 263.114 189.522 263.114C189.143 263.114 188.772 263.032 188.408 262.869C188.048 262.706 187.749 262.458 187.51 262.125C187.275 261.792 187.158 261.371 187.158 260.864V252.182ZM199.448 263.205C198.895 263.205 198.393 263.1 197.942 262.892C197.491 262.68 197.133 262.375 196.868 261.977C196.603 261.576 196.471 261.091 196.471 260.523C196.471 260.023 196.569 259.617 196.766 259.307C196.963 258.992 197.226 258.746 197.556 258.568C197.885 258.39 198.249 258.258 198.647 258.17C199.048 258.08 199.452 258.008 199.857 257.955C200.387 257.886 200.817 257.835 201.147 257.801C201.48 257.763 201.722 257.701 201.874 257.614C202.029 257.527 202.107 257.375 202.107 257.159V257.114C202.107 256.553 201.953 256.117 201.647 255.807C201.344 255.496 200.883 255.341 200.266 255.341C199.626 255.341 199.124 255.481 198.76 255.761C198.397 256.042 198.141 256.341 197.993 256.659L196.721 256.205C196.948 255.674 197.251 255.261 197.63 254.966C198.012 254.667 198.429 254.458 198.88 254.341C199.334 254.22 199.781 254.159 200.221 254.159C200.501 254.159 200.823 254.193 201.186 254.261C201.554 254.326 201.908 254.46 202.249 254.665C202.594 254.869 202.88 255.178 203.107 255.591C203.334 256.004 203.448 256.557 203.448 257.25V263H202.107V261.818H202.039C201.948 262.008 201.796 262.21 201.584 262.426C201.372 262.642 201.09 262.826 200.738 262.977C200.385 263.129 199.955 263.205 199.448 263.205ZM199.652 262C200.183 262 200.63 261.896 200.993 261.688C201.361 261.479 201.637 261.21 201.823 260.881C202.012 260.551 202.107 260.205 202.107 259.841V258.614C202.05 258.682 201.925 258.744 201.732 258.801C201.542 258.854 201.323 258.902 201.073 258.943C200.827 258.981 200.586 259.015 200.351 259.045C200.12 259.072 199.933 259.095 199.789 259.114C199.44 259.159 199.114 259.233 198.811 259.335C198.512 259.434 198.27 259.583 198.084 259.784C197.902 259.981 197.811 260.25 197.811 260.591C197.811 261.057 197.984 261.409 198.328 261.648C198.677 261.883 199.118 262 199.652 262ZM205.895 263V254.273H207.191V255.636H207.304C207.486 255.17 207.78 254.809 208.185 254.551C208.59 254.29 209.077 254.159 209.645 254.159C210.221 254.159 210.7 254.29 211.083 254.551C211.469 254.809 211.77 255.17 211.986 255.636H212.077C212.301 255.186 212.636 254.828 213.083 254.562C213.53 254.294 214.066 254.159 214.691 254.159C215.471 254.159 216.109 254.403 216.605 254.892C217.102 255.377 217.35 256.133 217.35 257.159V263H216.009V257.159C216.009 256.515 215.833 256.055 215.48 255.778C215.128 255.502 214.713 255.364 214.236 255.364C213.623 255.364 213.147 255.549 212.81 255.92C212.473 256.288 212.304 256.754 212.304 257.318V263H210.941V257.023C210.941 256.527 210.78 256.127 210.458 255.824C210.136 255.517 209.721 255.364 209.213 255.364C208.865 255.364 208.539 255.456 208.236 255.642C207.937 255.828 207.694 256.085 207.509 256.415C207.327 256.741 207.236 257.117 207.236 257.545V263H205.895ZM223.461 263.182C222.62 263.182 221.894 262.996 221.284 262.625C220.678 262.25 220.211 261.727 219.881 261.057C219.555 260.383 219.392 259.598 219.392 258.705C219.392 257.811 219.555 257.023 219.881 256.341C220.211 255.655 220.669 255.121 221.256 254.739C221.847 254.352 222.536 254.159 223.324 254.159C223.779 254.159 224.228 254.235 224.671 254.386C225.114 254.538 225.517 254.784 225.881 255.125C226.245 255.462 226.534 255.909 226.75 256.466C226.966 257.023 227.074 257.708 227.074 258.523V259.091H220.347V257.932H225.711C225.711 257.439 225.612 257 225.415 256.614C225.222 256.227 224.945 255.922 224.586 255.699C224.23 255.475 223.809 255.364 223.324 255.364C222.79 255.364 222.328 255.496 221.938 255.761C221.551 256.023 221.254 256.364 221.046 256.784C220.837 257.205 220.733 257.655 220.733 258.136V258.909C220.733 259.568 220.847 260.127 221.074 260.585C221.305 261.04 221.625 261.386 222.034 261.625C222.444 261.86 222.919 261.977 223.461 261.977C223.813 261.977 224.131 261.928 224.415 261.83C224.703 261.727 224.951 261.576 225.159 261.375C225.368 261.17 225.529 260.917 225.642 260.614L226.938 260.977C226.801 261.417 226.572 261.803 226.25 262.136C225.928 262.466 225.531 262.723 225.057 262.909C224.584 263.091 224.051 263.182 223.461 263.182ZM232.909 254.273V255.409H228.387V254.273H232.909ZM229.705 252.182H231.046V260.5C231.046 260.879 231.101 261.163 231.211 261.352C231.324 261.538 231.468 261.663 231.642 261.727C231.82 261.788 232.008 261.818 232.205 261.818C232.353 261.818 232.474 261.811 232.569 261.795C232.663 261.777 232.739 261.761 232.796 261.75L233.069 262.955C232.978 262.989 232.851 263.023 232.688 263.057C232.525 263.095 232.319 263.114 232.069 263.114C231.69 263.114 231.319 263.032 230.955 262.869C230.595 262.706 230.296 262.458 230.057 262.125C229.822 261.792 229.705 261.371 229.705 260.864V252.182ZM236.926 261.409L236.836 262.023C236.771 262.455 236.673 262.917 236.54 263.409C236.411 263.902 236.277 264.366 236.137 264.801C235.997 265.237 235.881 265.583 235.79 265.841H234.767C234.817 265.598 234.881 265.278 234.961 264.881C235.04 264.483 235.12 264.038 235.199 263.545C235.283 263.057 235.351 262.557 235.404 262.045L235.472 261.409H236.926ZM247.456 263.182C246.638 263.182 245.934 262.989 245.343 262.602C244.752 262.216 244.297 261.684 243.979 261.006C243.661 260.328 243.502 259.553 243.502 258.682C243.502 257.795 243.665 257.013 243.99 256.335C244.32 255.653 244.778 255.121 245.365 254.739C245.956 254.352 246.646 254.159 247.434 254.159C248.047 254.159 248.6 254.273 249.093 254.5C249.585 254.727 249.989 255.045 250.303 255.455C250.617 255.864 250.812 256.341 250.888 256.886H249.547C249.445 256.489 249.218 256.136 248.865 255.83C248.517 255.519 248.047 255.364 247.456 255.364C246.934 255.364 246.475 255.5 246.081 255.773C245.691 256.042 245.386 256.422 245.167 256.915C244.951 257.403 244.843 257.977 244.843 258.636C244.843 259.311 244.949 259.898 245.161 260.398C245.377 260.898 245.68 261.286 246.07 261.562C246.464 261.839 246.926 261.977 247.456 261.977C247.805 261.977 248.121 261.917 248.405 261.795C248.689 261.674 248.93 261.5 249.127 261.273C249.324 261.045 249.464 260.773 249.547 260.455H250.888C250.812 260.97 250.625 261.434 250.326 261.847C250.03 262.256 249.638 262.581 249.15 262.824C248.665 263.062 248.1 263.182 247.456 263.182ZM256.394 263.182C255.606 263.182 254.915 262.994 254.32 262.619C253.729 262.244 253.267 261.72 252.934 261.045C252.604 260.371 252.439 259.583 252.439 258.682C252.439 257.773 252.604 256.979 252.934 256.301C253.267 255.623 253.729 255.097 254.32 254.722C254.915 254.347 255.606 254.159 256.394 254.159C257.182 254.159 257.871 254.347 258.462 254.722C259.057 255.097 259.519 255.623 259.848 256.301C260.182 256.979 260.348 257.773 260.348 258.682C260.348 259.583 260.182 260.371 259.848 261.045C259.519 261.72 259.057 262.244 258.462 262.619C257.871 262.994 257.182 263.182 256.394 263.182ZM256.394 261.977C256.992 261.977 257.485 261.824 257.871 261.517C258.257 261.21 258.543 260.807 258.729 260.307C258.915 259.807 259.007 259.265 259.007 258.682C259.007 258.098 258.915 257.555 258.729 257.051C258.543 256.547 258.257 256.14 257.871 255.83C257.485 255.519 256.992 255.364 256.394 255.364C255.795 255.364 255.303 255.519 254.917 255.83C254.53 256.14 254.244 256.547 254.059 257.051C253.873 257.555 253.78 258.098 253.78 258.682C253.78 259.265 253.873 259.807 254.059 260.307C254.244 260.807 254.53 261.21 254.917 261.517C255.303 261.824 255.795 261.977 256.394 261.977ZM263.736 257.75V263H262.395V254.273H263.691V255.636H263.804C264.009 255.193 264.319 254.837 264.736 254.568C265.153 254.295 265.691 254.159 266.35 254.159C266.941 254.159 267.458 254.28 267.901 254.523C268.344 254.761 268.689 255.125 268.935 255.614C269.181 256.098 269.304 256.712 269.304 257.455V263H267.963V257.545C267.963 256.86 267.785 256.326 267.429 255.943C267.073 255.557 266.585 255.364 265.963 255.364C265.535 255.364 265.153 255.456 264.816 255.642C264.482 255.828 264.219 256.098 264.026 256.455C263.833 256.811 263.736 257.242 263.736 257.75ZM277.936 256.227L276.732 256.568C276.656 256.367 276.544 256.172 276.397 255.983C276.253 255.79 276.056 255.631 275.806 255.506C275.556 255.381 275.236 255.318 274.846 255.318C274.311 255.318 273.866 255.441 273.51 255.688C273.158 255.93 272.982 256.239 272.982 256.614C272.982 256.947 273.103 257.21 273.346 257.403C273.588 257.597 273.967 257.758 274.482 257.886L275.777 258.205C276.558 258.394 277.139 258.684 277.522 259.074C277.904 259.46 278.096 259.958 278.096 260.568C278.096 261.068 277.952 261.515 277.664 261.909C277.38 262.303 276.982 262.614 276.471 262.841C275.959 263.068 275.364 263.182 274.686 263.182C273.796 263.182 273.06 262.989 272.476 262.602C271.893 262.216 271.524 261.652 271.368 260.909L272.641 260.591C272.762 261.061 272.991 261.413 273.328 261.648C273.669 261.883 274.114 262 274.664 262C275.289 262 275.785 261.867 276.152 261.602C276.524 261.333 276.709 261.011 276.709 260.636C276.709 260.333 276.603 260.08 276.391 259.875C276.179 259.667 275.853 259.511 275.414 259.409L273.959 259.068C273.16 258.879 272.573 258.585 272.198 258.188C271.827 257.786 271.641 257.284 271.641 256.682C271.641 256.189 271.779 255.754 272.056 255.375C272.336 254.996 272.717 254.699 273.198 254.483C273.683 254.267 274.232 254.159 274.846 254.159C275.709 254.159 276.387 254.348 276.88 254.727C277.376 255.106 277.728 255.606 277.936 256.227ZM283.773 263.182C282.932 263.182 282.207 262.996 281.597 262.625C280.991 262.25 280.523 261.727 280.194 261.057C279.868 260.383 279.705 259.598 279.705 258.705C279.705 257.811 279.868 257.023 280.194 256.341C280.523 255.655 280.981 255.121 281.569 254.739C282.159 254.352 282.849 254.159 283.637 254.159C284.091 254.159 284.54 254.235 284.983 254.386C285.426 254.538 285.83 254.784 286.194 255.125C286.557 255.462 286.847 255.909 287.063 256.466C287.279 257.023 287.387 257.708 287.387 258.523V259.091H280.659V257.932H286.023C286.023 257.439 285.925 257 285.728 256.614C285.534 256.227 285.258 255.922 284.898 255.699C284.542 255.475 284.122 255.364 283.637 255.364C283.103 255.364 282.641 255.496 282.25 255.761C281.864 256.023 281.567 256.364 281.358 256.784C281.15 257.205 281.046 257.655 281.046 258.136V258.909C281.046 259.568 281.159 260.127 281.387 260.585C281.618 261.04 281.938 261.386 282.347 261.625C282.756 261.86 283.231 261.977 283.773 261.977C284.125 261.977 284.444 261.928 284.728 261.83C285.016 261.727 285.264 261.576 285.472 261.375C285.68 261.17 285.841 260.917 285.955 260.614L287.25 260.977C287.114 261.417 286.885 261.803 286.563 262.136C286.241 262.466 285.843 262.723 285.37 262.909C284.896 263.091 284.364 263.182 283.773 263.182ZM292.972 263.182C292.154 263.182 291.449 262.989 290.858 262.602C290.267 262.216 289.813 261.684 289.495 261.006C289.176 260.328 289.017 259.553 289.017 258.682C289.017 257.795 289.18 257.013 289.506 256.335C289.836 255.653 290.294 255.121 290.881 254.739C291.472 254.352 292.161 254.159 292.949 254.159C293.563 254.159 294.116 254.273 294.608 254.5C295.101 254.727 295.504 255.045 295.819 255.455C296.133 255.864 296.328 256.341 296.404 256.886H295.063C294.961 256.489 294.733 256.136 294.381 255.83C294.033 255.519 293.563 255.364 292.972 255.364C292.449 255.364 291.991 255.5 291.597 255.773C291.207 256.042 290.902 256.422 290.682 256.915C290.466 257.403 290.358 257.977 290.358 258.636C290.358 259.311 290.464 259.898 290.676 260.398C290.892 260.898 291.195 261.286 291.586 261.562C291.98 261.839 292.442 261.977 292.972 261.977C293.32 261.977 293.637 261.917 293.921 261.795C294.205 261.674 294.445 261.5 294.642 261.273C294.839 261.045 294.98 260.773 295.063 260.455H296.404C296.328 260.97 296.141 261.434 295.841 261.847C295.546 262.256 295.154 262.581 294.665 262.824C294.18 263.062 293.616 263.182 292.972 263.182ZM302.159 254.273V255.409H297.637V254.273H302.159ZM298.955 252.182H300.296V260.5C300.296 260.879 300.351 261.163 300.461 261.352C300.574 261.538 300.718 261.663 300.892 261.727C301.07 261.788 301.258 261.818 301.455 261.818C301.603 261.818 301.724 261.811 301.819 261.795C301.913 261.777 301.989 261.761 302.046 261.75L302.319 262.955C302.228 262.989 302.101 263.023 301.938 263.057C301.775 263.095 301.569 263.114 301.319 263.114C300.94 263.114 300.569 263.032 300.205 262.869C299.845 262.706 299.546 262.458 299.307 262.125C299.072 261.792 298.955 261.371 298.955 260.864V252.182ZM307.742 263.182C306.901 263.182 306.176 262.996 305.566 262.625C304.96 262.25 304.492 261.727 304.162 261.057C303.837 260.383 303.674 259.598 303.674 258.705C303.674 257.811 303.837 257.023 304.162 256.341C304.492 255.655 304.95 255.121 305.537 254.739C306.128 254.352 306.818 254.159 307.605 254.159C308.06 254.159 308.509 254.235 308.952 254.386C309.395 254.538 309.799 254.784 310.162 255.125C310.526 255.462 310.816 255.909 311.032 256.466C311.248 257.023 311.355 257.708 311.355 258.523V259.091H304.628V257.932H309.992C309.992 257.439 309.893 257 309.696 256.614C309.503 256.227 309.227 255.922 308.867 255.699C308.511 255.475 308.09 255.364 307.605 255.364C307.071 255.364 306.609 255.496 306.219 255.761C305.833 256.023 305.535 256.364 305.327 256.784C305.119 257.205 305.015 257.655 305.015 258.136V258.909C305.015 259.568 305.128 260.127 305.355 260.585C305.587 261.04 305.907 261.386 306.316 261.625C306.725 261.86 307.2 261.977 307.742 261.977C308.094 261.977 308.412 261.928 308.696 261.83C308.984 261.727 309.232 261.576 309.441 261.375C309.649 261.17 309.81 260.917 309.924 260.614L311.219 260.977C311.083 261.417 310.854 261.803 310.532 262.136C310.21 262.466 309.812 262.723 309.338 262.909C308.865 263.091 308.333 263.182 307.742 263.182ZM317.191 254.273V255.409H312.668V254.273H317.191ZM313.986 252.182H315.327V260.5C315.327 260.879 315.382 261.163 315.492 261.352C315.605 261.538 315.749 261.663 315.924 261.727C316.102 261.788 316.289 261.818 316.486 261.818C316.634 261.818 316.755 261.811 316.85 261.795C316.944 261.777 317.02 261.761 317.077 261.75L317.35 262.955C317.259 262.989 317.132 263.023 316.969 263.057C316.806 263.095 316.6 263.114 316.35 263.114C315.971 263.114 315.6 263.032 315.236 262.869C314.876 262.706 314.577 262.458 314.338 262.125C314.104 261.792 313.986 261.371 313.986 260.864V252.182ZM324.708 259.432V254.273H326.049V263H324.708V261.523H324.617C324.412 261.966 324.094 262.343 323.662 262.653C323.23 262.96 322.685 263.114 322.026 263.114C321.48 263.114 320.996 262.994 320.571 262.756C320.147 262.513 319.814 262.15 319.571 261.665C319.329 261.176 319.208 260.561 319.208 259.818V254.273H320.549V259.727C320.549 260.364 320.727 260.871 321.083 261.25C321.443 261.629 321.901 261.818 322.458 261.818C322.791 261.818 323.13 261.733 323.475 261.562C323.823 261.392 324.115 261.131 324.35 260.778C324.588 260.426 324.708 259.977 324.708 259.432ZM328.505 263V254.273H329.8V255.591H329.891C330.05 255.159 330.338 254.809 330.755 254.54C331.171 254.271 331.641 254.136 332.164 254.136C332.262 254.136 332.385 254.138 332.533 254.142C332.681 254.146 332.792 254.152 332.868 254.159V255.523C332.823 255.511 332.719 255.494 332.556 255.472C332.397 255.445 332.228 255.432 332.05 255.432C331.626 255.432 331.247 255.521 330.914 255.699C330.584 255.873 330.323 256.116 330.13 256.426C329.94 256.733 329.846 257.083 329.846 257.477V263H328.505ZM335.458 261.409L335.367 262.023C335.302 262.455 335.204 262.917 335.071 263.409C334.943 263.902 334.808 264.366 334.668 264.801C334.528 265.237 334.412 265.583 334.321 265.841H333.299C333.348 265.598 333.412 265.278 333.492 264.881C333.571 264.483 333.651 264.038 333.73 263.545C333.814 263.057 333.882 262.557 333.935 262.045L334.003 261.409H335.458ZM145.315 287.205C144.762 287.205 144.26 287.1 143.809 286.892C143.359 286.68 143.001 286.375 142.735 285.977C142.47 285.576 142.338 285.091 142.338 284.523C142.338 284.023 142.436 283.617 142.633 283.307C142.83 282.992 143.093 282.746 143.423 282.568C143.752 282.39 144.116 282.258 144.514 282.17C144.915 282.08 145.319 282.008 145.724 281.955C146.254 281.886 146.684 281.835 147.014 281.801C147.347 281.763 147.59 281.701 147.741 281.614C147.896 281.527 147.974 281.375 147.974 281.159V281.114C147.974 280.553 147.821 280.117 147.514 279.807C147.211 279.496 146.751 279.341 146.133 279.341C145.493 279.341 144.991 279.481 144.627 279.761C144.264 280.042 144.008 280.341 143.86 280.659L142.588 280.205C142.815 279.674 143.118 279.261 143.497 278.966C143.879 278.667 144.296 278.458 144.747 278.341C145.201 278.22 145.648 278.159 146.088 278.159C146.368 278.159 146.69 278.193 147.054 278.261C147.421 278.326 147.775 278.46 148.116 278.665C148.461 278.869 148.747 279.178 148.974 279.591C149.201 280.004 149.315 280.557 149.315 281.25V287H147.974V285.818H147.906C147.815 286.008 147.663 286.21 147.451 286.426C147.239 286.642 146.957 286.826 146.605 286.977C146.252 287.129 145.823 287.205 145.315 287.205ZM145.52 286C146.05 286 146.497 285.896 146.86 285.688C147.228 285.479 147.504 285.21 147.69 284.881C147.879 284.551 147.974 284.205 147.974 283.841V282.614C147.917 282.682 147.792 282.744 147.599 282.801C147.41 282.854 147.19 282.902 146.94 282.943C146.694 282.981 146.453 283.015 146.218 283.045C145.987 283.072 145.8 283.095 145.656 283.114C145.307 283.159 144.982 283.233 144.679 283.335C144.379 283.434 144.137 283.583 143.951 283.784C143.77 283.981 143.679 284.25 143.679 284.591C143.679 285.057 143.851 285.409 144.196 285.648C144.544 285.883 144.985 286 145.52 286ZM155.058 287.182C154.331 287.182 153.689 286.998 153.132 286.631C152.575 286.259 152.139 285.737 151.825 285.062C151.511 284.384 151.353 283.583 151.353 282.659C151.353 281.742 151.511 280.947 151.825 280.273C152.139 279.598 152.577 279.078 153.137 278.71C153.698 278.343 154.346 278.159 155.081 278.159C155.649 278.159 156.098 278.254 156.427 278.443C156.761 278.629 157.014 278.841 157.189 279.08C157.367 279.314 157.505 279.508 157.603 279.659H157.717V275.364H159.058V287H157.762V285.659H157.603C157.505 285.818 157.365 286.019 157.183 286.261C157.001 286.5 156.742 286.714 156.404 286.903C156.067 287.089 155.618 287.182 155.058 287.182ZM155.24 285.977C155.778 285.977 156.232 285.837 156.603 285.557C156.975 285.273 157.257 284.881 157.45 284.381C157.643 283.877 157.74 283.295 157.74 282.636C157.74 281.985 157.645 281.415 157.456 280.926C157.266 280.434 156.986 280.051 156.615 279.778C156.243 279.502 155.785 279.364 155.24 279.364C154.672 279.364 154.198 279.509 153.819 279.801C153.444 280.089 153.162 280.481 152.973 280.977C152.787 281.47 152.694 282.023 152.694 282.636C152.694 283.258 152.789 283.822 152.978 284.33C153.172 284.833 153.456 285.235 153.831 285.534C154.209 285.83 154.679 285.977 155.24 285.977ZM161.7 287V278.273H163.041V287H161.7ZM162.382 276.818C162.12 276.818 161.895 276.729 161.706 276.551C161.52 276.373 161.427 276.159 161.427 275.909C161.427 275.659 161.52 275.445 161.706 275.267C161.895 275.089 162.12 275 162.382 275C162.643 275 162.867 275.089 163.052 275.267C163.242 275.445 163.336 275.659 163.336 275.909C163.336 276.159 163.242 276.373 163.052 276.551C162.867 276.729 162.643 276.818 162.382 276.818ZM165.497 290.273V278.273H166.792V279.659H166.951C167.05 279.508 167.186 279.314 167.36 279.08C167.538 278.841 167.792 278.629 168.122 278.443C168.455 278.254 168.906 278.159 169.474 278.159C170.209 278.159 170.857 278.343 171.417 278.71C171.978 279.078 172.415 279.598 172.73 280.273C173.044 280.947 173.201 281.742 173.201 282.659C173.201 283.583 173.044 284.384 172.73 285.062C172.415 285.737 171.98 286.259 171.423 286.631C170.866 286.998 170.224 287.182 169.497 287.182C168.936 287.182 168.487 287.089 168.15 286.903C167.813 286.714 167.554 286.5 167.372 286.261C167.19 286.019 167.05 285.818 166.951 285.659H166.838V290.273H165.497ZM166.815 282.636C166.815 283.295 166.912 283.877 167.105 284.381C167.298 284.881 167.58 285.273 167.951 285.557C168.323 285.837 168.777 285.977 169.315 285.977C169.876 285.977 170.343 285.83 170.718 285.534C171.097 285.235 171.381 284.833 171.571 284.33C171.764 283.822 171.86 283.258 171.86 282.636C171.86 282.023 171.766 281.47 171.576 280.977C171.391 280.481 171.109 280.089 170.73 279.801C170.355 279.509 169.883 279.364 169.315 279.364C168.77 279.364 168.311 279.502 167.94 279.778C167.569 280.051 167.288 280.434 167.099 280.926C166.91 281.415 166.815 281.985 166.815 282.636ZM175.247 287V278.273H176.588V287H175.247ZM175.929 276.818C175.667 276.818 175.442 276.729 175.252 276.551C175.067 276.373 174.974 276.159 174.974 275.909C174.974 275.659 175.067 275.445 175.252 275.267C175.442 275.089 175.667 275 175.929 275C176.19 275 176.413 275.089 176.599 275.267C176.788 275.445 176.883 275.659 176.883 275.909C176.883 276.159 176.788 276.373 176.599 276.551C176.413 276.729 176.19 276.818 175.929 276.818ZM185.225 280.227L184.021 280.568C183.945 280.367 183.833 280.172 183.686 279.983C183.542 279.79 183.345 279.631 183.095 279.506C182.845 279.381 182.525 279.318 182.135 279.318C181.6 279.318 181.155 279.441 180.799 279.688C180.447 279.93 180.271 280.239 180.271 280.614C180.271 280.947 180.392 281.21 180.635 281.403C180.877 281.597 181.256 281.758 181.771 281.886L183.066 282.205C183.847 282.394 184.428 282.684 184.811 283.074C185.193 283.46 185.385 283.958 185.385 284.568C185.385 285.068 185.241 285.515 184.953 285.909C184.669 286.303 184.271 286.614 183.76 286.841C183.248 287.068 182.654 287.182 181.975 287.182C181.085 287.182 180.349 286.989 179.765 286.602C179.182 286.216 178.813 285.652 178.657 284.909L179.93 284.591C180.051 285.061 180.28 285.413 180.618 285.648C180.958 285.883 181.404 286 181.953 286C182.578 286 183.074 285.867 183.441 285.602C183.813 285.333 183.998 285.011 183.998 284.636C183.998 284.333 183.892 284.08 183.68 283.875C183.468 283.667 183.142 283.511 182.703 283.409L181.248 283.068C180.449 282.879 179.862 282.585 179.487 282.188C179.116 281.786 178.93 281.284 178.93 280.682C178.93 280.189 179.068 279.754 179.345 279.375C179.625 278.996 180.006 278.699 180.487 278.483C180.972 278.267 181.521 278.159 182.135 278.159C182.998 278.159 183.676 278.348 184.169 278.727C184.665 279.106 185.017 279.606 185.225 280.227ZM190.949 287.182C190.13 287.182 189.426 286.989 188.835 286.602C188.244 286.216 187.789 285.684 187.471 285.006C187.153 284.328 186.994 283.553 186.994 282.682C186.994 281.795 187.157 281.013 187.483 280.335C187.812 279.653 188.27 279.121 188.858 278.739C189.449 278.352 190.138 278.159 190.926 278.159C191.539 278.159 192.092 278.273 192.585 278.5C193.077 278.727 193.481 279.045 193.795 279.455C194.109 279.864 194.305 280.341 194.38 280.886H193.039C192.937 280.489 192.71 280.136 192.358 279.83C192.009 279.519 191.539 279.364 190.949 279.364C190.426 279.364 189.967 279.5 189.574 279.773C189.183 280.042 188.878 280.422 188.659 280.915C188.443 281.403 188.335 281.977 188.335 282.636C188.335 283.311 188.441 283.898 188.653 284.398C188.869 284.898 189.172 285.286 189.562 285.562C189.956 285.839 190.418 285.977 190.949 285.977C191.297 285.977 191.613 285.917 191.897 285.795C192.181 285.674 192.422 285.5 192.619 285.273C192.816 285.045 192.956 284.773 193.039 284.455H194.38C194.305 284.97 194.117 285.434 193.818 285.847C193.522 286.256 193.13 286.581 192.642 286.824C192.157 287.062 191.592 287.182 190.949 287.182ZM196.341 287V278.273H197.681V287H196.341ZM197.022 276.818C196.761 276.818 196.536 276.729 196.346 276.551C196.161 276.373 196.068 276.159 196.068 275.909C196.068 275.659 196.161 275.445 196.346 275.267C196.536 275.089 196.761 275 197.022 275C197.284 275 197.507 275.089 197.693 275.267C197.882 275.445 197.977 275.659 197.977 275.909C197.977 276.159 197.882 276.373 197.693 276.551C197.507 276.729 197.284 276.818 197.022 276.818ZM211.774 278.273L208.547 287H207.183L203.956 278.273H205.41L207.819 285.227H207.91L210.319 278.273H211.774ZM216.89 287.182C216.049 287.182 215.324 286.996 214.714 286.625C214.108 286.25 213.64 285.727 213.311 285.057C212.985 284.383 212.822 283.598 212.822 282.705C212.822 281.811 212.985 281.023 213.311 280.341C213.64 279.655 214.099 279.121 214.686 278.739C215.277 278.352 215.966 278.159 216.754 278.159C217.208 278.159 217.657 278.235 218.1 278.386C218.544 278.538 218.947 278.784 219.311 279.125C219.674 279.462 219.964 279.909 220.18 280.466C220.396 281.023 220.504 281.708 220.504 282.523V283.091H213.777V281.932H219.14C219.14 281.439 219.042 281 218.845 280.614C218.652 280.227 218.375 279.922 218.015 279.699C217.659 279.475 217.239 279.364 216.754 279.364C216.22 279.364 215.758 279.496 215.368 279.761C214.981 280.023 214.684 280.364 214.475 280.784C214.267 281.205 214.163 281.655 214.163 282.136V282.909C214.163 283.568 214.277 284.127 214.504 284.585C214.735 285.04 215.055 285.386 215.464 285.625C215.873 285.86 216.349 285.977 216.89 285.977C217.243 285.977 217.561 285.928 217.845 285.83C218.133 285.727 218.381 285.576 218.589 285.375C218.797 285.17 218.958 284.917 219.072 284.614L220.368 284.977C220.231 285.417 220.002 285.803 219.68 286.136C219.358 286.466 218.96 286.723 218.487 286.909C218.013 287.091 217.481 287.182 216.89 287.182ZM223.885 275.364V287H222.544V275.364H223.885ZM226.341 287V278.273H227.681V287H226.341ZM227.022 276.818C226.761 276.818 226.536 276.729 226.346 276.551C226.161 276.373 226.068 276.159 226.068 275.909C226.068 275.659 226.161 275.445 226.346 275.267C226.536 275.089 226.761 275 227.022 275C227.284 275 227.507 275.089 227.693 275.267C227.882 275.445 227.977 275.659 227.977 275.909C227.977 276.159 227.882 276.373 227.693 276.551C227.507 276.729 227.284 276.818 227.022 276.818ZM233.933 278.273V279.409H229.41V278.273H233.933ZM230.728 276.182H232.069V284.5C232.069 284.879 232.124 285.163 232.234 285.352C232.348 285.538 232.492 285.663 232.666 285.727C232.844 285.788 233.031 285.818 233.228 285.818C233.376 285.818 233.497 285.811 233.592 285.795C233.687 285.777 233.762 285.761 233.819 285.75L234.092 286.955C234.001 286.989 233.874 287.023 233.711 287.057C233.548 287.095 233.342 287.114 233.092 287.114C232.713 287.114 232.342 287.032 231.978 286.869C231.618 286.706 231.319 286.458 231.081 286.125C230.846 285.792 230.728 285.371 230.728 284.864V276.182ZM236.927 287.091C236.647 287.091 236.406 286.991 236.206 286.79C236.005 286.589 235.904 286.348 235.904 286.068C235.904 285.788 236.005 285.547 236.206 285.347C236.406 285.146 236.647 285.045 236.927 285.045C237.208 285.045 237.448 285.146 237.649 285.347C237.85 285.547 237.95 285.788 237.95 286.068C237.95 286.254 237.903 286.424 237.808 286.58C237.717 286.735 237.594 286.86 237.439 286.955C237.287 287.045 237.117 287.091 236.927 287.091Z" fill="#898CA9"/>
</g>
<defs>
<filter id="filter0_b_24_1245" x="145.324" y="15" width="90" height="89.7908" filterUnits="userSpaceOnUse" color-interpolation-filters="sRGB">
<feFlood flood-opacity="0" result="BackgroundImageFix"/>
<feGaussianBlur in="BackgroundImage" stdDeviation="2.5"/>
<feComposite in2="SourceAlpha" operator="in" result="effect1_backgroundBlur_24_1245"/>
<feBlend mode="normal" in="SourceGraphic" in2="effect1_backgroundBlur_24_1245" result="shape"/>
</filter>
<filter id="filter1_f_24_1245" x="151.729" y="12.1603" width="76.6786" height="58.6438" filterUnits="userSpaceOnUse" color-interpolation-filters="sRGB">
<feFlood flood-opacity="0" result="BackgroundImageFix"/>
<feBlend mode="normal" in="SourceGraphic" in2="BackgroundImageFix" result="shape"/>
<feGaussianBlur stdDeviation="6.47727" result="effect1_foregroundBlur_24_1245"/>
</filter>
<linearGradient id="paint0_linear_24_1245" x1="158.936" y1="-147.874" x2="564.213" y2="-23.3951" gradientUnits="userSpaceOnUse">
<stop stop-color="#071B0A"/>
<stop offset="1" stop-color="#09210C"/>
</linearGradient>
<radialGradient id="paint1_radial_24_1245" cx="0" cy="0" r="1" gradientUnits="userSpaceOnUse" gradientTransform="translate(157.016 20) rotate(47.9449) scale(119.431 86.7751)">
<stop stop-color="white" stop-opacity="0.36"/>
<stop offset="1" stop-color="white" stop-opacity="0"/>
</radialGradient>
<radialGradient id="paint2_radial_24_1245" cx="0" cy="0" r="1" gradientUnits="userSpaceOnUse" gradientTransform="translate(107.728 28.1628) rotate(35.0407) scale(92.1512 54.3882)">
<stop stop-color="white"/>
<stop offset="1" stop-color="white" stop-opacity="0.06"/>
</radialGradient>
<radialGradient id="paint3_radial_24_1245" cx="0" cy="0" r="1" gradientUnits="userSpaceOnUse" gradientTransform="translate(253.745 73.4008) rotate(161.385) scale(66.8428 45.1784)">
<stop stop-color="#96E221"/>
<stop offset="1" stop-color="#CCFF33" stop-opacity="0.08"/>
</radialGradient>
<radialGradient id="paint4_radial_24_1245" cx="0" cy="0" r="1" gradientUnits="userSpaceOnUse" gradientTransform="translate(191.195 1.76407) rotate(47.2149) scale(44.643 32.0879)">
<stop/>
<stop offset="1" stop-color="white" stop-opacity="0"/>
</radialGradient>
<radialGradient id="paint5_radial_24_1245" cx="0" cy="0" r="1" gradientUnits="userSpaceOnUse" gradientTransform="translate(190.068 25.1149) rotate(90) scale(24.2566 37.625)">
<stop stop-color="white"/>
<stop offset="1" stop-color="white" stop-opacity="0"/>
</radialGradient>
<linearGradient id="paint6_linear_24_1245" x1="191.224" y1="10.7273" x2="141.155" y2="46.6847" gradientUnits="userSpaceOnUse">
<stop stop-color="#56C00B"/>
<stop offset="0.291667" stop-color="#53BF0A"/>
<stop offset="0.604167" stop-color="#92E01F"/>
</linearGradient>
<linearGradient id="paint7_linear_24_1245" x1="190.824" y1="12.4243" x2="158.688" y2="30.3743" gradientUnits="userSpaceOnUse">
<stop stop-color="#56C00B"/>
<stop offset="0.291667" stop-color="#53BF0A"/>
<stop offset="0.604167" stop-color="#92E01F"/>
</linearGradient>
</defs>
</svg>
