<svg width="209" height="53" viewBox="0 0 209 53" fill="none" xmlns="http://www.w3.org/2000/svg">
<path d="M46.2135 27.2232L23.476 39.6945C23.3245 39.7776 23.1422 39.7776 22.9908 39.6945L0.253222 27.2232C0.140627 27.1616 0.00390625 27.2434 0.00390625 27.3707V30.6855C0.00390625 30.7472 0.0374118 30.8035 0.0910286 30.833L23.1516 43.4839C23.2012 43.512 23.2629 43.512 23.3138 43.4839L46.3744 30.833C46.428 30.8035 46.4615 30.7472 46.4615 30.6855V27.3707C46.4615 27.2434 46.3248 27.1616 46.2122 27.2232H46.2135Z" fill="#B1B5C3"/>
<path d="M46.2135 35.7925L23.476 48.2651C23.3245 48.3482 23.1422 48.3482 22.9908 48.2651L0.253222 35.7925C0.140627 35.7309 0.00390625 35.8126 0.00390625 35.94V39.2561C0.00390625 39.3178 0.0374118 39.3741 0.0910286 39.4036L23.1516 52.0518C23.2012 52.08 23.2629 52.08 23.3138 52.0518L46.3744 39.4036C46.428 39.3741 46.4615 39.3178 46.4615 39.2561V35.94C46.4615 35.8113 46.3248 35.7309 46.2122 35.7925H46.2135Z" fill="#B1B5C3"/>
<path d="M43.1575 11.1556L40.1348 12.8111C40.0812 12.8405 40.0222 12.8405 39.9727 12.8111L23.5002 3.80076C23.3488 3.71765 23.1665 3.71765 23.015 3.80076L18.542 6.24568L17.9147 6.59419L6.0091 13.1448C6.0091 13.2078 6.03859 13.2775 6.10159 13.311L6.13108 13.3311H6.13644L15.4068 18.4073L23.015 22.5666C23.1665 22.6497 23.3488 22.6497 23.5002 22.5613L31.28 18.2545C31.3296 18.225 31.3926 18.225 31.4422 18.2545L34.5185 19.9944L34.5721 20.0292L34.5815 20.0346C34.6458 20.0694 34.6458 20.1566 34.5815 20.1914L23.3367 26.3506C23.2871 26.3748 23.2241 26.3748 23.1745 26.3506L11.8426 20.1485L2.57227 15.0777L2.54278 15.063V15.0576L2.49854 15.0375L0.0884723 13.7199C0.0348555 13.6904 0 13.6314 0 13.5684V12.799C0 12.74 0.0348555 12.681 0.0884723 12.6515L2.57227 11.295L14.9577 4.51386C14.9577 4.51386 14.9725 4.5085 14.9778 4.50448L23.1745 0.0221169C23.2241 -0.00737231 23.2871 -0.00737231 23.3367 0.0221169L43.1548 10.8648C43.2674 10.9291 43.2674 11.0953 43.1548 11.1583L43.1575 11.1556Z" fill="#B1B5C3"/>
<path d="M37.3376 23.6671L40.2503 21.9648C40.3026 21.934 40.3335 21.879 40.3335 21.82V20.7075C40.3335 20.6472 40.3013 20.5909 40.249 20.5614L37.7893 19.1633L37.7853 19.1606L37.7572 19.1432L34.0576 17.0401L34.0295 17.0253H34.0268L34.0241 17.0227L30.1677 14.8297C30.1168 14.8002 30.0524 14.8002 30.0015 14.8297L27.314 16.3565C27.2 16.4208 27.2 16.5843 27.314 16.6487L30.7803 18.6204L30.85 18.658L30.8527 18.6607L34.5107 20.7437L34.5804 20.7812H34.5844L37.0052 22.1632C37.1634 22.253 37.2599 22.4205 37.2599 22.6015V23.6242C37.2599 23.6631 37.3014 23.6859 37.3336 23.6671H37.3376Z" fill="#B1B5C3"/>
<path d="M23.1181 31.1989L23.0832 31.1788L0.253222 18.6579C0.140627 18.5963 0.00390625 18.6781 0.00390625 18.8054V22.1202C0.00390625 22.1819 0.0374118 22.2382 0.0910286 22.2677L19.5204 32.9267L19.5606 32.9481H19.5633L23.1516 34.9186C23.2012 34.9467 23.2629 34.9467 23.3138 34.9186L46.3744 22.2677C46.428 22.2382 46.4615 22.1819 46.4615 22.1202V18.8054C46.4615 18.6781 46.3248 18.5963 46.2122 18.6579L23.3433 31.2029C23.2722 31.2418 23.1865 31.2405 23.1168 31.2002" fill="#B1B5C3"/>
<path d="M68.6727 33.056C68.6673 32.9246 68.6566 32.7879 68.6392 32.6498H61.5618V35.3642H64.7466C64.4061 35.9888 63.9303 36.4941 63.3164 36.8721C62.7078 37.2555 62.0175 37.4418 61.2548 37.4418C60.7012 37.4418 60.1798 37.3373 59.6973 37.1295C59.2147 36.915 58.7925 36.6362 58.4413 36.2797C58.0847 35.9285 57.8059 35.5062 57.5968 35.0237C57.3823 34.5411 57.2791 34.0211 57.2791 33.4661C57.2791 32.9112 57.3837 32.4032 57.5968 31.9153C57.8046 31.4274 58.0847 31.0051 58.4413 30.6486C58.7925 30.2974 59.2147 30.0132 59.6973 29.8041C60.1798 29.5896 60.6999 29.4864 61.2548 29.4864C61.913 29.4864 62.5054 29.6285 63.0416 29.9033C63.5791 30.1834 64.0281 30.5614 64.3954 31.0386L67.2519 29.0816C66.5615 28.1447 65.6836 27.3927 64.6313 26.8337C63.5791 26.2801 62.433 26 61.1945 26C60.1637 26 59.1879 26.197 58.2777 26.5925C57.3676 26.9865 56.5781 27.5187 55.9039 28.1929C55.2296 28.8672 54.6975 29.6567 54.3034 30.5668C53.9093 31.4823 53.7109 32.4528 53.7109 33.4836C53.7109 34.5143 53.908 35.4902 54.3034 36.4057C54.6975 37.3158 55.2296 38.1053 55.9039 38.7796C56.5781 39.4538 57.3676 39.9859 58.2777 40.38C59.1879 40.7741 60.1637 40.9725 61.1945 40.9725C62.2253 40.9725 63.2011 40.7754 64.1113 40.38C65.0268 39.9859 65.8163 39.4538 66.4905 38.7796C67.1647 38.1053 67.6969 37.3158 68.091 36.4057C68.485 35.4902 68.6834 34.5197 68.6834 33.4836C68.6834 33.3361 68.6781 33.1927 68.6727 33.056Z" fill="#B1B5C3"/>
<path d="M77.938 26.1755V35.6979C77.938 36.4217 77.741 36.9364 77.3349 37.2608C76.9341 37.5785 76.4582 37.738 75.8979 37.738C75.3376 37.738 74.8618 37.5785 74.461 37.2608C74.0602 36.9378 73.8578 36.4217 73.8578 35.6979V26.1755H70.3271V36.0879C70.3271 36.9043 70.4813 37.612 70.7762 38.2098C71.0778 38.8077 71.4786 39.3009 71.9826 39.695C72.4812 40.0891 73.0737 40.3853 73.7479 40.5837C74.4168 40.7807 75.1352 40.8799 75.8966 40.8799C76.658 40.8799 77.3764 40.7807 78.0506 40.5837C78.7195 40.3867 79.312 40.0904 79.8213 39.695C80.3307 39.3009 80.7368 38.8063 81.0384 38.2098C81.3347 37.612 81.4875 36.9056 81.4875 36.0879V26.1755H77.9354H77.938Z" fill="#B1B5C3"/>
<path d="M86.6654 37.6442V26.2024H83.1348V40.7687H90.5634V37.6442H86.6654Z" fill="#B1B5C3"/>
<path d="M100.021 29.3215V26.2024H92.209V40.7687H95.7396V35.0344H99.7971V31.9153H95.7396V29.3215H100.021Z" fill="#B1B5C3"/>
<path d="M133.194 30.8631C133.529 30.5173 133.944 30.2438 134.46 30.0401C134.97 29.8323 135.562 29.7331 136.242 29.7331C136.691 29.7331 137.086 29.76 137.427 29.8149C137.767 29.8699 138.067 29.9409 138.331 30.028C138.599 30.1152 138.841 30.2144 139.061 30.3243C139.274 30.4342 139.488 30.5495 139.691 30.6701V26.8767C139.488 26.7668 139.279 26.6636 139.077 26.559C138.874 26.4598 138.638 26.3727 138.374 26.2963C138.106 26.2199 137.792 26.1596 137.437 26.11C137.075 26.0658 136.642 26.0389 136.138 26.0389C134.861 26.0389 133.743 26.2534 132.773 26.6864C131.808 27.114 131.002 27.6729 130.36 28.3699C129.712 29.0602 129.225 29.8551 128.901 30.7438C128.573 31.6325 128.408 32.548 128.408 33.485C128.408 34.4219 128.573 35.3495 128.901 36.2529C129.225 37.1577 129.718 37.958 130.376 38.6603C131.039 39.356 131.861 39.927 132.849 40.36C133.83 40.7983 134.976 41.0128 136.286 41.0128C137.18 41.0128 137.897 40.9256 138.435 40.75C138.972 40.5744 139.389 40.3881 139.691 40.2018V36.4031C139.334 36.6229 138.901 36.8199 138.386 36.9902C137.865 37.1604 137.153 37.2422 136.243 37.2422C135.563 37.2422 134.971 37.1376 134.462 36.9352C133.947 36.7328 133.53 36.458 133.195 36.1122C132.861 35.761 132.608 35.3669 132.439 34.9165C132.269 34.4675 132.187 33.9903 132.187 33.4863C132.187 32.9823 132.269 32.5105 132.439 32.0615C132.609 31.6124 132.861 31.217 133.195 30.8658L133.194 30.8631Z" fill="#B1B5C3"/>
<path d="M149.543 26.2024V31.9153H144.889V26.2024H141.358V40.7687H144.889V35.0559H149.543V40.7687H153.09V26.2024H149.543Z" fill="#B1B5C3"/>
<path d="M162.732 26.2467H158.675L154.185 40.8077H157.737L158.411 38.7086H163.038L163.691 40.8077H167.221L162.731 26.2467H162.732ZM159.367 35.4621L160.759 30.9945L162.081 35.4621H159.367Z" fill="#B1B5C3"/>
<path d="M178.95 26.2024V34.7717L171.708 26.2024H168.484V40.7687H172.015V32.3201L178.95 40.7687H182.497V26.2024H178.95Z" fill="#B1B5C3"/>
<path d="M199.109 33.0989C199.104 32.9622 199.093 32.8242 199.076 32.6874H191.998V35.4018H195.183C194.843 36.0264 194.367 36.5317 193.753 36.9151C193.144 37.2931 192.454 37.4848 191.691 37.4848C191.138 37.4848 190.616 37.3802 190.134 37.1671C189.651 36.9593 189.229 36.6738 188.878 36.3226C188.521 35.9661 188.242 35.5492 188.033 35.0667C187.819 34.5841 187.716 34.064 187.716 33.5037C187.716 32.9434 187.82 32.4461 188.033 31.9529C188.241 31.465 188.521 31.0427 188.878 30.6915C189.229 30.335 189.651 30.0562 190.134 29.8417C190.616 29.6339 191.138 29.5294 191.691 29.5294C192.344 29.5294 192.942 29.6661 193.478 29.9463C194.016 30.2264 194.465 30.6044 194.832 31.0762L197.688 29.1192C196.998 28.1823 196.12 27.4357 195.068 26.8767C194.016 26.3177 192.87 26.0376 191.631 26.0376C190.6 26.0376 189.624 26.2346 188.714 26.6301C187.804 27.0242 187.015 27.5617 186.34 28.2305C185.666 28.9048 185.134 29.6996 184.74 30.6098C184.346 31.5199 184.147 32.4904 184.147 33.5265C184.147 34.5627 184.345 35.5331 184.74 36.4433C185.135 37.3534 185.666 38.1483 186.34 38.8172C187.015 39.4914 187.804 40.0289 188.714 40.4176C189.624 40.8117 190.6 41.0101 191.631 41.0101C192.662 41.0101 193.638 40.813 194.548 40.4176C195.463 40.0289 196.253 39.4914 196.927 38.8172C197.601 38.1483 198.133 37.3534 198.527 36.4433C198.922 35.5331 199.12 34.5573 199.12 33.5265C199.12 33.3791 199.115 33.2357 199.109 33.0989Z" fill="#B1B5C3"/>
<path d="M208.577 29.3215V26.2024H200.765V40.7687H208.577V37.6442H204.295V35.0344H208.335V31.9153H204.295V29.3215H208.577Z" fill="#B1B5C3"/>
<path d="M126.824 40.7674H122.774L120.323 35.836L121.522 33.4206L120.323 31.044L122.702 26.2037H126.714L122.645 33.4232L126.824 40.7674Z" fill="#B1B5C3"/>
<path d="M114.558 38.0638H104.526V40.7675H114.558V38.0638Z" fill="#B1B5C3"/>
<path d="M114.577 26.2037H104.526V28.9141H114.577V26.2037Z" fill="#B1B5C3"/>
<path d="M121.42 31.044L119.039 26.2037H115.037L118.291 31.989L104.526 31.9823V34.6095H108.037V34.5961L118.429 34.6015L114.927 40.7674H118.968L121.42 35.836L122.617 33.4206L121.42 31.044Z" fill="#B1B5C3"/>
</svg>
