<svg width="192" height="36" viewBox="0 0 192 36" fill="none" xmlns="http://www.w3.org/2000/svg">
<path d="M18.0513 0C8.04103 0 0 8.01818 0 18C0 27.9818 8.04103 36 18.0513 36C28.0615 36 36.1026 27.9818 36.1026 18C35.9385 8.01818 27.8974 0 18.0513 0ZM19.6923 20.9455C20.1846 21.4364 20.5128 21.9273 20.5128 22.7455C20.5128 24.0545 19.3641 25.2 18.0513 25.2C17.3949 25.2 16.7385 24.8727 16.2462 24.3818C15.4256 23.7273 14.441 23.2364 13.1282 23.2364C11.8154 23.2364 10.8308 23.7273 10.0103 24.3818L9.84615 24.5455C9.35385 24.8727 8.86154 25.2 8.20513 25.2C7.54872 25.2 7.05641 25.0364 6.5641 24.5455C6.4 24.3818 6.4 24.3818 6.2359 24.2182C6.2359 24.2182 6.2359 24.2182 6.2359 24.0545L6.07179 23.8909C6.07179 23.7273 5.90769 23.5636 5.90769 23.4C5.90769 23.2364 5.74359 22.9091 5.74359 22.7455C5.74359 22.4182 5.74359 22.2545 5.90769 22.0909C5.90769 21.9273 6.07179 21.7636 6.07179 21.6C6.07179 21.6 6.07179 21.4364 6.2359 21.4364C6.2359 21.4364 6.2359 21.4364 6.2359 21.2727C6.5641 21.2727 6.5641 21.2727 6.5641 21.1091L6.7282 20.9455C7.38461 20.1273 7.87692 19.1455 7.87692 18C7.87692 16.8545 7.54872 15.8727 6.7282 15.0545C6.4 14.5636 6.07179 13.9091 6.07179 13.0909C6.07179 11.7818 7.22051 10.6364 8.53333 10.6364C9.84615 10.6364 10.8308 11.7818 10.8308 13.0909C10.8308 13.7455 10.5026 14.4 10.0103 14.8909C9.35385 15.7091 8.86154 16.8545 8.86154 18C8.86154 19.1455 9.35385 20.2909 10.0103 21.1091L10.1744 21.2727C10.9949 21.9273 11.9795 22.4182 13.1282 22.4182C14.2769 22.4182 15.2615 22.0909 16.0821 21.2727C16.0821 21.1091 16.2462 21.1091 16.4103 20.9455C17.0667 20.1273 17.559 19.1455 17.559 18C17.559 16.8545 17.2308 15.8727 16.4103 15.0545C15.9179 14.5636 15.5897 13.9091 15.5897 13.0909C15.5897 11.7818 16.7385 10.6364 18.0513 10.6364C19.3641 10.6364 20.5128 11.7818 20.5128 13.0909C20.5128 13.7455 20.1846 14.4 19.6923 14.8909C19.0359 15.7091 18.5436 16.6909 18.5436 18C18.5436 19.1455 18.8718 20.1273 19.6923 20.9455ZM22.8103 20.2909C21.4974 20.2909 20.3487 19.1455 20.3487 17.8364C20.3487 16.5273 21.4974 15.3818 22.8103 15.3818C24.1231 15.3818 25.2718 16.5273 25.2718 17.8364C25.2718 19.3091 24.1231 20.2909 22.8103 20.2909ZM29.2103 20.9455C29.3744 21.1091 29.3744 21.1091 29.2103 20.9455C29.3744 21.2727 29.5385 21.2727 29.5385 21.2727C29.5385 21.2727 29.5385 21.2727 29.5385 21.4364L29.7026 21.6C29.7026 21.7636 29.8667 21.9273 29.8667 22.0909C29.8667 22.2545 30.0308 22.5818 30.0308 22.7455C30.0308 23.0727 30.0308 23.2364 29.8667 23.4C29.8667 23.5636 29.7026 23.7273 29.7026 23.8909C29.7026 23.8909 29.7026 24.0545 29.5385 24.0545C29.5385 24.0545 29.5385 24.0545 29.5385 24.2182C29.3744 24.3818 29.3744 24.3818 29.2103 24.5455C28.7179 24.8727 28.2256 25.2 27.5692 25.2C26.9128 25.2 26.4205 25.0364 25.9282 24.5455C25.7641 24.3818 25.7641 24.3818 25.6 24.2182C25.6 24.2182 25.6 24.2182 25.6 24.0545L25.4359 23.8909C25.4359 23.7273 25.2718 23.5636 25.2718 23.4C25.2718 23.2364 25.1077 22.9091 25.1077 22.7455C25.1077 22.4182 25.1077 22.2545 25.2718 22.0909C25.2718 21.9273 25.4359 21.7636 25.4359 21.6C25.4359 21.6 25.4359 21.4364 25.6 21.4364C25.6 21.4364 25.6 21.4364 25.6 21.2727L25.7641 21.1091L25.9282 20.9455C26.5846 20.1273 27.0769 19.1455 27.0769 18C27.0769 16.8545 26.7487 15.8727 25.9282 15.0545C25.4359 14.5636 25.1077 13.9091 25.1077 13.2545C25.1077 11.9455 26.2564 10.8 27.5692 10.8C28.882 10.8 30.0308 11.9455 30.0308 13.2545C30.0308 13.9091 29.7026 14.5636 29.2103 15.0545C28.5538 15.8727 28.0615 16.8545 28.0615 18.1636C28.0615 19.1455 28.5538 20.1273 29.2103 20.9455Z" fill="#B1B5C4"/>
<path d="M51.6924 31.4182V4.41821H58.5847V26.0182H70.7283V31.4182H51.6924Z" fill="#B1B5C4"/>
<path d="M191.015 31.4182L177.559 18L191.015 4.58185H181.169L172.635 13.0909V4.41821H165.743V31.4182H172.635V22.9091L181.169 31.4182H191.015Z" fill="#B1B5C4"/>
<path d="M112.41 26.1818L110.769 31.4182H103.549L112.903 4.41821H122.092L131.446 31.4182H124.226L122.585 26.1818L120.944 21.1091L117.498 9.81821L113.887 21.1091L112.41 26.1818Z" fill="#B1B5C4"/>
<path d="M142.605 13.7455V31.4182H136.041V4.41821H144.574L154.749 22.9091V4.41821H161.313V31.4182H152.779L142.605 13.7455Z" fill="#B1B5C4"/>
<path d="M98.4617 20.9455C98.1335 20.1273 97.6412 19.4728 97.1489 18.8182C96.6566 18.3273 96.0002 17.8364 95.1797 17.5091C94.5233 17.1818 93.7028 17.0182 93.0464 16.8546C93.7028 16.6909 94.3592 16.5273 95.0156 16.2C95.672 15.8728 96.1643 15.5455 96.6566 15.0546C97.1489 14.5637 97.4771 14.0728 97.6412 13.2546C97.9694 12.6 97.9694 11.7818 97.9694 10.9637C97.9694 10.1455 97.8053 9.3273 97.6412 8.50912C97.313 7.69094 96.9848 7.03639 96.1643 6.38185C95.5079 5.7273 94.6874 5.23639 93.5387 4.90912C92.39 4.58185 91.0771 4.41821 89.4361 4.41821H82.0515H78.2771H75.1592V31.4182H78.2771H82.0515H90.4207C93.2105 31.4182 95.1797 30.7637 96.6566 29.4546C98.1335 28.1455 98.79 26.3455 98.79 24.0546C98.9541 22.9091 98.79 21.9273 98.4617 20.9455ZM82.2156 8.83639H89.4361C90.0925 8.83639 90.5848 9.00003 91.0771 9.16367C91.5694 9.3273 91.8976 9.49094 92.2258 9.81821C92.5541 10.1455 92.7182 10.4728 92.8823 10.8C93.0464 11.1273 93.0464 11.4546 93.0464 11.9455C93.0464 12.7637 92.7182 13.5819 92.2258 14.0728C91.7335 14.7273 90.7489 14.8909 89.4361 14.8909H82.2156V8.83639ZM93.0464 25.6909C92.5541 26.3455 91.5694 26.5091 90.2566 26.5091H82.2156V20.4546H90.2566C90.913 20.4546 91.4053 20.6182 91.8976 20.7818C92.39 20.9455 92.7182 21.1091 93.0464 21.4364C93.3746 21.7637 93.5387 22.0909 93.7028 22.4182C93.8669 22.7455 93.8669 23.0728 93.8669 23.5637C93.8669 24.3818 93.7028 25.2 93.0464 25.6909Z" fill="#B1B5C4"/>
</svg>
