<svg width="175" height="45" viewBox="0 0 175 45" fill="none" xmlns="http://www.w3.org/2000/svg">
<path d="M39.0504 23.3589L19.8377 33.8968C19.7097 33.967 19.5557 33.967 19.4277 33.8968L0.21506 23.3589C0.11992 23.3068 0.00439453 23.3759 0.00439453 23.4835V26.2845C0.00439453 26.3366 0.0327059 26.3841 0.0780108 26.4091L19.5636 37.0987C19.6055 37.1225 19.6576 37.1225 19.7007 37.0987L39.1863 26.4091C39.2316 26.3841 39.2599 26.3366 39.2599 26.2845V23.4835C39.2599 23.3759 39.1444 23.3068 39.0492 23.3589H39.0504Z" fill="#CDCFD7"/>
<path d="M39.0504 30.5998L19.8377 41.1388C19.7097 41.209 19.5557 41.209 19.4277 41.1388L0.21506 30.5998C0.11992 30.5477 0.00439453 30.6168 0.00439453 30.7244V33.5265C0.00439453 33.5786 0.0327059 33.6261 0.0780108 33.6511L19.5636 44.3385C19.6055 44.3623 19.6576 44.3623 19.7007 44.3385L39.1863 33.6511C39.2316 33.6261 39.2599 33.5786 39.2599 33.5265V30.7244C39.2599 30.6156 39.1444 30.5477 39.0492 30.5998H39.0504Z" fill="#CDCFD7"/>
<path d="M36.467 9.78269L33.9129 11.1815C33.8676 11.2064 33.8178 11.2064 33.7759 11.1815L19.8571 3.56799C19.7291 3.49777 19.5751 3.49777 19.4471 3.56799L15.6676 5.63389L15.1375 5.92837L5.07754 11.4635C5.07754 11.5167 5.10246 11.5756 5.15569 11.6039L5.18061 11.6209H5.18514L13.0184 15.9102L19.4471 19.4247C19.5751 19.4949 19.7291 19.4949 19.8571 19.4202L26.4309 15.781C26.4728 15.7561 26.526 15.7561 26.5679 15.781L29.1673 17.2512L29.2126 17.2806L29.2205 17.2852C29.2749 17.3146 29.2749 17.3882 29.2205 17.4177L19.7189 22.6221C19.677 22.6425 19.6238 22.6425 19.5819 22.6221L10.0067 17.3814L2.1735 13.0967L2.14859 13.0843V13.0797L2.11121 13.0628L0.0747569 11.9494C0.029452 11.9245 0 11.8746 0 11.8214V11.1713C0 11.1214 0.029452 11.0716 0.0747569 11.0467L2.1735 9.90048L12.6389 4.17054C12.6389 4.17054 12.6514 4.16602 12.6559 4.16262L19.5819 0.375134C19.6238 0.350216 19.677 0.350216 19.7189 0.375134L36.4647 9.5369C36.5599 9.59127 36.5599 9.73171 36.4647 9.78495L36.467 9.78269Z" fill="#CDCFD7"/>
<path d="M31.5488 20.3545L34.01 18.916C34.0541 18.89 34.0802 18.8436 34.0802 18.7937V17.8536C34.0802 17.8027 34.053 17.7551 34.0088 17.7302L31.9305 16.5489L31.9271 16.5466L31.9033 16.5319L28.7773 14.7548L28.7535 14.7423H28.7512L28.7489 14.7401L25.4904 12.8871C25.4473 12.8622 25.393 12.8622 25.3499 12.8871L23.079 14.1772C22.9828 14.2315 22.9828 14.3697 23.079 14.4241L26.008 16.0902L26.0669 16.1219L26.0692 16.1241L29.1601 17.8842L29.219 17.9159H29.2224L31.2679 19.0837C31.4015 19.1596 31.4831 19.3011 31.4831 19.454V20.3182C31.4831 20.3511 31.5182 20.3703 31.5454 20.3545H31.5488Z" fill="#CDCFD7"/>
<path d="M19.5353 26.7184L19.5059 26.7014L0.21506 16.1216C0.11992 16.0695 0.00439453 16.1386 0.00439453 16.2462V19.0472C0.00439453 19.0993 0.0327059 19.1468 0.0780108 19.1718L16.4954 28.1784L16.5293 28.1965H16.5316L19.5636 29.8614C19.6055 29.8852 19.6576 29.8852 19.7007 29.8614L39.1863 19.1718C39.2316 19.1468 39.2599 19.0993 39.2599 19.0472V16.2462C39.2599 16.1386 39.1444 16.0695 39.0492 16.1216L19.7256 26.7218C19.6656 26.7547 19.5931 26.7535 19.5342 26.7195" fill="#CDCFD7"/>
<path d="M56.6042 23.7197C56.5997 23.6087 56.5906 23.4932 56.5759 23.3765H50.5957V25.6701H53.2868C52.9991 26.1979 52.597 26.6249 52.0783 26.9443C51.5641 27.2682 50.9808 27.4256 50.3363 27.4256C49.8685 27.4256 49.4279 27.3373 49.0202 27.1617C48.6125 26.9805 48.2557 26.7449 47.9589 26.4436C47.6577 26.1469 47.4221 25.7901 47.2454 25.3824C47.0642 24.9746 46.977 24.5352 46.977 24.0663C46.977 23.5974 47.0653 23.1681 47.2454 22.7558C47.4209 22.3436 47.6577 21.9868 47.9589 21.6855C48.2557 21.3887 48.6125 21.1486 49.0202 20.9719C49.4279 20.7907 49.8674 20.7035 50.3363 20.7035C50.8924 20.7035 51.393 20.8236 51.8461 21.0558C52.3003 21.2925 52.6797 21.6119 52.99 22.0151L55.4037 20.3615C54.8204 19.5698 54.0785 18.9344 53.1894 18.4621C52.3003 17.9943 51.3319 17.7576 50.2853 17.7576C49.4144 17.7576 48.5898 17.9241 47.8208 18.2582C47.0517 18.5912 46.3846 19.0408 45.8149 19.6105C45.2452 20.1802 44.7955 20.8474 44.4625 21.6164C44.1295 22.39 43.9619 23.21 43.9619 24.081C43.9619 24.952 44.1284 25.7765 44.4625 26.5501C44.7955 27.3192 45.2452 27.9863 45.8149 28.556C46.3846 29.1257 47.0517 29.5753 47.8208 29.9083C48.5898 30.2413 49.4144 30.4089 50.2853 30.4089C51.1563 30.4089 51.9809 30.2424 52.7499 29.9083C53.5235 29.5753 54.1906 29.1257 54.7603 28.556C55.33 27.9863 55.7797 27.3192 56.1127 26.5501C56.4457 25.7765 56.6133 24.9565 56.6133 24.081C56.6133 23.9564 56.6088 23.8352 56.6042 23.7197Z" fill="#CDCFD7"/>
<path d="M64.433 17.9054V25.9515C64.433 26.5632 64.2665 26.9981 63.9233 27.2722C63.5846 27.5406 63.1826 27.6754 62.7091 27.6754C62.2357 27.6754 61.8336 27.5406 61.495 27.2722C61.1563 26.9992 60.9853 26.5632 60.9853 25.9515V17.9054H58.002V26.2811C58.002 26.9709 58.1322 27.5689 58.3814 28.0741C58.6362 28.5792 58.9749 28.996 59.4007 29.329C59.8221 29.662 60.3227 29.9123 60.8924 30.0799C61.4576 30.2464 62.0647 30.3303 62.708 30.3303C63.3513 30.3303 63.9584 30.2464 64.5281 30.0799C65.0933 29.9134 65.5939 29.6631 66.0243 29.329C66.4547 28.996 66.7979 28.5781 67.0527 28.0741C67.303 27.5689 67.4322 26.972 67.4322 26.2811V17.9054H64.4307H64.433Z" fill="#CDCFD7"/>
<path d="M71.8061 27.5963V17.9282H68.8228V30.2364H75.0997V27.5963H71.8061Z" fill="#CDCFD7"/>
<path d="M83.0916 20.5638V17.9282H76.4907V30.2364H79.474V25.3911H82.9025V22.7555H79.474V20.5638H83.0916Z" fill="#CDCFD7"/>
<path d="M111.123 21.8663C111.406 21.5741 111.757 21.3431 112.193 21.1709C112.623 20.9954 113.124 20.9115 113.698 20.9115C114.078 20.9115 114.412 20.9342 114.699 20.9806C114.987 21.0271 115.241 21.0871 115.464 21.1607C115.69 21.2343 115.894 21.3182 116.08 21.411C116.26 21.5039 116.441 21.6013 116.612 21.7033V18.4979C116.441 18.4051 116.265 18.3178 116.094 18.2295C115.923 18.1457 115.723 18.0721 115.5 18.0075C115.274 17.9429 115.009 17.892 114.708 17.8501C114.403 17.8127 114.037 17.79 113.611 17.79C112.532 17.79 111.587 17.9713 110.767 18.3371C109.951 18.6984 109.271 19.1707 108.728 19.7597C108.181 20.343 107.769 21.0146 107.496 21.7655C107.218 22.5165 107.079 23.2901 107.079 24.0818C107.079 24.8735 107.218 25.6572 107.496 26.4206C107.769 27.1851 108.186 27.8613 108.742 28.4548C109.302 29.0426 109.997 29.5251 110.831 29.891C111.661 30.2613 112.629 30.4426 113.736 30.4426C114.491 30.4426 115.097 30.3689 115.551 30.2206C116.005 30.0722 116.358 29.9148 116.612 29.7573V26.5475C116.311 26.7332 115.945 26.8997 115.51 27.0436C115.07 27.1874 114.468 27.2565 113.699 27.2565C113.125 27.2565 112.624 27.1681 112.194 26.9971C111.759 26.8261 111.407 26.5939 111.124 26.3017C110.842 26.0049 110.628 25.6719 110.485 25.2914C110.341 24.912 110.272 24.5088 110.272 24.0829C110.272 23.657 110.341 23.2583 110.485 22.8789C110.629 22.4995 110.842 22.1654 111.124 21.8686L111.123 21.8663Z" fill="#CDCFD7"/>
<path d="M124.936 17.9282V22.7555H121.004V17.9282H118.021V30.2364H121.004V25.4092H124.936V30.2364H127.933V17.9282H124.936Z" fill="#CDCFD7"/>
<path d="M136.081 17.9666H132.653L128.858 30.2702H131.86L132.43 28.4965H136.339L136.891 30.2702H139.874L136.08 17.9666H136.081ZM133.237 25.7533L134.414 21.9783L135.531 25.7533H133.237Z" fill="#CDCFD7"/>
<path d="M149.786 17.9282V25.1691L143.667 17.9282H140.943V30.2364H143.926V23.0975L149.786 30.2364H152.783V17.9282H149.786Z" fill="#CDCFD7"/>
<path d="M166.82 23.7558C166.816 23.6403 166.806 23.5237 166.792 23.4081H160.812V25.7017H163.503C163.215 26.2295 162.813 26.6565 162.294 26.9804C161.78 27.2998 161.197 27.4618 160.552 27.4618C160.084 27.4618 159.644 27.3734 159.236 27.1933C158.828 27.0178 158.472 26.7765 158.175 26.4798C157.873 26.1785 157.638 25.8263 157.461 25.4185C157.28 25.0108 157.193 24.5713 157.193 24.0979C157.193 23.6245 157.281 23.2042 157.461 22.7874C157.637 22.3752 157.873 22.0184 158.175 21.7217C158.472 21.4204 158.828 21.1848 159.236 21.0036C159.644 20.828 160.084 20.7397 160.552 20.7397C161.104 20.7397 161.609 20.8552 162.062 21.0919C162.516 21.3286 162.896 21.648 163.206 22.0467L165.619 20.3931C165.036 19.6014 164.294 18.9705 163.405 18.4982C162.516 18.0259 161.548 17.7892 160.501 17.7892C159.63 17.7892 158.806 17.9557 158.037 18.2898C157.268 18.6228 156.6 19.077 156.031 19.6422C155.461 20.2119 155.011 20.8835 154.678 21.6526C154.345 22.4216 154.178 23.2416 154.178 24.1171C154.178 24.9927 154.344 25.8127 154.678 26.5817C155.012 27.3508 155.461 28.0224 156.031 28.5876C156.6 29.1573 157.268 29.6115 158.037 29.9399C158.806 30.2729 159.63 30.4406 160.501 30.4406C161.372 30.4406 162.197 30.2741 162.966 29.9399C163.739 29.6115 164.406 29.1573 164.976 28.5876C165.546 28.0224 165.996 27.3508 166.328 26.5817C166.661 25.8127 166.829 24.9881 166.829 24.1171C166.829 23.9926 166.825 23.8714 166.82 23.7558Z" fill="#CDCFD7"/>
<path d="M174.819 20.5638V17.9282H168.218V30.2364H174.819V27.5963H171.202V25.3911H174.615V22.7555H171.202V20.5638H174.819Z" fill="#CDCFD7"/>
<path d="M105.74 30.2354H102.317L100.247 26.0685L101.26 24.0275L100.247 22.0194L102.257 17.9294H105.647L102.209 24.0298L105.74 30.2354Z" fill="#CDCFD7"/>
<path d="M95.376 27.9513H86.8994V30.2358H95.376V27.9513Z" fill="#CDCFD7"/>
<path d="M95.3923 17.9294H86.8999V20.2196H95.3923V17.9294Z" fill="#CDCFD7"/>
<path d="M101.174 22.0194L99.1628 17.9294H95.7808L98.5308 22.8178L86.8999 22.8122V25.0321H89.8662V25.0208L98.6475 25.0253L95.6879 30.2354H99.1028L101.174 26.0685L102.186 24.0275L101.174 22.0194Z" fill="#CDCFD7"/>
</svg>
