<svg width="215" height="54" viewBox="0 0 215 54" fill="none" xmlns="http://www.w3.org/2000/svg">
<path d="M47.6113 28.0508L24.1844 40.8998C24.0282 40.986 23.8411 40.986 23.685 40.8998L0.25802 28.0508C0.142512 27.9873 0.000976562 28.0703 0.000976562 28.2021V31.6169C0.000976562 31.6803 0.0351389 31.7389 0.0904524 31.7682L23.8509 44.8027C23.903 44.8303 23.9648 44.8303 24.0168 44.8027L47.7773 31.7682C47.8326 31.7373 47.8668 31.6787 47.8668 31.6169V28.2021C47.8668 28.0703 47.7252 27.9873 47.6097 28.0508H47.6113Z" fill="url(#paint0_linear_26_1607)"/>
<path d="M47.6113 36.8799L24.1844 49.7306C24.0282 49.8168 23.8411 49.8168 23.685 49.7306L0.25802 36.8799C0.142512 36.8164 0.000976562 36.8994 0.000976562 37.0312V40.4476C0.000976562 40.5111 0.0351389 40.5696 0.0904524 40.5989L23.8509 53.6318C23.903 53.6594 23.9648 53.6594 24.0168 53.6318L47.7773 40.5989C47.8326 40.568 47.8668 40.5111 47.8668 40.4476V37.0312C47.8668 36.8994 47.7252 36.8164 47.6097 36.8799H47.6113Z" fill="url(#paint1_linear_26_1607)"/>
<path d="M44.4643 11.4959L41.3505 13.2025C41.2952 13.2334 41.235 13.2334 41.1846 13.2025L24.213 3.91954C24.0569 3.83332 23.8698 3.83332 23.7136 3.91954L19.1047 6.43793L18.4588 6.79585L6.19219 13.5457C6.19219 13.6108 6.2231 13.6824 6.28818 13.7165L6.31909 13.7361H6.32397L15.8753 18.9665L23.7152 23.2516C23.8714 23.3379 24.0585 23.3379 24.2147 23.2468L32.2303 18.8103C32.2807 18.7794 32.3458 18.7794 32.3962 18.8103L35.567 20.6031L35.6223 20.6389L35.632 20.6438C35.6971 20.6796 35.6971 20.7707 35.632 20.8048L24.0471 27.1496C23.9967 27.1756 23.9316 27.1756 23.8812 27.1496L12.2051 20.7593L2.65375 15.5338L2.62284 15.5191V15.5142L2.57729 15.4947L0.0930575 14.1363C0.0377439 14.1054 0.00195312 14.0452 0.00195312 13.9801V13.1878C0.00195312 13.1276 0.0377439 13.0674 0.0930575 13.0365L2.65213 11.6374L15.4133 4.65163C15.4133 4.65163 15.4279 4.64675 15.4328 4.64187L23.8779 0.0231829C23.9283 -0.00772763 23.9934 -0.00772763 24.0438 0.0231829L44.4627 11.1949C44.5782 11.26 44.5782 11.4324 44.4627 11.4975L44.4643 11.4959Z" fill="url(#paint2_linear_26_1607)"/>
<path d="M38.467 24.3856L41.4686 22.6318C41.5222 22.6009 41.5548 22.544 41.5548 22.4822V21.3352C41.5548 21.2734 41.5206 21.2165 41.4669 21.1856L38.9323 19.7442H38.9274L38.8981 19.7246L35.0863 17.5576L35.0571 17.5414H35.0522L31.0794 15.28C31.0257 15.2491 30.9606 15.2491 30.9085 15.28L28.1396 16.8532C28.0225 16.9199 28.0225 17.0875 28.1396 17.1542L31.7122 19.1861L31.7854 19.2252H31.7887L35.5581 21.3743L35.6297 21.4133H35.633L38.127 22.8368C38.2897 22.9296 38.3889 23.102 38.3889 23.2875V24.3417C38.3889 24.3807 38.4312 24.4051 38.4654 24.3856H38.467Z" fill="url(#paint3_linear_26_1607)"/>
<path d="M23.8158 32.1456L23.78 32.1245L0.257048 19.2234C0.14154 19.16 0 19.2445 0 19.3747V22.7895C0 22.8529 0.0341673 22.9115 0.0894808 22.9408L20.1081 33.9238L20.1504 33.9449H20.152L23.8499 35.9753C23.902 36.0029 23.9638 36.0029 24.0159 35.9753L47.7763 22.9408C47.8316 22.9099 47.8658 22.8513 47.8658 22.7895V19.3747C47.8658 19.2429 47.7242 19.16 47.6087 19.2234L24.0468 32.1489C23.9736 32.1896 23.8857 32.1879 23.8141 32.1456" fill="url(#paint4_linear_26_1607)"/>
<path d="M70.2388 25.9814C70.234 25.8464 70.2226 25.7049 70.2047 25.5633H62.9244V28.355H66.2009C65.8512 28.9976 65.3598 29.5166 64.7286 29.9054C64.1023 30.3008 63.3913 30.4927 62.6088 30.4927C62.0394 30.4927 61.5042 30.3854 61.0063 30.1706C60.5101 29.951 60.0758 29.663 59.7146 29.297C59.3486 28.9358 59.0606 28.5014 58.8459 28.0053C58.6262 27.5091 58.5189 26.9738 58.5189 26.4028C58.5189 25.8318 58.6262 25.3079 58.8459 24.8068C59.0606 24.3041 59.3486 23.8714 59.7146 23.5037C60.0758 23.1425 60.5101 22.8497 61.0063 22.635C61.5025 22.4153 62.0378 22.308 62.6088 22.308C63.2856 22.308 63.894 22.4544 64.4472 22.7358C65.0003 23.0238 65.4623 23.4126 65.8398 23.9039L68.7779 21.8899C68.067 20.9251 67.1657 20.1524 66.0822 19.5781C64.9987 19.0087 63.8208 18.7207 62.5454 18.7207C61.4846 18.7207 60.4809 18.9241 59.5454 19.3292C58.61 19.7359 57.7965 20.2825 57.1035 20.9755C56.4104 21.6686 55.8622 22.482 55.4571 23.4175C55.0504 24.3594 54.8486 25.3583 54.8486 26.4174C54.8486 27.4765 55.052 28.4819 55.4571 29.4239C55.8638 30.3593 56.4104 31.1728 57.1035 31.8658C57.7965 32.5589 58.61 33.1071 59.5454 33.5122C60.4809 33.9189 61.4863 34.1207 62.5454 34.1207C63.6044 34.1207 64.6099 33.9173 65.5453 33.5122C66.4873 33.1055 67.2991 32.5589 67.9938 31.8658C68.6868 31.1728 69.2351 30.3593 69.6401 29.4239C70.0469 28.4819 70.2486 27.483 70.2486 26.4174C70.2486 26.2645 70.2437 26.1181 70.2372 25.9782L70.2388 25.9814Z" fill="#96E221"/>
<path d="M79.7702 18.9028V28.6999C79.7702 29.445 79.5669 29.9737 79.1504 30.3072C78.7388 30.6342 78.2475 30.7985 77.6732 30.7985C77.0989 30.7985 76.6076 30.6342 76.196 30.3072C75.7844 29.9737 75.5762 29.445 75.5762 28.6999V18.9028H71.9434V29.1001C71.9434 29.9411 72.1012 30.6684 72.4054 31.2833C72.7161 31.8983 73.1277 32.4059 73.6467 32.8109C74.1592 33.2177 74.7692 33.5219 75.4623 33.7253C76.1504 33.9286 76.8891 34.0295 77.6732 34.0295C78.4574 34.0295 79.196 33.9286 79.889 33.7253C80.5772 33.5219 81.1856 33.2177 81.7111 32.8109C82.2349 32.4042 82.653 31.8967 82.9638 31.2833C83.268 30.6684 83.4258 29.9411 83.4258 29.1001V18.9028H79.7719H79.7702Z" fill="#96E221"/>
<path d="M88.749 30.7025V18.9321H85.1162V33.9172H92.7576V30.7025H88.7474H88.749Z" fill="#96E221"/>
<path d="M102.487 22.1405V18.9307H94.4502V33.9158H98.083V28.0167H102.256V24.8069H98.083V22.1388H102.487V22.1405Z" fill="#96E221"/>
<path d="M136.613 23.7251C136.957 23.3704 137.386 23.0873 137.916 22.8791C138.44 22.6643 139.05 22.5635 139.75 22.5635C140.212 22.5635 140.619 22.5911 140.968 22.6481C141.318 22.705 141.629 22.7782 141.899 22.8677C142.176 22.9572 142.423 23.0597 142.649 23.1719C142.869 23.2842 143.088 23.4029 143.298 23.5266V19.6237C143.09 19.5115 142.875 19.4041 142.667 19.2967C142.459 19.1959 142.216 19.1047 141.945 19.0267C141.668 18.9469 141.348 18.8851 140.98 18.8347C140.607 18.7891 140.162 18.7615 139.643 18.7615C138.328 18.7615 137.178 18.9811 136.179 19.4269C135.187 19.8661 134.357 20.442 133.698 21.1579C133.033 21.8688 132.53 22.6855 132.198 23.5998C131.86 24.5141 131.69 25.456 131.69 26.4192C131.69 27.3823 131.86 28.3372 132.198 29.2678C132.532 30.1984 133.039 31.0216 133.716 31.7439C134.398 32.4597 135.244 33.047 136.259 33.4928C137.269 33.9434 138.447 34.1647 139.795 34.1647C140.715 34.1647 141.453 34.0752 142.006 33.8946C142.56 33.714 142.987 33.5221 143.298 33.3301V29.4224C142.932 29.6485 142.486 29.8502 141.956 30.0259C141.421 30.2 140.687 30.2846 139.75 30.2846C139.05 30.2846 138.442 30.1772 137.916 29.969C137.386 29.7607 136.958 29.4777 136.613 29.123C136.27 28.7618 136.01 28.3568 135.836 27.8931C135.662 27.4311 135.577 26.9398 135.577 26.4208C135.577 25.9018 135.662 25.417 135.836 24.955C136.01 24.4929 136.27 24.0862 136.613 23.7251Z" fill="#96E221"/>
<path d="M153.432 18.9321V24.8084H148.645V18.9321H145.012V33.9172H148.645V28.041H153.432V33.9172H157.081V18.9321H153.432Z" fill="#96E221"/>
<path d="M167.001 18.9761H162.828L158.209 33.9547H161.863L162.556 31.7942H167.316L167.988 33.9547H171.621L167.002 18.9761H167.001ZM163.539 28.4559L164.972 23.8599L166.33 28.4559H163.539Z" fill="#96E221"/>
<path d="M183.684 18.9321V27.7465L176.235 18.9321H172.919V33.9172H176.552V25.2265L183.686 33.9172H187.335V18.9321H183.686H183.684Z" fill="#96E221"/>
<path d="M204.421 26.0269C204.417 25.8854 204.405 25.7455 204.387 25.6039H197.107V28.3956H200.384C200.034 29.0383 199.542 29.5572 198.911 29.9526C198.285 30.3414 197.574 30.5399 196.791 30.5399C196.222 30.5399 195.687 30.4325 195.189 30.2129C194.693 29.9981 194.258 29.7053 193.897 29.3441C193.531 28.9781 193.243 28.5486 193.028 28.0524C192.809 27.5562 192.701 27.0209 192.701 26.445C192.701 25.8691 192.809 25.3566 193.028 24.8491C193.243 24.3464 193.531 23.9136 193.897 23.5524C194.258 23.1864 194.693 22.8984 195.189 22.6788C195.685 22.4641 196.22 22.3567 196.791 22.3567C197.463 22.3567 198.077 22.4982 198.63 22.7846C199.183 23.0725 199.645 23.4613 200.022 23.9461L202.961 21.9321C202.25 20.9673 201.348 20.2011 200.265 19.6252C199.181 19.0493 198.003 18.7629 196.728 18.7629C195.667 18.7629 194.663 18.9663 193.728 19.3714C192.793 19.7781 191.979 20.3296 191.286 21.0178C190.593 21.7108 190.045 22.5291 189.64 23.4662C189.233 24.4017 189.031 25.4006 189.031 26.4662C189.031 27.5318 189.235 28.5307 189.64 29.4661C190.046 30.4016 190.593 31.2199 191.286 31.9081C191.979 32.6011 192.793 33.1542 193.728 33.5544C194.663 33.9612 195.669 34.1629 196.728 34.1629C197.787 34.1629 198.792 33.9595 199.728 33.5544C200.67 33.1542 201.482 32.6011 202.176 31.9081C202.869 31.2199 203.418 30.4016 203.823 29.4661C204.229 28.5307 204.431 27.5253 204.431 26.4662C204.431 26.3132 204.426 26.1668 204.42 26.0269H204.421Z" fill="#96E221"/>
<path d="M214.16 22.1405V18.9307H206.123V33.9158H214.16V30.7011H209.756V28.0167H213.913V24.8069H209.756V22.1388H214.16V22.1405Z" fill="#96E221"/>
<path d="M130.06 33.9156H125.894L123.372 28.8414L124.605 26.3572L123.372 23.912L125.82 18.9321H129.948L125.76 26.3604L130.06 33.9156Z" fill="#CCFF33"/>
<path d="M117.442 31.1338H107.123V33.9157H117.442V31.1338Z" fill="#CCFF33"/>
<path d="M117.462 18.9321H107.123V21.7206H117.462V18.9321Z" fill="#CCFF33"/>
<path d="M124.5 23.912L122.051 18.9321H117.935L121.282 24.8849L107.123 24.8783V27.5789H110.733V27.5659L121.423 27.5724L117.821 33.9156H121.978L124.5 28.8414L125.733 26.3572L124.5 23.912Z" fill="#38B000"/>
<defs>
<linearGradient id="paint0_linear_26_1607" x1="23.8444" y1="65.1044" x2="23.9729" y2="15.2376" gradientUnits="userSpaceOnUse">
<stop stop-color="#007200"/>
<stop offset="0.5" stop-color="#CCFF33"/>
<stop offset="1" stop-color="#38B000"/>
</linearGradient>
<linearGradient id="paint1_linear_26_1607" x1="23.8444" y1="73.9351" x2="23.9729" y2="24.0667" gradientUnits="userSpaceOnUse">
<stop stop-color="#007200"/>
<stop offset="0.5" stop-color="#CCFF33"/>
<stop offset="1" stop-color="#38B000"/>
</linearGradient>
<linearGradient id="paint2_linear_26_1607" x1="32.2644" y1="-7.11552" x2="15.7663" y2="24.8964" gradientUnits="userSpaceOnUse">
<stop stop-color="#007200"/>
<stop offset="0.5" stop-color="#CCFF33"/>
<stop offset="1" stop-color="#38B000"/>
</linearGradient>
<linearGradient id="paint3_linear_26_1607" x1="34.7642" y1="35.3507" x2="34.8326" y2="8.38535" gradientUnits="userSpaceOnUse">
<stop stop-color="#007200"/>
<stop offset="0.5" stop-color="#CCFF33"/>
<stop offset="1" stop-color="#38B000"/>
</linearGradient>
<linearGradient id="paint4_linear_26_1607" x1="23.845" y1="56.2786" x2="23.9736" y2="6.4118" gradientUnits="userSpaceOnUse">
<stop stop-color="#007200"/>
<stop offset="0.5" stop-color="#CCFF33"/>
<stop offset="1" stop-color="#38B000"/>
</linearGradient>
</defs>
</svg>
