<svg width="130" height="50" viewBox="0 0 130 50" fill="none" xmlns="http://www.w3.org/2000/svg">
<path fill-rule="evenodd" clip-rule="evenodd" d="M64.5593 0.299681C54.3425 1.80775 49.1064 7.27251 49.1496 16.3814C49.1938 25.6392 54.0274 30.9062 63.9992 32.5619C68.0264 33.2308 74.9764 33.0048 78.6055 32.0869C84.829 30.5131 88.7664 27.0396 90.2925 21.7766C90.5518 20.8826 90.6775 20.0642 90.5721 19.9572C90.4666 19.8505 87.3895 19.7775 83.7343 19.7948L77.0884 19.8263L76.5268 21.1524C75.3505 23.9293 72.3705 25.4295 68.9019 24.991C65.3642 24.5437 63.2077 22.6321 62.3347 19.1703C61.4906 15.8236 62.1702 12.1886 64.0057 10.2311C65.8867 8.22533 69.5117 7.32508 72.4588 8.13216C74.4042 8.66475 76.4129 10.7328 76.6904 12.4883L76.8978 13.8012H83.836H90.7742L90.5988 12.6208C89.5653 5.67158 84.4761 1.521 75.474 0.285201C72.66 -0.101025 67.2252 -0.0937846 64.5593 0.299681ZM0.20744 0.790725C0.0933014 0.905931 0 7.9883 0 16.5293V32.058H5.59809H11.1962V20.0441C11.1962 13.4367 11.264 8.0991 11.3467 8.18283C11.4297 8.26656 13.0917 13.6375 15.0402 20.118L18.5828 31.9006L23.442 31.9872C26.9013 32.0489 28.3014 31.9714 28.3014 31.7177C28.3014 31.5219 29.8761 26.1154 31.8002 19.7032L35.299 8.04465L35.3805 20.0513L35.462 32.058H41.0564H46.6507V16.3194V0.580772H37.8079C29.654 0.580772 28.953 0.623581 28.8071 1.13162C27.063 7.19728 23.5244 19.068 23.3953 19.2848C23.1552 19.6887 23.0806 19.4476 20.3571 9.47308L17.9294 0.580772H9.17215C4.35562 0.580772 0.321268 0.675203 0.20744 0.790725ZM89.9432 1.91855C90.5322 2.65418 93.2178 6.04773 95.9114 9.45923L100.808 15.6621L94.5181 23.1518C91.0585 27.2712 87.9456 30.9604 87.6004 31.3497L86.9728 32.058L94.5691 32.0473L102.165 32.0369L104.809 28.0827C106.262 25.908 107.545 24.0706 107.658 23.9998C107.771 23.9293 109.031 25.71 110.457 27.9574L113.05 32.0435L120.63 32.0507L128.21 32.058L126.829 30.4054C118.09 19.9424 114.722 15.642 114.991 15.291C115.154 15.0776 117.829 11.7498 120.934 7.89576C124.039 4.04169 126.579 0.816536 126.579 0.728715C126.579 0.640893 123.405 0.606898 119.525 0.653484L112.471 0.738158L110.238 3.87108C109.01 5.59446 107.881 7.04084 107.729 7.08554C107.577 7.13024 106.542 5.68512 105.431 3.87423L103.409 0.581716L96.1409 0.581401L88.8724 0.580772L89.9432 1.91855ZM11.1293 41.1826C11.3473 42.6866 11.0525 43.1386 10.131 42.7137C8.52837 41.9746 7.12605 43.9488 7.62397 46.2429C7.89641 47.4982 9.01385 48.0553 10.2849 47.5696C10.7909 47.3767 11.1962 47.3496 11.1962 47.5092C11.1962 47.6672 11.3361 47.7966 11.5072 47.7966C11.6972 47.7966 11.8182 46.3276 11.8182 44.0193C11.8182 41.0907 11.7255 40.2421 11.4055 40.2421C11.1243 40.2421 11.0363 40.5417 11.1293 41.1826ZM79.9282 41.6696C79.9282 43.0086 79.8887 43.076 79.2944 42.7539C77.2691 41.6566 75.34 45.3398 76.9796 47.1737C77.577 47.8419 79.1349 48.0169 79.4785 47.4544C79.629 47.208 79.7821 47.208 80.0256 47.4544C80.7399 48.1775 80.8612 47.6786 80.8612 44.0193C80.8612 40.8716 80.7835 40.2421 80.3947 40.2421C80.0486 40.2421 79.9282 40.6107 79.9282 41.6696ZM106.053 44.0455C106.053 46.9477 106.145 47.8183 106.441 47.7192C106.68 47.6398 106.865 46.8677 106.92 45.7257C107.02 43.6407 107.576 42.8673 108.584 43.4131C109.057 43.6693 109.163 44.0993 109.163 45.7616C109.163 47.3606 109.263 47.7966 109.629 47.7966C109.996 47.7966 110.096 47.3594 110.096 45.7506C110.096 44.0942 109.972 43.5793 109.445 43.0461C108.836 42.4291 108.448 42.4001 107.294 42.8865C106.908 43.0492 106.845 42.833 106.937 41.6629C107.026 40.5232 106.95 40.2421 106.551 40.2421C106.121 40.2421 106.053 40.768 106.053 44.0455ZM0.62201 44.1767C0.62201 46.3801 0.743612 47.7966 0.933014 47.7966C1.12242 47.7966 1.24402 46.3801 1.24402 44.1767C1.24402 41.9733 1.12242 40.5568 0.933014 40.5568C0.743612 40.5568 0.62201 41.9733 0.62201 44.1767ZM13.0622 41.029C13.0622 41.2887 13.2721 41.5012 13.5287 41.5012C13.7853 41.5012 13.9952 41.2887 13.9952 41.029C13.9952 40.7693 13.7853 40.5568 13.5287 40.5568C13.2721 40.5568 13.0622 40.7693 13.0622 41.029ZM19.1414 41.6906C18.8547 43.2378 19.1725 43.4175 19.7448 42.0319C20.3214 40.6346 20.3235 40.5568 19.7833 40.5568C19.5336 40.5568 19.2627 41.0353 19.1414 41.6906ZM46.3739 40.9963C45.3122 41.5918 44.8083 42.69 44.7956 44.437C44.7866 45.7112 44.9343 46.1078 45.7112 46.8941C46.5207 47.7135 46.8246 47.8196 48.1215 47.7355C48.9375 47.6826 49.5667 47.4994 49.5197 47.3285C49.4728 47.1579 49.0106 47.0629 48.4928 47.1179C46.3997 47.3402 44.9623 45.0754 45.8427 42.9425C46.3674 41.6721 47.5542 41.0406 48.9055 41.3129C49.5291 41.4388 49.7608 41.3595 49.7608 41.0211C49.7608 40.4209 47.4301 40.4035 46.3739 40.9963ZM81.937 40.8927C81.6509 41.3614 81.9827 41.616 82.578 41.385C82.8529 41.2783 82.9907 41.0482 82.884 40.8738C82.6321 40.4611 82.1951 40.4696 81.937 40.8927ZM93.3014 44.1767V47.7966H95.1933C96.5695 47.7966 97.0497 47.6893 96.9545 47.4031C96.827 47.0201 96.5539 46.9552 94.7787 46.8856C93.9937 46.8551 93.9234 46.7487 93.9234 45.5932V44.3341H95.323C96.0927 44.3341 96.7225 44.1925 96.7225 44.0193C96.7225 43.8462 96.0927 43.7046 95.323 43.7046C93.9309 43.7046 93.9234 43.6986 93.9234 42.6029C93.9234 41.5071 93.9309 41.5012 95.323 41.5012C96.3595 41.5012 96.7225 41.3787 96.7225 41.029C96.7225 40.6664 96.325 40.5568 95.012 40.5568H93.3014V44.1767ZM25.8134 44.3341C25.8134 48.5316 26.3735 49.0245 26.5013 44.9397L26.5909 42.0825L28.2887 44.9397C29.2226 46.5111 30.0972 47.7966 30.2325 47.7966C30.3678 47.7966 30.4785 46.2385 30.4785 44.3341C30.4785 42.0208 30.3646 40.8716 30.1354 40.8716C29.904 40.8716 29.8282 41.7401 29.9022 43.5472C29.9625 45.0187 29.942 46.219 29.8565 46.2139C29.7709 46.2092 29.0267 45.0052 28.2025 43.5384C26.1431 39.8731 25.8134 39.983 25.8134 44.3341ZM39.5754 41.2569C38.7089 41.6784 38.6473 42.2465 39.4976 41.9733C40.0904 41.7829 40.1196 41.9167 40.1196 44.8113C40.1196 47.1013 40.2154 47.8167 40.5084 47.7182C40.9923 47.5555 41.0666 41.1307 40.5861 41.0007C40.4151 40.9544 39.9604 41.0699 39.5754 41.2569ZM84.2823 42.1307C84.2823 42.4804 84.0749 42.7602 83.8158 42.7602C83.5592 42.7602 83.3493 42.9019 83.3493 43.075C83.3493 43.2481 83.5527 43.3898 83.8015 43.3898C84.1436 43.3898 84.2764 43.9079 84.3457 45.5145C84.435 47.5718 84.4649 47.6424 85.2931 47.7387C86.2743 47.8529 86.4609 47.3232 85.5263 47.0758C84.9979 46.936 84.9043 46.6464 84.9043 45.1506C84.9043 43.5997 84.9783 43.3898 85.5263 43.3898C85.8684 43.3898 86.1483 43.2481 86.1483 43.075C86.1483 42.9019 85.8684 42.7602 85.5263 42.7602C85.1117 42.7602 84.9043 42.5503 84.9043 42.1307C84.9043 41.7844 84.7644 41.5012 84.5933 41.5012C84.4222 41.5012 84.2823 41.7844 84.2823 42.1307ZM4.1205 42.7703C3.73548 42.9268 3.20428 42.9711 2.94055 42.8685C2.52847 42.7086 2.47342 43.0303 2.55211 45.1355C2.61213 46.7487 2.77665 47.6332 3.0323 47.7188C3.31438 47.8133 3.42105 47.3301 3.42105 45.9568C3.42105 44.1525 3.88787 43.075 4.66974 43.075C5.30854 43.075 5.90909 44.5582 5.90909 46.1355C5.90909 47.049 6.04904 47.7966 6.2201 47.7966C6.39768 47.7966 6.5311 46.8583 6.5311 45.6111C6.5311 43.7093 6.44122 43.3618 5.83974 42.9356C5.05818 42.3813 5.0728 42.3828 4.1205 42.7703ZM15.628 42.6538C14.9705 42.9223 15.1985 43.4741 15.8911 43.2906C16.8064 43.0486 17.4163 43.3533 17.4163 44.053C17.4163 44.4304 17.1976 44.6489 16.8198 44.6489C15.2868 44.6489 14.3006 45.98 14.9388 47.1872C15.1994 47.6798 15.5549 47.7827 16.8048 47.7277L18.3493 47.6597V45.5425C18.3493 43.7118 18.256 43.3593 17.6579 42.9356C16.9641 42.4436 16.3514 42.3586 15.628 42.6538ZM20.5263 43.075C19.5955 44.0171 19.7177 44.375 21.3676 45.5409C22.5833 46.4003 22.4465 47.2533 21.1154 47.112C20.6289 47.0603 20.1923 47.1579 20.1453 47.3285C20.0191 47.7872 22.0484 47.9014 22.5681 47.4648C23.3922 46.7726 23.1024 45.6244 21.9258 44.9218C21.3272 44.5645 20.8373 44.0886 20.8373 43.8645C20.8373 43.3596 21.6127 43.0335 22.2368 43.2758C22.4934 43.3756 22.7033 43.3155 22.7033 43.1424C22.7033 42.8333 21.9967 42.4455 21.4338 42.4455C21.2768 42.4455 20.8684 42.7288 20.5263 43.075ZM51.429 42.8068C50.0404 43.5015 49.6762 45.6288 50.7165 46.9672C52.1005 48.7482 54.7368 47.5325 54.7368 45.1135C54.7368 43.2765 52.9626 42.0391 51.429 42.8068ZM56.9832 42.9356C56.5957 43.2101 56.2919 43.2793 56.2919 43.093C56.2919 42.9101 56.1171 42.7599 55.9031 42.7596C55.6161 42.759 55.5408 43.4175 55.6157 45.2778C55.7327 48.1844 56.2919 48.7201 56.2919 45.9259C56.2919 44.3508 56.4007 43.9778 56.9817 43.5661C58.0077 42.8386 58.5526 43.5698 58.7189 45.8985C58.8937 48.344 59.4019 48.3676 59.4019 45.9303C59.4019 44.6536 59.5562 43.9082 59.8905 43.5695C60.1595 43.2976 60.4295 43.075 60.4904 43.075C60.5514 43.075 60.8213 43.2976 61.0904 43.5695C61.4262 43.9095 61.5789 44.6561 61.5789 45.9568C61.5789 47.3298 61.6856 47.8136 61.9677 47.7198C62.4949 47.5445 62.6392 45.3851 62.2187 43.9595C61.8184 42.6019 60.9377 42.1798 59.9176 42.8562C59.3198 43.2525 59.1348 43.2563 58.6291 42.8824C57.8904 42.3356 57.8264 42.3375 56.9832 42.9356ZM65 42.7577C64.7434 42.9246 64.2887 42.9834 63.9892 42.8893C63.5019 42.7357 63.445 42.9834 63.445 45.2573C63.445 47.3046 63.5355 47.7966 63.9115 47.7966C64.2738 47.7966 64.378 47.3795 64.378 45.9303C64.378 44.6536 64.5322 43.9082 64.8666 43.5695C65.933 42.4905 66.555 43.3171 66.555 45.8135C66.555 46.9256 66.6916 47.7966 66.866 47.7966C67.0371 47.7966 67.177 47.1683 67.177 46.4006C67.177 43.8978 68.152 42.533 69.1895 43.5831C69.5093 43.9066 69.6651 44.6756 69.6651 45.9303C69.6651 46.9647 69.8038 47.7966 69.9761 47.7966C70.1537 47.7966 70.2871 46.8548 70.2871 45.6004C70.2871 43.6051 70.2159 43.357 69.5096 42.8887C68.8129 42.4266 68.6577 42.4222 68.0189 42.8462C67.4072 43.2516 67.2215 43.257 66.7152 42.8824C66.0241 42.3709 65.6394 42.3429 65 42.7577ZM72.5621 42.7555C71.0805 43.3747 70.7132 45.9457 71.9398 47.1123C73.6661 48.7535 76.1085 47.3106 75.7832 44.8415C75.6945 44.1685 75.4361 43.4342 75.2094 43.2097C74.63 42.6368 73.3657 42.42 72.5621 42.7555ZM103.098 42.809C102.084 43.3703 101.699 44.0672 101.699 45.3385C101.699 46.8882 102.561 47.7966 104.031 47.7966C104.63 47.7966 105.12 47.6549 105.12 47.4818C105.12 47.3087 104.717 47.167 104.225 47.167C103.214 47.167 102.776 46.7582 102.471 45.5287C102.306 44.8617 102.436 44.5031 103.082 43.8494C103.573 43.353 104.097 43.0936 104.384 43.205C105.049 43.4634 105.614 43.0712 105.075 42.7256C104.511 42.3639 103.852 42.3916 103.098 42.809ZM111.884 42.6623C111.585 42.7417 111.34 42.9529 111.34 43.1323C111.34 43.3164 111.655 43.3778 112.067 43.2733C112.909 43.0593 114.027 43.7527 113.701 44.2863C113.58 44.4858 113.165 44.6489 112.78 44.6489C111.585 44.6489 110.968 45.3404 111.082 46.5514L111.184 47.6392H112.875H114.565L114.494 45.5932C114.437 43.9686 114.29 43.4339 113.78 42.9963C113.133 42.442 112.884 42.3979 111.884 42.6623ZM117.249 42.7577C116.992 42.9246 116.537 42.9834 116.238 42.8893C115.751 42.7357 115.694 42.9834 115.694 45.2573C115.694 47.3046 115.784 47.7966 116.16 47.7966C116.527 47.7966 116.627 47.3606 116.627 45.7616C116.627 44.0115 116.719 43.6769 117.285 43.3703C118.308 42.8163 118.893 43.6532 119.054 45.8985C119.24 48.5045 119.737 48.2955 119.737 45.6111C119.737 43.7093 119.647 43.3618 119.045 42.9356C118.249 42.3706 117.899 42.3359 117.249 42.7577ZM122.012 42.7621C120.593 43.3416 120.155 46.0169 121.292 47.167C121.986 47.8699 122.597 47.9543 123.489 47.4708C124.007 47.1903 124.091 47.2511 124.091 47.9042C124.091 48.9874 123.355 49.485 122.067 49.2735C120.969 49.0935 120.566 49.4567 121.473 49.8089C122.149 50.0718 123.547 50.0406 123.994 49.7526C124.669 49.3179 125.024 47.7821 125.024 45.2913C125.024 42.9403 124.992 42.8276 124.324 42.8443C123.939 42.854 123.414 42.7769 123.158 42.6734C122.901 42.5695 122.386 42.6098 122.012 42.7621ZM126.633 43.1738C125.732 44.1452 125.703 46.2803 126.579 47.167C127.236 47.8322 129.689 48.0802 129.689 47.4818C129.689 47.3087 129.207 47.167 128.618 47.167C127.873 47.167 127.404 46.9599 127.076 46.4862C126.413 45.5287 126.701 45.2784 128.463 45.2784C129.862 45.2784 130 45.2129 130 44.551C130 43.5963 128.918 42.4455 128.02 42.4455C127.63 42.4455 127.005 42.7735 126.633 43.1738ZM13.0622 45.2784C13.0622 47.3068 13.153 47.7966 13.5287 47.7966C13.9044 47.7966 13.9952 47.3068 13.9952 45.2784C13.9952 43.25 13.9044 42.7602 13.5287 42.7602C13.153 42.7602 13.0622 43.25 13.0622 45.2784ZM32.1666 43.415C31.2992 44.3848 31.376 46.4368 32.3084 47.2007C33.2526 47.9748 34.2376 47.9559 35.2571 47.1441C36.2193 46.3782 36.3813 44.5998 35.5923 43.46C34.938 42.5141 32.9948 42.4886 32.1666 43.415ZM82.1053 45.2784C82.1053 46.7475 82.235 47.7966 82.4163 47.7966C82.5976 47.7966 82.7273 46.7475 82.7273 45.2784C82.7273 43.8094 82.5976 42.7602 82.4163 42.7602C82.235 42.7602 82.1053 43.8094 82.1053 45.2784ZM87.3743 45.2797L88.2828 47.7994L87.5267 48.7091C86.6546 49.7579 86.5962 50 87.2157 50C87.8763 50 88.7266 48.5766 89.7479 45.76C90.2483 44.3804 90.7045 43.1408 90.7615 43.0058C90.8187 42.8707 90.6632 42.7602 90.4162 42.7602C90.1419 42.7602 89.7246 43.5094 89.3433 44.6866C88.6588 46.8 88.6441 46.7972 87.8753 44.4128C87.5668 43.4562 87.1578 42.7602 86.9041 42.7602C86.5663 42.7602 86.6739 43.3375 87.3743 45.2797ZM98.0132 43.969L98.7008 45.1777L97.987 46.3464C97.5945 46.9892 97.356 47.5986 97.4571 47.7006C97.7186 47.9656 98.53 47.2193 98.753 46.5092C99.0149 45.6735 99.2985 45.7556 99.9386 46.8523C100.242 47.3717 100.708 47.7966 100.975 47.7966C101.404 47.7966 101.408 47.7166 101.004 47.0884C99.6559 44.9882 99.6742 45.1317 100.599 43.9051C101.272 43.0117 101.352 42.7602 100.965 42.7602C100.692 42.7602 100.23 43.1295 99.9377 43.5805L99.4068 44.4011L98.8162 43.5805C98.4915 43.1295 98.0231 42.7602 97.7759 42.7602C97.4244 42.7602 97.4767 43.0253 98.0132 43.969ZM10.5742 43.7046C11.32 44.4594 11.3725 45.5132 10.7119 46.4673C10.1795 47.2372 9.3488 47.3748 8.77034 46.7893C8.22701 46.2394 8.31378 44.3196 8.91184 43.6507C9.56495 42.9201 9.80691 42.928 10.5742 43.7046ZM34.8568 43.5764C35.0829 43.8525 35.2679 44.5475 35.2679 45.121C35.2679 45.6945 35.0829 46.3896 34.8568 46.6656C34.2905 47.3562 33.0564 47.2958 32.6664 46.5583C31.6006 44.5422 33.5133 41.9384 34.8568 43.5764ZM53.7447 44.906C53.8732 46.2026 53.3233 47.167 52.4556 47.167C51.4445 47.167 51.0048 46.5809 51.0048 45.2334C51.0048 42.8644 53.5127 42.5648 53.7447 44.906ZM74.8268 44.5006C75.1344 45.7421 74.722 46.8199 73.8549 47.0399C72.7617 47.3178 72.1531 46.6804 72.1531 45.2576C72.1531 43.1049 74.328 42.4892 74.8268 44.5006ZM79.4396 43.5695C80.0156 44.1528 80.0906 46.2473 79.555 46.7893C78.6189 47.7368 77.1292 46.795 77.1292 45.2561C77.1292 44.3788 78.0454 43.075 78.6621 43.075C78.8207 43.075 79.1706 43.2976 79.4396 43.5695ZM123.489 43.4008C123.94 43.6448 124.091 44.064 124.091 45.0691C124.091 46.4897 123.682 47.167 122.823 47.167C121.504 47.167 120.923 44.3568 122.067 43.5103C122.77 42.9894 122.735 42.9922 123.489 43.4008ZM128.867 43.7681C129.322 44.499 129.022 44.7087 127.69 44.591C126.577 44.4927 126.569 44.4811 127.066 43.7659C127.63 42.9567 128.363 42.9576 128.867 43.7681ZM17.7273 45.614C17.7273 46.3379 17.0521 47.167 16.4624 47.167C15.7751 47.167 15.3867 46.479 15.6628 45.7506C15.8668 45.2123 17.7273 45.0889 17.7273 45.614ZM113.828 45.845C113.828 47.0116 112.146 47.7041 111.763 46.6949C111.445 45.8563 111.903 45.2784 112.885 45.2784C113.585 45.2784 113.828 45.4242 113.828 45.845ZM36.8973 46.756C36.5256 47.1321 36.6967 47.7966 37.1651 47.7966C37.4217 47.7966 37.6316 47.5926 37.6316 47.343C37.6316 46.817 37.1878 46.4623 36.8973 46.756Z" fill="#B1B5C4"/>
</svg>
