<svg width="266" height="67" viewBox="0 0 266 67" fill="none" xmlns="http://www.w3.org/2000/svg">
<path d="M59.7059 34.8356L30.6882 50.7925C30.4948 50.8996 30.263 50.8996 30.0696 50.7925L1.05191 34.8356C0.908833 34.7568 0.733521 34.8598 0.733521 35.0235V39.2642C0.733521 39.343 0.775835 39.4158 0.844349 39.4521L30.2751 55.6394C30.3396 55.6737 30.4162 55.6737 30.4807 55.6394L59.9115 39.4521C59.98 39.4138 60.0223 39.341 60.0223 39.2642V35.0235C60.0223 34.8598 59.847 34.7568 59.7039 34.8356H59.7059Z" fill="url(#paint0_linear_247_1136)"/>
<path d="M59.7059 45.8004L30.6882 61.7594C30.4948 61.8665 30.263 61.8665 30.0696 61.7594L1.05191 45.8004C0.908833 45.7216 0.733521 45.8247 0.733521 45.9883V50.2311C0.733521 50.3099 0.775835 50.3827 0.844349 50.419L30.2751 66.6042C30.3396 66.6386 30.4162 66.6386 30.4807 66.6042L59.9115 50.419C59.98 50.3806 60.0223 50.3099 60.0223 50.2311V45.9883C60.0223 45.8247 59.847 45.7216 59.7039 45.8004H59.7059Z" fill="url(#paint1_linear_247_1136)"/>
<path d="M55.8067 14.2765L51.9497 16.3958C51.8812 16.4342 51.8066 16.4342 51.7442 16.3958L30.7225 4.86759C30.529 4.76051 30.2973 4.76051 30.1038 4.86759L24.395 7.99512L23.595 8.43961L8.40104 16.8221C8.40104 16.9029 8.43932 16.9918 8.51993 17.0343L8.55822 17.0585H8.56426L20.395 23.554L30.1059 28.8757C30.2993 28.9828 30.531 28.9828 30.7245 28.8696L40.653 23.3601C40.7155 23.3217 40.7961 23.3217 40.8585 23.3601L44.786 25.5865L44.8545 25.631L44.8666 25.637C44.9472 25.6815 44.9472 25.7946 44.8666 25.837L30.5169 33.7165C30.4545 33.7488 30.3739 33.7488 30.3114 33.7165L15.8489 25.7805L4.01816 19.291L3.97987 19.2728V19.2668L3.92345 19.2425L0.846367 17.5555C0.777853 17.5171 0.733521 17.4424 0.733521 17.3616V16.3776C0.733521 16.3029 0.777853 16.2281 0.846367 16.1898L4.01615 14.4522L19.8227 5.77675C19.8227 5.77675 19.8409 5.77069 19.8469 5.76463L30.3074 0.0287903C30.3698 -0.00959677 30.4504 -0.00959677 30.5129 0.0287903L55.8046 13.9027C55.9477 13.9835 55.9477 14.1977 55.8046 14.2785L55.8067 14.2765Z" fill="url(#paint2_linear_247_1136)"/>
<path d="M48.3793 30.2841L52.0972 28.1061C52.1637 28.0677 52.204 27.997 52.204 27.9202V26.4959C52.204 26.4191 52.1617 26.3484 52.0952 26.31L48.9556 24.52H48.9496L48.9133 24.4957L44.1919 21.8046L44.1556 21.7844H44.1496L39.2286 18.9761C39.1621 18.9377 39.0815 18.9377 39.0171 18.9761L35.5873 20.9298C35.4422 21.0126 35.4422 21.2207 35.5873 21.3035L40.0125 23.827L40.1032 23.8755H40.1072L44.7763 26.5444L44.8649 26.5929H44.869L47.9581 28.3607C48.1596 28.4758 48.2826 28.69 48.2826 28.9203V30.2295C48.2826 30.278 48.335 30.3083 48.3773 30.2841H48.3793Z" fill="url(#paint3_linear_247_1136)"/>
<path d="M30.231 39.9215L30.1867 39.8952L1.05008 23.8737C0.907008 23.7949 0.731689 23.8999 0.731689 24.0616V28.3023C0.731689 28.3811 0.774011 28.4539 0.842525 28.4902L25.6385 42.1298L25.6909 42.156H25.6929L30.2733 44.6775C30.3378 44.7118 30.4144 44.7118 30.4788 44.6775L59.9096 28.4902C59.9781 28.4518 60.0205 28.3791 60.0205 28.3023V24.0616C60.0205 23.8979 59.8451 23.7949 59.7021 23.8737L30.5171 39.9255C30.4264 39.9761 30.3176 39.974 30.229 39.9215" fill="url(#paint4_linear_247_1136)"/>
<path d="M87.7329 32.266C87.7269 32.0983 87.7128 31.9225 87.6906 31.7467H78.673V35.2137H82.7314C82.2982 36.0117 81.6896 36.6562 80.9077 37.1391C80.1319 37.63 79.2513 37.8684 78.282 37.8684C77.5767 37.8684 76.9138 37.7351 76.2971 37.4684C75.6825 37.1957 75.1445 36.8381 74.6971 36.3835C74.2437 35.935 73.8871 35.3955 73.6211 34.7793C73.349 34.1631 73.216 33.4984 73.216 32.7892C73.216 32.0801 73.349 31.4295 73.6211 30.8072C73.8871 30.183 74.2437 29.6455 74.6971 29.1889C75.1445 28.7404 75.6825 28.3767 76.2971 28.11C76.9118 27.8373 77.5747 27.7039 78.282 27.7039C79.1203 27.7039 79.874 27.8858 80.5591 28.2353C81.2443 28.5929 81.8165 29.0758 82.284 29.6859L85.9233 27.1847C85.0427 25.9866 83.9264 25.027 82.5843 24.3138C81.2422 23.6066 79.7833 23.249 78.2034 23.249C76.8896 23.249 75.6463 23.5016 74.4876 24.0046C73.3289 24.5097 72.3213 25.1886 71.4629 26.0493C70.6044 26.9099 69.9253 27.9201 69.4236 29.0818C68.9198 30.2516 68.6699 31.4921 68.6699 32.8074C68.6699 34.1227 68.9218 35.3713 69.4236 36.5411C69.9274 37.7028 70.6044 38.713 71.4629 39.5736C72.3213 40.4343 73.3289 41.1152 74.4876 41.6183C75.6463 42.1233 76.8916 42.3739 78.2034 42.3739C79.5153 42.3739 80.7606 42.1213 81.9193 41.6183C83.0861 41.1132 84.0916 40.4343 84.9521 39.5736C85.8105 38.713 86.4896 37.7028 86.9914 36.5411C87.4952 35.3713 87.745 34.1308 87.745 32.8074C87.745 32.6175 87.739 32.4357 87.7309 32.2619L87.7329 32.266Z" fill="#96E221"/>
<path d="M99.5397 23.4746V35.6413C99.5397 36.5666 99.2878 37.2233 98.7719 37.6374C98.2621 38.0435 97.6536 38.2476 96.9422 38.2476C96.2309 38.2476 95.6223 38.0435 95.1125 37.6374C94.6027 37.2233 94.3447 36.5666 94.3447 35.6413V23.4746H89.845V36.1383C89.845 37.1828 90.0404 38.086 90.4173 38.8497C90.8022 39.6134 91.312 40.2437 91.9548 40.7468C92.5896 41.2519 93.3452 41.6297 94.2037 41.8822C95.0561 42.1348 95.9709 42.26 96.9422 42.26C97.9135 42.26 98.8284 42.1348 99.6868 41.8822C100.539 41.6297 101.293 41.2519 101.944 40.7468C102.593 40.2417 103.11 39.6113 103.495 38.8497C103.872 38.086 104.068 37.1828 104.068 36.1383V23.4746H99.5417H99.5397Z" fill="#96E221"/>
<path d="M110.661 38.1291V23.5117H106.161V42.1214H115.626V38.1291H110.659H110.661Z" fill="#96E221"/>
<path d="M127.677 27.496V23.5098H117.722V42.1194H122.222V34.7935H127.391V30.8074H122.222V27.4939H127.677V27.496Z" fill="#96E221"/>
<path d="M169.948 29.463C170.373 29.0225 170.905 28.671 171.562 28.4124C172.211 28.1457 172.967 28.0204 173.833 28.0204C174.406 28.0204 174.91 28.0548 175.343 28.1255C175.776 28.1962 176.161 28.2871 176.495 28.3982C176.838 28.5094 177.144 28.6367 177.424 28.7761C177.696 28.9155 177.968 29.063 178.228 29.2165V24.3696C177.971 24.2302 177.705 24.0969 177.447 23.9635C177.189 23.8383 176.888 23.7251 176.552 23.6281C176.209 23.5292 175.812 23.4524 175.357 23.3897C174.895 23.3332 174.343 23.2988 173.7 23.2988C172.072 23.2988 170.648 23.5716 169.41 24.1252C168.181 24.6707 167.153 25.3859 166.337 26.2748C165.513 27.1577 164.89 28.172 164.479 29.3074C164.06 30.4429 163.851 31.6127 163.851 32.8087C163.851 34.0048 164.06 35.1908 164.479 36.3464C164.892 37.5021 165.521 38.5244 166.359 39.4214C167.204 40.3104 168.252 41.0397 169.509 41.5933C170.76 42.153 172.219 42.4277 173.89 42.4277C175.028 42.4277 175.943 42.3166 176.628 42.0923C177.314 41.8681 177.844 41.6297 178.228 41.3913V36.5383C177.775 36.8192 177.223 37.0697 176.566 37.2879C175.903 37.5041 174.994 37.6091 173.833 37.6091C172.967 37.6091 172.213 37.4758 171.562 37.2172C170.905 36.9586 170.376 36.607 169.948 36.1666C169.523 35.7181 169.201 35.215 168.985 34.6392C168.769 34.0654 168.665 33.4552 168.665 32.8108C168.665 32.1663 168.769 31.5642 168.985 30.9904C169.201 30.4166 169.523 29.9115 169.948 29.463Z" fill="#96E221"/>
<path d="M190.781 23.5117V30.8093H184.85V23.5117H180.35V42.1214H184.85V34.8238H190.781V42.1214H195.301V23.5117H190.781Z" fill="#96E221"/>
<path d="M207.586 23.5654H202.417L196.696 42.167H201.222L202.08 39.4839H207.977L208.809 42.167H213.309L207.588 23.5654H207.586ZM203.298 35.3382L205.073 29.6306L206.755 35.3382H203.298Z" fill="#96E221"/>
<path d="M228.251 23.5117V34.4581L219.024 23.5117H214.917V42.1214H219.417V31.3285L228.253 42.1214H232.773V23.5117H228.253H228.251Z" fill="#96E221"/>
<path d="M253.938 32.3227C253.932 32.147 253.917 31.9732 253.895 31.7974H244.878V35.2644H248.936C248.503 36.0624 247.894 36.7069 247.112 37.1979C246.337 37.6808 245.456 37.9272 244.487 37.9272C243.781 37.9272 243.118 37.7939 242.502 37.5211C241.887 37.2545 241.349 36.8908 240.902 36.4423C240.448 35.9877 240.092 35.4543 239.826 34.8381C239.554 34.2219 239.421 33.5572 239.421 32.842C239.421 32.1268 239.554 31.4903 239.826 30.86C240.092 30.2357 240.448 29.6983 240.902 29.2497C241.349 28.7952 241.887 28.4375 242.502 28.1648C243.116 27.8981 243.779 27.7648 244.487 27.7648C245.319 27.7648 246.079 27.9405 246.764 28.2961C247.449 28.6537 248.021 29.1366 248.489 29.7387L252.128 27.2374C251.247 26.0394 250.131 25.0878 248.789 24.3726C247.447 23.6573 245.988 23.3018 244.408 23.3018C243.094 23.3018 241.851 23.5543 240.692 24.0574C239.534 24.5625 238.526 25.2474 237.668 26.102C236.809 26.9627 236.13 27.9789 235.628 29.1427C235.125 30.3044 234.875 31.5449 234.875 32.8682C234.875 34.1916 235.127 35.4321 235.628 36.5938C236.132 37.7555 236.809 38.7718 237.668 39.6264C238.526 40.4871 239.534 41.174 240.692 41.671C241.851 42.1761 243.096 42.4266 244.408 42.4266C245.72 42.4266 246.965 42.1741 248.124 41.671C249.291 41.174 250.296 40.4871 251.157 39.6264C252.015 38.7718 252.694 37.7555 253.196 36.5938C253.7 35.4321 253.95 34.1835 253.95 32.8682C253.95 32.6783 253.944 32.4965 253.936 32.3227H253.938Z" fill="#96E221"/>
<path d="M266 27.496V23.5098H256.045V42.1194H266V38.1272H260.545V34.7935H265.694V30.8074H260.545V27.4939H266V27.496Z" fill="#96E221"/>
<path d="M161.831 42.1194H156.67L153.547 35.8178L155.074 32.7327L153.547 29.6961L156.58 23.5117H161.692L156.505 32.7368L161.831 42.1194Z" fill="#CCFF33"/>
<path d="M146.202 38.665H133.42V42.1199H146.202V38.665Z" fill="#CCFF33"/>
<path d="M146.226 23.5117H133.42V26.9746H146.226V23.5117Z" fill="#CCFF33"/>
<path d="M154.943 29.6961L151.91 23.5117H146.812L150.957 30.9043L133.42 30.8962V34.25H137.891V34.2338L151.132 34.2419L146.671 42.1194H151.82L154.943 35.8178L156.47 32.7327L154.943 29.6961Z" fill="#38B000"/>
<defs>
<linearGradient id="paint0_linear_247_1136" x1="30.2671" y1="80.8516" x2="30.4271" y2="18.9231" gradientUnits="userSpaceOnUse">
<stop stop-color="#007200"/>
<stop offset="0.5" stop-color="#CCFF33"/>
<stop offset="1" stop-color="#38B000"/>
</linearGradient>
<linearGradient id="paint1_linear_247_1136" x1="30.2671" y1="91.8185" x2="30.4271" y2="29.888" gradientUnits="userSpaceOnUse">
<stop stop-color="#007200"/>
<stop offset="0.5" stop-color="#CCFF33"/>
<stop offset="1" stop-color="#38B000"/>
</linearGradient>
<linearGradient id="paint2_linear_247_1136" x1="40.6953" y1="-8.83661" x2="20.1757" y2="30.8747" gradientUnits="userSpaceOnUse">
<stop stop-color="#007200"/>
<stop offset="0.5" stop-color="#CCFF33"/>
<stop offset="1" stop-color="#38B000"/>
</linearGradient>
<linearGradient id="paint3_linear_247_1136" x1="43.7929" y1="43.9014" x2="43.878" y2="10.4137" gradientUnits="userSpaceOnUse">
<stop stop-color="#007200"/>
<stop offset="0.5" stop-color="#CCFF33"/>
<stop offset="1" stop-color="#38B000"/>
</linearGradient>
<linearGradient id="paint4_linear_247_1136" x1="30.2673" y1="69.8917" x2="30.4273" y2="7.96324" gradientUnits="userSpaceOnUse">
<stop stop-color="#007200"/>
<stop offset="0.5" stop-color="#CCFF33"/>
<stop offset="1" stop-color="#38B000"/>
</linearGradient>
</defs>
</svg>
