<svg width="47" height="43" viewBox="0 0 47 43" fill="none" xmlns="http://www.w3.org/2000/svg">
<g filter="url(#filter0_b_336_1409)">
<path d="M7.30249 26.9582C7.30249 18.1447 14.4472 11 23.2607 11H23.6642C32.4776 11 39.6223 18.1447 39.6223 26.9582V26.9582C39.6223 35.7716 32.4776 42.9163 23.6642 42.9163H23.2607C14.4472 42.9163 7.30249 35.7716 7.30249 26.9582V26.9582Z" fill="url(#paint0_radial_336_1409)"/>
<path d="M23.2607 11.5H23.6642C32.2015 11.5 39.1223 18.4209 39.1223 26.9582C39.1223 35.4955 32.2015 42.4163 23.6642 42.4163H23.2607C14.7233 42.4163 7.80249 35.4955 7.80249 26.9582C7.80249 18.4209 14.7233 11.5 23.2607 11.5Z" stroke="url(#paint1_radial_336_1409)"/>
<path d="M23.2607 11.5H23.6642C32.2015 11.5 39.1223 18.4209 39.1223 26.9582C39.1223 35.4955 32.2015 42.4163 23.6642 42.4163H23.2607C14.7233 42.4163 7.80249 35.4955 7.80249 26.9582C7.80249 18.4209 14.7233 11.5 23.2607 11.5Z" stroke="url(#paint2_radial_336_1409)"/>
<path d="M23.2607 11.5H23.6642C32.2015 11.5 39.1223 18.4209 39.1223 26.9582C39.1223 35.4955 32.2015 42.4163 23.6642 42.4163H23.2607C14.7233 42.4163 7.80249 35.4955 7.80249 26.9582C7.80249 18.4209 14.7233 11.5 23.2607 11.5Z" stroke="url(#paint3_radial_336_1409)"/>
</g>
<g filter="url(#filter1_f_336_1409)">
<ellipse cx="23.3588" cy="19.5928" rx="10.2553" ry="6.54694" fill="url(#paint4_radial_336_1409)" fill-opacity="0.2"/>
</g>
<path fill-rule="evenodd" clip-rule="evenodd" d="M29.6914 19.0273C29.6247 19.0493 18.4309 23.3666 15.0364 24.6796C14.6604 24.825 14.5807 24.8723 14.4855 25.0066C14.42 25.0989 14.3725 25.2449 14.3725 25.3536C14.3725 25.5879 14.5256 25.821 14.7415 25.9154C14.7879 25.9357 15.6941 26.274 16.7552 26.6673C17.8163 27.0605 18.6866 27.3839 18.6891 27.386C18.6916 27.3881 18.9415 28.303 19.2445 29.4192C19.6082 30.7596 19.8103 31.4772 19.8397 31.5327C19.9969 31.83 20.3825 31.9536 20.6875 31.8046C20.7286 31.7845 21.2547 31.424 21.8566 31.0036C22.4585 30.5831 22.9603 30.2426 22.9716 30.2468C22.9829 30.251 23.8966 30.8499 25.002 31.5776C26.1074 32.3054 27.0557 32.9232 27.1093 32.9504C27.2005 32.9968 27.2181 33 27.3814 33C27.5412 33 27.5643 32.996 27.6547 32.953C27.7804 32.8931 27.9008 32.7765 27.9547 32.6624C27.988 32.5918 28.2611 31.2291 29.2646 26.1264C29.9619 22.5807 30.5324 19.6447 30.5324 19.602C30.5324 19.3783 30.3737 19.146 30.1539 19.048C30.0308 18.9932 29.8233 18.9839 29.6914 19.0273ZM26.9869 21.4664C26.9281 21.5224 25.4096 22.9397 23.6126 24.6159C21.8157 26.2921 20.3254 27.6891 20.3008 27.7202C20.2764 27.7514 20.2389 27.8257 20.2175 27.8854C20.1962 27.9452 20.1783 27.99 20.1778 27.9851C20.1692 27.9069 19.8223 26.6899 19.7924 26.6332C19.7434 26.5406 19.6185 26.4187 19.5255 26.3727C19.4716 26.3461 17.554 25.6305 16.9572 25.4143C16.8688 25.3823 16.7964 25.3516 16.7964 25.3462C16.7964 25.3407 17.3029 25.1409 17.9219 24.902C18.5408 24.6631 20.8541 23.77 23.0625 22.9171C25.2709 22.0643 27.0814 21.3661 27.0859 21.3656C27.0903 21.3651 27.0458 21.4105 26.9869 21.4664ZM27.9192 26.3479C27.389 29.0477 26.9494 31.2766 26.9423 31.3008C26.9294 31.3449 26.9241 31.3415 25.1402 30.1677C24.1562 29.5201 23.0111 28.7667 22.5956 28.4933L21.8401 27.9963L21.9937 27.8487C22.3319 27.5237 28.8724 21.4286 28.8776 21.4336C28.8806 21.4366 28.4493 23.648 27.9192 26.3479ZM21.1381 29.0336C21.5156 29.2799 21.8244 29.485 21.8244 29.4894C21.8244 29.5013 20.8141 30.2011 20.797 30.2011C20.7862 30.2011 20.4299 28.9278 20.3202 28.497C20.3106 28.4594 20.3152 28.4612 20.3808 28.521C20.4199 28.5566 20.7607 28.7873 21.1381 29.0336Z" fill="url(#paint5_linear_336_1409)"/>
<defs>
<filter id="filter0_b_336_1409" x="2.30249" y="6" width="42.3198" height="41.916" filterUnits="userSpaceOnUse" color-interpolation-filters="sRGB">
<feFlood flood-opacity="0" result="BackgroundImageFix"/>
<feGaussianBlur in="BackgroundImage" stdDeviation="2.5"/>
<feComposite in2="SourceAlpha" operator="in" result="effect1_backgroundBlur_336_1409"/>
<feBlend mode="normal" in="SourceGraphic" in2="effect1_backgroundBlur_336_1409" result="shape"/>
</filter>
<filter id="filter1_f_336_1409" x="0.148935" y="0.0913639" width="46.4197" height="39.0028" filterUnits="userSpaceOnUse" color-interpolation-filters="sRGB">
<feFlood flood-opacity="0" result="BackgroundImageFix"/>
<feBlend mode="normal" in="SourceGraphic" in2="BackgroundImageFix" result="shape"/>
<feGaussianBlur stdDeviation="6.47727" result="effect1_foregroundBlur_336_1409"/>
</filter>
<radialGradient id="paint0_radial_336_1409" cx="0" cy="0" r="1" gradientUnits="userSpaceOnUse" gradientTransform="translate(10.0061 11) rotate(47.6614) scale(47.9871 34.9)">
<stop stop-color="white" stop-opacity="0.36"/>
<stop offset="1" stop-color="white" stop-opacity="0"/>
</radialGradient>
<radialGradient id="paint1_radial_336_1409" cx="0" cy="0" r="1" gradientUnits="userSpaceOnUse" gradientTransform="translate(-9.90642 14.2651) rotate(34.7733) scale(37.1078 21.8262)">
<stop stop-color="white"/>
<stop offset="1" stop-color="white" stop-opacity="0.06"/>
</radialGradient>
<radialGradient id="paint2_radial_336_1409" cx="0" cy="0" r="1" gradientUnits="userSpaceOnUse" gradientTransform="translate(49.0844 32.3603) rotate(161.557) scale(26.9772 18.0895)">
<stop stop-color="#96E221"/>
<stop offset="1" stop-color="#CCFF33" stop-opacity="0.29"/>
</radialGradient>
<radialGradient id="paint3_radial_336_1409" cx="0" cy="0" r="1" gradientUnits="userSpaceOnUse" gradientTransform="translate(23.8143 3.70563) rotate(46.9308) scale(17.9398 12.9038)">
<stop/>
<stop offset="1" stop-color="white" stop-opacity="0"/>
</radialGradient>
<radialGradient id="paint4_radial_336_1409" cx="0" cy="0" r="1" gradientUnits="userSpaceOnUse" gradientTransform="translate(23.3588 13.0459) rotate(90) scale(9.70266 15.2004)">
<stop stop-color="white"/>
<stop offset="1" stop-color="white" stop-opacity="0"/>
</radialGradient>
<linearGradient id="paint5_linear_336_1409" x1="23.0584" y1="-13.4545" x2="-13.0372" y2="9.81785" gradientUnits="userSpaceOnUse">
<stop stop-color="#56C00B"/>
<stop offset="0.291667" stop-color="#53BF0A"/>
<stop offset="0.604167" stop-color="#92E01F"/>
</linearGradient>
</defs>
</svg>
